G04 #@! TF.FileFunction,Soldermask,Top*
%FSLAX46Y46*%
G04 Gerber Fmt 4.6, Leading zero omitted, Abs format (unit mm)*
G04 Created by KiCad (PCBNEW no-vcs-found-undefined) date Wed Nov 16 23:20:15 2016*
%MOMM*%
%LPD*%
G01*
G04 APERTURE LIST*
%ADD10C,0.100000*%
%ADD11R,0.800100X0.800100*%
%ADD12R,0.630000X0.450000*%
%ADD13R,0.850000X1.300000*%
%ADD14R,0.500000X0.900000*%
%ADD15O,1.727200X1.727200*%
%ADD16R,1.727200X1.727200*%
%ADD17R,0.800000X0.750000*%
%ADD18C,1.270000*%
%ADD19R,0.600000X1.270000*%
%ADD20R,1.200000X1.270000*%
%ADD21R,0.900000X0.500000*%
%ADD22R,0.750000X0.800000*%
%ADD23R,0.550000X1.600000*%
%ADD24R,1.600000X0.550000*%
%ADD25R,1.270000X0.600000*%
%ADD26O,1.270000X1.270000*%
%ADD27R,0.797560X0.797560*%
%ADD28R,1.550000X0.600000*%
%ADD29R,2.235200X2.235200*%
%ADD30R,1.500000X1.800000*%
%ADD31R,1.060000X0.650000*%
G04 APERTURE END LIST*
D10*
D11*
X107398820Y-96763800D03*
X107398820Y-98663800D03*
X109397800Y-97713800D03*
X92288360Y-102931000D03*
X92288360Y-101031000D03*
X90289380Y-101981000D03*
D12*
X109169200Y-86817200D03*
X109169200Y-85867200D03*
X109169200Y-84917200D03*
X106489200Y-84917200D03*
X106489200Y-85867200D03*
X106489200Y-86817200D03*
D13*
X107404200Y-85217200D03*
X107404200Y-86517200D03*
X108254200Y-85217200D03*
X108254200Y-86517200D03*
D14*
X90334400Y-90398600D03*
X91834400Y-90398600D03*
D15*
X108762800Y-109448600D03*
X108762800Y-111988600D03*
X106222800Y-109448600D03*
X106222800Y-111988600D03*
X103682800Y-109448600D03*
X103682800Y-111988600D03*
X101142800Y-109448600D03*
X101142800Y-111988600D03*
D16*
X90982800Y-111988600D03*
D15*
X90982800Y-109448600D03*
X93522800Y-111988600D03*
X93522800Y-109448600D03*
X96062800Y-111988600D03*
X96062800Y-109448600D03*
X98602800Y-111988600D03*
X98602800Y-109448600D03*
D17*
X108662600Y-100330000D03*
X107162600Y-100330000D03*
X107162600Y-101879400D03*
X108662600Y-101879400D03*
D18*
X90221000Y-107162600D03*
X93421000Y-107162600D03*
D19*
X93021000Y-107162600D03*
D20*
X91821000Y-107162600D03*
D19*
X90621000Y-107162600D03*
D21*
X95453200Y-88761000D03*
X95453200Y-87261000D03*
D11*
X92928440Y-97551200D03*
X92928440Y-99451200D03*
X94927420Y-98501200D03*
D17*
X97751200Y-103403400D03*
X99251200Y-103403400D03*
D22*
X94437200Y-101078600D03*
X94437200Y-102578600D03*
D23*
X98323800Y-99187000D03*
X99123800Y-99187000D03*
X99923800Y-99187000D03*
X100723800Y-99187000D03*
X101523800Y-99187000D03*
X102323800Y-99187000D03*
X103123800Y-99187000D03*
X103923800Y-99187000D03*
D24*
X105373800Y-97737000D03*
X105373800Y-96937000D03*
X105373800Y-96137000D03*
X105373800Y-95337000D03*
X105373800Y-94537000D03*
X105373800Y-93737000D03*
X105373800Y-92937000D03*
X105373800Y-92137000D03*
D23*
X103923800Y-90687000D03*
X103123800Y-90687000D03*
X102323800Y-90687000D03*
X101523800Y-90687000D03*
X100723800Y-90687000D03*
X99923800Y-90687000D03*
X99123800Y-90687000D03*
X98323800Y-90687000D03*
D24*
X96873800Y-92137000D03*
X96873800Y-92937000D03*
X96873800Y-93737000D03*
X96873800Y-94537000D03*
X96873800Y-95337000D03*
X96873800Y-96137000D03*
X96873800Y-96937000D03*
X96873800Y-97737000D03*
D25*
X90119200Y-104457500D03*
X90119200Y-105346500D03*
D26*
X90119200Y-104140000D03*
X90119200Y-105664000D03*
D17*
X107555600Y-94615000D03*
X109055600Y-94615000D03*
D22*
X91744800Y-105779000D03*
X91744800Y-104279000D03*
D27*
X93827600Y-85966300D03*
X93827600Y-84467700D03*
D17*
X94996000Y-96012000D03*
X93496000Y-96012000D03*
D22*
X91592400Y-88823800D03*
X91592400Y-87323800D03*
D27*
X95453200Y-85991700D03*
X95453200Y-84493100D03*
D21*
X104902000Y-87108600D03*
X104902000Y-88608600D03*
D14*
X108916600Y-88646000D03*
X107416600Y-88646000D03*
D28*
X102793800Y-88214200D03*
X102793800Y-86944200D03*
X102793800Y-85674200D03*
X102793800Y-84404200D03*
X97393800Y-84404200D03*
X97393800Y-85674200D03*
X97393800Y-86944200D03*
X97393800Y-88214200D03*
D21*
X93827600Y-88761000D03*
X93827600Y-87261000D03*
D29*
X91084400Y-83794600D03*
D30*
X96239200Y-101447600D03*
X99239200Y-101447600D03*
D31*
X107137200Y-90134400D03*
X107137200Y-91084400D03*
X107137200Y-92034400D03*
X109337200Y-92034400D03*
X109337200Y-90134400D03*
D22*
X104927400Y-83972400D03*
X104927400Y-85472400D03*
D17*
X93521400Y-94488000D03*
X95021400Y-94488000D03*
D22*
X93751400Y-104189400D03*
X93751400Y-105689400D03*
D21*
X107721400Y-104661400D03*
X107721400Y-103161400D03*
X94564200Y-91528200D03*
X94564200Y-93028200D03*
X92710000Y-91477400D03*
X92710000Y-92977400D03*
D17*
X95846200Y-105791000D03*
X97346200Y-105791000D03*
M02*
