G04 #@! TF.FileFunction,Copper,L2,Bot,Signal*
%FSLAX46Y46*%
G04 Gerber Fmt 4.6, Leading zero omitted, Abs format (unit mm)*
G04 Created by KiCad (PCBNEW no-vcs-found-undefined) date Thu Nov 24 20:11:32 2016*
%MOMM*%
%LPD*%
G01*
G04 APERTURE LIST*
%ADD10C,0.100000*%
%ADD11R,1.200000X3.000000*%
%ADD12C,0.600000*%
%ADD13R,1.000000X2.000000*%
%ADD14O,1.727200X1.727200*%
%ADD15R,1.727200X1.727200*%
%ADD16R,2.235200X2.235200*%
%ADD17C,1.524000*%
%ADD18C,0.381000*%
%ADD19C,0.203200*%
%ADD20C,0.710000*%
%ADD21C,0.254000*%
G04 APERTURE END LIST*
D10*
D11*
X106132400Y-85902800D03*
X104132400Y-85902800D03*
X102132400Y-85902800D03*
X100132400Y-85902800D03*
X98132400Y-85902800D03*
X96132400Y-85902800D03*
X94132400Y-85902800D03*
X94132400Y-105602800D03*
X96132400Y-105602800D03*
X106132400Y-105602800D03*
D12*
X97345500Y-83451700D03*
X95135700Y-87807800D03*
X94932500Y-86813900D03*
X94932500Y-85813900D03*
X97345500Y-87378800D03*
X97345500Y-86378800D03*
X97345500Y-85378800D03*
X97345500Y-84378800D03*
X96951800Y-82715100D03*
X96126300Y-87972900D03*
X96316800Y-83680300D03*
X94818200Y-84823300D03*
X93862400Y-84709000D03*
X92862400Y-84709000D03*
X95862400Y-82715100D03*
X94862400Y-82715100D03*
X93862400Y-82715100D03*
X92862400Y-82715100D03*
X101517200Y-98418400D03*
X100517200Y-98418400D03*
X99517200Y-98418400D03*
X101517200Y-97418400D03*
X100517200Y-97418400D03*
X99517200Y-97418400D03*
X101517200Y-96418400D03*
X100517200Y-96418400D03*
X99517200Y-96418400D03*
D13*
X104851200Y-93395800D03*
X103581200Y-93395800D03*
X102311200Y-93395800D03*
X101041200Y-93395800D03*
X99771200Y-93395800D03*
X98501200Y-93395800D03*
X97231200Y-93395800D03*
X95961200Y-93395800D03*
D14*
X108762800Y-109448600D03*
X108762800Y-111988600D03*
X106222800Y-109448600D03*
X106222800Y-111988600D03*
X103682800Y-109448600D03*
X103682800Y-111988600D03*
X101142800Y-109448600D03*
X101142800Y-111988600D03*
D15*
X90982800Y-111988600D03*
D14*
X90982800Y-109448600D03*
X93522800Y-111988600D03*
X93522800Y-109448600D03*
X96062800Y-111988600D03*
X96062800Y-109448600D03*
X98602800Y-111988600D03*
X98602800Y-109448600D03*
D16*
X91084400Y-83794600D03*
D17*
X91059000Y-90398600D03*
X91084400Y-92938600D03*
X91084400Y-87858600D03*
X91084400Y-95478600D03*
X91084400Y-98018600D03*
D12*
X107484890Y-96164400D03*
X107797600Y-92798900D03*
X104711500Y-82994500D03*
X109054900Y-83375500D03*
X91351100Y-102171500D03*
X91605100Y-86614000D03*
X93726000Y-95605600D03*
X95148400Y-102793800D03*
X107340400Y-104216200D03*
X91821000Y-103581200D03*
X93573600Y-103454200D03*
X109804200Y-90805000D03*
X106565700Y-82778600D03*
X92465752Y-92084752D03*
X89560400Y-99542600D03*
X89560400Y-90322400D03*
X108190870Y-107382343D03*
X104555190Y-107573143D03*
X103637220Y-88104162D03*
X100737200Y-83950398D03*
X101346000Y-87833200D03*
X102061990Y-90339137D03*
X101900000Y-86393310D03*
X99961700Y-91541600D03*
X101783056Y-95204482D03*
X100557180Y-85812704D03*
X100685600Y-88519000D03*
X102531610Y-95023877D03*
X105959861Y-87669979D03*
X102908100Y-95783400D03*
X106132400Y-105602800D03*
X99597812Y-107884794D03*
X98348800Y-107746800D03*
X91592400Y-89560400D03*
X91084400Y-95478600D03*
X92202000Y-92938600D03*
X108297669Y-98417046D03*
X108204000Y-91262200D03*
X109431032Y-107174342D03*
X107874658Y-93841804D03*
X107942060Y-97015850D03*
X110052580Y-107795890D03*
X105664000Y-89712800D03*
X108407200Y-99923600D03*
X109212090Y-94647987D03*
X106008083Y-92450088D03*
X98933000Y-106883200D03*
X94132400Y-105602800D03*
X90424000Y-100406200D03*
X99898200Y-111506000D03*
X96578710Y-105927598D03*
X103213471Y-90165639D03*
X104699712Y-108568724D03*
X104198087Y-110659525D03*
D18*
X109880400Y-91305464D02*
X109804200Y-91229264D01*
X108190870Y-107382343D02*
X109880400Y-105692813D01*
X109880400Y-105692813D02*
X109880400Y-91305464D01*
X109804200Y-91229264D02*
X109804200Y-90805000D01*
X109448600Y-82575400D02*
X106768900Y-82575400D01*
X106768900Y-82575400D02*
X106565700Y-82778600D01*
X109804200Y-82931000D02*
X109448600Y-82575400D01*
X109804200Y-87807800D02*
X109804200Y-82931000D01*
X89560400Y-91592400D02*
X89560400Y-90322400D01*
X89560400Y-97942400D02*
X89560400Y-91592400D01*
X89560400Y-91592400D02*
X91973400Y-91592400D01*
X91973400Y-91592400D02*
X92465752Y-92084752D01*
X89560400Y-99542600D02*
X89560400Y-97942400D01*
X89636600Y-98018600D02*
X91084400Y-98018600D01*
X89560400Y-97942400D02*
X89636600Y-98018600D01*
X89560400Y-108026200D02*
X89560400Y-99542600D01*
X90982800Y-109448600D02*
X89560400Y-108026200D01*
X107044156Y-108115090D02*
X107458122Y-108115091D01*
X107458122Y-108115091D02*
X107890871Y-107682342D01*
X107890871Y-107682342D02*
X108190870Y-107382343D01*
X109804200Y-87807800D02*
X109804200Y-90805000D01*
X104949264Y-107873142D02*
X104855189Y-107873142D01*
X107044156Y-108115090D02*
X105191212Y-108115090D01*
X105191212Y-108115090D02*
X104949264Y-107873142D01*
X104855189Y-107873142D02*
X104555190Y-107573143D01*
X104130926Y-107573143D02*
X104555190Y-107573143D01*
X103735043Y-107573143D02*
X104130926Y-107573143D01*
X94754701Y-113220501D02*
X101734113Y-113220501D01*
X93522800Y-111988600D02*
X94754701Y-113220501D01*
X101734113Y-113220501D02*
X102450899Y-112503715D01*
X102450899Y-112503715D02*
X102450899Y-108857287D01*
X102450899Y-108857287D02*
X103735043Y-107573143D01*
D19*
X103637220Y-88104162D02*
X104132400Y-87608982D01*
X104132400Y-87608982D02*
X104132400Y-85902800D01*
X101118303Y-87605503D02*
X101346000Y-87833200D01*
X100737200Y-83950398D02*
X101118303Y-84331501D01*
X101118303Y-84331501D02*
X101118303Y-87605503D01*
X101226122Y-92125800D02*
X102061990Y-91289932D01*
X102061990Y-90763401D02*
X102061990Y-90339137D01*
X98568000Y-92125800D02*
X101226122Y-92125800D01*
X98501200Y-92192600D02*
X98568000Y-92125800D01*
X98501200Y-93395800D02*
X98501200Y-92192600D01*
X102061990Y-91289932D02*
X102061990Y-90763401D01*
X97231200Y-93395800D02*
X97231200Y-92192600D01*
X99961700Y-91541600D02*
X99537436Y-91541600D01*
X99537436Y-91541600D02*
X99470636Y-91608400D01*
X99470636Y-91608400D02*
X97815400Y-91608400D01*
X97231200Y-92192600D02*
X97815400Y-91608400D01*
X100939791Y-95204482D02*
X101358792Y-95204482D01*
X99771200Y-94035891D02*
X100939791Y-95204482D01*
X101358792Y-95204482D02*
X101783056Y-95204482D01*
X99771200Y-93395800D02*
X99771200Y-94035891D01*
X100118957Y-86151772D02*
X100118957Y-85727508D01*
X100685600Y-88519000D02*
X100118957Y-87952357D01*
X100118957Y-87952357D02*
X100118957Y-86151772D01*
X101092001Y-94649801D02*
X102157534Y-94649801D01*
X102157534Y-94649801D02*
X102531610Y-95023877D01*
X105959861Y-87669979D02*
X105959861Y-86075339D01*
X105959861Y-86075339D02*
X106132400Y-85902800D01*
X106173936Y-86151896D02*
X106173936Y-86576160D01*
X106132400Y-85902800D02*
X106173936Y-85944336D01*
X106173936Y-85944336D02*
X106173936Y-86151896D01*
X101041200Y-94599000D02*
X101092001Y-94649801D01*
X101057200Y-94615000D02*
X101092001Y-94649801D01*
X101041200Y-93395800D02*
X101041200Y-94599000D01*
X101041200Y-94599000D02*
X101057200Y-94615000D01*
X102908100Y-95783400D02*
X102905809Y-95781109D01*
X102905809Y-95781109D02*
X101539761Y-95781109D01*
X101415052Y-95656400D02*
X100888800Y-95656400D01*
X101539761Y-95781109D02*
X101415052Y-95656400D01*
X99882201Y-94649801D02*
X96012001Y-94649801D01*
X100888800Y-95656400D02*
X99882201Y-94649801D01*
X96012001Y-94649801D02*
X95961200Y-94599000D01*
X95961200Y-94599000D02*
X95961200Y-93395800D01*
X99597812Y-107903612D02*
X99597812Y-107884794D01*
X101142800Y-109448600D02*
X99597812Y-107903612D01*
X98885250Y-108077000D02*
X98679000Y-108077000D01*
X98679000Y-108077000D02*
X98348800Y-107746800D01*
X100083121Y-110870999D02*
X100025199Y-110870999D01*
X101142800Y-111930678D02*
X100083121Y-110870999D01*
X101142800Y-111988600D02*
X101142800Y-111930678D01*
X100025199Y-110870999D02*
X100025199Y-109216949D01*
X100025199Y-109216949D02*
X98885250Y-108077000D01*
X91059000Y-90398600D02*
X91059000Y-90093800D01*
X91059000Y-90093800D02*
X91592400Y-89560400D01*
X92202000Y-92938600D02*
X91084400Y-92938600D01*
X108496067Y-97794384D02*
X108297669Y-97992782D01*
X108277077Y-95073399D02*
X108496067Y-95292388D01*
X108496067Y-95292388D02*
X108496067Y-97794384D01*
X108277077Y-94222575D02*
X108277077Y-95073399D01*
X108460297Y-94039355D02*
X108277077Y-94222575D01*
X108204000Y-91262200D02*
X108204000Y-91686464D01*
X108460297Y-91942761D02*
X108460297Y-94039355D01*
X108204000Y-91686464D02*
X108460297Y-91942761D01*
X108297669Y-97992782D02*
X108297669Y-98417046D01*
X108020373Y-108585001D02*
X109431032Y-107174342D01*
X107086399Y-108585001D02*
X108020373Y-108585001D01*
X106222800Y-109448600D02*
X107086399Y-108585001D01*
X107874658Y-94266068D02*
X107874658Y-93841804D01*
X108064300Y-95363531D02*
X107874658Y-95173889D01*
X107942060Y-97015850D02*
X107942060Y-96591586D01*
X107942060Y-96591586D02*
X108064300Y-96469346D01*
X107874658Y-95173889D02*
X107874658Y-94266068D01*
X108064300Y-96469346D02*
X108064300Y-95363531D01*
X110052580Y-108220154D02*
X110052580Y-107795890D01*
X108994451Y-110870999D02*
X110052580Y-109812870D01*
X106222800Y-111988600D02*
X107340401Y-110870999D01*
X107340401Y-110870999D02*
X108994451Y-110870999D01*
X110052580Y-109812870D02*
X110052580Y-108220154D01*
D20*
X91084400Y-83794600D02*
X95083242Y-83794600D01*
X95083242Y-83794600D02*
X96132400Y-84843758D01*
X96132400Y-84843758D02*
X96132400Y-85902800D01*
D19*
X108632688Y-94926101D02*
X108632688Y-94369873D01*
X108851678Y-95145091D02*
X108632688Y-94926101D01*
X106088264Y-89712800D02*
X105664000Y-89712800D01*
X107480111Y-89712800D02*
X106088264Y-89712800D01*
X108851678Y-99479122D02*
X108851678Y-95145091D01*
X108815908Y-91048597D02*
X107480111Y-89712800D01*
X108632688Y-94369873D02*
X108815908Y-94186653D01*
X108815908Y-94186653D02*
X108815908Y-91048597D01*
X108407200Y-99923600D02*
X108851678Y-99479122D01*
D18*
X98933000Y-106883200D02*
X104952800Y-106883200D01*
X105422679Y-107556279D02*
X106819966Y-107556279D01*
X109321589Y-94757486D02*
X109212090Y-94647987D01*
X106819966Y-107556279D02*
X109321589Y-105054656D01*
X105164099Y-107297699D02*
X105422679Y-107556279D01*
X105164099Y-107094499D02*
X105164099Y-107297699D01*
X109321589Y-105054656D02*
X109321589Y-94757486D01*
X104952800Y-106883200D02*
X105164099Y-107094499D01*
X105732200Y-93395800D02*
X106008083Y-93119917D01*
X106008083Y-92874352D02*
X106008083Y-92450088D01*
X104851200Y-93395800D02*
X105732200Y-93395800D01*
X106008083Y-93119917D02*
X106008083Y-92874352D01*
X105181400Y-93065600D02*
X104851200Y-93395800D01*
D19*
X98602800Y-111988600D02*
X97459799Y-110845599D01*
X97459799Y-110845599D02*
X93228157Y-110845599D01*
X93228157Y-110845599D02*
X92379799Y-109997241D01*
X92379799Y-109153957D02*
X91107542Y-107881700D01*
X91107542Y-107881700D02*
X90228700Y-107881700D01*
X92379799Y-109997241D02*
X92379799Y-109153957D01*
X90228700Y-107881700D02*
X90228700Y-102115900D01*
X90228700Y-102115900D02*
X90424000Y-101920600D01*
X90424000Y-101920600D02*
X90424000Y-100406200D01*
X99898200Y-111506000D02*
X98602800Y-110210600D01*
X98602800Y-110210600D02*
X98602800Y-109448600D01*
X96253912Y-105602800D02*
X96278711Y-105627599D01*
X96278711Y-105627599D02*
X96578710Y-105927598D01*
X96132400Y-105602800D02*
X96253912Y-105602800D01*
X102311200Y-93395800D02*
X102311200Y-92192600D01*
X103213471Y-91290329D02*
X103213471Y-90589903D01*
X102311200Y-92192600D02*
X103213471Y-91290329D01*
X103213471Y-90589903D02*
X103213471Y-90165639D01*
X108762800Y-109448600D02*
X107899201Y-110312199D01*
X107899201Y-110312199D02*
X107013251Y-110312199D01*
X107013251Y-110312199D02*
X106759249Y-110566201D01*
X106759249Y-110566201D02*
X105686351Y-110566201D01*
X105686351Y-110566201D02*
X105105199Y-109985049D01*
X104999711Y-108868723D02*
X104699712Y-108568724D01*
X105105199Y-109985049D02*
X105105199Y-108974211D01*
X105105199Y-108974211D02*
X104999711Y-108868723D01*
X105686351Y-113106201D02*
X107645199Y-113106201D01*
X104198087Y-110659525D02*
X105105199Y-111566637D01*
X107645199Y-113106201D02*
X107899201Y-112852199D01*
X105105199Y-112525049D02*
X105686351Y-113106201D01*
X107899201Y-112852199D02*
X108762800Y-111988600D01*
X105105199Y-111566637D02*
X105105199Y-112525049D01*
D21*
G36*
X105884818Y-82642546D02*
X105884582Y-82913465D01*
X105988039Y-83163852D01*
X106179441Y-83355587D01*
X106429646Y-83459482D01*
X106700565Y-83459718D01*
X106950952Y-83356261D01*
X107142687Y-83164859D01*
X107150144Y-83146900D01*
X109211876Y-83146900D01*
X109232700Y-83167723D01*
X109232700Y-90413264D01*
X109227213Y-90418741D01*
X109123318Y-90668946D01*
X109123314Y-90673503D01*
X107821361Y-89371550D01*
X107664794Y-89266936D01*
X107480111Y-89230200D01*
X106144482Y-89230200D01*
X106050259Y-89135813D01*
X105800054Y-89031918D01*
X105529135Y-89031682D01*
X105278748Y-89135139D01*
X105087013Y-89326541D01*
X104983118Y-89576746D01*
X104982882Y-89847665D01*
X105086339Y-90098052D01*
X105277741Y-90289787D01*
X105527946Y-90393682D01*
X105798865Y-90393918D01*
X106049252Y-90290461D01*
X106144478Y-90195400D01*
X107280211Y-90195400D01*
X107794028Y-90709217D01*
X107627013Y-90875941D01*
X107523118Y-91126146D01*
X107522882Y-91397065D01*
X107626339Y-91647452D01*
X107735364Y-91756667D01*
X107758136Y-91871147D01*
X107862750Y-92027714D01*
X107977697Y-92142661D01*
X107977697Y-93160893D01*
X107739793Y-93160686D01*
X107489406Y-93264143D01*
X107297671Y-93455545D01*
X107193776Y-93705750D01*
X107193540Y-93976669D01*
X107296997Y-94227056D01*
X107392058Y-94322282D01*
X107392058Y-95173889D01*
X107428794Y-95358572D01*
X107533408Y-95515139D01*
X107581700Y-95563431D01*
X107581700Y-96278936D01*
X107496196Y-96406903D01*
X107473413Y-96521439D01*
X107365073Y-96629591D01*
X107261178Y-96879796D01*
X107260942Y-97150715D01*
X107364399Y-97401102D01*
X107555801Y-97592837D01*
X107806006Y-97696732D01*
X107926148Y-97696837D01*
X107851805Y-97808099D01*
X107829022Y-97922635D01*
X107720682Y-98030787D01*
X107616787Y-98280992D01*
X107616551Y-98551911D01*
X107720008Y-98802298D01*
X107911410Y-98994033D01*
X108161615Y-99097928D01*
X108369078Y-99098109D01*
X108369078Y-99242566D01*
X108272335Y-99242482D01*
X108021948Y-99345939D01*
X107830213Y-99537341D01*
X107726318Y-99787546D01*
X107726082Y-100058465D01*
X107829539Y-100308852D01*
X108020941Y-100500587D01*
X108271146Y-100604482D01*
X108542065Y-100604718D01*
X108750089Y-100518765D01*
X108750089Y-104817933D01*
X107120864Y-106447157D01*
X107120864Y-104102800D01*
X107091294Y-103954141D01*
X107007086Y-103828114D01*
X106881059Y-103743906D01*
X106732400Y-103714336D01*
X105532400Y-103714336D01*
X105383741Y-103743906D01*
X105257714Y-103828114D01*
X105173506Y-103954141D01*
X105143936Y-104102800D01*
X105143936Y-106349719D01*
X105135218Y-106347985D01*
X104952800Y-106311699D01*
X104952795Y-106311700D01*
X99324736Y-106311700D01*
X99319259Y-106306213D01*
X99069054Y-106202318D01*
X98798135Y-106202082D01*
X98547748Y-106305539D01*
X98356013Y-106496941D01*
X98252118Y-106747146D01*
X98251882Y-107018065D01*
X98271578Y-107065732D01*
X98213935Y-107065682D01*
X97963548Y-107169139D01*
X97771813Y-107360541D01*
X97667918Y-107610746D01*
X97667682Y-107881665D01*
X97771139Y-108132052D01*
X97962541Y-108323787D01*
X98018043Y-108346834D01*
X97722735Y-108544152D01*
X97452940Y-108947929D01*
X97358200Y-109424217D01*
X97358200Y-109472983D01*
X97452940Y-109949271D01*
X97722735Y-110353048D01*
X98126512Y-110622843D01*
X98383701Y-110674001D01*
X98458100Y-110748400D01*
X98126512Y-110814357D01*
X98117247Y-110820548D01*
X97801049Y-110504349D01*
X97644482Y-110399735D01*
X97459799Y-110362999D01*
X96927972Y-110362999D01*
X96942865Y-110353048D01*
X97212660Y-109949271D01*
X97307400Y-109472983D01*
X97307400Y-109424217D01*
X97212660Y-108947929D01*
X96942865Y-108544152D01*
X96539088Y-108274357D01*
X96062800Y-108179617D01*
X95586512Y-108274357D01*
X95182735Y-108544152D01*
X94912940Y-108947929D01*
X94818200Y-109424217D01*
X94818200Y-109472983D01*
X94912940Y-109949271D01*
X95182735Y-110353048D01*
X95197628Y-110362999D01*
X94331491Y-110362999D01*
X94512110Y-110203799D01*
X94725805Y-109767720D01*
X94665665Y-109575600D01*
X93649800Y-109575600D01*
X93649800Y-109595600D01*
X93395800Y-109595600D01*
X93395800Y-109575600D01*
X93375800Y-109575600D01*
X93375800Y-109321600D01*
X93395800Y-109321600D01*
X93395800Y-108306288D01*
X93649800Y-108306288D01*
X93649800Y-109321600D01*
X94665665Y-109321600D01*
X94725805Y-109129480D01*
X94512110Y-108693401D01*
X94147801Y-108372295D01*
X93841918Y-108245607D01*
X93649800Y-108306288D01*
X93395800Y-108306288D01*
X93203682Y-108245607D01*
X92897799Y-108372295D01*
X92569768Y-108661426D01*
X91448792Y-107540450D01*
X91292225Y-107435836D01*
X91107542Y-107399100D01*
X90711300Y-107399100D01*
X90711300Y-104102800D01*
X93143936Y-104102800D01*
X93143936Y-107102800D01*
X93173506Y-107251459D01*
X93257714Y-107377486D01*
X93383741Y-107461694D01*
X93532400Y-107491264D01*
X94732400Y-107491264D01*
X94881059Y-107461694D01*
X95007086Y-107377486D01*
X95091294Y-107251459D01*
X95120864Y-107102800D01*
X95120864Y-104102800D01*
X95143936Y-104102800D01*
X95143936Y-107102800D01*
X95173506Y-107251459D01*
X95257714Y-107377486D01*
X95383741Y-107461694D01*
X95532400Y-107491264D01*
X96732400Y-107491264D01*
X96881059Y-107461694D01*
X97007086Y-107377486D01*
X97091294Y-107251459D01*
X97120864Y-107102800D01*
X97120864Y-106348630D01*
X97155697Y-106313857D01*
X97259592Y-106063652D01*
X97259828Y-105792733D01*
X97156371Y-105542346D01*
X97120864Y-105506777D01*
X97120864Y-104102800D01*
X97091294Y-103954141D01*
X97007086Y-103828114D01*
X96881059Y-103743906D01*
X96732400Y-103714336D01*
X95532400Y-103714336D01*
X95383741Y-103743906D01*
X95257714Y-103828114D01*
X95173506Y-103954141D01*
X95143936Y-104102800D01*
X95120864Y-104102800D01*
X95091294Y-103954141D01*
X95007086Y-103828114D01*
X94881059Y-103743906D01*
X94732400Y-103714336D01*
X93532400Y-103714336D01*
X93383741Y-103743906D01*
X93257714Y-103828114D01*
X93173506Y-103954141D01*
X93143936Y-104102800D01*
X90711300Y-104102800D01*
X90711300Y-102315800D01*
X90765250Y-102261850D01*
X90869864Y-102105283D01*
X90906600Y-101920600D01*
X90906600Y-100886682D01*
X91000987Y-100792459D01*
X91104882Y-100542254D01*
X91105118Y-100271335D01*
X91001661Y-100020948D01*
X90810259Y-99829213D01*
X90560054Y-99725318D01*
X90289135Y-99725082D01*
X90208100Y-99758565D01*
X90241282Y-99678654D01*
X90241518Y-99407735D01*
X90138061Y-99157348D01*
X90131900Y-99151176D01*
X90131900Y-98682296D01*
X90436097Y-98987023D01*
X90856046Y-99161401D01*
X91310759Y-99161798D01*
X91731012Y-98988154D01*
X92052823Y-98666903D01*
X92227201Y-98246954D01*
X92227598Y-97792241D01*
X92053954Y-97371988D01*
X91732703Y-97050177D01*
X91312754Y-96875799D01*
X90858041Y-96875402D01*
X90437788Y-97049046D01*
X90131900Y-97354402D01*
X90131900Y-96142296D01*
X90436097Y-96447023D01*
X90856046Y-96621401D01*
X91310759Y-96621798D01*
X91731012Y-96448154D01*
X92052823Y-96126903D01*
X92227201Y-95706954D01*
X92227598Y-95252241D01*
X92053954Y-94831988D01*
X91732703Y-94510177D01*
X91312754Y-94335799D01*
X90858041Y-94335402D01*
X90437788Y-94509046D01*
X90131900Y-94814402D01*
X90131900Y-93602296D01*
X90436097Y-93907023D01*
X90856046Y-94081401D01*
X91310759Y-94081798D01*
X91731012Y-93908154D01*
X92033630Y-93606063D01*
X92065946Y-93619482D01*
X92336865Y-93619718D01*
X92587252Y-93516261D01*
X92778987Y-93324859D01*
X92882882Y-93074654D01*
X92883118Y-92803735D01*
X92828558Y-92671688D01*
X92851004Y-92662413D01*
X93042739Y-92471011D01*
X93073969Y-92395800D01*
X95072736Y-92395800D01*
X95072736Y-94395800D01*
X95102306Y-94544459D01*
X95186514Y-94670486D01*
X95312541Y-94754694D01*
X95461200Y-94784264D01*
X95515724Y-94784264D01*
X95619950Y-94940250D01*
X95670749Y-94991048D01*
X95670751Y-94991051D01*
X95827318Y-95095665D01*
X96012001Y-95132401D01*
X99682301Y-95132401D01*
X100547550Y-95997650D01*
X100704117Y-96102264D01*
X100888800Y-96139000D01*
X101223416Y-96139000D01*
X101355078Y-96226973D01*
X101539761Y-96263709D01*
X102425331Y-96263709D01*
X102521841Y-96360387D01*
X102772046Y-96464282D01*
X103042965Y-96464518D01*
X103293352Y-96361061D01*
X103485087Y-96169659D01*
X103588982Y-95919454D01*
X103589218Y-95648535D01*
X103485761Y-95398148D01*
X103294359Y-95206413D01*
X103208069Y-95170582D01*
X103212492Y-95159931D01*
X103212728Y-94889012D01*
X103166363Y-94776800D01*
X103358950Y-94776800D01*
X103454200Y-94681550D01*
X103454200Y-93522800D01*
X103434200Y-93522800D01*
X103434200Y-93268800D01*
X103454200Y-93268800D01*
X103454200Y-92110050D01*
X103708200Y-92110050D01*
X103708200Y-93268800D01*
X103728200Y-93268800D01*
X103728200Y-93522800D01*
X103708200Y-93522800D01*
X103708200Y-94681550D01*
X103803450Y-94776800D01*
X104156986Y-94776800D01*
X104207820Y-94755744D01*
X104351200Y-94784264D01*
X105351200Y-94784264D01*
X105499859Y-94754694D01*
X105625886Y-94670486D01*
X105710094Y-94544459D01*
X105739664Y-94395800D01*
X105739664Y-93965816D01*
X105914618Y-93931015D01*
X105950904Y-93923797D01*
X106136312Y-93799912D01*
X106412192Y-93524031D01*
X106412195Y-93524029D01*
X106536080Y-93338621D01*
X106579583Y-93119917D01*
X106579583Y-92841824D01*
X106585070Y-92836347D01*
X106688965Y-92586142D01*
X106689201Y-92315223D01*
X106585744Y-92064836D01*
X106394342Y-91873101D01*
X106144137Y-91769206D01*
X105873218Y-91768970D01*
X105622831Y-91872427D01*
X105465010Y-92029974D01*
X105351200Y-92007336D01*
X104351200Y-92007336D01*
X104207820Y-92035856D01*
X104156986Y-92014800D01*
X103803450Y-92014800D01*
X103708200Y-92110050D01*
X103454200Y-92110050D01*
X103358950Y-92014800D01*
X103171500Y-92014800D01*
X103554721Y-91631579D01*
X103659335Y-91475012D01*
X103696071Y-91290329D01*
X103696071Y-90646121D01*
X103790458Y-90551898D01*
X103894353Y-90301693D01*
X103894589Y-90030774D01*
X103791132Y-89780387D01*
X103599730Y-89588652D01*
X103349525Y-89484757D01*
X103078606Y-89484521D01*
X102828219Y-89587978D01*
X102636484Y-89779380D01*
X102586240Y-89900381D01*
X102448249Y-89762150D01*
X102198044Y-89658255D01*
X101927125Y-89658019D01*
X101676738Y-89761476D01*
X101485003Y-89952878D01*
X101381108Y-90203083D01*
X101380872Y-90474002D01*
X101484329Y-90724389D01*
X101579390Y-90819615D01*
X101579390Y-91090032D01*
X101026222Y-91643200D01*
X100642612Y-91643200D01*
X100642818Y-91406735D01*
X100539361Y-91156348D01*
X100347959Y-90964613D01*
X100097754Y-90860718D01*
X99826835Y-90860482D01*
X99576448Y-90963939D01*
X99467233Y-91072964D01*
X99352753Y-91095736D01*
X99307759Y-91125800D01*
X97815405Y-91125800D01*
X97815400Y-91125799D01*
X97630717Y-91162536D01*
X97474150Y-91267150D01*
X97474148Y-91267153D01*
X96889950Y-91851350D01*
X96785724Y-92007336D01*
X96731200Y-92007336D01*
X96596200Y-92034189D01*
X96461200Y-92007336D01*
X95461200Y-92007336D01*
X95312541Y-92036906D01*
X95186514Y-92121114D01*
X95102306Y-92247141D01*
X95072736Y-92395800D01*
X93073969Y-92395800D01*
X93146634Y-92220806D01*
X93146870Y-91949887D01*
X93043413Y-91699500D01*
X92852011Y-91507765D01*
X92601806Y-91403870D01*
X92593086Y-91403862D01*
X92377512Y-91188288D01*
X92328203Y-91155341D01*
X92192104Y-91064403D01*
X92155818Y-91057185D01*
X92033275Y-91032809D01*
X92201801Y-90626954D01*
X92202198Y-90172241D01*
X92126627Y-89989345D01*
X92169387Y-89946659D01*
X92273282Y-89696454D01*
X92273518Y-89425535D01*
X92170061Y-89175148D01*
X91978659Y-88983413D01*
X91728454Y-88879518D01*
X91640882Y-88879442D01*
X91662576Y-88870456D01*
X91745955Y-88699760D01*
X91084400Y-88038205D01*
X90422845Y-88699760D01*
X90506224Y-88870456D01*
X90937455Y-89014691D01*
X91193074Y-88996788D01*
X91015413Y-89174141D01*
X90981616Y-89255532D01*
X90832641Y-89255402D01*
X90412388Y-89429046D01*
X90090577Y-89750297D01*
X90049731Y-89848665D01*
X89946659Y-89745413D01*
X89696454Y-89641518D01*
X89431000Y-89641287D01*
X89431000Y-87711655D01*
X89928309Y-87711655D01*
X89960078Y-88165257D01*
X90072544Y-88436776D01*
X90243240Y-88520155D01*
X90904795Y-87858600D01*
X91264005Y-87858600D01*
X91925560Y-88520155D01*
X92096256Y-88436776D01*
X92240491Y-88005545D01*
X92208722Y-87551943D01*
X92096256Y-87280424D01*
X91925560Y-87197045D01*
X91264005Y-87858600D01*
X90904795Y-87858600D01*
X90243240Y-87197045D01*
X90072544Y-87280424D01*
X89928309Y-87711655D01*
X89431000Y-87711655D01*
X89431000Y-87017440D01*
X90422845Y-87017440D01*
X91084400Y-87678995D01*
X91745955Y-87017440D01*
X91662576Y-86846744D01*
X91231345Y-86702509D01*
X90777743Y-86734278D01*
X90506224Y-86846744D01*
X90422845Y-87017440D01*
X89431000Y-87017440D01*
X89431000Y-85457173D01*
X92532674Y-85445599D01*
X92581238Y-85435751D01*
X92622337Y-85408067D01*
X92649713Y-85366763D01*
X92659200Y-85318600D01*
X92659200Y-84530600D01*
X94778380Y-84530600D01*
X95143936Y-84896155D01*
X95143936Y-87402800D01*
X95173506Y-87551459D01*
X95257714Y-87677486D01*
X95383741Y-87761694D01*
X95532400Y-87791264D01*
X96732400Y-87791264D01*
X96881059Y-87761694D01*
X97007086Y-87677486D01*
X97091294Y-87551459D01*
X97120864Y-87402800D01*
X97120864Y-84402800D01*
X99143936Y-84402800D01*
X99143936Y-87402800D01*
X99173506Y-87551459D01*
X99257714Y-87677486D01*
X99383741Y-87761694D01*
X99532400Y-87791264D01*
X99636357Y-87791264D01*
X99636357Y-87952357D01*
X99673093Y-88137040D01*
X99777707Y-88293607D01*
X100004598Y-88520498D01*
X100004482Y-88653865D01*
X100107939Y-88904252D01*
X100299341Y-89095987D01*
X100549546Y-89199882D01*
X100820465Y-89200118D01*
X101070852Y-89096661D01*
X101262587Y-88905259D01*
X101366482Y-88655054D01*
X101366605Y-88514218D01*
X101480865Y-88514318D01*
X101731252Y-88410861D01*
X101903384Y-88239027D01*
X102956102Y-88239027D01*
X103059559Y-88489414D01*
X103250961Y-88681149D01*
X103501166Y-88785044D01*
X103772085Y-88785280D01*
X104022472Y-88681823D01*
X104214207Y-88490421D01*
X104318102Y-88240216D01*
X104318219Y-88105663D01*
X104473650Y-87950232D01*
X104578264Y-87793665D01*
X104578742Y-87791264D01*
X104732400Y-87791264D01*
X104881059Y-87761694D01*
X105007086Y-87677486D01*
X105091294Y-87551459D01*
X105120864Y-87402800D01*
X105120864Y-84402800D01*
X105143936Y-84402800D01*
X105143936Y-87402800D01*
X105173506Y-87551459D01*
X105257714Y-87677486D01*
X105278842Y-87691603D01*
X105278743Y-87804844D01*
X105382200Y-88055231D01*
X105573602Y-88246966D01*
X105823807Y-88350861D01*
X106094726Y-88351097D01*
X106345113Y-88247640D01*
X106536848Y-88056238D01*
X106640743Y-87806033D01*
X106640756Y-87791264D01*
X106732400Y-87791264D01*
X106881059Y-87761694D01*
X107007086Y-87677486D01*
X107091294Y-87551459D01*
X107120864Y-87402800D01*
X107120864Y-84402800D01*
X107091294Y-84254141D01*
X107007086Y-84128114D01*
X106881059Y-84043906D01*
X106732400Y-84014336D01*
X105532400Y-84014336D01*
X105383741Y-84043906D01*
X105257714Y-84128114D01*
X105173506Y-84254141D01*
X105143936Y-84402800D01*
X105120864Y-84402800D01*
X105091294Y-84254141D01*
X105007086Y-84128114D01*
X104881059Y-84043906D01*
X104732400Y-84014336D01*
X103532400Y-84014336D01*
X103383741Y-84043906D01*
X103257714Y-84128114D01*
X103173506Y-84254141D01*
X103143936Y-84402800D01*
X103143936Y-87402800D01*
X103173506Y-87551459D01*
X103194897Y-87583473D01*
X103060233Y-87717903D01*
X102956338Y-87968108D01*
X102956102Y-88239027D01*
X101903384Y-88239027D01*
X101922987Y-88219459D01*
X102026882Y-87969254D01*
X102027037Y-87791264D01*
X102732400Y-87791264D01*
X102881059Y-87761694D01*
X103007086Y-87677486D01*
X103091294Y-87551459D01*
X103120864Y-87402800D01*
X103120864Y-84402800D01*
X103091294Y-84254141D01*
X103007086Y-84128114D01*
X102881059Y-84043906D01*
X102732400Y-84014336D01*
X101532400Y-84014336D01*
X101482304Y-84024301D01*
X101459553Y-83990251D01*
X101418202Y-83948900D01*
X101418318Y-83815533D01*
X101314861Y-83565146D01*
X101123459Y-83373411D01*
X100873254Y-83269516D01*
X100602335Y-83269280D01*
X100351948Y-83372737D01*
X100160213Y-83564139D01*
X100056318Y-83814344D01*
X100056144Y-84014336D01*
X99532400Y-84014336D01*
X99383741Y-84043906D01*
X99257714Y-84128114D01*
X99173506Y-84254141D01*
X99143936Y-84402800D01*
X97120864Y-84402800D01*
X97091294Y-84254141D01*
X97007086Y-84128114D01*
X96881059Y-84043906D01*
X96732400Y-84014336D01*
X96343839Y-84014336D01*
X95603673Y-83274169D01*
X95364897Y-83114625D01*
X95083242Y-83058599D01*
X95083237Y-83058600D01*
X92659200Y-83058600D01*
X92659200Y-82431000D01*
X105972660Y-82431000D01*
X105884818Y-82642546D01*
X105884818Y-82642546D01*
G37*
X105884818Y-82642546D02*
X105884582Y-82913465D01*
X105988039Y-83163852D01*
X106179441Y-83355587D01*
X106429646Y-83459482D01*
X106700565Y-83459718D01*
X106950952Y-83356261D01*
X107142687Y-83164859D01*
X107150144Y-83146900D01*
X109211876Y-83146900D01*
X109232700Y-83167723D01*
X109232700Y-90413264D01*
X109227213Y-90418741D01*
X109123318Y-90668946D01*
X109123314Y-90673503D01*
X107821361Y-89371550D01*
X107664794Y-89266936D01*
X107480111Y-89230200D01*
X106144482Y-89230200D01*
X106050259Y-89135813D01*
X105800054Y-89031918D01*
X105529135Y-89031682D01*
X105278748Y-89135139D01*
X105087013Y-89326541D01*
X104983118Y-89576746D01*
X104982882Y-89847665D01*
X105086339Y-90098052D01*
X105277741Y-90289787D01*
X105527946Y-90393682D01*
X105798865Y-90393918D01*
X106049252Y-90290461D01*
X106144478Y-90195400D01*
X107280211Y-90195400D01*
X107794028Y-90709217D01*
X107627013Y-90875941D01*
X107523118Y-91126146D01*
X107522882Y-91397065D01*
X107626339Y-91647452D01*
X107735364Y-91756667D01*
X107758136Y-91871147D01*
X107862750Y-92027714D01*
X107977697Y-92142661D01*
X107977697Y-93160893D01*
X107739793Y-93160686D01*
X107489406Y-93264143D01*
X107297671Y-93455545D01*
X107193776Y-93705750D01*
X107193540Y-93976669D01*
X107296997Y-94227056D01*
X107392058Y-94322282D01*
X107392058Y-95173889D01*
X107428794Y-95358572D01*
X107533408Y-95515139D01*
X107581700Y-95563431D01*
X107581700Y-96278936D01*
X107496196Y-96406903D01*
X107473413Y-96521439D01*
X107365073Y-96629591D01*
X107261178Y-96879796D01*
X107260942Y-97150715D01*
X107364399Y-97401102D01*
X107555801Y-97592837D01*
X107806006Y-97696732D01*
X107926148Y-97696837D01*
X107851805Y-97808099D01*
X107829022Y-97922635D01*
X107720682Y-98030787D01*
X107616787Y-98280992D01*
X107616551Y-98551911D01*
X107720008Y-98802298D01*
X107911410Y-98994033D01*
X108161615Y-99097928D01*
X108369078Y-99098109D01*
X108369078Y-99242566D01*
X108272335Y-99242482D01*
X108021948Y-99345939D01*
X107830213Y-99537341D01*
X107726318Y-99787546D01*
X107726082Y-100058465D01*
X107829539Y-100308852D01*
X108020941Y-100500587D01*
X108271146Y-100604482D01*
X108542065Y-100604718D01*
X108750089Y-100518765D01*
X108750089Y-104817933D01*
X107120864Y-106447157D01*
X107120864Y-104102800D01*
X107091294Y-103954141D01*
X107007086Y-103828114D01*
X106881059Y-103743906D01*
X106732400Y-103714336D01*
X105532400Y-103714336D01*
X105383741Y-103743906D01*
X105257714Y-103828114D01*
X105173506Y-103954141D01*
X105143936Y-104102800D01*
X105143936Y-106349719D01*
X105135218Y-106347985D01*
X104952800Y-106311699D01*
X104952795Y-106311700D01*
X99324736Y-106311700D01*
X99319259Y-106306213D01*
X99069054Y-106202318D01*
X98798135Y-106202082D01*
X98547748Y-106305539D01*
X98356013Y-106496941D01*
X98252118Y-106747146D01*
X98251882Y-107018065D01*
X98271578Y-107065732D01*
X98213935Y-107065682D01*
X97963548Y-107169139D01*
X97771813Y-107360541D01*
X97667918Y-107610746D01*
X97667682Y-107881665D01*
X97771139Y-108132052D01*
X97962541Y-108323787D01*
X98018043Y-108346834D01*
X97722735Y-108544152D01*
X97452940Y-108947929D01*
X97358200Y-109424217D01*
X97358200Y-109472983D01*
X97452940Y-109949271D01*
X97722735Y-110353048D01*
X98126512Y-110622843D01*
X98383701Y-110674001D01*
X98458100Y-110748400D01*
X98126512Y-110814357D01*
X98117247Y-110820548D01*
X97801049Y-110504349D01*
X97644482Y-110399735D01*
X97459799Y-110362999D01*
X96927972Y-110362999D01*
X96942865Y-110353048D01*
X97212660Y-109949271D01*
X97307400Y-109472983D01*
X97307400Y-109424217D01*
X97212660Y-108947929D01*
X96942865Y-108544152D01*
X96539088Y-108274357D01*
X96062800Y-108179617D01*
X95586512Y-108274357D01*
X95182735Y-108544152D01*
X94912940Y-108947929D01*
X94818200Y-109424217D01*
X94818200Y-109472983D01*
X94912940Y-109949271D01*
X95182735Y-110353048D01*
X95197628Y-110362999D01*
X94331491Y-110362999D01*
X94512110Y-110203799D01*
X94725805Y-109767720D01*
X94665665Y-109575600D01*
X93649800Y-109575600D01*
X93649800Y-109595600D01*
X93395800Y-109595600D01*
X93395800Y-109575600D01*
X93375800Y-109575600D01*
X93375800Y-109321600D01*
X93395800Y-109321600D01*
X93395800Y-108306288D01*
X93649800Y-108306288D01*
X93649800Y-109321600D01*
X94665665Y-109321600D01*
X94725805Y-109129480D01*
X94512110Y-108693401D01*
X94147801Y-108372295D01*
X93841918Y-108245607D01*
X93649800Y-108306288D01*
X93395800Y-108306288D01*
X93203682Y-108245607D01*
X92897799Y-108372295D01*
X92569768Y-108661426D01*
X91448792Y-107540450D01*
X91292225Y-107435836D01*
X91107542Y-107399100D01*
X90711300Y-107399100D01*
X90711300Y-104102800D01*
X93143936Y-104102800D01*
X93143936Y-107102800D01*
X93173506Y-107251459D01*
X93257714Y-107377486D01*
X93383741Y-107461694D01*
X93532400Y-107491264D01*
X94732400Y-107491264D01*
X94881059Y-107461694D01*
X95007086Y-107377486D01*
X95091294Y-107251459D01*
X95120864Y-107102800D01*
X95120864Y-104102800D01*
X95143936Y-104102800D01*
X95143936Y-107102800D01*
X95173506Y-107251459D01*
X95257714Y-107377486D01*
X95383741Y-107461694D01*
X95532400Y-107491264D01*
X96732400Y-107491264D01*
X96881059Y-107461694D01*
X97007086Y-107377486D01*
X97091294Y-107251459D01*
X97120864Y-107102800D01*
X97120864Y-106348630D01*
X97155697Y-106313857D01*
X97259592Y-106063652D01*
X97259828Y-105792733D01*
X97156371Y-105542346D01*
X97120864Y-105506777D01*
X97120864Y-104102800D01*
X97091294Y-103954141D01*
X97007086Y-103828114D01*
X96881059Y-103743906D01*
X96732400Y-103714336D01*
X95532400Y-103714336D01*
X95383741Y-103743906D01*
X95257714Y-103828114D01*
X95173506Y-103954141D01*
X95143936Y-104102800D01*
X95120864Y-104102800D01*
X95091294Y-103954141D01*
X95007086Y-103828114D01*
X94881059Y-103743906D01*
X94732400Y-103714336D01*
X93532400Y-103714336D01*
X93383741Y-103743906D01*
X93257714Y-103828114D01*
X93173506Y-103954141D01*
X93143936Y-104102800D01*
X90711300Y-104102800D01*
X90711300Y-102315800D01*
X90765250Y-102261850D01*
X90869864Y-102105283D01*
X90906600Y-101920600D01*
X90906600Y-100886682D01*
X91000987Y-100792459D01*
X91104882Y-100542254D01*
X91105118Y-100271335D01*
X91001661Y-100020948D01*
X90810259Y-99829213D01*
X90560054Y-99725318D01*
X90289135Y-99725082D01*
X90208100Y-99758565D01*
X90241282Y-99678654D01*
X90241518Y-99407735D01*
X90138061Y-99157348D01*
X90131900Y-99151176D01*
X90131900Y-98682296D01*
X90436097Y-98987023D01*
X90856046Y-99161401D01*
X91310759Y-99161798D01*
X91731012Y-98988154D01*
X92052823Y-98666903D01*
X92227201Y-98246954D01*
X92227598Y-97792241D01*
X92053954Y-97371988D01*
X91732703Y-97050177D01*
X91312754Y-96875799D01*
X90858041Y-96875402D01*
X90437788Y-97049046D01*
X90131900Y-97354402D01*
X90131900Y-96142296D01*
X90436097Y-96447023D01*
X90856046Y-96621401D01*
X91310759Y-96621798D01*
X91731012Y-96448154D01*
X92052823Y-96126903D01*
X92227201Y-95706954D01*
X92227598Y-95252241D01*
X92053954Y-94831988D01*
X91732703Y-94510177D01*
X91312754Y-94335799D01*
X90858041Y-94335402D01*
X90437788Y-94509046D01*
X90131900Y-94814402D01*
X90131900Y-93602296D01*
X90436097Y-93907023D01*
X90856046Y-94081401D01*
X91310759Y-94081798D01*
X91731012Y-93908154D01*
X92033630Y-93606063D01*
X92065946Y-93619482D01*
X92336865Y-93619718D01*
X92587252Y-93516261D01*
X92778987Y-93324859D01*
X92882882Y-93074654D01*
X92883118Y-92803735D01*
X92828558Y-92671688D01*
X92851004Y-92662413D01*
X93042739Y-92471011D01*
X93073969Y-92395800D01*
X95072736Y-92395800D01*
X95072736Y-94395800D01*
X95102306Y-94544459D01*
X95186514Y-94670486D01*
X95312541Y-94754694D01*
X95461200Y-94784264D01*
X95515724Y-94784264D01*
X95619950Y-94940250D01*
X95670749Y-94991048D01*
X95670751Y-94991051D01*
X95827318Y-95095665D01*
X96012001Y-95132401D01*
X99682301Y-95132401D01*
X100547550Y-95997650D01*
X100704117Y-96102264D01*
X100888800Y-96139000D01*
X101223416Y-96139000D01*
X101355078Y-96226973D01*
X101539761Y-96263709D01*
X102425331Y-96263709D01*
X102521841Y-96360387D01*
X102772046Y-96464282D01*
X103042965Y-96464518D01*
X103293352Y-96361061D01*
X103485087Y-96169659D01*
X103588982Y-95919454D01*
X103589218Y-95648535D01*
X103485761Y-95398148D01*
X103294359Y-95206413D01*
X103208069Y-95170582D01*
X103212492Y-95159931D01*
X103212728Y-94889012D01*
X103166363Y-94776800D01*
X103358950Y-94776800D01*
X103454200Y-94681550D01*
X103454200Y-93522800D01*
X103434200Y-93522800D01*
X103434200Y-93268800D01*
X103454200Y-93268800D01*
X103454200Y-92110050D01*
X103708200Y-92110050D01*
X103708200Y-93268800D01*
X103728200Y-93268800D01*
X103728200Y-93522800D01*
X103708200Y-93522800D01*
X103708200Y-94681550D01*
X103803450Y-94776800D01*
X104156986Y-94776800D01*
X104207820Y-94755744D01*
X104351200Y-94784264D01*
X105351200Y-94784264D01*
X105499859Y-94754694D01*
X105625886Y-94670486D01*
X105710094Y-94544459D01*
X105739664Y-94395800D01*
X105739664Y-93965816D01*
X105914618Y-93931015D01*
X105950904Y-93923797D01*
X106136312Y-93799912D01*
X106412192Y-93524031D01*
X106412195Y-93524029D01*
X106536080Y-93338621D01*
X106579583Y-93119917D01*
X106579583Y-92841824D01*
X106585070Y-92836347D01*
X106688965Y-92586142D01*
X106689201Y-92315223D01*
X106585744Y-92064836D01*
X106394342Y-91873101D01*
X106144137Y-91769206D01*
X105873218Y-91768970D01*
X105622831Y-91872427D01*
X105465010Y-92029974D01*
X105351200Y-92007336D01*
X104351200Y-92007336D01*
X104207820Y-92035856D01*
X104156986Y-92014800D01*
X103803450Y-92014800D01*
X103708200Y-92110050D01*
X103454200Y-92110050D01*
X103358950Y-92014800D01*
X103171500Y-92014800D01*
X103554721Y-91631579D01*
X103659335Y-91475012D01*
X103696071Y-91290329D01*
X103696071Y-90646121D01*
X103790458Y-90551898D01*
X103894353Y-90301693D01*
X103894589Y-90030774D01*
X103791132Y-89780387D01*
X103599730Y-89588652D01*
X103349525Y-89484757D01*
X103078606Y-89484521D01*
X102828219Y-89587978D01*
X102636484Y-89779380D01*
X102586240Y-89900381D01*
X102448249Y-89762150D01*
X102198044Y-89658255D01*
X101927125Y-89658019D01*
X101676738Y-89761476D01*
X101485003Y-89952878D01*
X101381108Y-90203083D01*
X101380872Y-90474002D01*
X101484329Y-90724389D01*
X101579390Y-90819615D01*
X101579390Y-91090032D01*
X101026222Y-91643200D01*
X100642612Y-91643200D01*
X100642818Y-91406735D01*
X100539361Y-91156348D01*
X100347959Y-90964613D01*
X100097754Y-90860718D01*
X99826835Y-90860482D01*
X99576448Y-90963939D01*
X99467233Y-91072964D01*
X99352753Y-91095736D01*
X99307759Y-91125800D01*
X97815405Y-91125800D01*
X97815400Y-91125799D01*
X97630717Y-91162536D01*
X97474150Y-91267150D01*
X97474148Y-91267153D01*
X96889950Y-91851350D01*
X96785724Y-92007336D01*
X96731200Y-92007336D01*
X96596200Y-92034189D01*
X96461200Y-92007336D01*
X95461200Y-92007336D01*
X95312541Y-92036906D01*
X95186514Y-92121114D01*
X95102306Y-92247141D01*
X95072736Y-92395800D01*
X93073969Y-92395800D01*
X93146634Y-92220806D01*
X93146870Y-91949887D01*
X93043413Y-91699500D01*
X92852011Y-91507765D01*
X92601806Y-91403870D01*
X92593086Y-91403862D01*
X92377512Y-91188288D01*
X92328203Y-91155341D01*
X92192104Y-91064403D01*
X92155818Y-91057185D01*
X92033275Y-91032809D01*
X92201801Y-90626954D01*
X92202198Y-90172241D01*
X92126627Y-89989345D01*
X92169387Y-89946659D01*
X92273282Y-89696454D01*
X92273518Y-89425535D01*
X92170061Y-89175148D01*
X91978659Y-88983413D01*
X91728454Y-88879518D01*
X91640882Y-88879442D01*
X91662576Y-88870456D01*
X91745955Y-88699760D01*
X91084400Y-88038205D01*
X90422845Y-88699760D01*
X90506224Y-88870456D01*
X90937455Y-89014691D01*
X91193074Y-88996788D01*
X91015413Y-89174141D01*
X90981616Y-89255532D01*
X90832641Y-89255402D01*
X90412388Y-89429046D01*
X90090577Y-89750297D01*
X90049731Y-89848665D01*
X89946659Y-89745413D01*
X89696454Y-89641518D01*
X89431000Y-89641287D01*
X89431000Y-87711655D01*
X89928309Y-87711655D01*
X89960078Y-88165257D01*
X90072544Y-88436776D01*
X90243240Y-88520155D01*
X90904795Y-87858600D01*
X91264005Y-87858600D01*
X91925560Y-88520155D01*
X92096256Y-88436776D01*
X92240491Y-88005545D01*
X92208722Y-87551943D01*
X92096256Y-87280424D01*
X91925560Y-87197045D01*
X91264005Y-87858600D01*
X90904795Y-87858600D01*
X90243240Y-87197045D01*
X90072544Y-87280424D01*
X89928309Y-87711655D01*
X89431000Y-87711655D01*
X89431000Y-87017440D01*
X90422845Y-87017440D01*
X91084400Y-87678995D01*
X91745955Y-87017440D01*
X91662576Y-86846744D01*
X91231345Y-86702509D01*
X90777743Y-86734278D01*
X90506224Y-86846744D01*
X90422845Y-87017440D01*
X89431000Y-87017440D01*
X89431000Y-85457173D01*
X92532674Y-85445599D01*
X92581238Y-85435751D01*
X92622337Y-85408067D01*
X92649713Y-85366763D01*
X92659200Y-85318600D01*
X92659200Y-84530600D01*
X94778380Y-84530600D01*
X95143936Y-84896155D01*
X95143936Y-87402800D01*
X95173506Y-87551459D01*
X95257714Y-87677486D01*
X95383741Y-87761694D01*
X95532400Y-87791264D01*
X96732400Y-87791264D01*
X96881059Y-87761694D01*
X97007086Y-87677486D01*
X97091294Y-87551459D01*
X97120864Y-87402800D01*
X97120864Y-84402800D01*
X99143936Y-84402800D01*
X99143936Y-87402800D01*
X99173506Y-87551459D01*
X99257714Y-87677486D01*
X99383741Y-87761694D01*
X99532400Y-87791264D01*
X99636357Y-87791264D01*
X99636357Y-87952357D01*
X99673093Y-88137040D01*
X99777707Y-88293607D01*
X100004598Y-88520498D01*
X100004482Y-88653865D01*
X100107939Y-88904252D01*
X100299341Y-89095987D01*
X100549546Y-89199882D01*
X100820465Y-89200118D01*
X101070852Y-89096661D01*
X101262587Y-88905259D01*
X101366482Y-88655054D01*
X101366605Y-88514218D01*
X101480865Y-88514318D01*
X101731252Y-88410861D01*
X101903384Y-88239027D01*
X102956102Y-88239027D01*
X103059559Y-88489414D01*
X103250961Y-88681149D01*
X103501166Y-88785044D01*
X103772085Y-88785280D01*
X104022472Y-88681823D01*
X104214207Y-88490421D01*
X104318102Y-88240216D01*
X104318219Y-88105663D01*
X104473650Y-87950232D01*
X104578264Y-87793665D01*
X104578742Y-87791264D01*
X104732400Y-87791264D01*
X104881059Y-87761694D01*
X105007086Y-87677486D01*
X105091294Y-87551459D01*
X105120864Y-87402800D01*
X105120864Y-84402800D01*
X105143936Y-84402800D01*
X105143936Y-87402800D01*
X105173506Y-87551459D01*
X105257714Y-87677486D01*
X105278842Y-87691603D01*
X105278743Y-87804844D01*
X105382200Y-88055231D01*
X105573602Y-88246966D01*
X105823807Y-88350861D01*
X106094726Y-88351097D01*
X106345113Y-88247640D01*
X106536848Y-88056238D01*
X106640743Y-87806033D01*
X106640756Y-87791264D01*
X106732400Y-87791264D01*
X106881059Y-87761694D01*
X107007086Y-87677486D01*
X107091294Y-87551459D01*
X107120864Y-87402800D01*
X107120864Y-84402800D01*
X107091294Y-84254141D01*
X107007086Y-84128114D01*
X106881059Y-84043906D01*
X106732400Y-84014336D01*
X105532400Y-84014336D01*
X105383741Y-84043906D01*
X105257714Y-84128114D01*
X105173506Y-84254141D01*
X105143936Y-84402800D01*
X105120864Y-84402800D01*
X105091294Y-84254141D01*
X105007086Y-84128114D01*
X104881059Y-84043906D01*
X104732400Y-84014336D01*
X103532400Y-84014336D01*
X103383741Y-84043906D01*
X103257714Y-84128114D01*
X103173506Y-84254141D01*
X103143936Y-84402800D01*
X103143936Y-87402800D01*
X103173506Y-87551459D01*
X103194897Y-87583473D01*
X103060233Y-87717903D01*
X102956338Y-87968108D01*
X102956102Y-88239027D01*
X101903384Y-88239027D01*
X101922987Y-88219459D01*
X102026882Y-87969254D01*
X102027037Y-87791264D01*
X102732400Y-87791264D01*
X102881059Y-87761694D01*
X103007086Y-87677486D01*
X103091294Y-87551459D01*
X103120864Y-87402800D01*
X103120864Y-84402800D01*
X103091294Y-84254141D01*
X103007086Y-84128114D01*
X102881059Y-84043906D01*
X102732400Y-84014336D01*
X101532400Y-84014336D01*
X101482304Y-84024301D01*
X101459553Y-83990251D01*
X101418202Y-83948900D01*
X101418318Y-83815533D01*
X101314861Y-83565146D01*
X101123459Y-83373411D01*
X100873254Y-83269516D01*
X100602335Y-83269280D01*
X100351948Y-83372737D01*
X100160213Y-83564139D01*
X100056318Y-83814344D01*
X100056144Y-84014336D01*
X99532400Y-84014336D01*
X99383741Y-84043906D01*
X99257714Y-84128114D01*
X99173506Y-84254141D01*
X99143936Y-84402800D01*
X97120864Y-84402800D01*
X97091294Y-84254141D01*
X97007086Y-84128114D01*
X96881059Y-84043906D01*
X96732400Y-84014336D01*
X96343839Y-84014336D01*
X95603673Y-83274169D01*
X95364897Y-83114625D01*
X95083242Y-83058599D01*
X95083237Y-83058600D01*
X92659200Y-83058600D01*
X92659200Y-82431000D01*
X105972660Y-82431000D01*
X105884818Y-82642546D01*
M02*
