G04 #@! TF.GenerationSoftware,KiCad,Pcbnew,no-vcs-found-7664~57~ubuntu16.10.1*
G04 #@! TF.CreationDate,2017-02-22T20:42:03+01:00*
G04 #@! TF.ProjectId,SensebenderMicro2,53656E736562656E6465724D6963726F,rev?*
G04 #@! TF.FileFunction,Legend,Bot*
G04 #@! TF.FilePolarity,Positive*
%FSLAX46Y46*%
G04 Gerber Fmt 4.6, Leading zero omitted, Abs format (unit mm)*
G04 Created by KiCad (PCBNEW no-vcs-found-7664~57~ubuntu16.10.1) date Wed Feb 22 20:42:03 2017*
%MOMM*%
%LPD*%
G01*
G04 APERTURE LIST*
%ADD10C,0.100000*%
%ADD11C,0.150000*%
%ADD12C,0.160000*%
G04 APERTURE END LIST*
D10*
D11*
X109126800Y-107577400D02*
X109126800Y-83877400D01*
X109126800Y-83877400D02*
X93126800Y-83877400D01*
X93126800Y-83877400D02*
X93126800Y-107577400D01*
X93126800Y-107577400D02*
X109126800Y-107577400D01*
D12*
X109466704Y-103313876D02*
X110114323Y-103313876D01*
X110190514Y-103351971D01*
X110228609Y-103390066D01*
X110266704Y-103466257D01*
X110266704Y-103618638D01*
X110228609Y-103694828D01*
X110190514Y-103732923D01*
X110114323Y-103771019D01*
X109466704Y-103771019D01*
X109733371Y-104494828D02*
X110266704Y-104494828D01*
X109428609Y-104304352D02*
X110000038Y-104113876D01*
X110000038Y-104609114D01*
D11*
X101213104Y-85248180D02*
X101213104Y-86057704D01*
X101165485Y-86152942D01*
X101117866Y-86200561D01*
X101022628Y-86248180D01*
X100832152Y-86248180D01*
X100736914Y-86200561D01*
X100689295Y-86152942D01*
X100641676Y-86057704D01*
X100641676Y-85248180D01*
X100260723Y-85248180D02*
X99641676Y-85248180D01*
X99975009Y-85629133D01*
X99832152Y-85629133D01*
X99736914Y-85676752D01*
X99689295Y-85724371D01*
X99641676Y-85819609D01*
X99641676Y-86057704D01*
X99689295Y-86152942D01*
X99736914Y-86200561D01*
X99832152Y-86248180D01*
X100117866Y-86248180D01*
X100213104Y-86200561D01*
X100260723Y-86152942D01*
M02*
