M48
;DRILL file {KiCad no-vcs-found-undefined} date Thu Nov 24 20:11:38 2016
;FORMAT={-:-/ absolute / metric / decimal}
FMAT,2
METRIC,TZ
T1C0.300
T2C0.400
T3C1.016
%
G90
G05
M71
T1
X92.862Y-82.715
X92.862Y-84.709
X93.862Y-82.715
X93.862Y-84.709
X94.818Y-84.823
X94.862Y-82.715
X94.932Y-85.814
X94.932Y-86.814
X95.136Y-87.808
X95.862Y-82.715
X96.126Y-87.973
X96.317Y-83.68
X96.952Y-82.715
X97.346Y-83.452
X97.346Y-84.379
X97.346Y-85.379
X97.346Y-86.379
X97.346Y-87.379
X99.517Y-96.418
X99.517Y-97.418
X99.517Y-98.418
X100.517Y-96.418
X100.517Y-97.418
X100.517Y-98.418
X101.517Y-96.418
X101.517Y-97.418
X101.517Y-98.418
T2
X89.56Y-90.322
X89.56Y-99.543
X90.424Y-100.406
X91.084Y-95.479
X91.351Y-102.171
X91.592Y-89.56
X91.605Y-86.614
X91.821Y-103.581
X92.202Y-92.939
X92.466Y-92.085
X93.574Y-103.454
X93.726Y-95.606
X94.132Y-105.603
X95.148Y-102.794
X96.579Y-105.928
X98.349Y-107.747
X98.933Y-106.883
X99.598Y-107.885
X99.898Y-111.506
X99.962Y-91.542
X100.557Y-85.813
X100.686Y-88.519
X100.737Y-83.95
X101.346Y-87.833
X101.783Y-95.204
X101.9Y-86.393
X102.062Y-90.339
X102.532Y-95.024
X102.908Y-95.783
X103.213Y-90.166
X103.637Y-88.104
X104.198Y-110.66
X104.555Y-107.573
X104.7Y-108.569
X104.712Y-82.995
X105.664Y-89.713
X105.96Y-87.67
X106.008Y-92.45
X106.132Y-105.603
X106.566Y-82.779
X107.34Y-104.216
X107.485Y-96.164
X107.798Y-92.799
X107.875Y-93.842
X107.942Y-97.016
X108.191Y-107.382
X108.204Y-91.262
X108.298Y-98.417
X108.407Y-99.924
X109.055Y-83.376
X109.212Y-94.648
X109.431Y-107.174
X109.804Y-90.805
X110.053Y-107.796
T3
X90.983Y-109.449
X90.983Y-111.989
X91.084Y-83.795
X93.523Y-109.449
X93.523Y-111.989
X96.063Y-109.449
X96.063Y-111.989
X98.603Y-109.449
X98.603Y-111.989
X101.143Y-109.449
X101.143Y-111.989
X103.683Y-109.449
X103.683Y-111.989
X106.223Y-109.449
X106.223Y-111.989
X108.763Y-109.449
X108.763Y-111.989
T0
M30
