G04 #@! TF.GenerationSoftware,KiCad,Pcbnew,no-vcs-found-7592~57~ubuntu16.10.1*
G04 #@! TF.CreationDate,2017-02-07T20:26:05+01:00*
G04 #@! TF.ProjectId,SensebenderMicro2,53656E736562656E6465724D6963726F,rev?*
G04 #@! TF.FileFunction,Legend,Bot*
G04 #@! TF.FilePolarity,Positive*
%FSLAX46Y46*%
G04 Gerber Fmt 4.6, Leading zero omitted, Abs format (unit mm)*
G04 Created by KiCad (PCBNEW no-vcs-found-7592~57~ubuntu16.10.1) date Tue Feb  7 20:26:05 2017*
%MOMM*%
%LPD*%
G01*
G04 APERTURE LIST*
%ADD10C,0.100000*%
%ADD11C,0.150000*%
%ADD12C,0.160000*%
G04 APERTURE END LIST*
D10*
D11*
X109126800Y-107577400D02*
X109126800Y-83877400D01*
X109126800Y-83877400D02*
X93126800Y-83877400D01*
X93126800Y-83877400D02*
X93126800Y-107577400D01*
X93126800Y-107577400D02*
X109126800Y-107577400D01*
D12*
X109466704Y-103313876D02*
X110114323Y-103313876D01*
X110190514Y-103351971D01*
X110228609Y-103390066D01*
X110266704Y-103466257D01*
X110266704Y-103618638D01*
X110228609Y-103694828D01*
X110190514Y-103732923D01*
X110114323Y-103771019D01*
X109466704Y-103771019D01*
X109733371Y-104494828D02*
X110266704Y-104494828D01*
X109428609Y-104304352D02*
X110000038Y-104113876D01*
X110000038Y-104609114D01*
D11*
X94641066Y-90715266D02*
X94874400Y-90381933D01*
X95041066Y-90715266D02*
X95041066Y-90015266D01*
X94774400Y-90015266D01*
X94707733Y-90048600D01*
X94674400Y-90081933D01*
X94641066Y-90148600D01*
X94641066Y-90248600D01*
X94674400Y-90315266D01*
X94707733Y-90348600D01*
X94774400Y-90381933D01*
X95041066Y-90381933D01*
X94341066Y-90348600D02*
X94107733Y-90348600D01*
X94007733Y-90715266D02*
X94341066Y-90715266D01*
X94341066Y-90015266D01*
X94007733Y-90015266D01*
X93741066Y-90681933D02*
X93641066Y-90715266D01*
X93474400Y-90715266D01*
X93407733Y-90681933D01*
X93374400Y-90648600D01*
X93341066Y-90581933D01*
X93341066Y-90515266D01*
X93374400Y-90448600D01*
X93407733Y-90415266D01*
X93474400Y-90381933D01*
X93607733Y-90348600D01*
X93674400Y-90315266D01*
X93707733Y-90281933D01*
X93741066Y-90215266D01*
X93741066Y-90148600D01*
X93707733Y-90081933D01*
X93674400Y-90048600D01*
X93607733Y-90015266D01*
X93441066Y-90015266D01*
X93341066Y-90048600D01*
X93041066Y-90348600D02*
X92807733Y-90348600D01*
X92707733Y-90715266D02*
X93041066Y-90715266D01*
X93041066Y-90015266D01*
X92707733Y-90015266D01*
X92507733Y-90015266D02*
X92107733Y-90015266D01*
X92307733Y-90715266D02*
X92307733Y-90015266D01*
X101213104Y-85248180D02*
X101213104Y-86057704D01*
X101165485Y-86152942D01*
X101117866Y-86200561D01*
X101022628Y-86248180D01*
X100832152Y-86248180D01*
X100736914Y-86200561D01*
X100689295Y-86152942D01*
X100641676Y-86057704D01*
X100641676Y-85248180D01*
X100260723Y-85248180D02*
X99641676Y-85248180D01*
X99975009Y-85629133D01*
X99832152Y-85629133D01*
X99736914Y-85676752D01*
X99689295Y-85724371D01*
X99641676Y-85819609D01*
X99641676Y-86057704D01*
X99689295Y-86152942D01*
X99736914Y-86200561D01*
X99832152Y-86248180D01*
X100117866Y-86248180D01*
X100213104Y-86200561D01*
X100260723Y-86152942D01*
X95385533Y-93221933D02*
X95285533Y-93255266D01*
X95118866Y-93255266D01*
X95052200Y-93221933D01*
X95018866Y-93188600D01*
X94985533Y-93121933D01*
X94985533Y-93055266D01*
X95018866Y-92988600D01*
X95052200Y-92955266D01*
X95118866Y-92921933D01*
X95252200Y-92888600D01*
X95318866Y-92855266D01*
X95352200Y-92821933D01*
X95385533Y-92755266D01*
X95385533Y-92688600D01*
X95352200Y-92621933D01*
X95318866Y-92588600D01*
X95252200Y-92555266D01*
X95085533Y-92555266D01*
X94985533Y-92588600D01*
X94752200Y-92555266D02*
X94585533Y-93255266D01*
X94452200Y-92755266D01*
X94318866Y-93255266D01*
X94152200Y-92555266D01*
X93485533Y-93188600D02*
X93518866Y-93221933D01*
X93618866Y-93255266D01*
X93685533Y-93255266D01*
X93785533Y-93221933D01*
X93852200Y-93155266D01*
X93885533Y-93088600D01*
X93918866Y-92955266D01*
X93918866Y-92855266D01*
X93885533Y-92721933D01*
X93852200Y-92655266D01*
X93785533Y-92588600D01*
X93685533Y-92555266D01*
X93618866Y-92555266D01*
X93518866Y-92588600D01*
X93485533Y-92621933D01*
X92852200Y-93255266D02*
X93185533Y-93255266D01*
X93185533Y-92555266D01*
X92618866Y-93255266D02*
X92618866Y-92555266D01*
X92218866Y-93255266D02*
X92518866Y-92855266D01*
X92218866Y-92555266D02*
X92618866Y-92955266D01*
X93725933Y-87508600D02*
X93792600Y-87475266D01*
X93892600Y-87475266D01*
X93992600Y-87508600D01*
X94059266Y-87575266D01*
X94092600Y-87641933D01*
X94125933Y-87775266D01*
X94125933Y-87875266D01*
X94092600Y-88008600D01*
X94059266Y-88075266D01*
X93992600Y-88141933D01*
X93892600Y-88175266D01*
X93825933Y-88175266D01*
X93725933Y-88141933D01*
X93692600Y-88108600D01*
X93692600Y-87875266D01*
X93825933Y-87875266D01*
X93392600Y-88175266D02*
X93392600Y-87475266D01*
X92992600Y-88175266D01*
X92992600Y-87475266D01*
X92659266Y-88175266D02*
X92659266Y-87475266D01*
X92492600Y-87475266D01*
X92392600Y-87508600D01*
X92325933Y-87575266D01*
X92292600Y-87641933D01*
X92259266Y-87775266D01*
X92259266Y-87875266D01*
X92292600Y-88008600D01*
X92325933Y-88075266D01*
X92392600Y-88141933D01*
X92492600Y-88175266D01*
X92659266Y-88175266D01*
X95171233Y-95761933D02*
X95071233Y-95795266D01*
X94904566Y-95795266D01*
X94837900Y-95761933D01*
X94804566Y-95728600D01*
X94771233Y-95661933D01*
X94771233Y-95595266D01*
X94804566Y-95528600D01*
X94837900Y-95495266D01*
X94904566Y-95461933D01*
X95037900Y-95428600D01*
X95104566Y-95395266D01*
X95137900Y-95361933D01*
X95171233Y-95295266D01*
X95171233Y-95228600D01*
X95137900Y-95161933D01*
X95104566Y-95128600D01*
X95037900Y-95095266D01*
X94871233Y-95095266D01*
X94771233Y-95128600D01*
X94537900Y-95095266D02*
X94371233Y-95795266D01*
X94237900Y-95295266D01*
X94104566Y-95795266D01*
X93937900Y-95095266D01*
X93671233Y-95795266D02*
X93671233Y-95095266D01*
X93504566Y-95095266D01*
X93404566Y-95128600D01*
X93337900Y-95195266D01*
X93304566Y-95261933D01*
X93271233Y-95395266D01*
X93271233Y-95495266D01*
X93304566Y-95628600D01*
X93337900Y-95695266D01*
X93404566Y-95761933D01*
X93504566Y-95795266D01*
X93671233Y-95795266D01*
X92971233Y-95795266D02*
X92971233Y-95095266D01*
X92504566Y-95095266D02*
X92371233Y-95095266D01*
X92304566Y-95128600D01*
X92237900Y-95195266D01*
X92204566Y-95328600D01*
X92204566Y-95561933D01*
X92237900Y-95695266D01*
X92304566Y-95761933D01*
X92371233Y-95795266D01*
X92504566Y-95795266D01*
X92571233Y-95761933D01*
X92637900Y-95695266D01*
X92671233Y-95561933D01*
X92671233Y-95328600D01*
X92637900Y-95195266D01*
X92571233Y-95128600D01*
X92504566Y-95095266D01*
X93884633Y-97635266D02*
X93651300Y-98335266D01*
X93417966Y-97635266D01*
X92784633Y-98268600D02*
X92817966Y-98301933D01*
X92917966Y-98335266D01*
X92984633Y-98335266D01*
X93084633Y-98301933D01*
X93151300Y-98235266D01*
X93184633Y-98168600D01*
X93217966Y-98035266D01*
X93217966Y-97935266D01*
X93184633Y-97801933D01*
X93151300Y-97735266D01*
X93084633Y-97668600D01*
X92984633Y-97635266D01*
X92917966Y-97635266D01*
X92817966Y-97668600D01*
X92784633Y-97701933D01*
X92084633Y-98268600D02*
X92117966Y-98301933D01*
X92217966Y-98335266D01*
X92284633Y-98335266D01*
X92384633Y-98301933D01*
X92451300Y-98235266D01*
X92484633Y-98168600D01*
X92517966Y-98035266D01*
X92517966Y-97935266D01*
X92484633Y-97801933D01*
X92451300Y-97735266D01*
X92384633Y-97668600D01*
X92284633Y-97635266D01*
X92217966Y-97635266D01*
X92117966Y-97668600D01*
X92084633Y-97701933D01*
M02*
