G04 #@! TF.FileFunction,Legend,Top*
%FSLAX46Y46*%
G04 Gerber Fmt 4.6, Leading zero omitted, Abs format (unit mm)*
G04 Created by KiCad (PCBNEW no-vcs-found-undefined) date Sun Nov 27 17:11:53 2016*
%MOMM*%
%LPD*%
G01*
G04 APERTURE LIST*
%ADD10C,0.100000*%
%ADD11C,0.150000*%
G04 APERTURE END LIST*
D10*
D11*
X105887240Y-103164640D02*
X105935500Y-103164640D01*
X108686220Y-102463600D02*
X108686220Y-103164640D01*
X108686220Y-103164640D02*
X108437300Y-103164640D01*
X105887240Y-103164640D02*
X105686580Y-103164640D01*
X105686580Y-103164640D02*
X105686580Y-102463600D01*
X94502049Y-101626423D02*
X94997023Y-101131449D01*
X95845551Y-101979977D02*
X95350577Y-102474951D01*
X89882800Y-89488100D02*
X91782800Y-89488100D01*
X89882800Y-88388100D02*
X91782800Y-88388100D01*
X90782800Y-88938100D02*
X91232800Y-88938100D01*
X90732800Y-88688100D02*
X90732800Y-89188100D01*
X90732800Y-88938100D02*
X90982800Y-88688100D01*
X90982800Y-88688100D02*
X90982800Y-89188100D01*
X90982800Y-89188100D02*
X90732800Y-88938100D01*
X91099000Y-92870400D02*
X91099000Y-93870400D01*
X89749000Y-93870400D02*
X89749000Y-92870400D01*
X89814400Y-87604600D02*
X92354400Y-87604600D01*
X89814400Y-85064600D02*
X89814400Y-87604600D01*
X89534400Y-82244600D02*
X92634400Y-82244600D01*
X89534400Y-83794600D02*
X89534400Y-82244600D01*
X92354400Y-85064600D02*
X89814400Y-85064600D01*
X92634400Y-82244600D02*
X92634400Y-83794600D01*
X92354400Y-85064600D02*
X92354400Y-87604600D01*
X93225300Y-89418800D02*
X94225300Y-89418800D01*
X94225300Y-90768800D02*
X93225300Y-90768800D01*
X104086500Y-88134900D02*
X104086500Y-87989900D01*
X99936500Y-88134900D02*
X99936500Y-87989900D01*
X99936500Y-82984900D02*
X99936500Y-83129900D01*
X104086500Y-82984900D02*
X104086500Y-83129900D01*
X104086500Y-88134900D02*
X99936500Y-88134900D01*
X104086500Y-82984900D02*
X99936500Y-82984900D01*
X104086500Y-87989900D02*
X105486500Y-87989900D01*
X93200600Y-87793200D02*
X94200600Y-87793200D01*
X94200600Y-89143200D02*
X93200600Y-89143200D01*
X95675700Y-97390668D02*
X95905510Y-97620478D01*
X100802224Y-92264144D02*
X101032034Y-92493954D01*
X105928748Y-97390668D02*
X105698938Y-97160858D01*
X100802224Y-102517192D02*
X100572414Y-102287382D01*
X95675700Y-97390668D02*
X95905510Y-97160858D01*
X100802224Y-102517192D02*
X101032034Y-102287382D01*
X105928748Y-97390668D02*
X105698938Y-97620478D01*
X100802224Y-92264144D02*
X100572414Y-92493954D01*
X95905510Y-97620478D02*
X94897882Y-98628105D01*
X100144900Y-90324300D02*
X99144900Y-90324300D01*
X99144900Y-88974300D02*
X100144900Y-88974300D01*
X95839100Y-89742100D02*
X97739100Y-89742100D01*
X95839100Y-88642100D02*
X97739100Y-88642100D01*
X96739100Y-89192100D02*
X97189100Y-89192100D01*
X96689100Y-88942100D02*
X96689100Y-89442100D01*
X96689100Y-89192100D02*
X96939100Y-88942100D01*
X96939100Y-88942100D02*
X96939100Y-89442100D01*
X96939100Y-89442100D02*
X96689100Y-89192100D01*
X107373800Y-89799800D02*
X108373800Y-89799800D01*
X108373800Y-91149800D02*
X107373800Y-91149800D01*
X107902400Y-91187800D02*
G75*
G03X107902400Y-91187800I-100000J0D01*
G01*
X108352400Y-91437800D02*
X107852400Y-91437800D01*
X108352400Y-94337800D02*
X108352400Y-91437800D01*
X107852400Y-94337800D02*
X108352400Y-94337800D01*
X107852400Y-91437800D02*
X107852400Y-94337800D01*
X107728500Y-84153300D02*
X107028500Y-84153300D01*
X107028500Y-82953300D02*
X107728500Y-82953300D01*
X108668300Y-96002400D02*
X107968300Y-96002400D01*
X107968300Y-94802400D02*
X108668300Y-94802400D01*
X93624400Y-97999340D02*
X94685060Y-99060000D01*
X92563740Y-99060000D02*
X93624400Y-100120660D01*
X97115551Y-92708977D02*
X96620577Y-93203951D01*
X95772049Y-92355423D02*
X96267023Y-91860449D01*
X103541751Y-103643677D02*
X103046777Y-104138651D01*
X102198249Y-103290123D02*
X102693223Y-102795149D01*
X97958200Y-105618800D02*
X97958200Y-106318800D01*
X96758200Y-106318800D02*
X96758200Y-105618800D01*
X93018560Y-101152960D02*
X92970300Y-101152960D01*
X90219580Y-101854000D02*
X90219580Y-101152960D01*
X90219580Y-101152960D02*
X90468500Y-101152960D01*
X93018560Y-101152960D02*
X93219220Y-101152960D01*
X93219220Y-101152960D02*
X93219220Y-101854000D01*
X108848000Y-84443300D02*
X106798000Y-84443300D01*
X109553000Y-87743300D02*
X106798000Y-87743300D01*
X92252800Y-113258600D02*
X110032800Y-113258600D01*
X110032800Y-113258600D02*
X110032800Y-108178600D01*
X110032800Y-108178600D02*
X89712800Y-108178600D01*
X89712800Y-108178600D02*
X89712800Y-110718600D01*
X89432800Y-111988600D02*
X89432800Y-113538600D01*
X89712800Y-110718600D02*
X92252800Y-110718600D01*
X92252800Y-110718600D02*
X92252800Y-113258600D01*
X89432800Y-113538600D02*
X90982800Y-113538600D01*
X103223879Y-104296493D02*
X103718853Y-103801519D01*
X104567381Y-104650047D02*
X104072407Y-105145021D01*
X93432551Y-95782377D02*
X92937577Y-96277351D01*
X92089049Y-95428823D02*
X92584023Y-94933849D01*
X91043200Y-105379000D02*
X91043200Y-104679000D01*
X92243200Y-104679000D02*
X92243200Y-105379000D01*
X93087100Y-85145700D02*
X93087100Y-87045700D01*
X94187100Y-85145700D02*
X94187100Y-87045700D01*
X93637100Y-86045700D02*
X93637100Y-86495700D01*
X93887100Y-85995700D02*
X93387100Y-85995700D01*
X93637100Y-85995700D02*
X93887100Y-86245700D01*
X93887100Y-86245700D02*
X93387100Y-86245700D01*
X93387100Y-86245700D02*
X93637100Y-85995700D01*
X94146449Y-91872823D02*
X94641423Y-91377849D01*
X95489951Y-92226377D02*
X94994977Y-92721351D01*
X90684300Y-90586000D02*
X91384300Y-90586000D01*
X91384300Y-91786000D02*
X90684300Y-91786000D01*
X107335000Y-88085300D02*
X108335000Y-88085300D01*
X108335000Y-89435300D02*
X107335000Y-89435300D01*
X94046600Y-104526600D02*
X94046600Y-105226600D01*
X92846600Y-105226600D02*
X92846600Y-104526600D01*
X102649400Y-106106600D02*
X103649400Y-106106600D01*
X103649400Y-107456600D02*
X102649400Y-107456600D01*
X106502933Y-103174866D02*
X105936266Y-103174866D01*
X105869600Y-103208200D01*
X105836266Y-103241533D01*
X105802933Y-103308200D01*
X105802933Y-103441533D01*
X105836266Y-103508200D01*
X105869600Y-103541533D01*
X105936266Y-103574866D01*
X106502933Y-103574866D01*
X106502933Y-104241533D02*
X106502933Y-103908200D01*
X106169600Y-103874866D01*
X106202933Y-103908200D01*
X106236266Y-103974866D01*
X106236266Y-104141533D01*
X106202933Y-104208200D01*
X106169600Y-104241533D01*
X106102933Y-104274866D01*
X105936266Y-104274866D01*
X105869600Y-104241533D01*
X105836266Y-104208200D01*
X105802933Y-104141533D01*
X105802933Y-103974866D01*
X105836266Y-103908200D01*
X105869600Y-103874866D01*
X96085283Y-102933557D02*
X96085283Y-102980697D01*
X96038143Y-103074978D01*
X95991003Y-103122119D01*
X95896722Y-103169259D01*
X95802441Y-103169259D01*
X95731730Y-103145689D01*
X95613879Y-103074978D01*
X95543168Y-103004268D01*
X95472458Y-102886417D01*
X95448887Y-102815706D01*
X95448887Y-102721425D01*
X95496028Y-102627144D01*
X95543168Y-102580004D01*
X95637449Y-102532863D01*
X95684590Y-102532863D01*
X95873151Y-102344301D02*
X95873151Y-102297161D01*
X95896722Y-102226450D01*
X96014573Y-102108599D01*
X96085283Y-102085029D01*
X96132424Y-102085029D01*
X96203135Y-102108599D01*
X96250275Y-102155740D01*
X96297415Y-102250020D01*
X96297415Y-102815706D01*
X96603828Y-102509293D01*
X90244704Y-87890480D02*
X90244704Y-86890480D01*
X90482800Y-86890480D01*
X90625657Y-86938100D01*
X90720895Y-87033338D01*
X90768514Y-87128576D01*
X90816133Y-87319052D01*
X90816133Y-87461909D01*
X90768514Y-87652385D01*
X90720895Y-87747623D01*
X90625657Y-87842861D01*
X90482800Y-87890480D01*
X90244704Y-87890480D01*
X91149466Y-86890480D02*
X91768514Y-86890480D01*
X91435180Y-87271433D01*
X91578038Y-87271433D01*
X91673276Y-87319052D01*
X91720895Y-87366671D01*
X91768514Y-87461909D01*
X91768514Y-87700004D01*
X91720895Y-87795242D01*
X91673276Y-87842861D01*
X91578038Y-87890480D01*
X91292323Y-87890480D01*
X91197085Y-87842861D01*
X91149466Y-87795242D01*
X89584966Y-93512466D02*
X89251633Y-93745800D01*
X89584966Y-93912466D02*
X88884966Y-93912466D01*
X88884966Y-93645800D01*
X88918300Y-93579133D01*
X88951633Y-93545800D01*
X89018300Y-93512466D01*
X89118300Y-93512466D01*
X89184966Y-93545800D01*
X89218300Y-93579133D01*
X89251633Y-93645800D01*
X89251633Y-93912466D01*
X89584966Y-92845800D02*
X89584966Y-93245800D01*
X89584966Y-93045800D02*
X88884966Y-93045800D01*
X88984966Y-93112466D01*
X89051633Y-93179133D01*
X89084966Y-93245800D01*
X90346304Y-79146980D02*
X90346304Y-78146980D01*
X90727257Y-78146980D01*
X90822495Y-78194600D01*
X90870114Y-78242219D01*
X90917733Y-78337457D01*
X90917733Y-78480314D01*
X90870114Y-78575552D01*
X90822495Y-78623171D01*
X90727257Y-78670790D01*
X90346304Y-78670790D01*
X91251066Y-78146980D02*
X91870114Y-78146980D01*
X91536780Y-78527933D01*
X91679638Y-78527933D01*
X91774876Y-78575552D01*
X91822495Y-78623171D01*
X91870114Y-78718409D01*
X91870114Y-78956504D01*
X91822495Y-79051742D01*
X91774876Y-79099361D01*
X91679638Y-79146980D01*
X91393923Y-79146980D01*
X91298685Y-79099361D01*
X91251066Y-79051742D01*
X93621333Y-91528066D02*
X93388000Y-91194733D01*
X93221333Y-91528066D02*
X93221333Y-90828066D01*
X93488000Y-90828066D01*
X93554666Y-90861400D01*
X93588000Y-90894733D01*
X93621333Y-90961400D01*
X93621333Y-91061400D01*
X93588000Y-91128066D01*
X93554666Y-91161400D01*
X93488000Y-91194733D01*
X93221333Y-91194733D01*
X94221333Y-90828066D02*
X94088000Y-90828066D01*
X94021333Y-90861400D01*
X93988000Y-90894733D01*
X93921333Y-90994733D01*
X93888000Y-91128066D01*
X93888000Y-91394733D01*
X93921333Y-91461400D01*
X93954666Y-91494733D01*
X94021333Y-91528066D01*
X94154666Y-91528066D01*
X94221333Y-91494733D01*
X94254666Y-91461400D01*
X94288000Y-91394733D01*
X94288000Y-91228066D01*
X94254666Y-91161400D01*
X94221333Y-91128066D01*
X94154666Y-91094733D01*
X94021333Y-91094733D01*
X93954666Y-91128066D01*
X93921333Y-91161400D01*
X93888000Y-91228066D01*
X101579766Y-84846366D02*
X101579766Y-85413033D01*
X101613100Y-85479700D01*
X101646433Y-85513033D01*
X101713100Y-85546366D01*
X101846433Y-85546366D01*
X101913100Y-85513033D01*
X101946433Y-85479700D01*
X101979766Y-85413033D01*
X101979766Y-84846366D01*
X102613100Y-84846366D02*
X102479766Y-84846366D01*
X102413100Y-84879700D01*
X102379766Y-84913033D01*
X102313100Y-85013033D01*
X102279766Y-85146366D01*
X102279766Y-85413033D01*
X102313100Y-85479700D01*
X102346433Y-85513033D01*
X102413100Y-85546366D01*
X102546433Y-85546366D01*
X102613100Y-85513033D01*
X102646433Y-85479700D01*
X102679766Y-85413033D01*
X102679766Y-85246366D01*
X102646433Y-85179700D01*
X102613100Y-85146366D01*
X102546433Y-85113033D01*
X102413100Y-85113033D01*
X102346433Y-85146366D01*
X102313100Y-85179700D01*
X102279766Y-85246366D01*
X93609333Y-92569466D02*
X93376000Y-92236133D01*
X93209333Y-92569466D02*
X93209333Y-91869466D01*
X93476000Y-91869466D01*
X93542666Y-91902800D01*
X93576000Y-91936133D01*
X93609333Y-92002800D01*
X93609333Y-92102800D01*
X93576000Y-92169466D01*
X93542666Y-92202800D01*
X93476000Y-92236133D01*
X93209333Y-92236133D01*
X93876000Y-91936133D02*
X93909333Y-91902800D01*
X93976000Y-91869466D01*
X94142666Y-91869466D01*
X94209333Y-91902800D01*
X94242666Y-91936133D01*
X94276000Y-92002800D01*
X94276000Y-92069466D01*
X94242666Y-92169466D01*
X93842666Y-92569466D01*
X94276000Y-92569466D01*
X102115037Y-96975973D02*
X101714344Y-97376667D01*
X101690773Y-97447378D01*
X101690773Y-97494518D01*
X101714344Y-97565229D01*
X101808625Y-97659510D01*
X101879335Y-97683080D01*
X101926476Y-97683080D01*
X101997186Y-97659510D01*
X102397880Y-97258816D01*
X102397880Y-98248765D02*
X102115037Y-97965923D01*
X102256459Y-98107344D02*
X102751434Y-97612369D01*
X102633582Y-97635940D01*
X102539302Y-97635940D01*
X102468591Y-97612369D01*
X99478233Y-92001680D02*
X99144900Y-91525490D01*
X98906804Y-92001680D02*
X98906804Y-91001680D01*
X99287757Y-91001680D01*
X99382995Y-91049300D01*
X99430614Y-91096919D01*
X99478233Y-91192157D01*
X99478233Y-91335014D01*
X99430614Y-91430252D01*
X99382995Y-91477871D01*
X99287757Y-91525490D01*
X98906804Y-91525490D01*
X99811566Y-91001680D02*
X100430614Y-91001680D01*
X100097280Y-91382633D01*
X100240138Y-91382633D01*
X100335376Y-91430252D01*
X100382995Y-91477871D01*
X100430614Y-91573109D01*
X100430614Y-91811204D01*
X100382995Y-91906442D01*
X100335376Y-91954061D01*
X100240138Y-92001680D01*
X99954423Y-92001680D01*
X99859185Y-91954061D01*
X99811566Y-91906442D01*
X96219233Y-88543566D02*
X96219233Y-87843566D01*
X96385900Y-87843566D01*
X96485900Y-87876900D01*
X96552566Y-87943566D01*
X96585900Y-88010233D01*
X96619233Y-88143566D01*
X96619233Y-88243566D01*
X96585900Y-88376900D01*
X96552566Y-88443566D01*
X96485900Y-88510233D01*
X96385900Y-88543566D01*
X96219233Y-88543566D01*
X96885900Y-87910233D02*
X96919233Y-87876900D01*
X96985900Y-87843566D01*
X97152566Y-87843566D01*
X97219233Y-87876900D01*
X97252566Y-87910233D01*
X97285900Y-87976900D01*
X97285900Y-88043566D01*
X97252566Y-88143566D01*
X96852566Y-88543566D01*
X97285900Y-88543566D01*
X106795133Y-91805933D02*
X107128466Y-91572600D01*
X106795133Y-91405933D02*
X107495133Y-91405933D01*
X107495133Y-91672600D01*
X107461800Y-91739266D01*
X107428466Y-91772600D01*
X107361800Y-91805933D01*
X107261800Y-91805933D01*
X107195133Y-91772600D01*
X107161800Y-91739266D01*
X107128466Y-91672600D01*
X107128466Y-91405933D01*
X107261800Y-92405933D02*
X106795133Y-92405933D01*
X107528466Y-92239266D02*
X107028466Y-92072600D01*
X107028466Y-92505933D01*
X107519066Y-89954466D02*
X107519066Y-90521133D01*
X107552400Y-90587800D01*
X107585733Y-90621133D01*
X107652400Y-90654466D01*
X107785733Y-90654466D01*
X107852400Y-90621133D01*
X107885733Y-90587800D01*
X107919066Y-90521133D01*
X107919066Y-89954466D01*
X108352400Y-90254466D02*
X108285733Y-90221133D01*
X108252400Y-90187800D01*
X108219066Y-90121133D01*
X108219066Y-90087800D01*
X108252400Y-90021133D01*
X108285733Y-89987800D01*
X108352400Y-89954466D01*
X108485733Y-89954466D01*
X108552400Y-89987800D01*
X108585733Y-90021133D01*
X108619066Y-90087800D01*
X108619066Y-90121133D01*
X108585733Y-90187800D01*
X108552400Y-90221133D01*
X108485733Y-90254466D01*
X108352400Y-90254466D01*
X108285733Y-90287800D01*
X108252400Y-90321133D01*
X108219066Y-90387800D01*
X108219066Y-90521133D01*
X108252400Y-90587800D01*
X108285733Y-90621133D01*
X108352400Y-90654466D01*
X108485733Y-90654466D01*
X108552400Y-90621133D01*
X108585733Y-90587800D01*
X108619066Y-90521133D01*
X108619066Y-90387800D01*
X108585733Y-90321133D01*
X108552400Y-90287800D01*
X108485733Y-90254466D01*
X104836133Y-83866800D02*
X104802800Y-83900133D01*
X104702800Y-83933466D01*
X104636133Y-83933466D01*
X104536133Y-83900133D01*
X104469466Y-83833466D01*
X104436133Y-83766800D01*
X104402800Y-83633466D01*
X104402800Y-83533466D01*
X104436133Y-83400133D01*
X104469466Y-83333466D01*
X104536133Y-83266800D01*
X104636133Y-83233466D01*
X104702800Y-83233466D01*
X104802800Y-83266800D01*
X104836133Y-83300133D01*
X105469466Y-83233466D02*
X105136133Y-83233466D01*
X105102800Y-83566800D01*
X105136133Y-83533466D01*
X105202800Y-83500133D01*
X105369466Y-83500133D01*
X105436133Y-83533466D01*
X105469466Y-83566800D01*
X105502800Y-83633466D01*
X105502800Y-83800133D01*
X105469466Y-83866800D01*
X105436133Y-83900133D01*
X105369466Y-83933466D01*
X105202800Y-83933466D01*
X105136133Y-83900133D01*
X105102800Y-83866800D01*
X107675442Y-97659542D02*
X107627823Y-97707161D01*
X107484966Y-97754780D01*
X107389728Y-97754780D01*
X107246871Y-97707161D01*
X107151633Y-97611923D01*
X107104014Y-97516685D01*
X107056395Y-97326209D01*
X107056395Y-97183352D01*
X107104014Y-96992876D01*
X107151633Y-96897638D01*
X107246871Y-96802400D01*
X107389728Y-96754780D01*
X107484966Y-96754780D01*
X107627823Y-96802400D01*
X107675442Y-96850019D01*
X108627823Y-97754780D02*
X108056395Y-97754780D01*
X108342109Y-97754780D02*
X108342109Y-96754780D01*
X108246871Y-96897638D01*
X108151633Y-96992876D01*
X108056395Y-97040495D01*
X109580204Y-97754780D02*
X109008776Y-97754780D01*
X109294490Y-97754780D02*
X109294490Y-96754780D01*
X109199252Y-96897638D01*
X109104014Y-96992876D01*
X109008776Y-97040495D01*
X95817161Y-101139388D02*
X95581459Y-101375090D01*
X95911442Y-100715124D02*
X95817161Y-101139388D01*
X96241425Y-101045107D01*
X96170715Y-101964346D02*
X95887872Y-101681503D01*
X96029293Y-101822925D02*
X96524268Y-101327950D01*
X96406417Y-101351520D01*
X96312136Y-101351520D01*
X96241425Y-101327950D01*
X97256500Y-93545814D02*
X97256500Y-93592954D01*
X97209360Y-93687235D01*
X97162220Y-93734376D01*
X97067939Y-93781516D01*
X96973658Y-93781516D01*
X96902947Y-93757946D01*
X96785096Y-93687235D01*
X96714385Y-93616525D01*
X96643675Y-93498674D01*
X96620104Y-93427963D01*
X96620104Y-93333682D01*
X96667245Y-93239401D01*
X96714385Y-93192261D01*
X96808666Y-93145120D01*
X96855807Y-93145120D01*
X97232930Y-92673716D02*
X97138649Y-92767997D01*
X97115079Y-92838707D01*
X97115079Y-92885848D01*
X97138649Y-93003699D01*
X97209360Y-93121550D01*
X97397922Y-93310112D01*
X97468632Y-93333682D01*
X97515773Y-93333682D01*
X97586484Y-93310112D01*
X97680764Y-93215831D01*
X97704335Y-93145120D01*
X97704335Y-93097980D01*
X97680764Y-93027269D01*
X97562913Y-92909418D01*
X97492203Y-92885848D01*
X97445062Y-92885848D01*
X97374352Y-92909418D01*
X97280071Y-93003699D01*
X97256500Y-93074409D01*
X97256500Y-93121550D01*
X97280071Y-93192261D01*
X100463951Y-103049800D02*
X100416811Y-103049800D01*
X100322530Y-103002660D01*
X100275389Y-102955520D01*
X100228249Y-102861239D01*
X100228249Y-102766958D01*
X100251819Y-102696247D01*
X100322530Y-102578396D01*
X100393240Y-102507685D01*
X100511091Y-102436975D01*
X100581802Y-102413404D01*
X100676083Y-102413404D01*
X100770364Y-102460545D01*
X100817504Y-102507685D01*
X100864645Y-102601966D01*
X100864645Y-102649107D01*
X101171058Y-103191222D02*
X100841075Y-103521205D01*
X101241768Y-102884809D02*
X100770364Y-103120511D01*
X101076777Y-103426924D01*
X99615342Y-106611657D02*
X99662961Y-106659276D01*
X99710580Y-106802133D01*
X99710580Y-106897371D01*
X99662961Y-107040228D01*
X99567723Y-107135466D01*
X99472485Y-107183085D01*
X99282009Y-107230704D01*
X99139152Y-107230704D01*
X98948676Y-107183085D01*
X98853438Y-107135466D01*
X98758200Y-107040228D01*
X98710580Y-106897371D01*
X98710580Y-106802133D01*
X98758200Y-106659276D01*
X98805819Y-106611657D01*
X99710580Y-105659276D02*
X99710580Y-106230704D01*
X99710580Y-105944990D02*
X98710580Y-105944990D01*
X98853438Y-106040228D01*
X98948676Y-106135466D01*
X98996295Y-106230704D01*
X98805819Y-105278323D02*
X98758200Y-105230704D01*
X98710580Y-105135466D01*
X98710580Y-104897371D01*
X98758200Y-104802133D01*
X98805819Y-104754514D01*
X98901057Y-104706895D01*
X98996295Y-104706895D01*
X99139152Y-104754514D01*
X99710580Y-105325942D01*
X99710580Y-104706895D01*
X92760866Y-103571246D02*
X92760866Y-104137913D01*
X92794200Y-104204580D01*
X92827533Y-104237913D01*
X92894200Y-104271246D01*
X93027533Y-104271246D01*
X93094200Y-104237913D01*
X93127533Y-104204580D01*
X93160866Y-104137913D01*
X93160866Y-103571246D01*
X93460866Y-103637913D02*
X93494200Y-103604580D01*
X93560866Y-103571246D01*
X93727533Y-103571246D01*
X93794200Y-103604580D01*
X93827533Y-103637913D01*
X93860866Y-103704580D01*
X93860866Y-103771246D01*
X93827533Y-103871246D01*
X93427533Y-104271246D01*
X93860866Y-104271246D01*
X107289666Y-88284966D02*
X107289666Y-88851633D01*
X107323000Y-88918300D01*
X107356333Y-88951633D01*
X107423000Y-88984966D01*
X107556333Y-88984966D01*
X107623000Y-88951633D01*
X107656333Y-88918300D01*
X107689666Y-88851633D01*
X107689666Y-88284966D01*
X107956333Y-88284966D02*
X108423000Y-88284966D01*
X108123000Y-88984966D01*
X95037685Y-107818180D02*
X95037685Y-106818180D01*
X95371019Y-107532466D01*
X95704352Y-106818180D01*
X95704352Y-107818180D01*
X96371019Y-107341990D02*
X96371019Y-107818180D01*
X96037685Y-106818180D02*
X96371019Y-107341990D01*
X96704352Y-106818180D01*
X96990066Y-107770561D02*
X97132923Y-107818180D01*
X97371019Y-107818180D01*
X97466257Y-107770561D01*
X97513876Y-107722942D01*
X97561495Y-107627704D01*
X97561495Y-107532466D01*
X97513876Y-107437228D01*
X97466257Y-107389609D01*
X97371019Y-107341990D01*
X97180542Y-107294371D01*
X97085304Y-107246752D01*
X97037685Y-107199133D01*
X96990066Y-107103895D01*
X96990066Y-107008657D01*
X97037685Y-106913419D01*
X97085304Y-106865800D01*
X97180542Y-106818180D01*
X97418638Y-106818180D01*
X97561495Y-106865800D01*
X97894828Y-106818180D02*
X98561495Y-107818180D01*
X98561495Y-106818180D02*
X97894828Y-107818180D01*
X98704352Y-107913419D02*
X99466257Y-107913419D01*
X99656733Y-106913419D02*
X99704352Y-106865800D01*
X99799590Y-106818180D01*
X100037685Y-106818180D01*
X100132923Y-106865800D01*
X100180542Y-106913419D01*
X100228161Y-107008657D01*
X100228161Y-107103895D01*
X100180542Y-107246752D01*
X99609114Y-107818180D01*
X100228161Y-107818180D01*
X100656733Y-107722942D02*
X100704352Y-107770561D01*
X100656733Y-107818180D01*
X100609114Y-107770561D01*
X100656733Y-107722942D01*
X100656733Y-107818180D01*
X101561495Y-107151514D02*
X101561495Y-107818180D01*
X101323400Y-106770561D02*
X101085304Y-107484847D01*
X101704352Y-107484847D01*
X104229667Y-105785942D02*
X104229667Y-105833083D01*
X104182527Y-105927364D01*
X104135386Y-105974504D01*
X104041105Y-106021645D01*
X103946824Y-106021645D01*
X103876114Y-105998074D01*
X103758263Y-105927364D01*
X103687552Y-105856653D01*
X103616841Y-105738802D01*
X103593271Y-105668091D01*
X103593271Y-105573810D01*
X103640411Y-105479529D01*
X103687552Y-105432389D01*
X103781833Y-105385248D01*
X103828973Y-105385248D01*
X104748212Y-105361678D02*
X104465369Y-105644521D01*
X104606791Y-105503100D02*
X104111816Y-105008125D01*
X104135386Y-105125976D01*
X104135386Y-105220257D01*
X104111816Y-105290968D01*
X104559650Y-104560290D02*
X104606791Y-104513150D01*
X104677501Y-104489580D01*
X104724642Y-104489580D01*
X104795353Y-104513150D01*
X104913204Y-104583861D01*
X105031055Y-104701712D01*
X105101766Y-104819563D01*
X105125336Y-104890274D01*
X105125336Y-104937414D01*
X105101766Y-105008125D01*
X105054625Y-105055265D01*
X104983914Y-105078835D01*
X104936774Y-105078835D01*
X104866063Y-105055265D01*
X104748212Y-104984555D01*
X104630361Y-104866703D01*
X104559650Y-104748852D01*
X104536080Y-104678142D01*
X104536080Y-104631001D01*
X104559650Y-104560290D01*
X91167666Y-105509266D02*
X91167666Y-106009266D01*
X91134333Y-106109266D01*
X91067666Y-106175933D01*
X90967666Y-106209266D01*
X90901000Y-106209266D01*
X91501000Y-106209266D02*
X91501000Y-105509266D01*
X91767666Y-105509266D01*
X91834333Y-105542600D01*
X91867666Y-105575933D01*
X91901000Y-105642600D01*
X91901000Y-105742600D01*
X91867666Y-105809266D01*
X91834333Y-105842600D01*
X91767666Y-105875933D01*
X91501000Y-105875933D01*
X92567666Y-106209266D02*
X92167666Y-106209266D01*
X92367666Y-106209266D02*
X92367666Y-105509266D01*
X92301000Y-105609266D01*
X92234333Y-105675933D01*
X92167666Y-105709266D01*
X93717185Y-96726977D02*
X93717185Y-96774117D01*
X93670045Y-96868398D01*
X93622905Y-96915539D01*
X93528624Y-96962679D01*
X93434343Y-96962679D01*
X93363632Y-96939109D01*
X93245781Y-96868398D01*
X93175070Y-96797688D01*
X93104360Y-96679837D01*
X93080789Y-96609126D01*
X93080789Y-96514845D01*
X93127930Y-96420564D01*
X93175070Y-96373424D01*
X93269351Y-96326283D01*
X93316492Y-96326283D01*
X94235730Y-96302713D02*
X93952888Y-96585556D01*
X94094309Y-96444134D02*
X93599334Y-95949160D01*
X93622905Y-96067011D01*
X93622905Y-96161292D01*
X93599334Y-96232002D01*
X89888266Y-103135833D02*
X90388266Y-103135833D01*
X90488266Y-103169166D01*
X90554933Y-103235833D01*
X90588266Y-103335833D01*
X90588266Y-103402500D01*
X90588266Y-102802500D02*
X89888266Y-102802500D01*
X89888266Y-102535833D01*
X89921600Y-102469166D01*
X89954933Y-102435833D01*
X90021600Y-102402500D01*
X90121600Y-102402500D01*
X90188266Y-102435833D01*
X90221600Y-102469166D01*
X90254933Y-102535833D01*
X90254933Y-102802500D01*
X89954933Y-102135833D02*
X89921600Y-102102500D01*
X89888266Y-102035833D01*
X89888266Y-101869166D01*
X89921600Y-101802500D01*
X89954933Y-101769166D01*
X90021600Y-101735833D01*
X90088266Y-101735833D01*
X90188266Y-101769166D01*
X90588266Y-102169166D01*
X90588266Y-101735833D01*
X91140600Y-103278766D02*
X91173933Y-103312100D01*
X91207266Y-103412100D01*
X91207266Y-103478766D01*
X91173933Y-103578766D01*
X91107266Y-103645433D01*
X91040600Y-103678766D01*
X90907266Y-103712100D01*
X90807266Y-103712100D01*
X90673933Y-103678766D01*
X90607266Y-103645433D01*
X90540600Y-103578766D01*
X90507266Y-103478766D01*
X90507266Y-103412100D01*
X90540600Y-103312100D01*
X90573933Y-103278766D01*
X90507266Y-103045433D02*
X90507266Y-102578766D01*
X91207266Y-102878766D01*
X93039366Y-86711566D02*
X92339366Y-86711566D01*
X92339366Y-86544900D01*
X92372700Y-86444900D01*
X92439366Y-86378233D01*
X92506033Y-86344900D01*
X92639366Y-86311566D01*
X92739366Y-86311566D01*
X92872700Y-86344900D01*
X92939366Y-86378233D01*
X93006033Y-86444900D01*
X93039366Y-86544900D01*
X93039366Y-86711566D01*
X93039366Y-85644900D02*
X93039366Y-86044900D01*
X93039366Y-85844900D02*
X92339366Y-85844900D01*
X92439366Y-85911566D01*
X92506033Y-85978233D01*
X92539366Y-86044900D01*
X92353602Y-89838807D02*
X92353602Y-89885947D01*
X92306462Y-89980228D01*
X92259322Y-90027369D01*
X92165041Y-90074509D01*
X92070760Y-90074509D01*
X92000049Y-90050939D01*
X91882198Y-89980228D01*
X91811487Y-89909518D01*
X91740777Y-89791667D01*
X91717206Y-89720956D01*
X91717206Y-89626675D01*
X91764347Y-89532394D01*
X91811487Y-89485254D01*
X91905768Y-89438113D01*
X91952909Y-89438113D01*
X92400743Y-89320262D02*
X92330032Y-89343832D01*
X92282892Y-89343832D01*
X92212181Y-89320262D01*
X92188611Y-89296692D01*
X92165041Y-89225981D01*
X92165041Y-89178841D01*
X92188611Y-89108130D01*
X92282892Y-89013849D01*
X92353602Y-88990279D01*
X92400743Y-88990279D01*
X92471454Y-89013849D01*
X92495024Y-89037419D01*
X92518594Y-89108130D01*
X92518594Y-89155270D01*
X92495024Y-89225981D01*
X92400743Y-89320262D01*
X92377173Y-89390973D01*
X92377173Y-89438113D01*
X92400743Y-89508824D01*
X92495024Y-89603105D01*
X92565734Y-89626675D01*
X92612875Y-89626675D01*
X92683586Y-89603105D01*
X92777866Y-89508824D01*
X92801437Y-89438113D01*
X92801437Y-89390973D01*
X92777866Y-89320262D01*
X92683586Y-89225981D01*
X92612875Y-89202411D01*
X92565734Y-89202411D01*
X92495024Y-89225981D01*
X90917633Y-90420000D02*
X90884300Y-90453333D01*
X90784300Y-90486666D01*
X90717633Y-90486666D01*
X90617633Y-90453333D01*
X90550966Y-90386666D01*
X90517633Y-90320000D01*
X90484300Y-90186666D01*
X90484300Y-90086666D01*
X90517633Y-89953333D01*
X90550966Y-89886666D01*
X90617633Y-89820000D01*
X90717633Y-89786666D01*
X90784300Y-89786666D01*
X90884300Y-89820000D01*
X90917633Y-89853333D01*
X91150966Y-89786666D02*
X91584300Y-89786666D01*
X91350966Y-90053333D01*
X91450966Y-90053333D01*
X91517633Y-90086666D01*
X91550966Y-90120000D01*
X91584300Y-90186666D01*
X91584300Y-90353333D01*
X91550966Y-90420000D01*
X91517633Y-90453333D01*
X91450966Y-90486666D01*
X91250966Y-90486666D01*
X91184300Y-90453333D01*
X91150966Y-90420000D01*
X107718333Y-88441966D02*
X107485000Y-88108633D01*
X107318333Y-88441966D02*
X107318333Y-87741966D01*
X107585000Y-87741966D01*
X107651666Y-87775300D01*
X107685000Y-87808633D01*
X107718333Y-87875300D01*
X107718333Y-87975300D01*
X107685000Y-88041966D01*
X107651666Y-88075300D01*
X107585000Y-88108633D01*
X107318333Y-88108633D01*
X108351666Y-87741966D02*
X108018333Y-87741966D01*
X107985000Y-88075300D01*
X108018333Y-88041966D01*
X108085000Y-88008633D01*
X108251666Y-88008633D01*
X108318333Y-88041966D01*
X108351666Y-88075300D01*
X108385000Y-88141966D01*
X108385000Y-88308633D01*
X108351666Y-88375300D01*
X108318333Y-88408633D01*
X108251666Y-88441966D01*
X108085000Y-88441966D01*
X108018333Y-88408633D01*
X107985000Y-88375300D01*
X94369700Y-107380866D02*
X94403033Y-107414200D01*
X94436366Y-107514200D01*
X94436366Y-107580866D01*
X94403033Y-107680866D01*
X94336366Y-107747533D01*
X94269700Y-107780866D01*
X94136366Y-107814200D01*
X94036366Y-107814200D01*
X93903033Y-107780866D01*
X93836366Y-107747533D01*
X93769700Y-107680866D01*
X93736366Y-107580866D01*
X93736366Y-107514200D01*
X93769700Y-107414200D01*
X93803033Y-107380866D01*
X94436366Y-107047533D02*
X94436366Y-106914200D01*
X94403033Y-106847533D01*
X94369700Y-106814200D01*
X94269700Y-106747533D01*
X94136366Y-106714200D01*
X93869700Y-106714200D01*
X93803033Y-106747533D01*
X93769700Y-106780866D01*
X93736366Y-106847533D01*
X93736366Y-106980866D01*
X93769700Y-107047533D01*
X93803033Y-107080866D01*
X93869700Y-107114200D01*
X94036366Y-107114200D01*
X94103033Y-107080866D01*
X94136366Y-107047533D01*
X94169700Y-106980866D01*
X94169700Y-106847533D01*
X94136366Y-106780866D01*
X94103033Y-106747533D01*
X94036366Y-106714200D01*
X102464466Y-107442800D02*
X102231133Y-107442800D01*
X102231133Y-107809466D02*
X102231133Y-107109466D01*
X102564466Y-107109466D01*
X103064466Y-107442800D02*
X103164466Y-107476133D01*
X103197800Y-107509466D01*
X103231133Y-107576133D01*
X103231133Y-107676133D01*
X103197800Y-107742800D01*
X103164466Y-107776133D01*
X103097800Y-107809466D01*
X102831133Y-107809466D01*
X102831133Y-107109466D01*
X103064466Y-107109466D01*
X103131133Y-107142800D01*
X103164466Y-107176133D01*
X103197800Y-107242800D01*
X103197800Y-107309466D01*
X103164466Y-107376133D01*
X103131133Y-107409466D01*
X103064466Y-107442800D01*
X102831133Y-107442800D01*
X103897800Y-107809466D02*
X103497800Y-107809466D01*
X103697800Y-107809466D02*
X103697800Y-107109466D01*
X103631133Y-107209466D01*
X103564466Y-107276133D01*
X103497800Y-107309466D01*
M02*
