M48
;DRILL file {KiCad no-vcs-found-undefined} date Wed Nov 16 23:20:26 2016
;FORMAT={-:-/ absolute / metric / decimal}
FMAT,2
METRIC,TZ
T1C0.300
T2C0.400
T3C1.016
%
G90
G05
M71
T1
X89.637Y-85.7
X90.399Y-85.7
X90.627Y-94.209
X91.11Y-99.39
X91.11Y-100.29
X91.11Y-101.19
X91.11Y-102.99
X91.211Y-85.7
X91.313Y-102.083
X91.973Y-85.7
X92.227Y-92.202
X92.71Y-85.7
X92.913Y-82.601
X93.345Y-100.533
X93.497Y-95.225
X93.523Y-93.548
X93.813Y-82.601
X94.005Y-97.079
X94.64Y-103.53
X94.713Y-82.601
X95.021Y-100.051
X95.613Y-82.601
X96.513Y-82.601
X96.825Y-99.949
X96.85Y-103.53
X96.85Y-104.43
X97.358Y-98.933
X97.413Y-82.601
X97.75Y-104.43
X98.196Y-95.555
X98.313Y-82.601
X98.65Y-104.43
X99.213Y-82.601
X99.55Y-104.43
X100.113Y-82.601
X101.013Y-82.601
X101.913Y-82.601
X102.813Y-82.601
X103.713Y-82.601
X104.613Y-82.601
X105.513Y-82.601
X106.413Y-82.601
X107.313Y-82.601
X108.213Y-82.601
X108.915Y-95.428
X109.017Y-93.65
X109.113Y-82.601
X109.55Y-96.596
X109.55Y-98.679
X109.855Y-83.083
X109.855Y-83.983
X109.855Y-85.783
X109.855Y-87.583
X109.855Y-88.483
T2
X89.738Y-86.843
X89.738Y-91.669
X91.059Y-90.399
X91.084Y-92.939
X91.084Y-95.479
X92.053Y-99.309
X94.079Y-98.454
X94.132Y-105.603
X94.894Y-110.693
X94.971Y-96.876
X95.606Y-103.65
X98.194Y-97.932
X98.565Y-96.24
X98.675Y-93.222
X99.111Y-91.923
X99.837Y-97.355
X99.974Y-91.796
X100.127Y-87.855
X100.132Y-85.903
X100.284Y-104.892
X100.889Y-104.445
X101.473Y-97.935
X101.498Y-91.948
X101.625Y-87.478
X101.676Y-88.671
X101.803Y-107.696
X101.956Y-97.282
X102.337Y-91.948
X102.367Y-97.935
X102.429Y-94.899
X102.464Y-110.566
X103.419Y-95.847
X103.53Y-103.657
X104.076Y-86.141
X104.14Y-87.935
X104.292Y-100.829
X104.411Y-97.013
X105.132Y-101.166
X105.409Y-90.026
X105.537Y-102.26
X106.172Y-90.983
X106.197Y-83.925
X106.655Y-89.205
X106.763Y-87.854
X107.34Y-97.642
X107.467Y-93.65
X107.468Y-107.975
X108.119Y-88.748
X108.407Y-88.011
X108.61Y-104.673
X108.661Y-101.143
T3
X90.983Y-109.449
X90.983Y-111.989
X91.084Y-83.795
X93.523Y-109.449
X93.523Y-111.989
X96.063Y-109.449
X96.063Y-111.989
X98.603Y-109.449
X98.603Y-111.989
X101.143Y-109.449
X101.143Y-111.989
X103.683Y-109.449
X103.683Y-111.989
X106.223Y-109.449
X106.223Y-111.989
X108.763Y-109.449
X108.763Y-111.989
T0
M30
