M48
;DRILL file {KiCad no-vcs-found-7592~57~ubuntu16.10.1} date Tue Feb  7 20:26:08 2017
;FORMAT={-:-/ absolute / metric / decimal}
FMAT,2
METRIC,TZ
T1C0.300
T2C0.400
T3C1.016
%
G90
G05
M71
T1
X89.764Y-90.246
X90.256Y-96.662
X90.272Y-99.238
X90.272Y-100.99
X91.465Y-96.749
X91.694Y-103.264
X91.732Y-101.829
X92.215Y-89.878
X92.862Y-82.715
X92.888Y-84.709
X93.462Y-99.223
X93.579Y-103.124
X93.764Y-91.351
X93.891Y-95.885
X94.031Y-101.666
X94.056Y-84.785
X94.767Y-94.056
X94.862Y-82.715
X95.047Y-85.852
X95.428Y-102.819
X96.418Y-91.326
X96.85Y-88.278
X96.862Y-82.715
X97.244Y-104.242
X97.704Y-85.872
X98.73Y-106.083
X98.85Y-88.278
X98.862Y-82.715
X99.035Y-90.78
X99.517Y-96.418
X99.517Y-97.418
X99.517Y-98.418
X100.393Y-84.912
X100.517Y-96.418
X100.517Y-98.418
X100.862Y-82.715
X101.13Y-84.049
X101.194Y-90.424
X101.517Y-96.418
X101.517Y-97.418
X101.517Y-98.418
X101.9Y-86.393
X101.943Y-105.258
X102.413Y-87.96
X102.862Y-82.715
X103.162Y-107.15
X104.356Y-90.399
X104.47Y-105.562
X104.862Y-82.715
X105.928Y-100.538
X106.274Y-88.595
X107.188Y-99.339
X107.533Y-104.567
X108.839Y-84.226
X108.862Y-82.715
X108.915Y-97.18
X109.499Y-87.96
T2
X91.059Y-90.399
X91.084Y-95.479
X91.179Y-94.175
X92.291Y-93.751
X92.466Y-92.085
X94.132Y-105.603
X96.579Y-105.928
X97.104Y-108.356
X98.349Y-107.747
X99.598Y-107.885
X99.898Y-111.506
X99.962Y-91.542
X101.062Y-88.722
X101.783Y-95.204
X102.184Y-90.703
X102.532Y-95.024
X102.908Y-95.783
X103.306Y-90.46
X103.459Y-83.744
X103.529Y-88.019
X104.198Y-110.66
X104.435Y-108.35
X104.504Y-107.575
X105.96Y-87.67
X106.019Y-92.413
X106.132Y-105.603
X107.29Y-84.201
X107.383Y-96.076
X107.737Y-96.894
X107.798Y-92.799
X107.875Y-93.842
X108.166Y-91.554
X108.208Y-107.244
X108.298Y-98.417
X109.202Y-90.888
X109.393Y-96.326
X109.431Y-107.174
X110.039Y-107.81
T3
X90.983Y-109.449
X90.983Y-111.989
X91.084Y-83.795
X91.084Y-86.335
X93.523Y-109.449
X93.523Y-111.989
X96.063Y-109.449
X96.063Y-111.989
X98.603Y-109.449
X98.603Y-111.989
X101.143Y-109.449
X101.143Y-111.989
X103.683Y-109.449
X103.683Y-111.989
X106.223Y-109.449
X106.223Y-111.989
X108.763Y-109.449
X108.763Y-111.989
T0
M30
