M48
;DRILL file {KiCad no-vcs-found-undefined} date Sun Nov 20 22:17:35 2016
;FORMAT={-:-/ absolute / metric / decimal}
FMAT,2
METRIC,TZ
T1C0.300
T2C0.400
T3C1.016
%
G90
G05
M71
T1
X99.517Y-96.418
X99.517Y-97.418
X99.517Y-98.418
X100.517Y-96.418
X100.517Y-97.418
X100.517Y-98.418
X101.517Y-96.418
X101.517Y-97.418
X101.517Y-98.418
T2
X89.56Y-90.322
X89.56Y-99.543
X90.424Y-100.406
X91.084Y-95.479
X91.351Y-102.171
X91.592Y-89.56
X91.605Y-86.614
X91.821Y-103.581
X92.202Y-92.939
X92.466Y-92.085
X93.066Y-85.446
X93.574Y-103.454
X93.726Y-95.606
X94.132Y-105.603
X95.148Y-102.794
X96.579Y-105.928
X98.349Y-107.747
X98.933Y-106.883
X99.598Y-107.885
X99.898Y-111.506
X100.119Y-85.728
X100.686Y-88.519
X101.18Y-87.951
X101.264Y-91.191
X101.766Y-95.227
X101.956Y-82.791
X102.062Y-90.339
X102.514Y-95.148
X102.54Y-95.961
X103.213Y-90.166
X104.132Y-85.903
X104.198Y-110.66
X104.331Y-83.82
X104.555Y-107.573
X104.7Y-108.569
X105.524Y-93.066
X106.02Y-91.008
X106.132Y-105.603
X106.172Y-86.576
X106.236Y-88.709
X107.34Y-104.216
X107.815Y-95.969
X108.093Y-90.221
X108.102Y-98.095
X108.191Y-107.382
X108.407Y-99.924
X109.431Y-107.174
X109.457Y-93.463
X109.804Y-87.808
X109.804Y-90.805
X110.053Y-107.796
T3
X90.983Y-109.449
X90.983Y-111.989
X91.084Y-83.795
X93.523Y-109.449
X93.523Y-111.989
X96.063Y-109.449
X96.063Y-111.989
X98.603Y-109.449
X98.603Y-111.989
X101.143Y-109.449
X101.143Y-111.989
X103.683Y-109.449
X103.683Y-111.989
X106.223Y-109.449
X106.223Y-111.989
X108.763Y-109.449
X108.763Y-111.989
T0
M30
