G04 #@! TF.GenerationSoftware,KiCad,Pcbnew,no-vcs-found-7664~57~ubuntu16.10.1*
G04 #@! TF.CreationDate,2017-02-22T20:42:03+01:00*
G04 #@! TF.ProjectId,SensebenderMicro2,53656E736562656E6465724D6963726F,rev?*
G04 #@! TF.FileFunction,Soldermask,Top*
G04 #@! TF.FilePolarity,Negative*
%FSLAX46Y46*%
G04 Gerber Fmt 4.6, Leading zero omitted, Abs format (unit mm)*
G04 Created by KiCad (PCBNEW no-vcs-found-7664~57~ubuntu16.10.1) date Wed Feb 22 20:42:03 2017*
%MOMM*%
%LPD*%
G01*
G04 APERTURE LIST*
%ADD10C,0.100000*%
%ADD11R,1.550000X0.600000*%
%ADD12R,0.800100X0.800100*%
%ADD13C,0.750000*%
%ADD14R,0.797560X0.797560*%
%ADD15R,0.900000X0.500000*%
%ADD16O,2.032000X2.032000*%
%ADD17R,2.032000X2.032000*%
%ADD18R,0.500000X0.900000*%
%ADD19C,0.550000*%
%ADD20R,1.060000X0.650000*%
%ADD21R,0.800000X0.750000*%
%ADD22C,1.500000*%
%ADD23R,0.750000X0.800000*%
%ADD24R,0.630000X0.450000*%
%ADD25R,0.850000X1.300000*%
%ADD26O,1.727200X1.727200*%
%ADD27R,1.727200X1.727200*%
%ADD28C,1.270000*%
%ADD29R,0.600000X1.270000*%
%ADD30R,1.200000X1.270000*%
%ADD31R,1.270000X0.600000*%
%ADD32O,1.270000X1.270000*%
G04 APERTURE END LIST*
D10*
D11*
X104711500Y-87464900D03*
X104711500Y-86194900D03*
X104711500Y-84924900D03*
X104711500Y-83654900D03*
X99311500Y-83654900D03*
X99311500Y-84924900D03*
X99311500Y-86194900D03*
X99311500Y-87464900D03*
D12*
X108136400Y-101513640D03*
X106236400Y-101513640D03*
X107186400Y-103512620D03*
D13*
X94643470Y-102333530D03*
D10*
G36*
X94625792Y-102881538D02*
X94095462Y-102351208D01*
X94661148Y-101785522D01*
X95191478Y-102315852D01*
X94625792Y-102881538D01*
X94625792Y-102881538D01*
G37*
D13*
X95704130Y-101272870D03*
D10*
G36*
X95686452Y-101820878D02*
X95156122Y-101290548D01*
X95721808Y-100724862D01*
X96252138Y-101255192D01*
X95686452Y-101820878D01*
X95686452Y-101820878D01*
G37*
D14*
X91732100Y-88938100D03*
X90233500Y-88938100D03*
D15*
X90424000Y-94120400D03*
X90424000Y-92620400D03*
D16*
X91084400Y-86334600D03*
D17*
X91084400Y-83794600D03*
D18*
X94475300Y-90093800D03*
X92975300Y-90093800D03*
X98094800Y-89281000D03*
X96594800Y-89281000D03*
D19*
X95817121Y-98415973D03*
D10*
G36*
X95445890Y-99176113D02*
X95056981Y-98787204D01*
X96188352Y-97655833D01*
X96577261Y-98044742D01*
X95445890Y-99176113D01*
X95445890Y-99176113D01*
G37*
D19*
X96382807Y-98981658D03*
D10*
G36*
X96011576Y-99741798D02*
X95622667Y-99352889D01*
X96754038Y-98221518D01*
X97142947Y-98610427D01*
X96011576Y-99741798D01*
X96011576Y-99741798D01*
G37*
D19*
X96948492Y-99547344D03*
D10*
G36*
X96577261Y-100307484D02*
X96188352Y-99918575D01*
X97319723Y-98787204D01*
X97708632Y-99176113D01*
X96577261Y-100307484D01*
X96577261Y-100307484D01*
G37*
D19*
X97514177Y-100113029D03*
D10*
G36*
X97142946Y-100873169D02*
X96754037Y-100484260D01*
X97885408Y-99352889D01*
X98274317Y-99741798D01*
X97142946Y-100873169D01*
X97142946Y-100873169D01*
G37*
D19*
X98079863Y-100678715D03*
D10*
G36*
X97708632Y-101438855D02*
X97319723Y-101049946D01*
X98451094Y-99918575D01*
X98840003Y-100307484D01*
X97708632Y-101438855D01*
X97708632Y-101438855D01*
G37*
D19*
X98645548Y-101244400D03*
D10*
G36*
X98274317Y-102004540D02*
X97885408Y-101615631D01*
X99016779Y-100484260D01*
X99405688Y-100873169D01*
X98274317Y-102004540D01*
X98274317Y-102004540D01*
G37*
D19*
X99211234Y-101810085D03*
D10*
G36*
X98840003Y-102570225D02*
X98451094Y-102181316D01*
X99582465Y-101049945D01*
X99971374Y-101438854D01*
X98840003Y-102570225D01*
X98840003Y-102570225D01*
G37*
D19*
X99776919Y-102375771D03*
D10*
G36*
X99405688Y-103135911D02*
X99016779Y-102747002D01*
X100148150Y-101615631D01*
X100537059Y-102004540D01*
X99405688Y-103135911D01*
X99405688Y-103135911D01*
G37*
D19*
X101827529Y-102375771D03*
D10*
G36*
X102587669Y-102747002D02*
X102198760Y-103135911D01*
X101067389Y-102004540D01*
X101456298Y-101615631D01*
X102587669Y-102747002D01*
X102587669Y-102747002D01*
G37*
D19*
X102393214Y-101810085D03*
D10*
G36*
X103153354Y-102181316D02*
X102764445Y-102570225D01*
X101633074Y-101438854D01*
X102021983Y-101049945D01*
X103153354Y-102181316D01*
X103153354Y-102181316D01*
G37*
D19*
X102958900Y-101244400D03*
D10*
G36*
X103719040Y-101615631D02*
X103330131Y-102004540D01*
X102198760Y-100873169D01*
X102587669Y-100484260D01*
X103719040Y-101615631D01*
X103719040Y-101615631D01*
G37*
D19*
X103524585Y-100678715D03*
D10*
G36*
X104284725Y-101049946D02*
X103895816Y-101438855D01*
X102764445Y-100307484D01*
X103153354Y-99918575D01*
X104284725Y-101049946D01*
X104284725Y-101049946D01*
G37*
D19*
X104090271Y-100113029D03*
D10*
G36*
X104850411Y-100484260D02*
X104461502Y-100873169D01*
X103330131Y-99741798D01*
X103719040Y-99352889D01*
X104850411Y-100484260D01*
X104850411Y-100484260D01*
G37*
D19*
X104655956Y-99547344D03*
D10*
G36*
X105416096Y-99918575D02*
X105027187Y-100307484D01*
X103895816Y-99176113D01*
X104284725Y-98787204D01*
X105416096Y-99918575D01*
X105416096Y-99918575D01*
G37*
D19*
X105221641Y-98981658D03*
D10*
G36*
X105981781Y-99352889D02*
X105592872Y-99741798D01*
X104461501Y-98610427D01*
X104850410Y-98221518D01*
X105981781Y-99352889D01*
X105981781Y-99352889D01*
G37*
D19*
X105787327Y-98415973D03*
D10*
G36*
X106547467Y-98787204D02*
X106158558Y-99176113D01*
X105027187Y-98044742D01*
X105416096Y-97655833D01*
X106547467Y-98787204D01*
X106547467Y-98787204D01*
G37*
D19*
X105787327Y-96365363D03*
D10*
G36*
X105416096Y-97125503D02*
X105027187Y-96736594D01*
X106158558Y-95605223D01*
X106547467Y-95994132D01*
X105416096Y-97125503D01*
X105416096Y-97125503D01*
G37*
D19*
X105221641Y-95799678D03*
D10*
G36*
X104850410Y-96559818D02*
X104461501Y-96170909D01*
X105592872Y-95039538D01*
X105981781Y-95428447D01*
X104850410Y-96559818D01*
X104850410Y-96559818D01*
G37*
D19*
X104655956Y-95233992D03*
D10*
G36*
X104284725Y-95994132D02*
X103895816Y-95605223D01*
X105027187Y-94473852D01*
X105416096Y-94862761D01*
X104284725Y-95994132D01*
X104284725Y-95994132D01*
G37*
D19*
X104090271Y-94668307D03*
D10*
G36*
X103719040Y-95428447D02*
X103330131Y-95039538D01*
X104461502Y-93908167D01*
X104850411Y-94297076D01*
X103719040Y-95428447D01*
X103719040Y-95428447D01*
G37*
D19*
X103524585Y-94102621D03*
D10*
G36*
X103153354Y-94862761D02*
X102764445Y-94473852D01*
X103895816Y-93342481D01*
X104284725Y-93731390D01*
X103153354Y-94862761D01*
X103153354Y-94862761D01*
G37*
D19*
X102958900Y-93536936D03*
D10*
G36*
X102587669Y-94297076D02*
X102198760Y-93908167D01*
X103330131Y-92776796D01*
X103719040Y-93165705D01*
X102587669Y-94297076D01*
X102587669Y-94297076D01*
G37*
D19*
X102393214Y-92971251D03*
D10*
G36*
X102021983Y-93731391D02*
X101633074Y-93342482D01*
X102764445Y-92211111D01*
X103153354Y-92600020D01*
X102021983Y-93731391D01*
X102021983Y-93731391D01*
G37*
D19*
X101827529Y-92405565D03*
D10*
G36*
X101456298Y-93165705D02*
X101067389Y-92776796D01*
X102198760Y-91645425D01*
X102587669Y-92034334D01*
X101456298Y-93165705D01*
X101456298Y-93165705D01*
G37*
D19*
X99776919Y-92405565D03*
D10*
G36*
X100537059Y-92776796D02*
X100148150Y-93165705D01*
X99016779Y-92034334D01*
X99405688Y-91645425D01*
X100537059Y-92776796D01*
X100537059Y-92776796D01*
G37*
D19*
X99211234Y-92971251D03*
D10*
G36*
X99971374Y-93342482D02*
X99582465Y-93731391D01*
X98451094Y-92600020D01*
X98840003Y-92211111D01*
X99971374Y-93342482D01*
X99971374Y-93342482D01*
G37*
D19*
X98645548Y-93536936D03*
D10*
G36*
X99405688Y-93908167D02*
X99016779Y-94297076D01*
X97885408Y-93165705D01*
X98274317Y-92776796D01*
X99405688Y-93908167D01*
X99405688Y-93908167D01*
G37*
D19*
X98079863Y-94102621D03*
D10*
G36*
X98840003Y-94473852D02*
X98451094Y-94862761D01*
X97319723Y-93731390D01*
X97708632Y-93342481D01*
X98840003Y-94473852D01*
X98840003Y-94473852D01*
G37*
D19*
X97514177Y-94668307D03*
D10*
G36*
X98274317Y-95039538D02*
X97885408Y-95428447D01*
X96754037Y-94297076D01*
X97142946Y-93908167D01*
X98274317Y-95039538D01*
X98274317Y-95039538D01*
G37*
D19*
X96948492Y-95233992D03*
D10*
G36*
X97708632Y-95605223D02*
X97319723Y-95994132D01*
X96188352Y-94862761D01*
X96577261Y-94473852D01*
X97708632Y-95605223D01*
X97708632Y-95605223D01*
G37*
D19*
X96382807Y-95799678D03*
D10*
G36*
X97142947Y-96170909D02*
X96754038Y-96559818D01*
X95622667Y-95428447D01*
X96011576Y-95039538D01*
X97142947Y-96170909D01*
X97142947Y-96170909D01*
G37*
D19*
X95817121Y-96365363D03*
D10*
G36*
X96577261Y-96736594D02*
X96188352Y-97125503D01*
X95056981Y-95994132D01*
X95445890Y-95605223D01*
X96577261Y-96736594D01*
X96577261Y-96736594D01*
G37*
D18*
X108623800Y-90474800D03*
X107123800Y-90474800D03*
D20*
X107002400Y-91937800D03*
X107002400Y-92887800D03*
X107002400Y-93837800D03*
X109202400Y-93837800D03*
X109202400Y-91937800D03*
D21*
X108128500Y-83553300D03*
X106628500Y-83553300D03*
X109068300Y-95402400D03*
X107568300Y-95402400D03*
D22*
X92563740Y-97999340D03*
D10*
G36*
X91397014Y-98105406D02*
X92669806Y-96832614D01*
X93730466Y-97893274D01*
X92457674Y-99166066D01*
X91397014Y-98105406D01*
X91397014Y-98105406D01*
G37*
D22*
X94685060Y-100120660D03*
D10*
G36*
X93518334Y-100226726D02*
X94791126Y-98953934D01*
X95851786Y-100014594D01*
X94578994Y-101287386D01*
X93518334Y-100226726D01*
X93518334Y-100226726D01*
G37*
D13*
X96974130Y-92001870D03*
D10*
G36*
X96991808Y-91453862D02*
X97522138Y-91984192D01*
X96956452Y-92549878D01*
X96426122Y-92019548D01*
X96991808Y-91453862D01*
X96991808Y-91453862D01*
G37*
D13*
X95913470Y-93062530D03*
D10*
G36*
X95931148Y-92514522D02*
X96461478Y-93044852D01*
X95895792Y-93610538D01*
X95365462Y-93080208D01*
X95931148Y-92514522D01*
X95931148Y-92514522D01*
G37*
D13*
X103400330Y-102936570D03*
D10*
G36*
X103418008Y-102388562D02*
X103948338Y-102918892D01*
X103382652Y-103484578D01*
X102852322Y-102954248D01*
X103418008Y-102388562D01*
X103418008Y-102388562D01*
G37*
D13*
X102339670Y-103997230D03*
D10*
G36*
X102357348Y-103449222D02*
X102887678Y-103979552D01*
X102321992Y-104545238D01*
X101791662Y-104014908D01*
X102357348Y-103449222D01*
X102357348Y-103449222D01*
G37*
D23*
X97358200Y-105218800D03*
X97358200Y-106718800D03*
D12*
X90769400Y-102803960D03*
X92669400Y-102803960D03*
X91719400Y-100804980D03*
D24*
X109163000Y-87043300D03*
X109163000Y-86093300D03*
X109163000Y-85143300D03*
X106483000Y-85143300D03*
X106483000Y-86093300D03*
X106483000Y-87043300D03*
D25*
X107398000Y-85443300D03*
X107398000Y-86743300D03*
X108248000Y-85443300D03*
X108248000Y-86743300D03*
D26*
X108762800Y-109448600D03*
X108762800Y-111988600D03*
X106222800Y-109448600D03*
X106222800Y-111988600D03*
X103682800Y-109448600D03*
X103682800Y-111988600D03*
X101142800Y-109448600D03*
X101142800Y-111988600D03*
D27*
X90982800Y-111988600D03*
D26*
X90982800Y-109448600D03*
X93522800Y-111988600D03*
X93522800Y-109448600D03*
X96062800Y-111988600D03*
X96062800Y-109448600D03*
X98602800Y-111988600D03*
X98602800Y-109448600D03*
D13*
X103365300Y-105003600D03*
D10*
G36*
X103347622Y-105551608D02*
X102817292Y-105021278D01*
X103382978Y-104455592D01*
X103913308Y-104985922D01*
X103347622Y-105551608D01*
X103347622Y-105551608D01*
G37*
D13*
X104425960Y-103942940D03*
D10*
G36*
X104408282Y-104490948D02*
X103877952Y-103960618D01*
X104443638Y-103394932D01*
X104973968Y-103925262D01*
X104408282Y-104490948D01*
X104408282Y-104490948D01*
G37*
D28*
X90151000Y-107162600D03*
X93351000Y-107162600D03*
D29*
X92951000Y-107162600D03*
D30*
X91751000Y-107162600D03*
D29*
X90551000Y-107162600D03*
D13*
X93291130Y-95075270D03*
D10*
G36*
X93308808Y-94527262D02*
X93839138Y-95057592D01*
X93273452Y-95623278D01*
X92743122Y-95092948D01*
X93308808Y-94527262D01*
X93308808Y-94527262D01*
G37*
D13*
X92230470Y-96135930D03*
D10*
G36*
X92248148Y-95587922D02*
X92778478Y-96118252D01*
X92212792Y-96683938D01*
X91682462Y-96153608D01*
X92248148Y-95587922D01*
X92248148Y-95587922D01*
G37*
D31*
X90119200Y-104457500D03*
X90119200Y-105346500D03*
D32*
X90119200Y-104140000D03*
X90119200Y-105664000D03*
D23*
X91643200Y-105779000D03*
X91643200Y-104279000D03*
D14*
X95084900Y-88468200D03*
X93586300Y-88468200D03*
D13*
X94287870Y-92579930D03*
D10*
G36*
X94270192Y-93127938D02*
X93739862Y-92597608D01*
X94305548Y-92031922D01*
X94835878Y-92562252D01*
X94270192Y-93127938D01*
X94270192Y-93127938D01*
G37*
D13*
X95348530Y-91519270D03*
D10*
G36*
X95330852Y-92067278D02*
X94800522Y-91536948D01*
X95366208Y-90971262D01*
X95896538Y-91501592D01*
X95330852Y-92067278D01*
X95330852Y-92067278D01*
G37*
D21*
X90284300Y-91186000D03*
X91784300Y-91186000D03*
D18*
X108585000Y-88760300D03*
X107085000Y-88760300D03*
D23*
X93446600Y-104126600D03*
X93446600Y-105626600D03*
D18*
X103899400Y-106781600D03*
X102399400Y-106781600D03*
D23*
X105652000Y-91555000D03*
X105652000Y-90055000D03*
X94996700Y-104126600D03*
X94996700Y-105626600D03*
M02*
