G04 #@! TF.FileFunction,Copper,L1,Top,Signal*
%FSLAX46Y46*%
G04 Gerber Fmt 4.6, Leading zero omitted, Abs format (unit mm)*
G04 Created by KiCad (PCBNEW no-vcs-found-undefined) date Sun Nov 20 22:17:31 2016*
%MOMM*%
%LPD*%
G01*
G04 APERTURE LIST*
%ADD10C,0.100000*%
%ADD11C,0.550000*%
%ADD12R,0.500000X0.900000*%
%ADD13R,1.550000X0.600000*%
%ADD14C,0.600000*%
%ADD15C,1.500000*%
%ADD16C,0.750000*%
%ADD17R,0.800100X0.800100*%
%ADD18R,1.060000X0.650000*%
%ADD19R,0.750000X0.800000*%
%ADD20R,0.630000X0.450000*%
%ADD21R,0.850000X1.300000*%
%ADD22O,1.727200X1.727200*%
%ADD23R,1.727200X1.727200*%
%ADD24C,1.270000*%
%ADD25R,0.600000X1.270000*%
%ADD26R,1.200000X1.270000*%
%ADD27R,1.270000X0.600000*%
%ADD28O,1.270000X1.270000*%
%ADD29R,0.797560X0.797560*%
%ADD30R,0.900000X0.500000*%
%ADD31R,2.235200X2.235200*%
%ADD32C,0.381000*%
%ADD33C,0.203200*%
%ADD34C,0.152400*%
G04 APERTURE END LIST*
D10*
D11*
X95497297Y-98078705D03*
D10*
G36*
X95126066Y-98838845D02*
X94737157Y-98449936D01*
X95868528Y-97318565D01*
X96257437Y-97707474D01*
X95126066Y-98838845D01*
X95126066Y-98838845D01*
G37*
D11*
X96062983Y-98644390D03*
D10*
G36*
X95691752Y-99404530D02*
X95302843Y-99015621D01*
X96434214Y-97884250D01*
X96823123Y-98273159D01*
X95691752Y-99404530D01*
X95691752Y-99404530D01*
G37*
D11*
X96628668Y-99210076D03*
D10*
G36*
X96257437Y-99970216D02*
X95868528Y-99581307D01*
X96999899Y-98449936D01*
X97388808Y-98838845D01*
X96257437Y-99970216D01*
X96257437Y-99970216D01*
G37*
D11*
X97194353Y-99775761D03*
D10*
G36*
X96823122Y-100535901D02*
X96434213Y-100146992D01*
X97565584Y-99015621D01*
X97954493Y-99404530D01*
X96823122Y-100535901D01*
X96823122Y-100535901D01*
G37*
D11*
X97760039Y-100341447D03*
D10*
G36*
X97388808Y-101101587D02*
X96999899Y-100712678D01*
X98131270Y-99581307D01*
X98520179Y-99970216D01*
X97388808Y-101101587D01*
X97388808Y-101101587D01*
G37*
D11*
X98325724Y-100907132D03*
D10*
G36*
X97954493Y-101667272D02*
X97565584Y-101278363D01*
X98696955Y-100146992D01*
X99085864Y-100535901D01*
X97954493Y-101667272D01*
X97954493Y-101667272D01*
G37*
D11*
X98891410Y-101472817D03*
D10*
G36*
X98520179Y-102232957D02*
X98131270Y-101844048D01*
X99262641Y-100712677D01*
X99651550Y-101101586D01*
X98520179Y-102232957D01*
X98520179Y-102232957D01*
G37*
D11*
X99457095Y-102038503D03*
D10*
G36*
X99085864Y-102798643D02*
X98696955Y-102409734D01*
X99828326Y-101278363D01*
X100217235Y-101667272D01*
X99085864Y-102798643D01*
X99085864Y-102798643D01*
G37*
D11*
X101507705Y-102038503D03*
D10*
G36*
X102267845Y-102409734D02*
X101878936Y-102798643D01*
X100747565Y-101667272D01*
X101136474Y-101278363D01*
X102267845Y-102409734D01*
X102267845Y-102409734D01*
G37*
D11*
X102073390Y-101472817D03*
D10*
G36*
X102833530Y-101844048D02*
X102444621Y-102232957D01*
X101313250Y-101101586D01*
X101702159Y-100712677D01*
X102833530Y-101844048D01*
X102833530Y-101844048D01*
G37*
D11*
X102639076Y-100907132D03*
D10*
G36*
X103399216Y-101278363D02*
X103010307Y-101667272D01*
X101878936Y-100535901D01*
X102267845Y-100146992D01*
X103399216Y-101278363D01*
X103399216Y-101278363D01*
G37*
D11*
X103204761Y-100341447D03*
D10*
G36*
X103964901Y-100712678D02*
X103575992Y-101101587D01*
X102444621Y-99970216D01*
X102833530Y-99581307D01*
X103964901Y-100712678D01*
X103964901Y-100712678D01*
G37*
D11*
X103770447Y-99775761D03*
D10*
G36*
X104530587Y-100146992D02*
X104141678Y-100535901D01*
X103010307Y-99404530D01*
X103399216Y-99015621D01*
X104530587Y-100146992D01*
X104530587Y-100146992D01*
G37*
D11*
X104336132Y-99210076D03*
D10*
G36*
X105096272Y-99581307D02*
X104707363Y-99970216D01*
X103575992Y-98838845D01*
X103964901Y-98449936D01*
X105096272Y-99581307D01*
X105096272Y-99581307D01*
G37*
D11*
X104901817Y-98644390D03*
D10*
G36*
X105661957Y-99015621D02*
X105273048Y-99404530D01*
X104141677Y-98273159D01*
X104530586Y-97884250D01*
X105661957Y-99015621D01*
X105661957Y-99015621D01*
G37*
D11*
X105467503Y-98078705D03*
D10*
G36*
X106227643Y-98449936D02*
X105838734Y-98838845D01*
X104707363Y-97707474D01*
X105096272Y-97318565D01*
X106227643Y-98449936D01*
X106227643Y-98449936D01*
G37*
D11*
X105467503Y-96028095D03*
D10*
G36*
X105096272Y-96788235D02*
X104707363Y-96399326D01*
X105838734Y-95267955D01*
X106227643Y-95656864D01*
X105096272Y-96788235D01*
X105096272Y-96788235D01*
G37*
D11*
X104901817Y-95462410D03*
D10*
G36*
X104530586Y-96222550D02*
X104141677Y-95833641D01*
X105273048Y-94702270D01*
X105661957Y-95091179D01*
X104530586Y-96222550D01*
X104530586Y-96222550D01*
G37*
D11*
X104336132Y-94896724D03*
D10*
G36*
X103964901Y-95656864D02*
X103575992Y-95267955D01*
X104707363Y-94136584D01*
X105096272Y-94525493D01*
X103964901Y-95656864D01*
X103964901Y-95656864D01*
G37*
D11*
X103770447Y-94331039D03*
D10*
G36*
X103399216Y-95091179D02*
X103010307Y-94702270D01*
X104141678Y-93570899D01*
X104530587Y-93959808D01*
X103399216Y-95091179D01*
X103399216Y-95091179D01*
G37*
D11*
X103204761Y-93765353D03*
D10*
G36*
X102833530Y-94525493D02*
X102444621Y-94136584D01*
X103575992Y-93005213D01*
X103964901Y-93394122D01*
X102833530Y-94525493D01*
X102833530Y-94525493D01*
G37*
D11*
X102639076Y-93199668D03*
D10*
G36*
X102267845Y-93959808D02*
X101878936Y-93570899D01*
X103010307Y-92439528D01*
X103399216Y-92828437D01*
X102267845Y-93959808D01*
X102267845Y-93959808D01*
G37*
D11*
X102073390Y-92633983D03*
D10*
G36*
X101702159Y-93394123D02*
X101313250Y-93005214D01*
X102444621Y-91873843D01*
X102833530Y-92262752D01*
X101702159Y-93394123D01*
X101702159Y-93394123D01*
G37*
D11*
X101507705Y-92068297D03*
D10*
G36*
X101136474Y-92828437D02*
X100747565Y-92439528D01*
X101878936Y-91308157D01*
X102267845Y-91697066D01*
X101136474Y-92828437D01*
X101136474Y-92828437D01*
G37*
D11*
X99457095Y-92068297D03*
D10*
G36*
X100217235Y-92439528D02*
X99828326Y-92828437D01*
X98696955Y-91697066D01*
X99085864Y-91308157D01*
X100217235Y-92439528D01*
X100217235Y-92439528D01*
G37*
D11*
X98891410Y-92633983D03*
D10*
G36*
X99651550Y-93005214D02*
X99262641Y-93394123D01*
X98131270Y-92262752D01*
X98520179Y-91873843D01*
X99651550Y-93005214D01*
X99651550Y-93005214D01*
G37*
D11*
X98325724Y-93199668D03*
D10*
G36*
X99085864Y-93570899D02*
X98696955Y-93959808D01*
X97565584Y-92828437D01*
X97954493Y-92439528D01*
X99085864Y-93570899D01*
X99085864Y-93570899D01*
G37*
D11*
X97760039Y-93765353D03*
D10*
G36*
X98520179Y-94136584D02*
X98131270Y-94525493D01*
X96999899Y-93394122D01*
X97388808Y-93005213D01*
X98520179Y-94136584D01*
X98520179Y-94136584D01*
G37*
D11*
X97194353Y-94331039D03*
D10*
G36*
X97954493Y-94702270D02*
X97565584Y-95091179D01*
X96434213Y-93959808D01*
X96823122Y-93570899D01*
X97954493Y-94702270D01*
X97954493Y-94702270D01*
G37*
D11*
X96628668Y-94896724D03*
D10*
G36*
X97388808Y-95267955D02*
X96999899Y-95656864D01*
X95868528Y-94525493D01*
X96257437Y-94136584D01*
X97388808Y-95267955D01*
X97388808Y-95267955D01*
G37*
D11*
X96062983Y-95462410D03*
D10*
G36*
X96823123Y-95833641D02*
X96434214Y-96222550D01*
X95302843Y-95091179D01*
X95691752Y-94702270D01*
X96823123Y-95833641D01*
X96823123Y-95833641D01*
G37*
D11*
X95497297Y-96028095D03*
D10*
G36*
X96257437Y-96399326D02*
X95868528Y-96788235D01*
X94737157Y-95656864D01*
X95126066Y-95267955D01*
X96257437Y-96399326D01*
X96257437Y-96399326D01*
G37*
D12*
X97929000Y-89128600D03*
X99429000Y-89128600D03*
D13*
X102903000Y-87477600D03*
X102903000Y-86207600D03*
X102903000Y-84937600D03*
X102903000Y-83667600D03*
X97503000Y-83667600D03*
X97503000Y-84937600D03*
X97503000Y-86207600D03*
X97503000Y-87477600D03*
D14*
X101517200Y-98418400D03*
X100517200Y-98418400D03*
X99517200Y-98418400D03*
X101517200Y-97418400D03*
X100517200Y-97418400D03*
X99517200Y-97418400D03*
X101517200Y-96418400D03*
X100517200Y-96418400D03*
X99517200Y-96418400D03*
D15*
X92563740Y-97999340D03*
D10*
G36*
X91397014Y-98105406D02*
X92669806Y-96832614D01*
X93730466Y-97893274D01*
X92457674Y-99166066D01*
X91397014Y-98105406D01*
X91397014Y-98105406D01*
G37*
D15*
X94685060Y-100120660D03*
D10*
G36*
X93518334Y-100226726D02*
X94791126Y-98953934D01*
X95851786Y-100014594D01*
X94578994Y-101287386D01*
X93518334Y-100226726D01*
X93518334Y-100226726D01*
G37*
D16*
X96974130Y-92001870D03*
D10*
G36*
X96991808Y-91453862D02*
X97522138Y-91984192D01*
X96956452Y-92549878D01*
X96426122Y-92019548D01*
X96991808Y-91453862D01*
X96991808Y-91453862D01*
G37*
D16*
X95913470Y-93062530D03*
D10*
G36*
X95931148Y-92514522D02*
X96461478Y-93044852D01*
X95895792Y-93610538D01*
X95365462Y-93080208D01*
X95931148Y-92514522D01*
X95931148Y-92514522D01*
G37*
D17*
X94830900Y-104025700D03*
X94830900Y-105925700D03*
X96829880Y-104975700D03*
D18*
X106900800Y-90213100D03*
X106900800Y-91163100D03*
X106900800Y-92113100D03*
X109100800Y-92113100D03*
X109100800Y-90213100D03*
D16*
X103298730Y-102847670D03*
D10*
G36*
X103316408Y-102299662D02*
X103846738Y-102829992D01*
X103281052Y-103395678D01*
X102750722Y-102865348D01*
X103316408Y-102299662D01*
X103316408Y-102299662D01*
G37*
D16*
X102238070Y-103908330D03*
D10*
G36*
X102255748Y-103360322D02*
X102786078Y-103890652D01*
X102220392Y-104456338D01*
X101690062Y-103926008D01*
X102255748Y-103360322D01*
X102255748Y-103360322D01*
G37*
D19*
X90474800Y-92175200D03*
X90474800Y-93675200D03*
D17*
X90769400Y-102803960D03*
X92669400Y-102803960D03*
X91719400Y-100804980D03*
X108036400Y-101513640D03*
X106136400Y-101513640D03*
X107086400Y-103512620D03*
D20*
X109036000Y-85633600D03*
X109036000Y-84683600D03*
X109036000Y-83733600D03*
X106356000Y-83733600D03*
X106356000Y-84683600D03*
X106356000Y-85633600D03*
D21*
X107271000Y-84033600D03*
X107271000Y-85333600D03*
X108121000Y-84033600D03*
X108121000Y-85333600D03*
D12*
X90219400Y-90398600D03*
X91719400Y-90398600D03*
D22*
X108762800Y-109448600D03*
X108762800Y-111988600D03*
X106222800Y-109448600D03*
X106222800Y-111988600D03*
X103682800Y-109448600D03*
X103682800Y-111988600D03*
X101142800Y-109448600D03*
X101142800Y-111988600D03*
D23*
X90982800Y-111988600D03*
D22*
X90982800Y-109448600D03*
X93522800Y-111988600D03*
X93522800Y-109448600D03*
X96062800Y-111988600D03*
X96062800Y-109448600D03*
X98602800Y-111988600D03*
X98602800Y-109448600D03*
D16*
X103276400Y-104952800D03*
D10*
G36*
X103258722Y-105500808D02*
X102728392Y-104970478D01*
X103294078Y-104404792D01*
X103824408Y-104935122D01*
X103258722Y-105500808D01*
X103258722Y-105500808D01*
G37*
D16*
X104337060Y-103892140D03*
D10*
G36*
X104319382Y-104440148D02*
X103789052Y-103909818D01*
X104354738Y-103344132D01*
X104885068Y-103874462D01*
X104319382Y-104440148D01*
X104319382Y-104440148D01*
G37*
D24*
X90151000Y-107162600D03*
X93351000Y-107162600D03*
D25*
X92951000Y-107162600D03*
D26*
X91751000Y-107162600D03*
D25*
X90551000Y-107162600D03*
D16*
X94643470Y-102333530D03*
D10*
G36*
X94625792Y-102881538D02*
X94095462Y-102351208D01*
X94661148Y-101785522D01*
X95191478Y-102315852D01*
X94625792Y-102881538D01*
X94625792Y-102881538D01*
G37*
D16*
X95704130Y-101272870D03*
D10*
G36*
X95686452Y-101820878D02*
X95156122Y-101290548D01*
X95721808Y-100724862D01*
X96252138Y-101255192D01*
X95686452Y-101820878D01*
X95686452Y-101820878D01*
G37*
D16*
X93291130Y-95075270D03*
D10*
G36*
X93308808Y-94527262D02*
X93839138Y-95057592D01*
X93273452Y-95623278D01*
X92743122Y-95092948D01*
X93308808Y-94527262D01*
X93308808Y-94527262D01*
G37*
D16*
X92230470Y-96135930D03*
D10*
G36*
X92248148Y-95587922D02*
X92778478Y-96118252D01*
X92212792Y-96683938D01*
X91682462Y-96153608D01*
X92248148Y-95587922D01*
X92248148Y-95587922D01*
G37*
D27*
X90119200Y-104457500D03*
X90119200Y-105346500D03*
D28*
X90119200Y-104140000D03*
X90119200Y-105664000D03*
D19*
X107899200Y-93546800D03*
X107899200Y-95046800D03*
X91643200Y-105779000D03*
X91643200Y-104279000D03*
D29*
X93980000Y-86677500D03*
X93980000Y-85178900D03*
D16*
X94287870Y-92579930D03*
D10*
G36*
X94270192Y-93127938D02*
X93739862Y-92597608D01*
X94305548Y-92031922D01*
X94835878Y-92562252D01*
X94270192Y-93127938D01*
X94270192Y-93127938D01*
G37*
D16*
X95348530Y-91519270D03*
D10*
G36*
X95330852Y-92067278D02*
X94800522Y-91536948D01*
X95366208Y-90971262D01*
X95896538Y-91501592D01*
X95330852Y-92067278D01*
X95330852Y-92067278D01*
G37*
D19*
X91592400Y-88823800D03*
X91592400Y-87323800D03*
D29*
X95504000Y-86690200D03*
X95504000Y-85191600D03*
D30*
X104927400Y-87108600D03*
X104927400Y-88608600D03*
D12*
X109195300Y-87807800D03*
X107695300Y-87807800D03*
X94411800Y-88163400D03*
X92911800Y-88163400D03*
D31*
X91084400Y-83794600D03*
D19*
X105117900Y-84060600D03*
X105117900Y-85560600D03*
X93446600Y-104126600D03*
X93446600Y-105626600D03*
D12*
X103899400Y-106781600D03*
X102399400Y-106781600D03*
X92950600Y-89814400D03*
X94450600Y-89814400D03*
D30*
X90500200Y-99556000D03*
X90500200Y-98056000D03*
D14*
X91351100Y-102171500D03*
X91605100Y-86614000D03*
X107815090Y-95969179D03*
X104330500Y-83820000D03*
X93065600Y-85445600D03*
X106019600Y-91008200D03*
X93726000Y-95605600D03*
X95148400Y-102793800D03*
X107340400Y-104216200D03*
X91821000Y-103581200D03*
X93573600Y-103454200D03*
X101955600Y-82791300D03*
X92465752Y-92084752D03*
X89560400Y-99542600D03*
X89560400Y-90322400D03*
X108190870Y-107382343D03*
X109804200Y-87807800D03*
X109804200Y-90805000D03*
X104555190Y-107573143D03*
X104132400Y-85902800D03*
X102061990Y-90339137D03*
X101179582Y-87951457D03*
X101264270Y-91190680D03*
X100118957Y-85727508D03*
X100685600Y-88519000D03*
X101766116Y-95227108D03*
X106172000Y-86575900D03*
X102514400Y-95148400D03*
X102539800Y-95961200D03*
X106132400Y-105602800D03*
X99597812Y-107884794D03*
X98348800Y-107746800D03*
X91592400Y-89560400D03*
X91084400Y-95478600D03*
X92202000Y-92938600D03*
X108102400Y-98094800D03*
X108092998Y-90220800D03*
X109431032Y-107174342D03*
X110052580Y-107795890D03*
X106235500Y-88709500D03*
X108407200Y-99923600D03*
X105524300Y-93065600D03*
X109456521Y-93463361D03*
X98933000Y-106883200D03*
X94132400Y-105602800D03*
X90424000Y-100406200D03*
X99898200Y-111506000D03*
X96578710Y-105927598D03*
X103213471Y-90165639D03*
X104699712Y-108568724D03*
X104198087Y-110659525D03*
D32*
X90769400Y-102803960D02*
X90769400Y-102753200D01*
X90769400Y-102753200D02*
X91351100Y-102171500D01*
X91592400Y-87323800D02*
X91592400Y-86626700D01*
X91592400Y-86626700D02*
X91605100Y-86614000D01*
X107899200Y-95046800D02*
X107899200Y-95885069D01*
X107899200Y-95885069D02*
X107815090Y-95969179D01*
X104267000Y-83459600D02*
X104711301Y-83015299D01*
X104059000Y-83667600D02*
X104267000Y-83459600D01*
X104267000Y-83459600D02*
X104267000Y-83756500D01*
X104267000Y-83756500D02*
X104330500Y-83820000D01*
X93980000Y-85178900D02*
X93332300Y-85178900D01*
X93332300Y-85178900D02*
X93065600Y-85445600D01*
X95504000Y-85191600D02*
X93992700Y-85191600D01*
X93992700Y-85191600D02*
X93980000Y-85178900D01*
X106019600Y-91008200D02*
X106745900Y-91008200D01*
X106745900Y-91008200D02*
X106900800Y-91163100D01*
X104711301Y-83015299D02*
X105105200Y-83015299D01*
X105105200Y-83015299D02*
X105382201Y-83015299D01*
X105117900Y-83279600D02*
X105117900Y-83027999D01*
X105117900Y-83027999D02*
X105105200Y-83015299D01*
X102903000Y-83667600D02*
X104059000Y-83667600D01*
X93291130Y-95075270D02*
X93291130Y-95170730D01*
X93291130Y-95170730D02*
X93726000Y-95605600D01*
X94643470Y-102333530D02*
X94688130Y-102333530D01*
X94688130Y-102333530D02*
X95148400Y-102793800D01*
X107086400Y-103512620D02*
X107086400Y-103962200D01*
X107086400Y-103962200D02*
X107340400Y-104216200D01*
X91643200Y-104279000D02*
X91643200Y-103759000D01*
X91643200Y-103759000D02*
X91821000Y-103581200D01*
X93446600Y-104126600D02*
X93446600Y-103581200D01*
X93446600Y-103581200D02*
X93573600Y-103454200D01*
X105117900Y-84060600D02*
X105117900Y-83279600D01*
X105382201Y-83015299D02*
X109520641Y-83015299D01*
X109520641Y-83015299D02*
X109719301Y-83213959D01*
X109719301Y-83213959D02*
X109719301Y-84253241D01*
X109719301Y-84253241D02*
X109288942Y-84683600D01*
X109288942Y-84683600D02*
X109036000Y-84683600D01*
X93268800Y-104279000D02*
X93294200Y-104253600D01*
X96974130Y-92001870D02*
X96974130Y-92979444D01*
X96974130Y-92979444D02*
X97760039Y-93765353D01*
X95348530Y-91519270D02*
X96491530Y-91519270D01*
X96491530Y-91519270D02*
X96974130Y-92001870D01*
X103298730Y-102847670D02*
X103298730Y-102698157D01*
X103298730Y-102698157D02*
X102073390Y-101472817D01*
X103298730Y-102847670D02*
X103298730Y-102853810D01*
X103298730Y-102853810D02*
X104337060Y-103892140D01*
X91884501Y-108216699D02*
X91821000Y-108280200D01*
X95910400Y-105410000D02*
X95910400Y-106478070D01*
X95910400Y-106478070D02*
X94171771Y-108216699D01*
X96807020Y-104978200D02*
X96342200Y-104978200D01*
X94171771Y-108216699D02*
X91884501Y-108216699D01*
X96342200Y-104978200D02*
X95910400Y-105410000D01*
X101955600Y-82791300D02*
X101655601Y-83091299D01*
X101655601Y-83091299D02*
X101655601Y-84739201D01*
X101655601Y-84739201D02*
X101854000Y-84937600D01*
X99949000Y-86842600D02*
X101854000Y-84937600D01*
X101854000Y-84937600D02*
X102903000Y-84937600D01*
X97503000Y-86842600D02*
X99949000Y-86842600D01*
X97503000Y-87477600D02*
X97503000Y-86842600D01*
X97503000Y-86842600D02*
X97503000Y-86207600D01*
X97503000Y-86207600D02*
X97040700Y-86207600D01*
X109195300Y-87807800D02*
X109804200Y-87807800D01*
X105079800Y-86477600D02*
X105117900Y-86439500D01*
X105117900Y-86439500D02*
X105117900Y-85560600D01*
X102903000Y-84937600D02*
X104494900Y-84937600D01*
X104494900Y-84937600D02*
X105117900Y-85560600D01*
X92465752Y-92084752D02*
X93792692Y-92084752D01*
X93792692Y-92084752D02*
X94287870Y-92579930D01*
X90500200Y-99556000D02*
X89573800Y-99556000D01*
X89573800Y-99556000D02*
X89560400Y-99542600D01*
X90219400Y-90398600D02*
X89636600Y-90398600D01*
X89636600Y-90398600D02*
X89560400Y-90322400D01*
X108292890Y-103256068D02*
X108190870Y-107382343D01*
X108292890Y-107365800D02*
X108207413Y-107365800D01*
X108207413Y-107365800D02*
X108190870Y-107382343D01*
X106136400Y-101513640D02*
X106550462Y-101513640D01*
X106550462Y-101513640D02*
X108292890Y-103256068D01*
X105079800Y-87108600D02*
X105079800Y-86477600D01*
X106356000Y-84683600D02*
X105994900Y-84683600D01*
X105994900Y-84683600D02*
X105117900Y-85560600D01*
X109100800Y-90805000D02*
X109100800Y-89931200D01*
X109100800Y-91831200D02*
X109100800Y-90805000D01*
X109100800Y-90805000D02*
X109804200Y-90805000D01*
X104530400Y-106781600D02*
X104555190Y-106806390D01*
X104555190Y-106806390D02*
X104555190Y-107148879D01*
X103899400Y-106781600D02*
X104530400Y-106781600D01*
X104555190Y-107148879D02*
X104555190Y-107573143D01*
X91821000Y-108610400D02*
X91821000Y-108280200D01*
X91821000Y-108280200D02*
X91821000Y-107162600D01*
X90982800Y-109448600D02*
X91821000Y-108610400D01*
X94287870Y-92579930D02*
X94311874Y-92579930D01*
X94311874Y-92579930D02*
X96628668Y-94896724D01*
X90982800Y-109448600D02*
X93522800Y-111988600D01*
X90982800Y-111988600D02*
X89586001Y-110591801D01*
X89586001Y-110591801D02*
X89586001Y-107797599D01*
X89586001Y-107797599D02*
X90221000Y-107162600D01*
X90119200Y-105664000D02*
X90119200Y-107060800D01*
X90119200Y-107060800D02*
X90221000Y-107162600D01*
X90119200Y-105664000D02*
X91629800Y-105664000D01*
X91629800Y-105664000D02*
X91744800Y-105779000D01*
D33*
X97503000Y-83667600D02*
X97028000Y-83667600D01*
X97028000Y-83667600D02*
X96405700Y-84289900D01*
X96405700Y-84289900D02*
X96405700Y-87958222D01*
X96405700Y-87958222D02*
X96788678Y-88341200D01*
X96788678Y-88341200D02*
X98217322Y-88341200D01*
X98217322Y-88341200D02*
X99030122Y-87528400D01*
X99936300Y-87528400D02*
X101892100Y-85572600D01*
X99030122Y-87528400D02*
X99936300Y-87528400D01*
X103802200Y-85572600D02*
X104132400Y-85902800D01*
X101892100Y-85572600D02*
X103802200Y-85572600D01*
X103847900Y-86855300D02*
X104132400Y-86570800D01*
X104132400Y-86570800D02*
X104132400Y-85902800D01*
X102034316Y-86855300D02*
X103847900Y-86855300D01*
X101761991Y-87127625D02*
X102034316Y-86855300D01*
X101761991Y-87127625D02*
X101761991Y-90039138D01*
X101761991Y-90039138D02*
X102061990Y-90339137D01*
X102061990Y-90474499D02*
X102061990Y-90339137D01*
X103841156Y-92253665D02*
X102061990Y-90474499D01*
X103204761Y-93765353D02*
X103841156Y-93128958D01*
X103841156Y-93128958D02*
X103841156Y-92253665D01*
X101179582Y-87207126D02*
X101179582Y-87527193D01*
X102179108Y-86207600D02*
X101179582Y-87207126D01*
X102903000Y-86207600D02*
X102179108Y-86207600D01*
X101179582Y-87527193D02*
X101179582Y-87951457D01*
X100743504Y-87964990D02*
X100743504Y-87963271D01*
X101219000Y-88163411D02*
X101219000Y-87990875D01*
X100743504Y-87963271D02*
X100755318Y-87951457D01*
X101219000Y-87990875D02*
X101179582Y-87951457D01*
X100755318Y-87951457D02*
X101179582Y-87951457D01*
X100394286Y-87964990D02*
X100743504Y-87964990D01*
X101264270Y-91190680D02*
X100106198Y-90032608D01*
X100106198Y-90032608D02*
X100106198Y-88253078D01*
X100106198Y-88253078D02*
X100394286Y-87964990D01*
X101219188Y-93270378D02*
X100493555Y-92544745D01*
X98924999Y-88475399D02*
X99435408Y-87964990D01*
X100493555Y-91977422D02*
X98924999Y-90408866D01*
X100493555Y-92544745D02*
X100493555Y-91977422D01*
X98924999Y-90408866D02*
X98924999Y-88475399D01*
X101436995Y-93270378D02*
X101219188Y-93270378D01*
X102073390Y-92633983D02*
X101436995Y-93270378D01*
X99435408Y-87964990D02*
X100743504Y-87964990D01*
D32*
X102372100Y-86131400D02*
X102847100Y-86131400D01*
X102847100Y-86131400D02*
X102862770Y-86115730D01*
D33*
X99818958Y-85427509D02*
X100118957Y-85727508D01*
X97503000Y-84937600D02*
X99329049Y-84937600D01*
X99329049Y-84937600D02*
X99818958Y-85427509D01*
X103275471Y-92307186D02*
X101861424Y-90893139D01*
X101861424Y-90893139D02*
X101808768Y-90893139D01*
X100685600Y-88943264D02*
X100685600Y-88519000D01*
X102639076Y-93199668D02*
X103275471Y-92563273D01*
X103275471Y-92563273D02*
X103275471Y-92307186D01*
X101808768Y-90893139D02*
X100685600Y-89769971D01*
X100685600Y-89769971D02*
X100685600Y-88943264D01*
X101766116Y-94802844D02*
X101766116Y-95227108D01*
X102639076Y-93199668D02*
X101766116Y-94072628D01*
X101766116Y-94072628D02*
X101766116Y-94802844D01*
X106827602Y-87231502D02*
X106471999Y-86875899D01*
X106827602Y-88988122D02*
X106827602Y-87231502D01*
X106539522Y-89276202D02*
X106827602Y-88988122D01*
X105681498Y-88950022D02*
X106007678Y-89276202D01*
X105681498Y-88290107D02*
X105681498Y-88950022D01*
X103770447Y-94331039D02*
X104218911Y-93882575D01*
X104313101Y-88104599D02*
X105495990Y-88104599D01*
X102616000Y-90520508D02*
X102616000Y-89801700D01*
X102616000Y-89801700D02*
X104313101Y-88104599D01*
X105495990Y-88104599D02*
X105681498Y-88290107D01*
X106007678Y-89276202D02*
X106539522Y-89276202D01*
X104218911Y-92123419D02*
X102616000Y-90520508D01*
X104218911Y-93882575D02*
X104218911Y-92123419D01*
X106471999Y-86875899D02*
X106172000Y-86575900D01*
X102514400Y-95148400D02*
X102953086Y-95148400D01*
X102953086Y-95148400D02*
X103770447Y-94331039D01*
X103223309Y-95781109D02*
X102719891Y-95781109D01*
X102719891Y-95781109D02*
X102539800Y-95961200D01*
X104425369Y-96983169D02*
X103223309Y-95781109D01*
X104425369Y-97630240D02*
X104425369Y-96983169D01*
X103204761Y-100341447D02*
X102514400Y-99651086D01*
X102514400Y-99651086D02*
X102514400Y-99541210D01*
X102514400Y-99541210D02*
X104425369Y-97630240D01*
X105633811Y-103703411D02*
X105633811Y-105104211D01*
X105633811Y-105104211D02*
X106132400Y-105602800D01*
X103841156Y-100977842D02*
X103841156Y-101910756D01*
X103204761Y-100341447D02*
X103841156Y-100977842D01*
X103841156Y-101910756D02*
X105633811Y-103703411D01*
X102639076Y-100907132D02*
X102639076Y-101211584D01*
X105278202Y-103850710D02*
X105278202Y-108800122D01*
X104629724Y-109448600D02*
X103682800Y-109448600D01*
X105278202Y-108800122D02*
X104629724Y-109448600D01*
X102639076Y-101211584D02*
X105278202Y-103850710D01*
X103770447Y-99775761D02*
X104218911Y-100224225D01*
X106686402Y-105336878D02*
X106686402Y-108258152D01*
X104218911Y-100224225D02*
X104218911Y-101785603D01*
X105989421Y-104639897D02*
X106686402Y-105336878D01*
X106759249Y-110566201D02*
X105105199Y-110566201D01*
X104218911Y-101785603D02*
X105989421Y-103556113D01*
X104546399Y-111125001D02*
X103682800Y-111988600D01*
X105989421Y-103556113D02*
X105989421Y-104639897D01*
X106686402Y-108258152D02*
X107340401Y-108912151D01*
X107340401Y-108912151D02*
X107340401Y-109985049D01*
X107340401Y-109985049D02*
X106759249Y-110566201D01*
X105105199Y-110566201D02*
X104546399Y-111125001D01*
X97194353Y-99775761D02*
X96621611Y-100348503D01*
X96621611Y-100348503D02*
X96621611Y-100741502D01*
X96621611Y-100741502D02*
X96861758Y-100981650D01*
X99868013Y-107614593D02*
X99597812Y-107884794D01*
X96861758Y-100981650D02*
X96861758Y-102501495D01*
X96861758Y-102501495D02*
X99868013Y-105507750D01*
X99868013Y-105507750D02*
X99868013Y-107614593D01*
X96628668Y-99210076D02*
X96180203Y-99658541D01*
X96180203Y-99658541D02*
X96180203Y-100252209D01*
X96506148Y-101128948D02*
X96506148Y-102648793D01*
X96180203Y-100252209D02*
X96266000Y-100338006D01*
X99512402Y-107161314D02*
X98926916Y-107746800D01*
X98926916Y-107746800D02*
X98348800Y-107746800D01*
X96266000Y-100338006D02*
X96266000Y-100888800D01*
X96266000Y-100888800D02*
X96506148Y-101128948D01*
X96506148Y-102648793D02*
X99512402Y-105655048D01*
X99512402Y-105655048D02*
X99512402Y-107161314D01*
X100021953Y-109934447D02*
X100021953Y-108783486D01*
X100021953Y-108783486D02*
X100579235Y-108226204D01*
X97689329Y-101543527D02*
X98325724Y-100907132D01*
X100579235Y-105156326D02*
X97689329Y-102266420D01*
X100579235Y-108226204D02*
X100579235Y-105156326D01*
X99085401Y-110870999D02*
X100021953Y-109934447D01*
X97180401Y-110870999D02*
X99085401Y-110870999D01*
X96062800Y-111988600D02*
X97180401Y-110870999D01*
X97689329Y-102266420D02*
X97689329Y-101543527D01*
X97760039Y-100341447D02*
X97760039Y-100486961D01*
X97760039Y-100486961D02*
X97217368Y-101029632D01*
X97217368Y-101029632D02*
X97217368Y-102354196D01*
X97217368Y-102354196D02*
X100223624Y-105360452D01*
X97183629Y-108327771D02*
X96062800Y-109448600D01*
X100223624Y-105360452D02*
X100223624Y-108078906D01*
X100223624Y-108078906D02*
X99863734Y-108438796D01*
X99863734Y-108438796D02*
X99331890Y-108438796D01*
X99331890Y-108438796D02*
X99220865Y-108327771D01*
X99220865Y-108327771D02*
X97183629Y-108327771D01*
X92230470Y-96135930D02*
X91876917Y-96489483D01*
X91876917Y-96489483D02*
X91876917Y-97312517D01*
X91876917Y-97312517D02*
X91962700Y-97398300D01*
X91962700Y-97398300D02*
X92563740Y-97999340D01*
X92563740Y-97999340D02*
X95417932Y-97999340D01*
X95417932Y-97999340D02*
X95497297Y-98078705D01*
X95500930Y-101349070D02*
X95500930Y-100936530D01*
X95500930Y-100936530D02*
X94685060Y-100120660D01*
X94685060Y-100120660D02*
X96062983Y-98742737D01*
X96062983Y-98742737D02*
X96062983Y-98644390D01*
X90975100Y-91071700D02*
X91246300Y-91071700D01*
X91246300Y-91071700D02*
X91719400Y-90598600D01*
X91719400Y-90598600D02*
X91719400Y-90398600D01*
X90474800Y-92175200D02*
X90474800Y-91572000D01*
X90474800Y-91572000D02*
X90975100Y-91071700D01*
X95389700Y-89039700D02*
X96646990Y-90296990D01*
X91592400Y-88823800D02*
X92170600Y-88823800D01*
X92170600Y-88823800D02*
X92386500Y-89039700D01*
X92386500Y-89039700D02*
X95389700Y-89039700D01*
X98255015Y-91624493D02*
X98388708Y-91490800D01*
X96646990Y-90296990D02*
X97194898Y-90296990D01*
X97194898Y-90296990D02*
X98388708Y-91490800D01*
X91592400Y-88823800D02*
X91592400Y-89560400D01*
X91592400Y-89560400D02*
X91592400Y-90271600D01*
X91592400Y-90271600D02*
X91719400Y-90398600D01*
X98891410Y-92633983D02*
X98255015Y-91997588D01*
X98255015Y-91997588D02*
X98255015Y-91624493D01*
X91186000Y-94767400D02*
X91186000Y-95377000D01*
X91186000Y-95377000D02*
X91084400Y-95478600D01*
X91821000Y-94132400D02*
X91186000Y-94767400D01*
X93601602Y-94132400D02*
X91821000Y-94132400D01*
X95497297Y-96028095D02*
X93601602Y-94132400D01*
X93539173Y-92938600D02*
X92202000Y-92938600D01*
X96062983Y-95462410D02*
X93539173Y-92938600D01*
X108140500Y-89706600D02*
X107634000Y-90213100D01*
X108483400Y-89363700D02*
X108140500Y-89706600D01*
X108140500Y-89706600D02*
X108140500Y-90173298D01*
X108140500Y-90173298D02*
X108092998Y-90220800D01*
X107700278Y-87807800D02*
X108483400Y-88590922D01*
X109036000Y-86061800D02*
X107700278Y-87397522D01*
X109036000Y-85633600D02*
X109036000Y-86061800D01*
X108483400Y-88590922D02*
X108483400Y-89363700D01*
X107700278Y-87397522D02*
X107700278Y-87807800D01*
X107634000Y-90213100D02*
X106900800Y-90213100D01*
X109731031Y-106874343D02*
X109431032Y-107174342D01*
X109731031Y-99802714D02*
X109731031Y-106874343D01*
X105467503Y-96028095D02*
X105956412Y-96028095D01*
X105956412Y-96028095D02*
X109731031Y-99802714D01*
X105985084Y-91831200D02*
X105752900Y-91599016D01*
X105328136Y-93771136D02*
X104930132Y-93373132D01*
X105752900Y-91599016D02*
X105079800Y-90925916D01*
X105538212Y-94082812D02*
X105328137Y-93872737D01*
X104930132Y-92421784D02*
X105752900Y-91599016D01*
X105538212Y-94826015D02*
X105538212Y-94082812D01*
X105328137Y-93872737D02*
X105328136Y-93771136D01*
X104930132Y-93373132D02*
X104930132Y-92421784D01*
X110352579Y-107495891D02*
X110052580Y-107795890D01*
X108534305Y-97604299D02*
X108584221Y-97604299D01*
X105538212Y-94826015D02*
X105756021Y-94826015D01*
X108584221Y-97604299D02*
X110352579Y-99372657D01*
X105756021Y-94826015D02*
X108534305Y-97604299D01*
X110352579Y-99372657D02*
X110352579Y-107495891D01*
X105985084Y-91831200D02*
X105985084Y-91930584D01*
X105985084Y-91930584D02*
X106167600Y-92113100D01*
X106167600Y-92113100D02*
X106900800Y-92113100D01*
X107188009Y-86771985D02*
X106356000Y-85939976D01*
X106356000Y-85939976D02*
X106356000Y-85633600D01*
X107188009Y-89130624D02*
X107188009Y-86771985D01*
X106686820Y-89631813D02*
X107188009Y-89130624D01*
X105079800Y-89966800D02*
X105414787Y-89631813D01*
X105414787Y-89631813D02*
X106686820Y-89631813D01*
X105079800Y-90925916D02*
X105079800Y-89966800D01*
X105079800Y-89966800D02*
X105079800Y-89061800D01*
X104901817Y-95462410D02*
X105538212Y-94826015D01*
X105079800Y-89061800D02*
X105079800Y-88608600D01*
X93243400Y-86664800D02*
X93256100Y-86677500D01*
X93256100Y-86677500D02*
X93980000Y-86677500D01*
X92911800Y-86996400D02*
X93243400Y-86664800D01*
X92911800Y-88163400D02*
X92911800Y-86996400D01*
X96875600Y-89128600D02*
X95504000Y-87757000D01*
X95504000Y-87757000D02*
X95504000Y-86690200D01*
X97929000Y-89128600D02*
X96875600Y-89128600D01*
X104901817Y-98644390D02*
X107771067Y-101513640D01*
X107771067Y-101513640D02*
X108036400Y-101513640D01*
X106235500Y-88226900D02*
X106235500Y-88709500D01*
X105757588Y-87748988D02*
X106235500Y-88226900D01*
X104216189Y-87748988D02*
X105757588Y-87748988D01*
X103944801Y-87477600D02*
X104216189Y-87748988D01*
X102903000Y-87477600D02*
X103944801Y-87477600D01*
X108407200Y-99923600D02*
X107312398Y-99923600D01*
X107312398Y-99923600D02*
X106578400Y-99189602D01*
X106578400Y-99189602D02*
X105467503Y-98078705D01*
X95913470Y-93062530D02*
X95925844Y-93062530D01*
D32*
X95925844Y-93062530D02*
X97194353Y-94331039D01*
D33*
X96520000Y-89535000D02*
X95148400Y-88163400D01*
X95148400Y-88163400D02*
X94411800Y-88163400D01*
X96935816Y-89535000D02*
X96520000Y-89535000D01*
X99457095Y-92068297D02*
X99457095Y-92056279D01*
X99457095Y-92056279D02*
X96935816Y-89535000D01*
X101066413Y-91803133D02*
X101242541Y-91803133D01*
X99429000Y-89128600D02*
X99429000Y-90165720D01*
X101242541Y-91803133D02*
X101507705Y-92068297D01*
X99429000Y-90165720D02*
X101066413Y-91803133D01*
D32*
X94884240Y-105928200D02*
X94884240Y-105645882D01*
X96131378Y-104013000D02*
X97205800Y-104013000D01*
X94884240Y-105645882D02*
X95885000Y-104645122D01*
X95885000Y-104645122D02*
X95885000Y-104259378D01*
X95885000Y-104259378D02*
X96131378Y-104013000D01*
X97205800Y-104013000D02*
X98933000Y-105740200D01*
X98933000Y-106458936D02*
X98933000Y-106883200D01*
X98933000Y-105740200D02*
X98933000Y-106458936D01*
X105742412Y-93463361D02*
X105742412Y-93283712D01*
X105742412Y-93283712D02*
X105524300Y-93065600D01*
X105742412Y-93463361D02*
X109032257Y-93463361D01*
X109032257Y-93463361D02*
X109456521Y-93463361D01*
X94132400Y-105602800D02*
X94558840Y-105602800D01*
X94558840Y-105602800D02*
X94884240Y-105928200D01*
X93294200Y-105753600D02*
X93981600Y-105753600D01*
X93981600Y-105753600D02*
X94132400Y-105602800D01*
D33*
X90500200Y-98056000D02*
X90500200Y-94405401D01*
X90500200Y-94405401D02*
X90976801Y-94405401D01*
X90976801Y-94405401D02*
X91490800Y-93891402D01*
X91490800Y-93891402D02*
X91490800Y-91927400D01*
X91490800Y-91927400D02*
X92950600Y-90467600D01*
X92950600Y-90467600D02*
X92950600Y-89814400D01*
X94884240Y-104028200D02*
X94884240Y-103535132D01*
X94884240Y-103535132D02*
X93816052Y-102466944D01*
X93816052Y-102466944D02*
X93816052Y-100953452D01*
X93816052Y-100953452D02*
X91545878Y-98683278D01*
X91545878Y-98683278D02*
X91327478Y-98683278D01*
X91327478Y-98683278D02*
X90700200Y-98056000D01*
X90700200Y-98056000D02*
X90500200Y-98056000D01*
D32*
X91109800Y-101104700D02*
X91419680Y-101104700D01*
X91419680Y-101104700D02*
X91719400Y-100804980D01*
X90119200Y-104140000D02*
X90001049Y-104021849D01*
X90001049Y-102069900D02*
X90144600Y-102069900D01*
X90144600Y-102069900D02*
X91109800Y-101104700D01*
X90001049Y-104021849D02*
X90001049Y-102069900D01*
D33*
X96879096Y-90652600D02*
X97801548Y-91575052D01*
X94450600Y-89814400D02*
X94869000Y-89814400D01*
X96879096Y-90652600D02*
X95707200Y-90652600D01*
X95707200Y-90652600D02*
X94869000Y-89814400D01*
X98325724Y-93199668D02*
X97801548Y-92675492D01*
X97801548Y-92675492D02*
X97801548Y-91575052D01*
D32*
X92951000Y-107162600D02*
X92951000Y-106464658D01*
X92951000Y-106464658D02*
X92669400Y-106183058D01*
X92669400Y-106183058D02*
X92669400Y-103585010D01*
X92669400Y-103585010D02*
X92669400Y-102803960D01*
D33*
X90701444Y-100335070D02*
X90495130Y-100335070D01*
X90495130Y-100335070D02*
X90424000Y-100406200D01*
X89796199Y-98509201D02*
X89796199Y-93775601D01*
X90652964Y-100383550D02*
X90701444Y-100335070D01*
X90701444Y-100335070D02*
X90924052Y-100335070D01*
X90924052Y-100335070D02*
X91229601Y-100029521D01*
X89896600Y-93675200D02*
X90474800Y-93675200D01*
X91229601Y-100029521D02*
X91229601Y-99082479D01*
X89796199Y-93775601D02*
X89896600Y-93675200D01*
X91229601Y-99082479D02*
X91173721Y-99026599D01*
X91173721Y-99026599D02*
X90313597Y-99026599D01*
X90313597Y-99026599D02*
X89796199Y-98509201D01*
X109880401Y-109985049D02*
X109299249Y-110566201D01*
X109174291Y-108330999D02*
X109326701Y-108483409D01*
X104972527Y-100640473D02*
X104574521Y-101038479D01*
X104336132Y-99210076D02*
X104972527Y-99846471D01*
X104972527Y-99846471D02*
X104972527Y-100640473D01*
X101679249Y-110870999D02*
X100533201Y-110870999D01*
X109326701Y-108483409D02*
X109402901Y-108483409D01*
X104574521Y-101038479D02*
X104574521Y-101638305D01*
X107340401Y-111452151D02*
X107340401Y-112476211D01*
X104574521Y-101638305D02*
X106406949Y-103470733D01*
X106406949Y-103470733D02*
X106406949Y-104554517D01*
X102260401Y-112220251D02*
X102260401Y-111452151D01*
X109402901Y-108483409D02*
X109880401Y-108960909D01*
X106406949Y-104554517D02*
X107162600Y-105310168D01*
X107162600Y-105310168D02*
X107162600Y-107670600D01*
X109880401Y-108960909D02*
X109880401Y-109985049D01*
X107162600Y-107670600D02*
X107822999Y-108330999D01*
X107822999Y-108330999D02*
X109174291Y-108330999D01*
X106710411Y-113106201D02*
X103146351Y-113106201D01*
X100198199Y-111206001D02*
X99898200Y-111506000D01*
X109299249Y-110566201D02*
X108226351Y-110566201D01*
X108226351Y-110566201D02*
X107340401Y-111452151D01*
X107340401Y-112476211D02*
X106710411Y-113106201D01*
X100533201Y-110870999D02*
X100198199Y-111206001D01*
X103146351Y-113106201D02*
X102260401Y-112220251D01*
X102260401Y-111452151D02*
X101679249Y-110870999D01*
X94945199Y-112725199D02*
X94945199Y-108127801D01*
X95681808Y-113461808D02*
X94945199Y-112725199D01*
X106252233Y-97064555D02*
X107836479Y-98648801D01*
X94945199Y-108127801D02*
X96578710Y-106494290D01*
X107836479Y-98648801D02*
X107963479Y-98648801D01*
X108762800Y-107289600D02*
X110236011Y-108762812D01*
X108762800Y-106629200D02*
X108762800Y-107289600D01*
X107963479Y-98648801D02*
X108969851Y-99655173D01*
X105013365Y-97064555D02*
X106252233Y-97064555D01*
X109931200Y-112474250D02*
X109299249Y-113106201D01*
X103699737Y-95533119D02*
X103699737Y-95750927D01*
X109299249Y-113106201D02*
X107213319Y-113106201D01*
X104336132Y-94896724D02*
X103699737Y-95533119D01*
X107213319Y-113106201D02*
X106857709Y-113461811D01*
X110236010Y-110132348D02*
X109931200Y-110437158D01*
X96578710Y-106351862D02*
X96578710Y-105927598D01*
X109931200Y-110437158D02*
X109931200Y-112474250D01*
X96578710Y-106494290D02*
X96578710Y-106351862D01*
X108969851Y-99655173D02*
X108969851Y-106422149D01*
X103699737Y-95750927D02*
X105013365Y-97064555D01*
X108969851Y-106422149D02*
X108762800Y-106629200D01*
X106857709Y-113461811D02*
X95681808Y-113461808D01*
X110236011Y-108762812D02*
X110236010Y-110132348D01*
X104574522Y-93520430D02*
X104574522Y-92062300D01*
X104972527Y-93918435D02*
X104574522Y-93520430D01*
X104972527Y-94260329D02*
X104972527Y-93918435D01*
X104336132Y-94896724D02*
X104972527Y-94260329D01*
X104574522Y-92062300D02*
X104574522Y-91976122D01*
X103513470Y-90465638D02*
X103213471Y-90165639D01*
X104574522Y-91526690D02*
X103513470Y-90465638D01*
X104574522Y-92062300D02*
X104574522Y-91526690D01*
D32*
X102399400Y-106781600D02*
X102399400Y-105829800D01*
X102399400Y-105829800D02*
X103276400Y-104952800D01*
X102238070Y-103908330D02*
X102238070Y-102768868D01*
X102238070Y-102768868D02*
X101507705Y-102038503D01*
X103276400Y-104952800D02*
X103276400Y-104946660D01*
X103276400Y-104946660D02*
X102238070Y-103908330D01*
D33*
X102793800Y-108343700D02*
X102868775Y-108268725D01*
X102868775Y-108268725D02*
X104399713Y-108268725D01*
X104399713Y-108268725D02*
X104699712Y-108568724D01*
X101290457Y-106840357D02*
X102793800Y-108343700D01*
X99457095Y-102038503D02*
X101290457Y-103871865D01*
X101290457Y-103871865D02*
X101290457Y-106840357D01*
X102793800Y-108343700D02*
X102806500Y-108331000D01*
X102565199Y-110477299D02*
X102747425Y-110659525D01*
X98255015Y-102329197D02*
X100934846Y-105009028D01*
X103773823Y-110659525D02*
X104198087Y-110659525D01*
X102747425Y-110659525D02*
X103773823Y-110659525D01*
X100934846Y-107035938D02*
X102565199Y-108666291D01*
X100934846Y-105009028D02*
X100934846Y-107035938D01*
X98255015Y-102109212D02*
X98255015Y-102329197D01*
X98891410Y-101472817D02*
X98255015Y-102109212D01*
X102565199Y-108666291D02*
X102565199Y-110477299D01*
D34*
G36*
X100260068Y-92778232D02*
X100985701Y-93503865D01*
X101092826Y-93575443D01*
X101219188Y-93600578D01*
X101436995Y-93600578D01*
X101562354Y-93575643D01*
X101612964Y-93609459D01*
X101655199Y-93617860D01*
X101663600Y-93660094D01*
X101682857Y-93688913D01*
X101532629Y-93839141D01*
X101461051Y-93946266D01*
X101435916Y-94072628D01*
X101435916Y-94809830D01*
X101318252Y-94927289D01*
X101237608Y-95121502D01*
X101237424Y-95331792D01*
X101317729Y-95526145D01*
X101466297Y-95674972D01*
X101660510Y-95755616D01*
X101870800Y-95755800D01*
X102065153Y-95675495D01*
X102179613Y-95561235D01*
X102185924Y-95567557D01*
X102091936Y-95661381D01*
X102011292Y-95855594D01*
X102011108Y-96065884D01*
X102091413Y-96260237D01*
X102239981Y-96409064D01*
X102434194Y-96489708D01*
X102644484Y-96489892D01*
X102838837Y-96409587D01*
X102987664Y-96261019D01*
X103049829Y-96111309D01*
X103086535Y-96111309D01*
X104095169Y-97119942D01*
X104095169Y-97493466D01*
X102280913Y-99307723D01*
X102209335Y-99414848D01*
X102184200Y-99541210D01*
X102184200Y-99651086D01*
X102209335Y-99777448D01*
X102253912Y-99844163D01*
X102229285Y-99881021D01*
X102220884Y-99923255D01*
X102178650Y-99931656D01*
X102103034Y-99982181D01*
X101714125Y-100371090D01*
X101663600Y-100446706D01*
X101656120Y-100484312D01*
X101572668Y-100518879D01*
X101508361Y-100583185D01*
X101467293Y-100624254D01*
X101467293Y-100705076D01*
X102073390Y-101311172D01*
X102087532Y-101297030D01*
X102249177Y-101458675D01*
X102235035Y-101472817D01*
X102249177Y-101486959D01*
X102087532Y-101648604D01*
X102073390Y-101634462D01*
X102059248Y-101648604D01*
X101897603Y-101486959D01*
X101911745Y-101472817D01*
X101305649Y-100866720D01*
X101224827Y-100866720D01*
X101183758Y-100907788D01*
X101119452Y-100972095D01*
X101096576Y-101027323D01*
X101037368Y-101039100D01*
X100953350Y-101095239D01*
X100564441Y-101484148D01*
X100508302Y-101568166D01*
X100488589Y-101667272D01*
X100508302Y-101766378D01*
X100564441Y-101850396D01*
X101695812Y-102981767D01*
X101779830Y-103037906D01*
X101793570Y-103040639D01*
X101793570Y-103195966D01*
X101440235Y-103554670D01*
X100049847Y-102164282D01*
X100382046Y-101832083D01*
X100432571Y-101756467D01*
X100450313Y-101667272D01*
X100432571Y-101578077D01*
X100382046Y-101502461D01*
X99993137Y-101113552D01*
X99917521Y-101063027D01*
X99875287Y-101054626D01*
X99866886Y-101012391D01*
X99816361Y-100936775D01*
X99427452Y-100547866D01*
X99351836Y-100497341D01*
X99309601Y-100488940D01*
X99301200Y-100446706D01*
X99250675Y-100371090D01*
X98861766Y-99982181D01*
X98786150Y-99931656D01*
X98743916Y-99923255D01*
X98735515Y-99881021D01*
X98684990Y-99805405D01*
X98296081Y-99416496D01*
X98220465Y-99365971D01*
X98178230Y-99357570D01*
X98169829Y-99315335D01*
X98119304Y-99239719D01*
X97730395Y-98850810D01*
X97654779Y-98800285D01*
X97612545Y-98791884D01*
X97604144Y-98749650D01*
X97553619Y-98674034D01*
X97164710Y-98285125D01*
X97089094Y-98234600D01*
X97046860Y-98226199D01*
X97038459Y-98183964D01*
X96987934Y-98108348D01*
X96599025Y-97719439D01*
X96523409Y-97668914D01*
X96481174Y-97660513D01*
X96472773Y-97618279D01*
X96422248Y-97542663D01*
X96033339Y-97153754D01*
X95957723Y-97103229D01*
X95868528Y-97085487D01*
X95779333Y-97103229D01*
X95703717Y-97153754D01*
X95188331Y-97669140D01*
X93835954Y-97669140D01*
X93194477Y-97027663D01*
X94509070Y-95681956D01*
X94521821Y-95746059D01*
X94572346Y-95821675D01*
X95703717Y-96953046D01*
X95779333Y-97003571D01*
X95868528Y-97021313D01*
X95957723Y-97003571D01*
X96033339Y-96953046D01*
X96422248Y-96564137D01*
X96472773Y-96488521D01*
X96481174Y-96446287D01*
X96523409Y-96437886D01*
X96599025Y-96387361D01*
X96987934Y-95998452D01*
X97038459Y-95922836D01*
X97041496Y-95907566D01*
X97099005Y-95896127D01*
X97183023Y-95839988D01*
X97571932Y-95451079D01*
X97628071Y-95367061D01*
X97639510Y-95309552D01*
X97654779Y-95306515D01*
X97730395Y-95255990D01*
X98119304Y-94867081D01*
X98169829Y-94791465D01*
X98177310Y-94753857D01*
X98260761Y-94719291D01*
X98325068Y-94654985D01*
X98366136Y-94613916D01*
X98366136Y-94533094D01*
X97760039Y-93926998D01*
X97745897Y-93941140D01*
X97584252Y-93779495D01*
X97598394Y-93765353D01*
X97584252Y-93751211D01*
X97745897Y-93589566D01*
X97760039Y-93603708D01*
X97774181Y-93589566D01*
X97935826Y-93751211D01*
X97921684Y-93765353D01*
X98527780Y-94371450D01*
X98608602Y-94371450D01*
X98649671Y-94330382D01*
X98713977Y-94266075D01*
X98748543Y-94182624D01*
X98786150Y-94175144D01*
X98861766Y-94124619D01*
X99250675Y-93735710D01*
X99301200Y-93660094D01*
X99309601Y-93617860D01*
X99351836Y-93609459D01*
X99427452Y-93558934D01*
X99816361Y-93170025D01*
X99866886Y-93094409D01*
X99875287Y-93052174D01*
X99917521Y-93043773D01*
X99993137Y-92993248D01*
X100239274Y-92747111D01*
X100260068Y-92778232D01*
X100260068Y-92778232D01*
G37*
X100260068Y-92778232D02*
X100985701Y-93503865D01*
X101092826Y-93575443D01*
X101219188Y-93600578D01*
X101436995Y-93600578D01*
X101562354Y-93575643D01*
X101612964Y-93609459D01*
X101655199Y-93617860D01*
X101663600Y-93660094D01*
X101682857Y-93688913D01*
X101532629Y-93839141D01*
X101461051Y-93946266D01*
X101435916Y-94072628D01*
X101435916Y-94809830D01*
X101318252Y-94927289D01*
X101237608Y-95121502D01*
X101237424Y-95331792D01*
X101317729Y-95526145D01*
X101466297Y-95674972D01*
X101660510Y-95755616D01*
X101870800Y-95755800D01*
X102065153Y-95675495D01*
X102179613Y-95561235D01*
X102185924Y-95567557D01*
X102091936Y-95661381D01*
X102011292Y-95855594D01*
X102011108Y-96065884D01*
X102091413Y-96260237D01*
X102239981Y-96409064D01*
X102434194Y-96489708D01*
X102644484Y-96489892D01*
X102838837Y-96409587D01*
X102987664Y-96261019D01*
X103049829Y-96111309D01*
X103086535Y-96111309D01*
X104095169Y-97119942D01*
X104095169Y-97493466D01*
X102280913Y-99307723D01*
X102209335Y-99414848D01*
X102184200Y-99541210D01*
X102184200Y-99651086D01*
X102209335Y-99777448D01*
X102253912Y-99844163D01*
X102229285Y-99881021D01*
X102220884Y-99923255D01*
X102178650Y-99931656D01*
X102103034Y-99982181D01*
X101714125Y-100371090D01*
X101663600Y-100446706D01*
X101656120Y-100484312D01*
X101572668Y-100518879D01*
X101508361Y-100583185D01*
X101467293Y-100624254D01*
X101467293Y-100705076D01*
X102073390Y-101311172D01*
X102087532Y-101297030D01*
X102249177Y-101458675D01*
X102235035Y-101472817D01*
X102249177Y-101486959D01*
X102087532Y-101648604D01*
X102073390Y-101634462D01*
X102059248Y-101648604D01*
X101897603Y-101486959D01*
X101911745Y-101472817D01*
X101305649Y-100866720D01*
X101224827Y-100866720D01*
X101183758Y-100907788D01*
X101119452Y-100972095D01*
X101096576Y-101027323D01*
X101037368Y-101039100D01*
X100953350Y-101095239D01*
X100564441Y-101484148D01*
X100508302Y-101568166D01*
X100488589Y-101667272D01*
X100508302Y-101766378D01*
X100564441Y-101850396D01*
X101695812Y-102981767D01*
X101779830Y-103037906D01*
X101793570Y-103040639D01*
X101793570Y-103195966D01*
X101440235Y-103554670D01*
X100049847Y-102164282D01*
X100382046Y-101832083D01*
X100432571Y-101756467D01*
X100450313Y-101667272D01*
X100432571Y-101578077D01*
X100382046Y-101502461D01*
X99993137Y-101113552D01*
X99917521Y-101063027D01*
X99875287Y-101054626D01*
X99866886Y-101012391D01*
X99816361Y-100936775D01*
X99427452Y-100547866D01*
X99351836Y-100497341D01*
X99309601Y-100488940D01*
X99301200Y-100446706D01*
X99250675Y-100371090D01*
X98861766Y-99982181D01*
X98786150Y-99931656D01*
X98743916Y-99923255D01*
X98735515Y-99881021D01*
X98684990Y-99805405D01*
X98296081Y-99416496D01*
X98220465Y-99365971D01*
X98178230Y-99357570D01*
X98169829Y-99315335D01*
X98119304Y-99239719D01*
X97730395Y-98850810D01*
X97654779Y-98800285D01*
X97612545Y-98791884D01*
X97604144Y-98749650D01*
X97553619Y-98674034D01*
X97164710Y-98285125D01*
X97089094Y-98234600D01*
X97046860Y-98226199D01*
X97038459Y-98183964D01*
X96987934Y-98108348D01*
X96599025Y-97719439D01*
X96523409Y-97668914D01*
X96481174Y-97660513D01*
X96472773Y-97618279D01*
X96422248Y-97542663D01*
X96033339Y-97153754D01*
X95957723Y-97103229D01*
X95868528Y-97085487D01*
X95779333Y-97103229D01*
X95703717Y-97153754D01*
X95188331Y-97669140D01*
X93835954Y-97669140D01*
X93194477Y-97027663D01*
X94509070Y-95681956D01*
X94521821Y-95746059D01*
X94572346Y-95821675D01*
X95703717Y-96953046D01*
X95779333Y-97003571D01*
X95868528Y-97021313D01*
X95957723Y-97003571D01*
X96033339Y-96953046D01*
X96422248Y-96564137D01*
X96472773Y-96488521D01*
X96481174Y-96446287D01*
X96523409Y-96437886D01*
X96599025Y-96387361D01*
X96987934Y-95998452D01*
X97038459Y-95922836D01*
X97041496Y-95907566D01*
X97099005Y-95896127D01*
X97183023Y-95839988D01*
X97571932Y-95451079D01*
X97628071Y-95367061D01*
X97639510Y-95309552D01*
X97654779Y-95306515D01*
X97730395Y-95255990D01*
X98119304Y-94867081D01*
X98169829Y-94791465D01*
X98177310Y-94753857D01*
X98260761Y-94719291D01*
X98325068Y-94654985D01*
X98366136Y-94613916D01*
X98366136Y-94533094D01*
X97760039Y-93926998D01*
X97745897Y-93941140D01*
X97584252Y-93779495D01*
X97598394Y-93765353D01*
X97584252Y-93751211D01*
X97745897Y-93589566D01*
X97760039Y-93603708D01*
X97774181Y-93589566D01*
X97935826Y-93751211D01*
X97921684Y-93765353D01*
X98527780Y-94371450D01*
X98608602Y-94371450D01*
X98649671Y-94330382D01*
X98713977Y-94266075D01*
X98748543Y-94182624D01*
X98786150Y-94175144D01*
X98861766Y-94124619D01*
X99250675Y-93735710D01*
X99301200Y-93660094D01*
X99309601Y-93617860D01*
X99351836Y-93609459D01*
X99427452Y-93558934D01*
X99816361Y-93170025D01*
X99866886Y-93094409D01*
X99875287Y-93052174D01*
X99917521Y-93043773D01*
X99993137Y-92993248D01*
X100239274Y-92747111D01*
X100260068Y-92778232D01*
M02*
