M48
;DRILL file {KiCad no-vcs-found-undefined} date Sun Nov 27 17:51:19 2016
;FORMAT={-:-/ absolute / metric / decimal}
FMAT,2
METRIC,TZ
T1C0.300
T2C0.400
T3C1.016
%
G90
G05
M71
T1
X91.542Y-99.733
X91.694Y-103.264
X91.732Y-101.829
X92.215Y-89.878
X92.862Y-82.715
X93.579Y-103.124
X93.764Y-91.351
X93.891Y-95.885
X94.031Y-101.666
X94.386Y-98.603
X94.767Y-94.056
X94.862Y-82.715
X95.306Y-102.931
X96.418Y-91.326
X96.85Y-88.278
X96.862Y-82.715
X97.244Y-104.242
X97.704Y-85.872
X98.73Y-106.083
X98.85Y-88.278
X98.862Y-82.715
X99.035Y-90.78
X99.517Y-96.418
X99.517Y-97.418
X99.517Y-98.418
X100.393Y-84.912
X100.517Y-96.418
X100.517Y-98.418
X100.862Y-82.715
X101.13Y-84.049
X101.517Y-96.418
X101.517Y-97.418
X101.517Y-98.418
X101.9Y-86.393
X101.943Y-105.258
X102.07Y-88.456
X102.862Y-82.715
X103.162Y-107.15
X103.596Y-84.29
X104.47Y-105.562
X104.508Y-88.976
X104.673Y-90.589
X104.862Y-82.715
X105.928Y-100.538
X106.858Y-82.692
X107.378Y-84.29
X107.533Y-104.567
X108.862Y-82.715
X109.068Y-84.366
X109.118Y-89.599
T2
X91.059Y-90.399
X91.084Y-95.479
X91.179Y-94.175
X92.291Y-93.751
X92.466Y-92.085
X94.132Y-105.603
X96.579Y-105.928
X97.104Y-108.356
X98.349Y-107.747
X99.598Y-107.885
X99.898Y-111.506
X99.962Y-91.542
X100.686Y-88.519
X101.783Y-95.204
X102.062Y-90.339
X102.532Y-95.024
X102.908Y-95.783
X103.256Y-90.373
X103.637Y-88.104
X104.198Y-110.66
X104.499Y-107.629
X104.688Y-108.595
X105.664Y-89.713
X105.96Y-87.67
X105.964Y-83.388
X106.019Y-92.413
X106.132Y-105.603
X107.485Y-96.164
X107.798Y-92.799
X107.875Y-93.842
X107.942Y-97.016
X108.163Y-99.944
X108.166Y-91.554
X108.191Y-107.382
X108.298Y-98.417
X109.202Y-90.888
X109.393Y-96.337
X109.431Y-107.174
X110.053Y-107.796
T3
X90.983Y-109.449
X90.983Y-111.989
X91.084Y-83.795
X91.084Y-86.335
X93.523Y-109.449
X93.523Y-111.989
X96.063Y-109.449
X96.063Y-111.989
X98.603Y-109.449
X98.603Y-111.989
X101.143Y-109.449
X101.143Y-111.989
X103.683Y-109.449
X103.683Y-111.989
X106.223Y-109.449
X106.223Y-111.989
X108.763Y-109.449
X108.763Y-111.989
T0
M30
