G04 #@! TF.FileFunction,Copper,L2,Bot,Signal*
%FSLAX46Y46*%
G04 Gerber Fmt 4.6, Leading zero omitted, Abs format (unit mm)*
G04 Created by KiCad (PCBNEW no-vcs-found-undefined) date Sun Nov 27 17:51:16 2016*
%MOMM*%
%LPD*%
G01*
G04 APERTURE LIST*
%ADD10C,0.100000*%
%ADD11C,0.600000*%
%ADD12C,1.524000*%
%ADD13O,2.032000X2.032000*%
%ADD14R,2.032000X2.032000*%
%ADD15R,1.200000X3.000000*%
%ADD16R,1.000000X2.000000*%
%ADD17O,1.727200X1.727200*%
%ADD18R,1.727200X1.727200*%
%ADD19C,0.381000*%
%ADD20C,0.203200*%
%ADD21C,0.710000*%
%ADD22C,0.152400*%
G04 APERTURE END LIST*
D10*
D11*
X94030800Y-101666040D03*
X93578680Y-103124000D03*
X107533440Y-104566720D03*
X105928160Y-100538280D03*
X97703640Y-85872320D03*
X108862400Y-82715100D03*
X106857800Y-82692240D03*
X107378500Y-84289900D03*
X101942900Y-105257600D03*
X98729800Y-106083100D03*
X91541600Y-99733100D03*
X95305880Y-102930960D03*
X94767400Y-94056200D03*
X93891100Y-95885000D03*
X101130100Y-84048600D03*
X94386400Y-98602800D03*
X109118400Y-89598500D03*
X109067600Y-84366100D03*
X99034600Y-90779600D03*
X104673400Y-90589100D03*
X104508300Y-88976200D03*
X102069900Y-88455500D03*
X93764100Y-91351100D03*
X96418400Y-91325700D03*
X92214700Y-89877900D03*
X91694000Y-103263700D03*
X91732100Y-101828600D03*
X97243900Y-104241600D03*
X103162100Y-107149900D03*
X104470200Y-105562400D03*
X98850200Y-88277700D03*
X96850200Y-88277700D03*
X104862400Y-82715100D03*
X102862400Y-82715100D03*
X100862400Y-82715100D03*
X98862400Y-82715100D03*
X96862400Y-82715100D03*
X94862400Y-82715100D03*
D12*
X91059000Y-90398600D03*
D13*
X91084400Y-86334600D03*
D14*
X91084400Y-83794600D03*
D15*
X106126800Y-85877400D03*
X104126800Y-85877400D03*
X102126800Y-85877400D03*
X100126800Y-85877400D03*
X98126800Y-85877400D03*
X96126800Y-85877400D03*
X94126800Y-85877400D03*
X94126800Y-105577400D03*
X96126800Y-105577400D03*
X106126800Y-105577400D03*
D11*
X92862400Y-82715100D03*
X101517200Y-98418400D03*
X100517200Y-98418400D03*
X99517200Y-98418400D03*
X101517200Y-97418400D03*
X99517200Y-97418400D03*
X101517200Y-96418400D03*
X100517200Y-96418400D03*
X99517200Y-96418400D03*
D16*
X104851200Y-93395800D03*
X103581200Y-93395800D03*
X102311200Y-93395800D03*
X101041200Y-93395800D03*
X99771200Y-93395800D03*
X98501200Y-93395800D03*
X97231200Y-93395800D03*
X95961200Y-93395800D03*
D17*
X108762800Y-109448600D03*
X108762800Y-111988600D03*
X106222800Y-109448600D03*
X106222800Y-111988600D03*
X103682800Y-109448600D03*
X103682800Y-111988600D03*
X101142800Y-109448600D03*
X101142800Y-111988600D03*
D18*
X90982800Y-111988600D03*
D17*
X90982800Y-109448600D03*
X93522800Y-111988600D03*
X93522800Y-109448600D03*
X96062800Y-111988600D03*
X96062800Y-109448600D03*
X98602800Y-111988600D03*
X98602800Y-109448600D03*
D12*
X91084400Y-92938600D03*
X91084400Y-87858600D03*
X91084400Y-95478600D03*
X91084400Y-98018600D03*
D11*
X107797600Y-92798900D03*
X107484890Y-96164400D03*
X109392720Y-96337120D03*
X109202400Y-90888300D03*
X91179407Y-94175186D03*
X105964302Y-83388200D03*
X106018638Y-92413147D03*
X104499399Y-107628934D03*
X108190870Y-107382343D03*
X92465752Y-92084752D03*
X94132400Y-105602800D03*
X103595789Y-84289895D03*
X103637220Y-88104162D03*
X102061990Y-90339137D03*
X101900000Y-86393310D03*
X99961700Y-91541600D03*
X100393500Y-84912200D03*
X101783056Y-95204482D03*
X100685600Y-88519000D03*
X102531610Y-95023877D03*
X105959861Y-87669979D03*
X102908100Y-95783400D03*
X106132400Y-105602800D03*
X99597812Y-107884794D03*
X98348800Y-107746800D03*
X91059000Y-90398600D03*
X91084400Y-95478600D03*
X92290900Y-93751400D03*
X108165900Y-91554300D03*
X108297669Y-98417046D03*
X109431032Y-107174342D03*
X107874658Y-93841804D03*
X107942060Y-97015850D03*
X110052580Y-107795890D03*
X108163360Y-99943920D03*
X105664000Y-89712800D03*
X97104200Y-108356400D03*
X99898200Y-111506000D03*
X103256080Y-90373200D03*
X96578710Y-105927598D03*
X104687579Y-108594935D03*
X104198087Y-110659525D03*
D19*
X109438440Y-96382840D02*
X109392720Y-96337120D01*
X109804200Y-96382840D02*
X109438440Y-96382840D01*
X109804200Y-90805000D02*
X109285700Y-90805000D01*
X109285700Y-90805000D02*
X109202400Y-90888300D01*
X109804200Y-90805000D02*
X109804200Y-84124800D01*
X109804200Y-84124800D02*
X109067600Y-83388200D01*
X109067600Y-83388200D02*
X105964302Y-83388200D01*
X89628586Y-94175186D02*
X90755143Y-94175186D01*
X89560400Y-94107000D02*
X89628586Y-94175186D01*
X90755143Y-94175186D02*
X91179407Y-94175186D01*
X89560400Y-97942400D02*
X89560400Y-94107000D01*
X89560400Y-94107000D02*
X89560400Y-91592400D01*
X106018638Y-93109362D02*
X106018638Y-92837411D01*
X106018638Y-92837411D02*
X106018638Y-92413147D01*
X104851200Y-93395800D02*
X105732200Y-93395800D01*
X105732200Y-93395800D02*
X106018638Y-93109362D01*
X109804200Y-90805000D02*
X109804200Y-96382840D01*
X109804200Y-96382840D02*
X109804200Y-105769013D01*
X108190870Y-107382343D02*
X109590840Y-105982373D01*
X109804200Y-105769013D02*
X109590840Y-105982373D01*
X104499399Y-107628934D02*
X104799398Y-107928933D01*
X104799398Y-107928933D02*
X104925113Y-107928933D01*
X105191212Y-108115090D02*
X105080634Y-108004512D01*
X105000692Y-108004512D02*
X104925113Y-107928933D01*
X108190870Y-107382343D02*
X107458123Y-108115090D01*
X107458123Y-108115090D02*
X105191212Y-108115090D01*
X105080634Y-108004512D02*
X105000692Y-108004512D01*
X94754701Y-113220501D02*
X101734113Y-113220501D01*
X104075135Y-107628934D02*
X104499399Y-107628934D01*
X102450899Y-108857287D02*
X103679252Y-107628934D01*
X101734113Y-113220501D02*
X102450899Y-112503715D01*
X103679252Y-107628934D02*
X104075135Y-107628934D01*
X93522800Y-111988600D02*
X94754701Y-113220501D01*
X102450899Y-112503715D02*
X102450899Y-108857287D01*
X89560400Y-91592400D02*
X91973400Y-91592400D01*
X91973400Y-91592400D02*
X92465752Y-92084752D01*
X89560400Y-99542600D02*
X89560400Y-97942400D01*
X89636600Y-98018600D02*
X91084400Y-98018600D01*
X89560400Y-97942400D02*
X89636600Y-98018600D01*
X89560400Y-108026200D02*
X89560400Y-99542600D01*
X90982800Y-109448600D02*
X89560400Y-108026200D01*
X105181400Y-93065600D02*
X104851200Y-93395800D01*
D20*
X103895788Y-84589894D02*
X103595789Y-84289895D01*
X104126800Y-84820906D02*
X103895788Y-84589894D01*
X104126800Y-85877400D02*
X104126800Y-84820906D01*
X103637220Y-88104162D02*
X104132400Y-87608982D01*
X104132400Y-87608982D02*
X104132400Y-85902800D01*
X101226122Y-92125800D02*
X102061990Y-91289932D01*
X102061990Y-90763401D02*
X102061990Y-90339137D01*
X98568000Y-92125800D02*
X101226122Y-92125800D01*
X98501200Y-92192600D02*
X98568000Y-92125800D01*
X98501200Y-93395800D02*
X98501200Y-92192600D01*
X102061990Y-91289932D02*
X102061990Y-90763401D01*
X97231200Y-93395800D02*
X97231200Y-92192600D01*
X99961700Y-91541600D02*
X99537436Y-91541600D01*
X99537436Y-91541600D02*
X99470636Y-91608400D01*
X99470636Y-91608400D02*
X97815400Y-91608400D01*
X97231200Y-92192600D02*
X97815400Y-91608400D01*
X100939791Y-95204482D02*
X101358792Y-95204482D01*
X99771200Y-94035891D02*
X100939791Y-95204482D01*
X101358792Y-95204482D02*
X101783056Y-95204482D01*
X99771200Y-93395800D02*
X99771200Y-94035891D01*
X100118957Y-86151772D02*
X100118957Y-85727508D01*
X100685600Y-88519000D02*
X100118957Y-87952357D01*
X100118957Y-87952357D02*
X100118957Y-86151772D01*
X101092001Y-94649801D02*
X102157534Y-94649801D01*
X102157534Y-94649801D02*
X102531610Y-95023877D01*
X105959861Y-87669979D02*
X105959861Y-86075339D01*
X105959861Y-86075339D02*
X106132400Y-85902800D01*
X106173936Y-86151896D02*
X106173936Y-86576160D01*
X106132400Y-85902800D02*
X106173936Y-85944336D01*
X106173936Y-85944336D02*
X106173936Y-86151896D01*
X101041200Y-94599000D02*
X101092001Y-94649801D01*
X101057200Y-94615000D02*
X101092001Y-94649801D01*
X101041200Y-93395800D02*
X101041200Y-94599000D01*
X101041200Y-94599000D02*
X101057200Y-94615000D01*
X102908100Y-95783400D02*
X102905809Y-95781109D01*
X102905809Y-95781109D02*
X101539761Y-95781109D01*
X101415052Y-95656400D02*
X100888800Y-95656400D01*
X101539761Y-95781109D02*
X101415052Y-95656400D01*
X99882201Y-94649801D02*
X96012001Y-94649801D01*
X100888800Y-95656400D02*
X99882201Y-94649801D01*
X96012001Y-94649801D02*
X95961200Y-94599000D01*
X95961200Y-94599000D02*
X95961200Y-93395800D01*
X99597812Y-107903612D02*
X99597812Y-107884794D01*
X101142800Y-109448600D02*
X99597812Y-107903612D01*
X98885250Y-108077000D02*
X98679000Y-108077000D01*
X98679000Y-108077000D02*
X98348800Y-107746800D01*
X100083121Y-110870999D02*
X100025199Y-110870999D01*
X101142800Y-111930678D02*
X100083121Y-110870999D01*
X101142800Y-111988600D02*
X101142800Y-111930678D01*
X100025199Y-110870999D02*
X100025199Y-109216949D01*
X100025199Y-109216949D02*
X98885250Y-108077000D01*
X91059000Y-90398600D02*
X91059000Y-90093800D01*
X92290900Y-93751400D02*
X91897200Y-93751400D01*
X91897200Y-93751400D02*
X91084400Y-92938600D01*
X108297669Y-97992782D02*
X108297669Y-98417046D01*
X108523747Y-97766704D02*
X108297669Y-97992782D01*
X108523747Y-96828572D02*
X108523747Y-97766704D01*
X108165900Y-91554300D02*
X108165900Y-91978564D01*
X108457707Y-96762532D02*
X108523747Y-96828572D01*
X108165900Y-91978564D02*
X108457707Y-92270371D01*
X108457707Y-92270371D02*
X108457707Y-96762532D01*
X108020373Y-108585001D02*
X109431032Y-107174342D01*
X107086399Y-108585001D02*
X108020373Y-108585001D01*
X106222800Y-109448600D02*
X107086399Y-108585001D01*
X107874658Y-94266068D02*
X107874658Y-93841804D01*
X107942060Y-97015850D02*
X107942060Y-96591586D01*
X108102096Y-94493506D02*
X107874658Y-94266068D01*
X107942060Y-96591586D02*
X108102096Y-96431550D01*
X108102096Y-96431550D02*
X108102096Y-94493506D01*
X110052580Y-108220154D02*
X110052580Y-107795890D01*
X108994451Y-110870999D02*
X110052580Y-109812870D01*
X106222800Y-111988600D02*
X107340401Y-110870999D01*
X107340401Y-110870999D02*
X108994451Y-110870999D01*
X110052580Y-109812870D02*
X110052580Y-108220154D01*
D21*
X91084400Y-83794600D02*
X95083242Y-83794600D01*
X95083242Y-83794600D02*
X96132400Y-84843758D01*
X96132400Y-84843758D02*
X96132400Y-85902800D01*
D20*
X108463359Y-99643921D02*
X108163360Y-99943920D01*
X108879358Y-96681274D02*
X108879358Y-99227922D01*
X108879358Y-95992966D02*
X108813318Y-96059006D01*
X108813318Y-96059006D02*
X108813318Y-96615234D01*
X108879358Y-91422774D02*
X108879358Y-95992966D01*
X108879358Y-99227922D02*
X108463359Y-99643921D01*
X107169384Y-89712800D02*
X108879358Y-91422774D01*
X108813318Y-96615234D02*
X108879358Y-96681274D01*
X105664000Y-89712800D02*
X107169384Y-89712800D01*
X97104200Y-108356400D02*
X97104200Y-108780664D01*
X97104200Y-108780664D02*
X97485199Y-109161663D01*
X97485199Y-109161663D02*
X97485199Y-110870999D01*
X97485199Y-110870999D02*
X97739201Y-111125001D01*
X97739201Y-111125001D02*
X98602800Y-111988600D01*
X99898200Y-111506000D02*
X98602800Y-110210600D01*
X98602800Y-110210600D02*
X98602800Y-109448600D01*
X102311200Y-93395800D02*
X102311200Y-92318840D01*
X102311200Y-92318840D02*
X102311200Y-92192600D01*
X103256080Y-90373200D02*
X103256080Y-90797464D01*
X103256080Y-90797464D02*
X102311200Y-91742344D01*
X102311200Y-91742344D02*
X102311200Y-92318840D01*
X103213471Y-90820240D02*
X103233304Y-90820240D01*
X96253912Y-105602800D02*
X96278711Y-105627599D01*
X96278711Y-105627599D02*
X96578710Y-105927598D01*
X96132400Y-105602800D02*
X96253912Y-105602800D01*
X104987578Y-108894934D02*
X104687579Y-108594935D01*
X105105199Y-109012555D02*
X104987578Y-108894934D01*
X105105199Y-109985049D02*
X105105199Y-109012555D01*
X108762800Y-109448600D02*
X107899201Y-110312199D01*
X106759249Y-110566201D02*
X105686351Y-110566201D01*
X107899201Y-110312199D02*
X107013251Y-110312199D01*
X105686351Y-110566201D02*
X105105199Y-109985049D01*
X107013251Y-110312199D02*
X106759249Y-110566201D01*
X105686351Y-113106201D02*
X107645199Y-113106201D01*
X104198087Y-110659525D02*
X105105199Y-111566637D01*
X107645199Y-113106201D02*
X107899201Y-112852199D01*
X105105199Y-112525049D02*
X105686351Y-113106201D01*
X107899201Y-112852199D02*
X108762800Y-111988600D01*
X105105199Y-111566637D02*
X105105199Y-112525049D01*
D22*
G36*
X110170600Y-83843610D02*
X110136470Y-83792531D01*
X109399869Y-83055931D01*
X109247423Y-82954069D01*
X109067600Y-82918300D01*
X106313902Y-82918300D01*
X106292934Y-82897295D01*
X106080057Y-82808901D01*
X105849558Y-82808700D01*
X105636527Y-82896722D01*
X105473397Y-83059568D01*
X105385003Y-83272445D01*
X105384802Y-83502944D01*
X105472824Y-83715975D01*
X105635670Y-83879105D01*
X105848547Y-83967499D01*
X106079046Y-83967700D01*
X106292077Y-83879678D01*
X106313693Y-83858100D01*
X108872962Y-83858100D01*
X109334300Y-84319439D01*
X109334300Y-90315705D01*
X109318155Y-90309001D01*
X109087656Y-90308800D01*
X108874625Y-90396822D01*
X108711495Y-90559668D01*
X108665599Y-90670199D01*
X107438792Y-89443392D01*
X107315187Y-89360802D01*
X107169384Y-89331800D01*
X106102346Y-89331800D01*
X105992632Y-89221895D01*
X105779755Y-89133501D01*
X105549256Y-89133300D01*
X105336225Y-89221322D01*
X105173095Y-89384168D01*
X105084701Y-89597045D01*
X105084500Y-89827544D01*
X105172522Y-90040575D01*
X105335368Y-90203705D01*
X105548245Y-90292099D01*
X105778744Y-90292300D01*
X105991775Y-90204278D01*
X106102446Y-90093800D01*
X107011568Y-90093800D01*
X107938936Y-91021168D01*
X107838125Y-91062822D01*
X107674995Y-91225668D01*
X107586601Y-91438545D01*
X107586400Y-91669044D01*
X107674422Y-91882075D01*
X107788423Y-91996275D01*
X107813902Y-92124367D01*
X107896492Y-92247972D01*
X108076707Y-92428186D01*
X108076707Y-93298337D01*
X107990413Y-93262505D01*
X107759914Y-93262304D01*
X107546883Y-93350326D01*
X107383753Y-93513172D01*
X107295359Y-93726049D01*
X107295158Y-93956548D01*
X107383180Y-94169579D01*
X107497181Y-94283779D01*
X107522660Y-94411871D01*
X107605250Y-94535476D01*
X107721096Y-94651322D01*
X107721096Y-96273734D01*
X107672652Y-96322178D01*
X107590062Y-96445783D01*
X107575335Y-96519819D01*
X107564555Y-96574015D01*
X107451155Y-96687218D01*
X107362761Y-96900095D01*
X107362560Y-97130594D01*
X107450582Y-97343625D01*
X107613428Y-97506755D01*
X107826305Y-97595149D01*
X108056804Y-97595350D01*
X108142747Y-97559839D01*
X108142747Y-97608889D01*
X108028261Y-97723374D01*
X107945671Y-97846979D01*
X107945671Y-97846980D01*
X107920164Y-97975211D01*
X107806764Y-98088414D01*
X107718370Y-98301291D01*
X107718169Y-98531790D01*
X107806191Y-98744821D01*
X107969037Y-98907951D01*
X108181914Y-98996345D01*
X108412413Y-98996546D01*
X108498358Y-98961034D01*
X108498358Y-99070107D01*
X108203909Y-99364555D01*
X108048616Y-99364420D01*
X107835585Y-99452442D01*
X107672455Y-99615288D01*
X107584061Y-99828165D01*
X107583860Y-100058664D01*
X107671882Y-100271695D01*
X107834728Y-100434825D01*
X108047605Y-100523219D01*
X108278104Y-100523420D01*
X108491135Y-100435398D01*
X108654265Y-100272552D01*
X108742659Y-100059675D01*
X108742795Y-99903301D01*
X109148763Y-99497332D01*
X109148766Y-99497330D01*
X109231356Y-99373724D01*
X109260358Y-99227922D01*
X109260358Y-96909523D01*
X109276965Y-96916419D01*
X109334300Y-96916469D01*
X109334300Y-105574375D01*
X109258574Y-105650101D01*
X109258571Y-105650103D01*
X108105806Y-106802869D01*
X108076126Y-106802843D01*
X107863095Y-106890865D01*
X107699965Y-107053711D01*
X107611571Y-107266588D01*
X107611544Y-107297130D01*
X107263485Y-107645190D01*
X105372416Y-107645190D01*
X105260457Y-107570381D01*
X105200071Y-107558369D01*
X105104936Y-107494802D01*
X105067839Y-107487423D01*
X104990877Y-107301159D01*
X104828031Y-107138029D01*
X104615154Y-107049635D01*
X104384655Y-107049434D01*
X104171624Y-107137456D01*
X104150008Y-107159034D01*
X103679252Y-107159034D01*
X103499429Y-107194803D01*
X103346982Y-107296665D01*
X102118630Y-108525018D01*
X102016768Y-108677464D01*
X102010803Y-108707451D01*
X101951023Y-108617984D01*
X101580207Y-108370213D01*
X101142800Y-108283207D01*
X100705393Y-108370213D01*
X100644150Y-108411134D01*
X100177160Y-107944144D01*
X100177312Y-107770050D01*
X100089290Y-107557019D01*
X99926444Y-107393889D01*
X99713567Y-107305495D01*
X99483068Y-107305294D01*
X99270037Y-107393316D01*
X99106907Y-107556162D01*
X99035551Y-107728007D01*
X99031053Y-107725002D01*
X98928237Y-107704551D01*
X98928300Y-107632056D01*
X98840278Y-107419025D01*
X98677432Y-107255895D01*
X98464555Y-107167501D01*
X98234056Y-107167300D01*
X98021025Y-107255322D01*
X97857895Y-107418168D01*
X97769501Y-107631045D01*
X97769300Y-107861544D01*
X97857322Y-108074575D01*
X98020168Y-108237705D01*
X98233045Y-108326099D01*
X98386495Y-108326233D01*
X98165393Y-108370213D01*
X97794577Y-108617984D01*
X97668710Y-108806358D01*
X97571224Y-108708872D01*
X97595105Y-108685032D01*
X97683499Y-108472155D01*
X97683700Y-108241656D01*
X97595678Y-108028625D01*
X97432832Y-107865495D01*
X97219955Y-107777101D01*
X96989456Y-107776900D01*
X96776425Y-107864922D01*
X96613295Y-108027768D01*
X96524901Y-108240645D01*
X96524774Y-108386628D01*
X96500207Y-108370213D01*
X96062800Y-108283207D01*
X95625393Y-108370213D01*
X95254577Y-108617984D01*
X95006806Y-108988800D01*
X94919800Y-109426207D01*
X94919800Y-109470993D01*
X95006806Y-109908400D01*
X95254577Y-110279216D01*
X95625393Y-110526987D01*
X96062800Y-110613993D01*
X96500207Y-110526987D01*
X96871023Y-110279216D01*
X97104199Y-109930243D01*
X97104199Y-110870999D01*
X97133201Y-111016802D01*
X97215791Y-111140407D01*
X97569788Y-111494404D01*
X97546806Y-111528800D01*
X97459800Y-111966207D01*
X97459800Y-112010993D01*
X97546806Y-112448400D01*
X97748730Y-112750601D01*
X96916870Y-112750601D01*
X97118794Y-112448400D01*
X97205800Y-112010993D01*
X97205800Y-111966207D01*
X97118794Y-111528800D01*
X96871023Y-111157984D01*
X96500207Y-110910213D01*
X96062800Y-110823207D01*
X95625393Y-110910213D01*
X95254577Y-111157984D01*
X95006806Y-111528800D01*
X94919800Y-111966207D01*
X94919800Y-112010993D01*
X95006806Y-112448400D01*
X95208730Y-112750601D01*
X94949340Y-112750601D01*
X94590133Y-112391395D01*
X94665800Y-112010993D01*
X94665800Y-111966207D01*
X94578794Y-111528800D01*
X94331023Y-111157984D01*
X93960207Y-110910213D01*
X93522800Y-110823207D01*
X93085393Y-110910213D01*
X92714577Y-111157984D01*
X92466806Y-111528800D01*
X92379800Y-111966207D01*
X92379800Y-112010993D01*
X92466806Y-112448400D01*
X92714577Y-112819216D01*
X93085393Y-113066987D01*
X93522800Y-113153993D01*
X93940557Y-113070896D01*
X94422431Y-113552770D01*
X94574878Y-113654632D01*
X94655155Y-113670600D01*
X89329400Y-113670600D01*
X89329400Y-111125000D01*
X89834327Y-111125000D01*
X89834327Y-112852200D01*
X89856012Y-112961216D01*
X89917764Y-113053636D01*
X90010184Y-113115388D01*
X90119200Y-113137073D01*
X91846400Y-113137073D01*
X91955416Y-113115388D01*
X92047836Y-113053636D01*
X92109588Y-112961216D01*
X92131273Y-112852200D01*
X92131273Y-111125000D01*
X92109588Y-111015984D01*
X92047836Y-110923564D01*
X91955416Y-110861812D01*
X91846400Y-110840127D01*
X90119200Y-110840127D01*
X90010184Y-110861812D01*
X89917764Y-110923564D01*
X89856012Y-111015984D01*
X89834327Y-111125000D01*
X89329400Y-111125000D01*
X89329400Y-108459738D01*
X89915467Y-109045805D01*
X89839800Y-109426207D01*
X89839800Y-109470993D01*
X89926806Y-109908400D01*
X90174577Y-110279216D01*
X90545393Y-110526987D01*
X90982800Y-110613993D01*
X91420207Y-110526987D01*
X91791023Y-110279216D01*
X92038794Y-109908400D01*
X92061789Y-109792792D01*
X92486233Y-109792792D01*
X92696854Y-110163269D01*
X93033217Y-110424944D01*
X93178610Y-110485150D01*
X93345000Y-110468264D01*
X93345000Y-109626400D01*
X93700600Y-109626400D01*
X93700600Y-110468264D01*
X93866990Y-110485150D01*
X94012383Y-110424944D01*
X94348746Y-110163269D01*
X94559367Y-109792792D01*
X94543299Y-109626400D01*
X93700600Y-109626400D01*
X93345000Y-109626400D01*
X92502301Y-109626400D01*
X92486233Y-109792792D01*
X92061789Y-109792792D01*
X92125800Y-109470993D01*
X92125800Y-109426207D01*
X92061790Y-109104408D01*
X92486233Y-109104408D01*
X92502301Y-109270800D01*
X93345000Y-109270800D01*
X93345000Y-108428936D01*
X93700600Y-108428936D01*
X93700600Y-109270800D01*
X94543299Y-109270800D01*
X94559367Y-109104408D01*
X94348746Y-108733931D01*
X94012383Y-108472256D01*
X93866990Y-108412050D01*
X93700600Y-108428936D01*
X93345000Y-108428936D01*
X93178610Y-108412050D01*
X93033217Y-108472256D01*
X92696854Y-108733931D01*
X92486233Y-109104408D01*
X92061790Y-109104408D01*
X92038794Y-108988800D01*
X91791023Y-108617984D01*
X91420207Y-108370213D01*
X90982800Y-108283207D01*
X90565043Y-108366304D01*
X90030300Y-107831562D01*
X90030300Y-104077400D01*
X93241927Y-104077400D01*
X93241927Y-107077400D01*
X93263612Y-107186416D01*
X93325364Y-107278836D01*
X93417784Y-107340588D01*
X93526800Y-107362273D01*
X94726800Y-107362273D01*
X94835816Y-107340588D01*
X94928236Y-107278836D01*
X94989988Y-107186416D01*
X95011673Y-107077400D01*
X95011673Y-104077400D01*
X95241927Y-104077400D01*
X95241927Y-107077400D01*
X95263612Y-107186416D01*
X95325364Y-107278836D01*
X95417784Y-107340588D01*
X95526800Y-107362273D01*
X96726800Y-107362273D01*
X96835816Y-107340588D01*
X96928236Y-107278836D01*
X96989988Y-107186416D01*
X97011673Y-107077400D01*
X97011673Y-106314071D01*
X97069615Y-106256230D01*
X97158009Y-106043353D01*
X97158210Y-105812854D01*
X97070188Y-105599823D01*
X97011673Y-105541206D01*
X97011673Y-104077400D01*
X105241927Y-104077400D01*
X105241927Y-107077400D01*
X105263612Y-107186416D01*
X105325364Y-107278836D01*
X105417784Y-107340588D01*
X105526800Y-107362273D01*
X106726800Y-107362273D01*
X106835816Y-107340588D01*
X106928236Y-107278836D01*
X106989988Y-107186416D01*
X107011673Y-107077400D01*
X107011673Y-104077400D01*
X106989988Y-103968384D01*
X106928236Y-103875964D01*
X106835816Y-103814212D01*
X106726800Y-103792527D01*
X105526800Y-103792527D01*
X105417784Y-103814212D01*
X105325364Y-103875964D01*
X105263612Y-103968384D01*
X105241927Y-104077400D01*
X97011673Y-104077400D01*
X96989988Y-103968384D01*
X96928236Y-103875964D01*
X96835816Y-103814212D01*
X96726800Y-103792527D01*
X95526800Y-103792527D01*
X95417784Y-103814212D01*
X95325364Y-103875964D01*
X95263612Y-103968384D01*
X95241927Y-104077400D01*
X95011673Y-104077400D01*
X94989988Y-103968384D01*
X94928236Y-103875964D01*
X94835816Y-103814212D01*
X94726800Y-103792527D01*
X93526800Y-103792527D01*
X93417784Y-103814212D01*
X93325364Y-103875964D01*
X93263612Y-103968384D01*
X93241927Y-104077400D01*
X90030300Y-104077400D01*
X90030300Y-98488500D01*
X90151762Y-98488500D01*
X90201029Y-98607735D01*
X90493724Y-98900941D01*
X90876344Y-99059819D01*
X91290638Y-99060180D01*
X91673535Y-98901971D01*
X91966741Y-98609276D01*
X92125619Y-98226656D01*
X92125980Y-97812362D01*
X91967771Y-97429465D01*
X91675076Y-97136259D01*
X91292456Y-96977381D01*
X90878162Y-96977020D01*
X90495265Y-97135229D01*
X90202059Y-97427924D01*
X90151908Y-97548700D01*
X90030300Y-97548700D01*
X90030300Y-94645086D01*
X90445321Y-94645086D01*
X90202059Y-94887924D01*
X90043181Y-95270544D01*
X90042820Y-95684838D01*
X90201029Y-96067735D01*
X90493724Y-96360941D01*
X90876344Y-96519819D01*
X91290638Y-96520180D01*
X91673535Y-96361971D01*
X91966741Y-96069276D01*
X92125619Y-95686656D01*
X92125980Y-95272362D01*
X91967771Y-94889465D01*
X91675076Y-94596259D01*
X91606313Y-94567706D01*
X91670312Y-94503818D01*
X91758706Y-94290941D01*
X91758868Y-94104884D01*
X91841493Y-94121320D01*
X91962268Y-94242305D01*
X92175145Y-94330699D01*
X92405644Y-94330900D01*
X92618675Y-94242878D01*
X92781805Y-94080032D01*
X92870199Y-93867155D01*
X92870400Y-93636656D01*
X92782378Y-93423625D01*
X92619532Y-93260495D01*
X92406655Y-93172101D01*
X92176156Y-93171900D01*
X92102499Y-93202334D01*
X92125619Y-93146656D01*
X92125980Y-92732362D01*
X92007637Y-92445948D01*
X92137120Y-92575657D01*
X92349997Y-92664051D01*
X92580496Y-92664252D01*
X92793527Y-92576230D01*
X92956657Y-92413384D01*
X92963958Y-92395800D01*
X95176327Y-92395800D01*
X95176327Y-94395800D01*
X95198012Y-94504816D01*
X95259764Y-94597236D01*
X95352184Y-94658988D01*
X95461200Y-94680673D01*
X95596446Y-94680673D01*
X95609202Y-94744803D01*
X95691792Y-94868408D01*
X95742591Y-94919206D01*
X95742593Y-94919209D01*
X95866199Y-95001799D01*
X96012001Y-95030801D01*
X99724385Y-95030801D01*
X100619392Y-95925808D01*
X100742997Y-96008398D01*
X100888800Y-96037400D01*
X101257236Y-96037400D01*
X101270353Y-96050517D01*
X101393958Y-96133107D01*
X101539761Y-96162109D01*
X102467467Y-96162109D01*
X102579468Y-96274305D01*
X102792345Y-96362699D01*
X103022844Y-96362900D01*
X103235875Y-96274878D01*
X103399005Y-96112032D01*
X103487399Y-95899155D01*
X103487600Y-95668656D01*
X103399578Y-95455625D01*
X103236732Y-95292495D01*
X103075274Y-95225452D01*
X103110909Y-95139632D01*
X103111110Y-94909133D01*
X103023088Y-94696102D01*
X102959702Y-94632605D01*
X102996377Y-94608100D01*
X103035729Y-94624400D01*
X103346250Y-94624400D01*
X103403400Y-94567250D01*
X103403400Y-93573600D01*
X103383400Y-93573600D01*
X103383400Y-93218000D01*
X103403400Y-93218000D01*
X103403400Y-92224350D01*
X103759000Y-92224350D01*
X103759000Y-93218000D01*
X103779000Y-93218000D01*
X103779000Y-93573600D01*
X103759000Y-93573600D01*
X103759000Y-94567250D01*
X103816150Y-94624400D01*
X104126671Y-94624400D01*
X104166023Y-94608100D01*
X104242184Y-94658988D01*
X104351200Y-94680673D01*
X105351200Y-94680673D01*
X105460216Y-94658988D01*
X105552636Y-94597236D01*
X105614388Y-94504816D01*
X105636073Y-94395800D01*
X105636073Y-93865700D01*
X105732200Y-93865700D01*
X105912023Y-93829931D01*
X106064469Y-93728069D01*
X106350908Y-93441631D01*
X106452769Y-93289185D01*
X106488538Y-93109362D01*
X106488538Y-92762747D01*
X106509543Y-92741779D01*
X106597937Y-92528902D01*
X106598138Y-92298403D01*
X106510116Y-92085372D01*
X106347270Y-91922242D01*
X106134393Y-91833848D01*
X105903894Y-91833647D01*
X105690863Y-91921669D01*
X105527733Y-92084515D01*
X105497435Y-92157481D01*
X105460216Y-92132612D01*
X105351200Y-92110927D01*
X104351200Y-92110927D01*
X104242184Y-92132612D01*
X104166023Y-92183500D01*
X104126671Y-92167200D01*
X103816150Y-92167200D01*
X103759000Y-92224350D01*
X103403400Y-92224350D01*
X103346250Y-92167200D01*
X103035729Y-92167200D01*
X102996377Y-92183500D01*
X102920216Y-92132612D01*
X102811200Y-92110927D01*
X102692200Y-92110927D01*
X102692200Y-91900160D01*
X103525488Y-91066872D01*
X103608078Y-90943267D01*
X103633585Y-90815035D01*
X103746985Y-90701832D01*
X103835379Y-90488955D01*
X103835580Y-90258456D01*
X103747558Y-90045425D01*
X103584712Y-89882295D01*
X103371835Y-89793901D01*
X103141336Y-89793700D01*
X102928305Y-89881722D01*
X102765175Y-90044568D01*
X102676781Y-90257445D01*
X102676580Y-90487944D01*
X102764602Y-90700975D01*
X102789156Y-90725572D01*
X102442990Y-91071738D01*
X102442990Y-90777483D01*
X102552895Y-90667769D01*
X102641289Y-90454892D01*
X102641490Y-90224393D01*
X102553468Y-90011362D01*
X102390622Y-89848232D01*
X102177745Y-89759838D01*
X101947246Y-89759637D01*
X101734215Y-89847659D01*
X101571085Y-90010505D01*
X101482691Y-90223382D01*
X101482490Y-90453881D01*
X101570512Y-90666912D01*
X101680990Y-90777583D01*
X101680990Y-91132116D01*
X101068306Y-91744800D01*
X100504689Y-91744800D01*
X100540999Y-91657355D01*
X100541200Y-91426856D01*
X100453178Y-91213825D01*
X100290332Y-91050695D01*
X100077455Y-90962301D01*
X99846956Y-90962100D01*
X99633925Y-91050122D01*
X99519725Y-91164123D01*
X99391634Y-91189602D01*
X99335065Y-91227400D01*
X97815405Y-91227400D01*
X97815400Y-91227399D01*
X97669598Y-91256402D01*
X97545992Y-91338992D01*
X97545990Y-91338995D01*
X96961792Y-91923192D01*
X96879202Y-92046797D01*
X96871652Y-92084752D01*
X96866446Y-92110927D01*
X96731200Y-92110927D01*
X96622184Y-92132612D01*
X96596200Y-92149974D01*
X96570216Y-92132612D01*
X96461200Y-92110927D01*
X95461200Y-92110927D01*
X95352184Y-92132612D01*
X95259764Y-92194364D01*
X95198012Y-92286784D01*
X95176327Y-92395800D01*
X92963958Y-92395800D01*
X93045051Y-92200507D01*
X93045252Y-91970008D01*
X92957230Y-91756977D01*
X92794384Y-91593847D01*
X92581507Y-91505453D01*
X92550965Y-91505426D01*
X92305669Y-91260131D01*
X92153223Y-91158269D01*
X91973400Y-91122500D01*
X91807884Y-91122500D01*
X91941341Y-90989276D01*
X92100219Y-90606656D01*
X92100580Y-90192362D01*
X91942371Y-89809465D01*
X91649676Y-89516259D01*
X91267056Y-89357381D01*
X90852762Y-89357020D01*
X90469865Y-89515229D01*
X90176659Y-89807924D01*
X90017781Y-90190544D01*
X90017420Y-90604838D01*
X90175629Y-90987735D01*
X90310159Y-91122500D01*
X89560400Y-91122500D01*
X89380577Y-91158269D01*
X89329400Y-91192465D01*
X89329400Y-88646262D01*
X90548185Y-88646262D01*
X90643847Y-88767460D01*
X91025188Y-88866870D01*
X91415543Y-88812779D01*
X91524953Y-88767460D01*
X91620615Y-88646262D01*
X91084400Y-88110047D01*
X90548185Y-88646262D01*
X89329400Y-88646262D01*
X89329400Y-86702912D01*
X89895545Y-86702912D01*
X89983303Y-86914821D01*
X90260305Y-87256441D01*
X90245548Y-87271198D01*
X90296736Y-87322386D01*
X90175540Y-87418047D01*
X90076130Y-87799388D01*
X90130221Y-88189743D01*
X90175540Y-88299153D01*
X90296738Y-88394815D01*
X90832953Y-87858600D01*
X90818811Y-87844458D01*
X91070258Y-87593011D01*
X91084400Y-87607153D01*
X91098543Y-87593011D01*
X91349990Y-87844458D01*
X91335847Y-87858600D01*
X91872062Y-88394815D01*
X91993260Y-88299153D01*
X92092670Y-87917812D01*
X92038579Y-87527457D01*
X91993260Y-87418047D01*
X91872064Y-87322386D01*
X91923252Y-87271198D01*
X91908495Y-87256441D01*
X92185497Y-86914821D01*
X92273255Y-86702912D01*
X92258463Y-86512400D01*
X91262200Y-86512400D01*
X91262200Y-86532400D01*
X90906600Y-86532400D01*
X90906600Y-86512400D01*
X89910337Y-86512400D01*
X89895545Y-86702912D01*
X89329400Y-86702912D01*
X89329400Y-85406751D01*
X90268017Y-85403249D01*
X89983303Y-85754379D01*
X89895545Y-85966288D01*
X89910337Y-86156800D01*
X90906600Y-86156800D01*
X90906600Y-86136800D01*
X91262200Y-86136800D01*
X91262200Y-86156800D01*
X92258463Y-86156800D01*
X92261914Y-86112350D01*
X93298200Y-86112350D01*
X93298200Y-87422871D01*
X93333002Y-87506891D01*
X93397308Y-87571197D01*
X93481328Y-87606000D01*
X93891850Y-87606000D01*
X93949000Y-87548850D01*
X93949000Y-86055200D01*
X94304600Y-86055200D01*
X94304600Y-87548850D01*
X94361750Y-87606000D01*
X94772272Y-87606000D01*
X94856292Y-87571197D01*
X94920598Y-87506891D01*
X94955400Y-87422871D01*
X94955400Y-86112350D01*
X94898250Y-86055200D01*
X94304600Y-86055200D01*
X93949000Y-86055200D01*
X93355350Y-86055200D01*
X93298200Y-86112350D01*
X92261914Y-86112350D01*
X92273255Y-85966288D01*
X92185497Y-85754379D01*
X91895857Y-85397175D01*
X92532484Y-85394799D01*
X92561623Y-85388890D01*
X92586282Y-85372280D01*
X92602708Y-85347498D01*
X92608400Y-85318600D01*
X92608400Y-84429000D01*
X93298200Y-84429000D01*
X93298200Y-85642450D01*
X93355350Y-85699600D01*
X93949000Y-85699600D01*
X93949000Y-85679600D01*
X94304600Y-85679600D01*
X94304600Y-85699600D01*
X94898250Y-85699600D01*
X94955400Y-85642450D01*
X94955400Y-84563936D01*
X95241927Y-84850462D01*
X95241927Y-87377400D01*
X95263612Y-87486416D01*
X95325364Y-87578836D01*
X95417784Y-87640588D01*
X95526800Y-87662273D01*
X96726800Y-87662273D01*
X96835816Y-87640588D01*
X96928236Y-87578836D01*
X96989988Y-87486416D01*
X97011673Y-87377400D01*
X97011673Y-86112350D01*
X97298200Y-86112350D01*
X97298200Y-87422871D01*
X97333002Y-87506891D01*
X97397308Y-87571197D01*
X97481328Y-87606000D01*
X97891850Y-87606000D01*
X97949000Y-87548850D01*
X97949000Y-86055200D01*
X98304600Y-86055200D01*
X98304600Y-87548850D01*
X98361750Y-87606000D01*
X98772272Y-87606000D01*
X98856292Y-87571197D01*
X98920598Y-87506891D01*
X98955400Y-87422871D01*
X98955400Y-86112350D01*
X98898250Y-86055200D01*
X98304600Y-86055200D01*
X97949000Y-86055200D01*
X97355350Y-86055200D01*
X97298200Y-86112350D01*
X97011673Y-86112350D01*
X97011673Y-84377400D01*
X97002629Y-84331929D01*
X97298200Y-84331929D01*
X97298200Y-85642450D01*
X97355350Y-85699600D01*
X97949000Y-85699600D01*
X97949000Y-84205950D01*
X98304600Y-84205950D01*
X98304600Y-85699600D01*
X98898250Y-85699600D01*
X98955400Y-85642450D01*
X98955400Y-84377400D01*
X99241927Y-84377400D01*
X99241927Y-87377400D01*
X99263612Y-87486416D01*
X99325364Y-87578836D01*
X99417784Y-87640588D01*
X99526800Y-87662273D01*
X99737957Y-87662273D01*
X99737957Y-87952357D01*
X99766959Y-88098160D01*
X99849549Y-88221765D01*
X100106235Y-88478451D01*
X100106100Y-88633744D01*
X100194122Y-88846775D01*
X100356968Y-89009905D01*
X100569845Y-89098299D01*
X100800344Y-89098500D01*
X101013375Y-89010478D01*
X101176505Y-88847632D01*
X101264899Y-88634755D01*
X101265100Y-88404256D01*
X101177078Y-88191225D01*
X101014232Y-88028095D01*
X100801355Y-87939701D01*
X100644981Y-87939565D01*
X100499957Y-87794541D01*
X100499957Y-87662273D01*
X100726800Y-87662273D01*
X100835816Y-87640588D01*
X100928236Y-87578836D01*
X100989988Y-87486416D01*
X101011673Y-87377400D01*
X101011673Y-84377400D01*
X101241927Y-84377400D01*
X101241927Y-87377400D01*
X101263612Y-87486416D01*
X101325364Y-87578836D01*
X101417784Y-87640588D01*
X101526800Y-87662273D01*
X102726800Y-87662273D01*
X102835816Y-87640588D01*
X102928236Y-87578836D01*
X102989988Y-87486416D01*
X103011673Y-87377400D01*
X103011673Y-84404639D01*
X103016289Y-84404639D01*
X103104311Y-84617670D01*
X103241927Y-84755526D01*
X103241927Y-87377400D01*
X103263612Y-87486416D01*
X103325364Y-87578836D01*
X103350583Y-87595686D01*
X103309445Y-87612684D01*
X103146315Y-87775530D01*
X103057921Y-87988407D01*
X103057720Y-88218906D01*
X103145742Y-88431937D01*
X103308588Y-88595067D01*
X103521465Y-88683461D01*
X103751964Y-88683662D01*
X103964995Y-88595640D01*
X104128125Y-88432794D01*
X104216519Y-88219917D01*
X104216655Y-88063542D01*
X104401805Y-87878392D01*
X104401808Y-87878390D01*
X104464394Y-87784723D01*
X104484398Y-87754785D01*
X104502800Y-87662273D01*
X104726800Y-87662273D01*
X104835816Y-87640588D01*
X104928236Y-87578836D01*
X104989988Y-87486416D01*
X105011673Y-87377400D01*
X105011673Y-84377400D01*
X105241927Y-84377400D01*
X105241927Y-87377400D01*
X105263612Y-87486416D01*
X105325364Y-87578836D01*
X105380508Y-87615682D01*
X105380361Y-87784723D01*
X105468383Y-87997754D01*
X105631229Y-88160884D01*
X105844106Y-88249278D01*
X106074605Y-88249479D01*
X106287636Y-88161457D01*
X106450766Y-87998611D01*
X106539160Y-87785734D01*
X106539268Y-87662273D01*
X106726800Y-87662273D01*
X106835816Y-87640588D01*
X106928236Y-87578836D01*
X106989988Y-87486416D01*
X107011673Y-87377400D01*
X107011673Y-84377400D01*
X106989988Y-84268384D01*
X106928236Y-84175964D01*
X106835816Y-84114212D01*
X106726800Y-84092527D01*
X105526800Y-84092527D01*
X105417784Y-84114212D01*
X105325364Y-84175964D01*
X105263612Y-84268384D01*
X105241927Y-84377400D01*
X105011673Y-84377400D01*
X104989988Y-84268384D01*
X104928236Y-84175964D01*
X104835816Y-84114212D01*
X104726800Y-84092527D01*
X104141150Y-84092527D01*
X104087267Y-83962120D01*
X103924421Y-83798990D01*
X103711544Y-83710596D01*
X103481045Y-83710395D01*
X103268014Y-83798417D01*
X103104884Y-83961263D01*
X103016490Y-84174140D01*
X103016289Y-84404639D01*
X103011673Y-84404639D01*
X103011673Y-84377400D01*
X102989988Y-84268384D01*
X102928236Y-84175964D01*
X102835816Y-84114212D01*
X102726800Y-84092527D01*
X101526800Y-84092527D01*
X101417784Y-84114212D01*
X101325364Y-84175964D01*
X101263612Y-84268384D01*
X101241927Y-84377400D01*
X101011673Y-84377400D01*
X100989988Y-84268384D01*
X100928236Y-84175964D01*
X100835816Y-84114212D01*
X100726800Y-84092527D01*
X99526800Y-84092527D01*
X99417784Y-84114212D01*
X99325364Y-84175964D01*
X99263612Y-84268384D01*
X99241927Y-84377400D01*
X98955400Y-84377400D01*
X98955400Y-84331929D01*
X98920598Y-84247909D01*
X98856292Y-84183603D01*
X98772272Y-84148800D01*
X98361750Y-84148800D01*
X98304600Y-84205950D01*
X97949000Y-84205950D01*
X97891850Y-84148800D01*
X97481328Y-84148800D01*
X97397308Y-84183603D01*
X97333002Y-84247909D01*
X97298200Y-84331929D01*
X97002629Y-84331929D01*
X96989988Y-84268384D01*
X96928236Y-84175964D01*
X96835816Y-84114212D01*
X96726800Y-84092527D01*
X96278346Y-84092527D01*
X95531831Y-83346011D01*
X95326017Y-83208491D01*
X95083242Y-83160199D01*
X95083237Y-83160200D01*
X92608400Y-83160200D01*
X92608400Y-82329400D01*
X110170600Y-82329400D01*
X110170600Y-83843610D01*
X110170600Y-83843610D01*
G37*
X110170600Y-83843610D02*
X110136470Y-83792531D01*
X109399869Y-83055931D01*
X109247423Y-82954069D01*
X109067600Y-82918300D01*
X106313902Y-82918300D01*
X106292934Y-82897295D01*
X106080057Y-82808901D01*
X105849558Y-82808700D01*
X105636527Y-82896722D01*
X105473397Y-83059568D01*
X105385003Y-83272445D01*
X105384802Y-83502944D01*
X105472824Y-83715975D01*
X105635670Y-83879105D01*
X105848547Y-83967499D01*
X106079046Y-83967700D01*
X106292077Y-83879678D01*
X106313693Y-83858100D01*
X108872962Y-83858100D01*
X109334300Y-84319439D01*
X109334300Y-90315705D01*
X109318155Y-90309001D01*
X109087656Y-90308800D01*
X108874625Y-90396822D01*
X108711495Y-90559668D01*
X108665599Y-90670199D01*
X107438792Y-89443392D01*
X107315187Y-89360802D01*
X107169384Y-89331800D01*
X106102346Y-89331800D01*
X105992632Y-89221895D01*
X105779755Y-89133501D01*
X105549256Y-89133300D01*
X105336225Y-89221322D01*
X105173095Y-89384168D01*
X105084701Y-89597045D01*
X105084500Y-89827544D01*
X105172522Y-90040575D01*
X105335368Y-90203705D01*
X105548245Y-90292099D01*
X105778744Y-90292300D01*
X105991775Y-90204278D01*
X106102446Y-90093800D01*
X107011568Y-90093800D01*
X107938936Y-91021168D01*
X107838125Y-91062822D01*
X107674995Y-91225668D01*
X107586601Y-91438545D01*
X107586400Y-91669044D01*
X107674422Y-91882075D01*
X107788423Y-91996275D01*
X107813902Y-92124367D01*
X107896492Y-92247972D01*
X108076707Y-92428186D01*
X108076707Y-93298337D01*
X107990413Y-93262505D01*
X107759914Y-93262304D01*
X107546883Y-93350326D01*
X107383753Y-93513172D01*
X107295359Y-93726049D01*
X107295158Y-93956548D01*
X107383180Y-94169579D01*
X107497181Y-94283779D01*
X107522660Y-94411871D01*
X107605250Y-94535476D01*
X107721096Y-94651322D01*
X107721096Y-96273734D01*
X107672652Y-96322178D01*
X107590062Y-96445783D01*
X107575335Y-96519819D01*
X107564555Y-96574015D01*
X107451155Y-96687218D01*
X107362761Y-96900095D01*
X107362560Y-97130594D01*
X107450582Y-97343625D01*
X107613428Y-97506755D01*
X107826305Y-97595149D01*
X108056804Y-97595350D01*
X108142747Y-97559839D01*
X108142747Y-97608889D01*
X108028261Y-97723374D01*
X107945671Y-97846979D01*
X107945671Y-97846980D01*
X107920164Y-97975211D01*
X107806764Y-98088414D01*
X107718370Y-98301291D01*
X107718169Y-98531790D01*
X107806191Y-98744821D01*
X107969037Y-98907951D01*
X108181914Y-98996345D01*
X108412413Y-98996546D01*
X108498358Y-98961034D01*
X108498358Y-99070107D01*
X108203909Y-99364555D01*
X108048616Y-99364420D01*
X107835585Y-99452442D01*
X107672455Y-99615288D01*
X107584061Y-99828165D01*
X107583860Y-100058664D01*
X107671882Y-100271695D01*
X107834728Y-100434825D01*
X108047605Y-100523219D01*
X108278104Y-100523420D01*
X108491135Y-100435398D01*
X108654265Y-100272552D01*
X108742659Y-100059675D01*
X108742795Y-99903301D01*
X109148763Y-99497332D01*
X109148766Y-99497330D01*
X109231356Y-99373724D01*
X109260358Y-99227922D01*
X109260358Y-96909523D01*
X109276965Y-96916419D01*
X109334300Y-96916469D01*
X109334300Y-105574375D01*
X109258574Y-105650101D01*
X109258571Y-105650103D01*
X108105806Y-106802869D01*
X108076126Y-106802843D01*
X107863095Y-106890865D01*
X107699965Y-107053711D01*
X107611571Y-107266588D01*
X107611544Y-107297130D01*
X107263485Y-107645190D01*
X105372416Y-107645190D01*
X105260457Y-107570381D01*
X105200071Y-107558369D01*
X105104936Y-107494802D01*
X105067839Y-107487423D01*
X104990877Y-107301159D01*
X104828031Y-107138029D01*
X104615154Y-107049635D01*
X104384655Y-107049434D01*
X104171624Y-107137456D01*
X104150008Y-107159034D01*
X103679252Y-107159034D01*
X103499429Y-107194803D01*
X103346982Y-107296665D01*
X102118630Y-108525018D01*
X102016768Y-108677464D01*
X102010803Y-108707451D01*
X101951023Y-108617984D01*
X101580207Y-108370213D01*
X101142800Y-108283207D01*
X100705393Y-108370213D01*
X100644150Y-108411134D01*
X100177160Y-107944144D01*
X100177312Y-107770050D01*
X100089290Y-107557019D01*
X99926444Y-107393889D01*
X99713567Y-107305495D01*
X99483068Y-107305294D01*
X99270037Y-107393316D01*
X99106907Y-107556162D01*
X99035551Y-107728007D01*
X99031053Y-107725002D01*
X98928237Y-107704551D01*
X98928300Y-107632056D01*
X98840278Y-107419025D01*
X98677432Y-107255895D01*
X98464555Y-107167501D01*
X98234056Y-107167300D01*
X98021025Y-107255322D01*
X97857895Y-107418168D01*
X97769501Y-107631045D01*
X97769300Y-107861544D01*
X97857322Y-108074575D01*
X98020168Y-108237705D01*
X98233045Y-108326099D01*
X98386495Y-108326233D01*
X98165393Y-108370213D01*
X97794577Y-108617984D01*
X97668710Y-108806358D01*
X97571224Y-108708872D01*
X97595105Y-108685032D01*
X97683499Y-108472155D01*
X97683700Y-108241656D01*
X97595678Y-108028625D01*
X97432832Y-107865495D01*
X97219955Y-107777101D01*
X96989456Y-107776900D01*
X96776425Y-107864922D01*
X96613295Y-108027768D01*
X96524901Y-108240645D01*
X96524774Y-108386628D01*
X96500207Y-108370213D01*
X96062800Y-108283207D01*
X95625393Y-108370213D01*
X95254577Y-108617984D01*
X95006806Y-108988800D01*
X94919800Y-109426207D01*
X94919800Y-109470993D01*
X95006806Y-109908400D01*
X95254577Y-110279216D01*
X95625393Y-110526987D01*
X96062800Y-110613993D01*
X96500207Y-110526987D01*
X96871023Y-110279216D01*
X97104199Y-109930243D01*
X97104199Y-110870999D01*
X97133201Y-111016802D01*
X97215791Y-111140407D01*
X97569788Y-111494404D01*
X97546806Y-111528800D01*
X97459800Y-111966207D01*
X97459800Y-112010993D01*
X97546806Y-112448400D01*
X97748730Y-112750601D01*
X96916870Y-112750601D01*
X97118794Y-112448400D01*
X97205800Y-112010993D01*
X97205800Y-111966207D01*
X97118794Y-111528800D01*
X96871023Y-111157984D01*
X96500207Y-110910213D01*
X96062800Y-110823207D01*
X95625393Y-110910213D01*
X95254577Y-111157984D01*
X95006806Y-111528800D01*
X94919800Y-111966207D01*
X94919800Y-112010993D01*
X95006806Y-112448400D01*
X95208730Y-112750601D01*
X94949340Y-112750601D01*
X94590133Y-112391395D01*
X94665800Y-112010993D01*
X94665800Y-111966207D01*
X94578794Y-111528800D01*
X94331023Y-111157984D01*
X93960207Y-110910213D01*
X93522800Y-110823207D01*
X93085393Y-110910213D01*
X92714577Y-111157984D01*
X92466806Y-111528800D01*
X92379800Y-111966207D01*
X92379800Y-112010993D01*
X92466806Y-112448400D01*
X92714577Y-112819216D01*
X93085393Y-113066987D01*
X93522800Y-113153993D01*
X93940557Y-113070896D01*
X94422431Y-113552770D01*
X94574878Y-113654632D01*
X94655155Y-113670600D01*
X89329400Y-113670600D01*
X89329400Y-111125000D01*
X89834327Y-111125000D01*
X89834327Y-112852200D01*
X89856012Y-112961216D01*
X89917764Y-113053636D01*
X90010184Y-113115388D01*
X90119200Y-113137073D01*
X91846400Y-113137073D01*
X91955416Y-113115388D01*
X92047836Y-113053636D01*
X92109588Y-112961216D01*
X92131273Y-112852200D01*
X92131273Y-111125000D01*
X92109588Y-111015984D01*
X92047836Y-110923564D01*
X91955416Y-110861812D01*
X91846400Y-110840127D01*
X90119200Y-110840127D01*
X90010184Y-110861812D01*
X89917764Y-110923564D01*
X89856012Y-111015984D01*
X89834327Y-111125000D01*
X89329400Y-111125000D01*
X89329400Y-108459738D01*
X89915467Y-109045805D01*
X89839800Y-109426207D01*
X89839800Y-109470993D01*
X89926806Y-109908400D01*
X90174577Y-110279216D01*
X90545393Y-110526987D01*
X90982800Y-110613993D01*
X91420207Y-110526987D01*
X91791023Y-110279216D01*
X92038794Y-109908400D01*
X92061789Y-109792792D01*
X92486233Y-109792792D01*
X92696854Y-110163269D01*
X93033217Y-110424944D01*
X93178610Y-110485150D01*
X93345000Y-110468264D01*
X93345000Y-109626400D01*
X93700600Y-109626400D01*
X93700600Y-110468264D01*
X93866990Y-110485150D01*
X94012383Y-110424944D01*
X94348746Y-110163269D01*
X94559367Y-109792792D01*
X94543299Y-109626400D01*
X93700600Y-109626400D01*
X93345000Y-109626400D01*
X92502301Y-109626400D01*
X92486233Y-109792792D01*
X92061789Y-109792792D01*
X92125800Y-109470993D01*
X92125800Y-109426207D01*
X92061790Y-109104408D01*
X92486233Y-109104408D01*
X92502301Y-109270800D01*
X93345000Y-109270800D01*
X93345000Y-108428936D01*
X93700600Y-108428936D01*
X93700600Y-109270800D01*
X94543299Y-109270800D01*
X94559367Y-109104408D01*
X94348746Y-108733931D01*
X94012383Y-108472256D01*
X93866990Y-108412050D01*
X93700600Y-108428936D01*
X93345000Y-108428936D01*
X93178610Y-108412050D01*
X93033217Y-108472256D01*
X92696854Y-108733931D01*
X92486233Y-109104408D01*
X92061790Y-109104408D01*
X92038794Y-108988800D01*
X91791023Y-108617984D01*
X91420207Y-108370213D01*
X90982800Y-108283207D01*
X90565043Y-108366304D01*
X90030300Y-107831562D01*
X90030300Y-104077400D01*
X93241927Y-104077400D01*
X93241927Y-107077400D01*
X93263612Y-107186416D01*
X93325364Y-107278836D01*
X93417784Y-107340588D01*
X93526800Y-107362273D01*
X94726800Y-107362273D01*
X94835816Y-107340588D01*
X94928236Y-107278836D01*
X94989988Y-107186416D01*
X95011673Y-107077400D01*
X95011673Y-104077400D01*
X95241927Y-104077400D01*
X95241927Y-107077400D01*
X95263612Y-107186416D01*
X95325364Y-107278836D01*
X95417784Y-107340588D01*
X95526800Y-107362273D01*
X96726800Y-107362273D01*
X96835816Y-107340588D01*
X96928236Y-107278836D01*
X96989988Y-107186416D01*
X97011673Y-107077400D01*
X97011673Y-106314071D01*
X97069615Y-106256230D01*
X97158009Y-106043353D01*
X97158210Y-105812854D01*
X97070188Y-105599823D01*
X97011673Y-105541206D01*
X97011673Y-104077400D01*
X105241927Y-104077400D01*
X105241927Y-107077400D01*
X105263612Y-107186416D01*
X105325364Y-107278836D01*
X105417784Y-107340588D01*
X105526800Y-107362273D01*
X106726800Y-107362273D01*
X106835816Y-107340588D01*
X106928236Y-107278836D01*
X106989988Y-107186416D01*
X107011673Y-107077400D01*
X107011673Y-104077400D01*
X106989988Y-103968384D01*
X106928236Y-103875964D01*
X106835816Y-103814212D01*
X106726800Y-103792527D01*
X105526800Y-103792527D01*
X105417784Y-103814212D01*
X105325364Y-103875964D01*
X105263612Y-103968384D01*
X105241927Y-104077400D01*
X97011673Y-104077400D01*
X96989988Y-103968384D01*
X96928236Y-103875964D01*
X96835816Y-103814212D01*
X96726800Y-103792527D01*
X95526800Y-103792527D01*
X95417784Y-103814212D01*
X95325364Y-103875964D01*
X95263612Y-103968384D01*
X95241927Y-104077400D01*
X95011673Y-104077400D01*
X94989988Y-103968384D01*
X94928236Y-103875964D01*
X94835816Y-103814212D01*
X94726800Y-103792527D01*
X93526800Y-103792527D01*
X93417784Y-103814212D01*
X93325364Y-103875964D01*
X93263612Y-103968384D01*
X93241927Y-104077400D01*
X90030300Y-104077400D01*
X90030300Y-98488500D01*
X90151762Y-98488500D01*
X90201029Y-98607735D01*
X90493724Y-98900941D01*
X90876344Y-99059819D01*
X91290638Y-99060180D01*
X91673535Y-98901971D01*
X91966741Y-98609276D01*
X92125619Y-98226656D01*
X92125980Y-97812362D01*
X91967771Y-97429465D01*
X91675076Y-97136259D01*
X91292456Y-96977381D01*
X90878162Y-96977020D01*
X90495265Y-97135229D01*
X90202059Y-97427924D01*
X90151908Y-97548700D01*
X90030300Y-97548700D01*
X90030300Y-94645086D01*
X90445321Y-94645086D01*
X90202059Y-94887924D01*
X90043181Y-95270544D01*
X90042820Y-95684838D01*
X90201029Y-96067735D01*
X90493724Y-96360941D01*
X90876344Y-96519819D01*
X91290638Y-96520180D01*
X91673535Y-96361971D01*
X91966741Y-96069276D01*
X92125619Y-95686656D01*
X92125980Y-95272362D01*
X91967771Y-94889465D01*
X91675076Y-94596259D01*
X91606313Y-94567706D01*
X91670312Y-94503818D01*
X91758706Y-94290941D01*
X91758868Y-94104884D01*
X91841493Y-94121320D01*
X91962268Y-94242305D01*
X92175145Y-94330699D01*
X92405644Y-94330900D01*
X92618675Y-94242878D01*
X92781805Y-94080032D01*
X92870199Y-93867155D01*
X92870400Y-93636656D01*
X92782378Y-93423625D01*
X92619532Y-93260495D01*
X92406655Y-93172101D01*
X92176156Y-93171900D01*
X92102499Y-93202334D01*
X92125619Y-93146656D01*
X92125980Y-92732362D01*
X92007637Y-92445948D01*
X92137120Y-92575657D01*
X92349997Y-92664051D01*
X92580496Y-92664252D01*
X92793527Y-92576230D01*
X92956657Y-92413384D01*
X92963958Y-92395800D01*
X95176327Y-92395800D01*
X95176327Y-94395800D01*
X95198012Y-94504816D01*
X95259764Y-94597236D01*
X95352184Y-94658988D01*
X95461200Y-94680673D01*
X95596446Y-94680673D01*
X95609202Y-94744803D01*
X95691792Y-94868408D01*
X95742591Y-94919206D01*
X95742593Y-94919209D01*
X95866199Y-95001799D01*
X96012001Y-95030801D01*
X99724385Y-95030801D01*
X100619392Y-95925808D01*
X100742997Y-96008398D01*
X100888800Y-96037400D01*
X101257236Y-96037400D01*
X101270353Y-96050517D01*
X101393958Y-96133107D01*
X101539761Y-96162109D01*
X102467467Y-96162109D01*
X102579468Y-96274305D01*
X102792345Y-96362699D01*
X103022844Y-96362900D01*
X103235875Y-96274878D01*
X103399005Y-96112032D01*
X103487399Y-95899155D01*
X103487600Y-95668656D01*
X103399578Y-95455625D01*
X103236732Y-95292495D01*
X103075274Y-95225452D01*
X103110909Y-95139632D01*
X103111110Y-94909133D01*
X103023088Y-94696102D01*
X102959702Y-94632605D01*
X102996377Y-94608100D01*
X103035729Y-94624400D01*
X103346250Y-94624400D01*
X103403400Y-94567250D01*
X103403400Y-93573600D01*
X103383400Y-93573600D01*
X103383400Y-93218000D01*
X103403400Y-93218000D01*
X103403400Y-92224350D01*
X103759000Y-92224350D01*
X103759000Y-93218000D01*
X103779000Y-93218000D01*
X103779000Y-93573600D01*
X103759000Y-93573600D01*
X103759000Y-94567250D01*
X103816150Y-94624400D01*
X104126671Y-94624400D01*
X104166023Y-94608100D01*
X104242184Y-94658988D01*
X104351200Y-94680673D01*
X105351200Y-94680673D01*
X105460216Y-94658988D01*
X105552636Y-94597236D01*
X105614388Y-94504816D01*
X105636073Y-94395800D01*
X105636073Y-93865700D01*
X105732200Y-93865700D01*
X105912023Y-93829931D01*
X106064469Y-93728069D01*
X106350908Y-93441631D01*
X106452769Y-93289185D01*
X106488538Y-93109362D01*
X106488538Y-92762747D01*
X106509543Y-92741779D01*
X106597937Y-92528902D01*
X106598138Y-92298403D01*
X106510116Y-92085372D01*
X106347270Y-91922242D01*
X106134393Y-91833848D01*
X105903894Y-91833647D01*
X105690863Y-91921669D01*
X105527733Y-92084515D01*
X105497435Y-92157481D01*
X105460216Y-92132612D01*
X105351200Y-92110927D01*
X104351200Y-92110927D01*
X104242184Y-92132612D01*
X104166023Y-92183500D01*
X104126671Y-92167200D01*
X103816150Y-92167200D01*
X103759000Y-92224350D01*
X103403400Y-92224350D01*
X103346250Y-92167200D01*
X103035729Y-92167200D01*
X102996377Y-92183500D01*
X102920216Y-92132612D01*
X102811200Y-92110927D01*
X102692200Y-92110927D01*
X102692200Y-91900160D01*
X103525488Y-91066872D01*
X103608078Y-90943267D01*
X103633585Y-90815035D01*
X103746985Y-90701832D01*
X103835379Y-90488955D01*
X103835580Y-90258456D01*
X103747558Y-90045425D01*
X103584712Y-89882295D01*
X103371835Y-89793901D01*
X103141336Y-89793700D01*
X102928305Y-89881722D01*
X102765175Y-90044568D01*
X102676781Y-90257445D01*
X102676580Y-90487944D01*
X102764602Y-90700975D01*
X102789156Y-90725572D01*
X102442990Y-91071738D01*
X102442990Y-90777483D01*
X102552895Y-90667769D01*
X102641289Y-90454892D01*
X102641490Y-90224393D01*
X102553468Y-90011362D01*
X102390622Y-89848232D01*
X102177745Y-89759838D01*
X101947246Y-89759637D01*
X101734215Y-89847659D01*
X101571085Y-90010505D01*
X101482691Y-90223382D01*
X101482490Y-90453881D01*
X101570512Y-90666912D01*
X101680990Y-90777583D01*
X101680990Y-91132116D01*
X101068306Y-91744800D01*
X100504689Y-91744800D01*
X100540999Y-91657355D01*
X100541200Y-91426856D01*
X100453178Y-91213825D01*
X100290332Y-91050695D01*
X100077455Y-90962301D01*
X99846956Y-90962100D01*
X99633925Y-91050122D01*
X99519725Y-91164123D01*
X99391634Y-91189602D01*
X99335065Y-91227400D01*
X97815405Y-91227400D01*
X97815400Y-91227399D01*
X97669598Y-91256402D01*
X97545992Y-91338992D01*
X97545990Y-91338995D01*
X96961792Y-91923192D01*
X96879202Y-92046797D01*
X96871652Y-92084752D01*
X96866446Y-92110927D01*
X96731200Y-92110927D01*
X96622184Y-92132612D01*
X96596200Y-92149974D01*
X96570216Y-92132612D01*
X96461200Y-92110927D01*
X95461200Y-92110927D01*
X95352184Y-92132612D01*
X95259764Y-92194364D01*
X95198012Y-92286784D01*
X95176327Y-92395800D01*
X92963958Y-92395800D01*
X93045051Y-92200507D01*
X93045252Y-91970008D01*
X92957230Y-91756977D01*
X92794384Y-91593847D01*
X92581507Y-91505453D01*
X92550965Y-91505426D01*
X92305669Y-91260131D01*
X92153223Y-91158269D01*
X91973400Y-91122500D01*
X91807884Y-91122500D01*
X91941341Y-90989276D01*
X92100219Y-90606656D01*
X92100580Y-90192362D01*
X91942371Y-89809465D01*
X91649676Y-89516259D01*
X91267056Y-89357381D01*
X90852762Y-89357020D01*
X90469865Y-89515229D01*
X90176659Y-89807924D01*
X90017781Y-90190544D01*
X90017420Y-90604838D01*
X90175629Y-90987735D01*
X90310159Y-91122500D01*
X89560400Y-91122500D01*
X89380577Y-91158269D01*
X89329400Y-91192465D01*
X89329400Y-88646262D01*
X90548185Y-88646262D01*
X90643847Y-88767460D01*
X91025188Y-88866870D01*
X91415543Y-88812779D01*
X91524953Y-88767460D01*
X91620615Y-88646262D01*
X91084400Y-88110047D01*
X90548185Y-88646262D01*
X89329400Y-88646262D01*
X89329400Y-86702912D01*
X89895545Y-86702912D01*
X89983303Y-86914821D01*
X90260305Y-87256441D01*
X90245548Y-87271198D01*
X90296736Y-87322386D01*
X90175540Y-87418047D01*
X90076130Y-87799388D01*
X90130221Y-88189743D01*
X90175540Y-88299153D01*
X90296738Y-88394815D01*
X90832953Y-87858600D01*
X90818811Y-87844458D01*
X91070258Y-87593011D01*
X91084400Y-87607153D01*
X91098543Y-87593011D01*
X91349990Y-87844458D01*
X91335847Y-87858600D01*
X91872062Y-88394815D01*
X91993260Y-88299153D01*
X92092670Y-87917812D01*
X92038579Y-87527457D01*
X91993260Y-87418047D01*
X91872064Y-87322386D01*
X91923252Y-87271198D01*
X91908495Y-87256441D01*
X92185497Y-86914821D01*
X92273255Y-86702912D01*
X92258463Y-86512400D01*
X91262200Y-86512400D01*
X91262200Y-86532400D01*
X90906600Y-86532400D01*
X90906600Y-86512400D01*
X89910337Y-86512400D01*
X89895545Y-86702912D01*
X89329400Y-86702912D01*
X89329400Y-85406751D01*
X90268017Y-85403249D01*
X89983303Y-85754379D01*
X89895545Y-85966288D01*
X89910337Y-86156800D01*
X90906600Y-86156800D01*
X90906600Y-86136800D01*
X91262200Y-86136800D01*
X91262200Y-86156800D01*
X92258463Y-86156800D01*
X92261914Y-86112350D01*
X93298200Y-86112350D01*
X93298200Y-87422871D01*
X93333002Y-87506891D01*
X93397308Y-87571197D01*
X93481328Y-87606000D01*
X93891850Y-87606000D01*
X93949000Y-87548850D01*
X93949000Y-86055200D01*
X94304600Y-86055200D01*
X94304600Y-87548850D01*
X94361750Y-87606000D01*
X94772272Y-87606000D01*
X94856292Y-87571197D01*
X94920598Y-87506891D01*
X94955400Y-87422871D01*
X94955400Y-86112350D01*
X94898250Y-86055200D01*
X94304600Y-86055200D01*
X93949000Y-86055200D01*
X93355350Y-86055200D01*
X93298200Y-86112350D01*
X92261914Y-86112350D01*
X92273255Y-85966288D01*
X92185497Y-85754379D01*
X91895857Y-85397175D01*
X92532484Y-85394799D01*
X92561623Y-85388890D01*
X92586282Y-85372280D01*
X92602708Y-85347498D01*
X92608400Y-85318600D01*
X92608400Y-84429000D01*
X93298200Y-84429000D01*
X93298200Y-85642450D01*
X93355350Y-85699600D01*
X93949000Y-85699600D01*
X93949000Y-85679600D01*
X94304600Y-85679600D01*
X94304600Y-85699600D01*
X94898250Y-85699600D01*
X94955400Y-85642450D01*
X94955400Y-84563936D01*
X95241927Y-84850462D01*
X95241927Y-87377400D01*
X95263612Y-87486416D01*
X95325364Y-87578836D01*
X95417784Y-87640588D01*
X95526800Y-87662273D01*
X96726800Y-87662273D01*
X96835816Y-87640588D01*
X96928236Y-87578836D01*
X96989988Y-87486416D01*
X97011673Y-87377400D01*
X97011673Y-86112350D01*
X97298200Y-86112350D01*
X97298200Y-87422871D01*
X97333002Y-87506891D01*
X97397308Y-87571197D01*
X97481328Y-87606000D01*
X97891850Y-87606000D01*
X97949000Y-87548850D01*
X97949000Y-86055200D01*
X98304600Y-86055200D01*
X98304600Y-87548850D01*
X98361750Y-87606000D01*
X98772272Y-87606000D01*
X98856292Y-87571197D01*
X98920598Y-87506891D01*
X98955400Y-87422871D01*
X98955400Y-86112350D01*
X98898250Y-86055200D01*
X98304600Y-86055200D01*
X97949000Y-86055200D01*
X97355350Y-86055200D01*
X97298200Y-86112350D01*
X97011673Y-86112350D01*
X97011673Y-84377400D01*
X97002629Y-84331929D01*
X97298200Y-84331929D01*
X97298200Y-85642450D01*
X97355350Y-85699600D01*
X97949000Y-85699600D01*
X97949000Y-84205950D01*
X98304600Y-84205950D01*
X98304600Y-85699600D01*
X98898250Y-85699600D01*
X98955400Y-85642450D01*
X98955400Y-84377400D01*
X99241927Y-84377400D01*
X99241927Y-87377400D01*
X99263612Y-87486416D01*
X99325364Y-87578836D01*
X99417784Y-87640588D01*
X99526800Y-87662273D01*
X99737957Y-87662273D01*
X99737957Y-87952357D01*
X99766959Y-88098160D01*
X99849549Y-88221765D01*
X100106235Y-88478451D01*
X100106100Y-88633744D01*
X100194122Y-88846775D01*
X100356968Y-89009905D01*
X100569845Y-89098299D01*
X100800344Y-89098500D01*
X101013375Y-89010478D01*
X101176505Y-88847632D01*
X101264899Y-88634755D01*
X101265100Y-88404256D01*
X101177078Y-88191225D01*
X101014232Y-88028095D01*
X100801355Y-87939701D01*
X100644981Y-87939565D01*
X100499957Y-87794541D01*
X100499957Y-87662273D01*
X100726800Y-87662273D01*
X100835816Y-87640588D01*
X100928236Y-87578836D01*
X100989988Y-87486416D01*
X101011673Y-87377400D01*
X101011673Y-84377400D01*
X101241927Y-84377400D01*
X101241927Y-87377400D01*
X101263612Y-87486416D01*
X101325364Y-87578836D01*
X101417784Y-87640588D01*
X101526800Y-87662273D01*
X102726800Y-87662273D01*
X102835816Y-87640588D01*
X102928236Y-87578836D01*
X102989988Y-87486416D01*
X103011673Y-87377400D01*
X103011673Y-84404639D01*
X103016289Y-84404639D01*
X103104311Y-84617670D01*
X103241927Y-84755526D01*
X103241927Y-87377400D01*
X103263612Y-87486416D01*
X103325364Y-87578836D01*
X103350583Y-87595686D01*
X103309445Y-87612684D01*
X103146315Y-87775530D01*
X103057921Y-87988407D01*
X103057720Y-88218906D01*
X103145742Y-88431937D01*
X103308588Y-88595067D01*
X103521465Y-88683461D01*
X103751964Y-88683662D01*
X103964995Y-88595640D01*
X104128125Y-88432794D01*
X104216519Y-88219917D01*
X104216655Y-88063542D01*
X104401805Y-87878392D01*
X104401808Y-87878390D01*
X104464394Y-87784723D01*
X104484398Y-87754785D01*
X104502800Y-87662273D01*
X104726800Y-87662273D01*
X104835816Y-87640588D01*
X104928236Y-87578836D01*
X104989988Y-87486416D01*
X105011673Y-87377400D01*
X105011673Y-84377400D01*
X105241927Y-84377400D01*
X105241927Y-87377400D01*
X105263612Y-87486416D01*
X105325364Y-87578836D01*
X105380508Y-87615682D01*
X105380361Y-87784723D01*
X105468383Y-87997754D01*
X105631229Y-88160884D01*
X105844106Y-88249278D01*
X106074605Y-88249479D01*
X106287636Y-88161457D01*
X106450766Y-87998611D01*
X106539160Y-87785734D01*
X106539268Y-87662273D01*
X106726800Y-87662273D01*
X106835816Y-87640588D01*
X106928236Y-87578836D01*
X106989988Y-87486416D01*
X107011673Y-87377400D01*
X107011673Y-84377400D01*
X106989988Y-84268384D01*
X106928236Y-84175964D01*
X106835816Y-84114212D01*
X106726800Y-84092527D01*
X105526800Y-84092527D01*
X105417784Y-84114212D01*
X105325364Y-84175964D01*
X105263612Y-84268384D01*
X105241927Y-84377400D01*
X105011673Y-84377400D01*
X104989988Y-84268384D01*
X104928236Y-84175964D01*
X104835816Y-84114212D01*
X104726800Y-84092527D01*
X104141150Y-84092527D01*
X104087267Y-83962120D01*
X103924421Y-83798990D01*
X103711544Y-83710596D01*
X103481045Y-83710395D01*
X103268014Y-83798417D01*
X103104884Y-83961263D01*
X103016490Y-84174140D01*
X103016289Y-84404639D01*
X103011673Y-84404639D01*
X103011673Y-84377400D01*
X102989988Y-84268384D01*
X102928236Y-84175964D01*
X102835816Y-84114212D01*
X102726800Y-84092527D01*
X101526800Y-84092527D01*
X101417784Y-84114212D01*
X101325364Y-84175964D01*
X101263612Y-84268384D01*
X101241927Y-84377400D01*
X101011673Y-84377400D01*
X100989988Y-84268384D01*
X100928236Y-84175964D01*
X100835816Y-84114212D01*
X100726800Y-84092527D01*
X99526800Y-84092527D01*
X99417784Y-84114212D01*
X99325364Y-84175964D01*
X99263612Y-84268384D01*
X99241927Y-84377400D01*
X98955400Y-84377400D01*
X98955400Y-84331929D01*
X98920598Y-84247909D01*
X98856292Y-84183603D01*
X98772272Y-84148800D01*
X98361750Y-84148800D01*
X98304600Y-84205950D01*
X97949000Y-84205950D01*
X97891850Y-84148800D01*
X97481328Y-84148800D01*
X97397308Y-84183603D01*
X97333002Y-84247909D01*
X97298200Y-84331929D01*
X97002629Y-84331929D01*
X96989988Y-84268384D01*
X96928236Y-84175964D01*
X96835816Y-84114212D01*
X96726800Y-84092527D01*
X96278346Y-84092527D01*
X95531831Y-83346011D01*
X95326017Y-83208491D01*
X95083242Y-83160199D01*
X95083237Y-83160200D01*
X92608400Y-83160200D01*
X92608400Y-82329400D01*
X110170600Y-82329400D01*
X110170600Y-83843610D01*
M02*
