G04 #@! TF.GenerationSoftware,KiCad,Pcbnew,no-vcs-found-7592~57~ubuntu16.10.1*
G04 #@! TF.CreationDate,2017-02-07T20:26:05+01:00*
G04 #@! TF.ProjectId,SensebenderMicro2,53656E736562656E6465724D6963726F,rev?*
G04 #@! TF.FileFunction,Soldermask,Bot*
G04 #@! TF.FilePolarity,Negative*
%FSLAX46Y46*%
G04 Gerber Fmt 4.6, Leading zero omitted, Abs format (unit mm)*
G04 Created by KiCad (PCBNEW no-vcs-found-7592~57~ubuntu16.10.1) date Tue Feb  7 20:26:05 2017*
%MOMM*%
%LPD*%
G01*
G04 APERTURE LIST*
%ADD10C,0.100000*%
%ADD11R,1.200000X3.000000*%
%ADD12C,1.524000*%
%ADD13O,2.032000X2.032000*%
%ADD14R,2.032000X2.032000*%
%ADD15R,1.000000X2.000000*%
%ADD16O,1.727200X1.727200*%
%ADD17R,1.727200X1.727200*%
G04 APERTURE END LIST*
D10*
D11*
X106126800Y-85877400D03*
X104126800Y-85877400D03*
X102126800Y-85877400D03*
X100126800Y-85877400D03*
X98126800Y-85877400D03*
X96126800Y-85877400D03*
X94126800Y-85877400D03*
X94126800Y-105577400D03*
X96126800Y-105577400D03*
X106126800Y-105577400D03*
D12*
X91059000Y-90398600D03*
D13*
X91084400Y-86334600D03*
D14*
X91084400Y-83794600D03*
D15*
X104851200Y-93395800D03*
X103581200Y-93395800D03*
X102311200Y-93395800D03*
X101041200Y-93395800D03*
X99771200Y-93395800D03*
X98501200Y-93395800D03*
X97231200Y-93395800D03*
X95961200Y-93395800D03*
D16*
X108762800Y-109448600D03*
X108762800Y-111988600D03*
X106222800Y-109448600D03*
X106222800Y-111988600D03*
X103682800Y-109448600D03*
X103682800Y-111988600D03*
X101142800Y-109448600D03*
X101142800Y-111988600D03*
D17*
X90982800Y-111988600D03*
D16*
X90982800Y-109448600D03*
X93522800Y-111988600D03*
X93522800Y-109448600D03*
X96062800Y-111988600D03*
X96062800Y-109448600D03*
X98602800Y-111988600D03*
X98602800Y-109448600D03*
D12*
X91084400Y-92938600D03*
X91084400Y-87858600D03*
X91084400Y-95478600D03*
X91084400Y-98018600D03*
M02*
