G04 #@! TF.GenerationSoftware,KiCad,Pcbnew,no-vcs-found-7664~57~ubuntu16.10.1*
G04 #@! TF.CreationDate,2017-02-22T20:42:03+01:00*
G04 #@! TF.ProjectId,SensebenderMicro2,53656E736562656E6465724D6963726F,rev?*
G04 #@! TF.FileFunction,Copper,L1,Top,Signal*
G04 #@! TF.FilePolarity,Positive*
%FSLAX46Y46*%
G04 Gerber Fmt 4.6, Leading zero omitted, Abs format (unit mm)*
G04 Created by KiCad (PCBNEW no-vcs-found-7664~57~ubuntu16.10.1) date Wed Feb 22 20:42:03 2017*
%MOMM*%
%LPD*%
G01*
G04 APERTURE LIST*
%ADD10C,0.100000*%
%ADD11C,0.600000*%
%ADD12R,1.550000X0.600000*%
%ADD13R,0.800100X0.800100*%
%ADD14C,0.750000*%
%ADD15R,0.797560X0.797560*%
%ADD16R,0.900000X0.500000*%
%ADD17O,2.032000X2.032000*%
%ADD18R,2.032000X2.032000*%
%ADD19R,0.500000X0.900000*%
%ADD20C,0.550000*%
%ADD21R,1.060000X0.650000*%
%ADD22R,0.800000X0.750000*%
%ADD23C,1.500000*%
%ADD24R,0.750000X0.800000*%
%ADD25R,0.630000X0.450000*%
%ADD26R,0.850000X1.300000*%
%ADD27O,1.727200X1.727200*%
%ADD28R,1.727200X1.727200*%
%ADD29C,1.270000*%
%ADD30R,0.600000X1.270000*%
%ADD31R,1.200000X1.270000*%
%ADD32R,1.270000X0.600000*%
%ADD33O,1.270000X1.270000*%
%ADD34C,0.381000*%
%ADD35C,0.203200*%
G04 APERTURE END LIST*
D10*
D11*
X104355900Y-90398600D03*
X101193600Y-90424000D03*
X102412800Y-87960200D03*
X107188000Y-99339400D03*
X92887800Y-84709000D03*
X94056200Y-84785200D03*
X95046800Y-85852000D03*
X108839000Y-84226400D03*
X109499400Y-87960200D03*
X90271600Y-99237800D03*
D12*
X104711500Y-87464900D03*
X104711500Y-86194900D03*
X104711500Y-84924900D03*
X104711500Y-83654900D03*
X99311500Y-83654900D03*
X99311500Y-84924900D03*
X99311500Y-86194900D03*
X99311500Y-87464900D03*
D11*
X108915200Y-97180400D03*
X89763600Y-90246200D03*
X90271600Y-100990400D03*
X91465400Y-96748600D03*
X90256360Y-96662240D03*
X94030800Y-101666040D03*
X93578680Y-103124000D03*
X107533440Y-104566720D03*
X105928160Y-100538280D03*
D13*
X108136400Y-101513640D03*
X106236400Y-101513640D03*
X107186400Y-103512620D03*
D11*
X97703640Y-85872320D03*
X108862400Y-82715100D03*
X101942900Y-105257600D03*
X98729800Y-106083100D03*
X95427800Y-102819200D03*
X94767400Y-94056200D03*
X93891100Y-95885000D03*
X101130100Y-84048600D03*
D14*
X94643470Y-102333530D03*
D10*
G36*
X94625792Y-102881538D02*
X94095462Y-102351208D01*
X94661148Y-101785522D01*
X95191478Y-102315852D01*
X94625792Y-102881538D01*
X94625792Y-102881538D01*
G37*
D14*
X95704130Y-101272870D03*
D10*
G36*
X95686452Y-101820878D02*
X95156122Y-101290548D01*
X95721808Y-100724862D01*
X96252138Y-101255192D01*
X95686452Y-101820878D01*
X95686452Y-101820878D01*
G37*
D11*
X93461840Y-99222560D03*
X99034600Y-90779600D03*
X106273600Y-88595200D03*
X93764100Y-91351100D03*
X96418400Y-91325700D03*
X92214700Y-89877900D03*
X91694000Y-103263700D03*
X91732100Y-101828600D03*
X97243900Y-104241600D03*
X103162100Y-107149900D03*
X104470200Y-105562400D03*
X98850200Y-88277700D03*
X96850200Y-88277700D03*
X104862400Y-82715100D03*
X102862400Y-82715100D03*
X100862400Y-82715100D03*
X98862400Y-82715100D03*
X96862400Y-82715100D03*
X94862400Y-82715100D03*
D15*
X91732100Y-88938100D03*
X90233500Y-88938100D03*
D16*
X90424000Y-94120400D03*
X90424000Y-92620400D03*
D17*
X91084400Y-86334600D03*
D18*
X91084400Y-83794600D03*
D19*
X94475300Y-90093800D03*
X92975300Y-90093800D03*
X98094800Y-89281000D03*
X96594800Y-89281000D03*
D20*
X95817121Y-98415973D03*
D10*
G36*
X95445890Y-99176113D02*
X95056981Y-98787204D01*
X96188352Y-97655833D01*
X96577261Y-98044742D01*
X95445890Y-99176113D01*
X95445890Y-99176113D01*
G37*
D20*
X96382807Y-98981658D03*
D10*
G36*
X96011576Y-99741798D02*
X95622667Y-99352889D01*
X96754038Y-98221518D01*
X97142947Y-98610427D01*
X96011576Y-99741798D01*
X96011576Y-99741798D01*
G37*
D20*
X96948492Y-99547344D03*
D10*
G36*
X96577261Y-100307484D02*
X96188352Y-99918575D01*
X97319723Y-98787204D01*
X97708632Y-99176113D01*
X96577261Y-100307484D01*
X96577261Y-100307484D01*
G37*
D20*
X97514177Y-100113029D03*
D10*
G36*
X97142946Y-100873169D02*
X96754037Y-100484260D01*
X97885408Y-99352889D01*
X98274317Y-99741798D01*
X97142946Y-100873169D01*
X97142946Y-100873169D01*
G37*
D20*
X98079863Y-100678715D03*
D10*
G36*
X97708632Y-101438855D02*
X97319723Y-101049946D01*
X98451094Y-99918575D01*
X98840003Y-100307484D01*
X97708632Y-101438855D01*
X97708632Y-101438855D01*
G37*
D20*
X98645548Y-101244400D03*
D10*
G36*
X98274317Y-102004540D02*
X97885408Y-101615631D01*
X99016779Y-100484260D01*
X99405688Y-100873169D01*
X98274317Y-102004540D01*
X98274317Y-102004540D01*
G37*
D20*
X99211234Y-101810085D03*
D10*
G36*
X98840003Y-102570225D02*
X98451094Y-102181316D01*
X99582465Y-101049945D01*
X99971374Y-101438854D01*
X98840003Y-102570225D01*
X98840003Y-102570225D01*
G37*
D20*
X99776919Y-102375771D03*
D10*
G36*
X99405688Y-103135911D02*
X99016779Y-102747002D01*
X100148150Y-101615631D01*
X100537059Y-102004540D01*
X99405688Y-103135911D01*
X99405688Y-103135911D01*
G37*
D20*
X101827529Y-102375771D03*
D10*
G36*
X102587669Y-102747002D02*
X102198760Y-103135911D01*
X101067389Y-102004540D01*
X101456298Y-101615631D01*
X102587669Y-102747002D01*
X102587669Y-102747002D01*
G37*
D20*
X102393214Y-101810085D03*
D10*
G36*
X103153354Y-102181316D02*
X102764445Y-102570225D01*
X101633074Y-101438854D01*
X102021983Y-101049945D01*
X103153354Y-102181316D01*
X103153354Y-102181316D01*
G37*
D20*
X102958900Y-101244400D03*
D10*
G36*
X103719040Y-101615631D02*
X103330131Y-102004540D01*
X102198760Y-100873169D01*
X102587669Y-100484260D01*
X103719040Y-101615631D01*
X103719040Y-101615631D01*
G37*
D20*
X103524585Y-100678715D03*
D10*
G36*
X104284725Y-101049946D02*
X103895816Y-101438855D01*
X102764445Y-100307484D01*
X103153354Y-99918575D01*
X104284725Y-101049946D01*
X104284725Y-101049946D01*
G37*
D20*
X104090271Y-100113029D03*
D10*
G36*
X104850411Y-100484260D02*
X104461502Y-100873169D01*
X103330131Y-99741798D01*
X103719040Y-99352889D01*
X104850411Y-100484260D01*
X104850411Y-100484260D01*
G37*
D20*
X104655956Y-99547344D03*
D10*
G36*
X105416096Y-99918575D02*
X105027187Y-100307484D01*
X103895816Y-99176113D01*
X104284725Y-98787204D01*
X105416096Y-99918575D01*
X105416096Y-99918575D01*
G37*
D20*
X105221641Y-98981658D03*
D10*
G36*
X105981781Y-99352889D02*
X105592872Y-99741798D01*
X104461501Y-98610427D01*
X104850410Y-98221518D01*
X105981781Y-99352889D01*
X105981781Y-99352889D01*
G37*
D20*
X105787327Y-98415973D03*
D10*
G36*
X106547467Y-98787204D02*
X106158558Y-99176113D01*
X105027187Y-98044742D01*
X105416096Y-97655833D01*
X106547467Y-98787204D01*
X106547467Y-98787204D01*
G37*
D20*
X105787327Y-96365363D03*
D10*
G36*
X105416096Y-97125503D02*
X105027187Y-96736594D01*
X106158558Y-95605223D01*
X106547467Y-95994132D01*
X105416096Y-97125503D01*
X105416096Y-97125503D01*
G37*
D20*
X105221641Y-95799678D03*
D10*
G36*
X104850410Y-96559818D02*
X104461501Y-96170909D01*
X105592872Y-95039538D01*
X105981781Y-95428447D01*
X104850410Y-96559818D01*
X104850410Y-96559818D01*
G37*
D20*
X104655956Y-95233992D03*
D10*
G36*
X104284725Y-95994132D02*
X103895816Y-95605223D01*
X105027187Y-94473852D01*
X105416096Y-94862761D01*
X104284725Y-95994132D01*
X104284725Y-95994132D01*
G37*
D20*
X104090271Y-94668307D03*
D10*
G36*
X103719040Y-95428447D02*
X103330131Y-95039538D01*
X104461502Y-93908167D01*
X104850411Y-94297076D01*
X103719040Y-95428447D01*
X103719040Y-95428447D01*
G37*
D20*
X103524585Y-94102621D03*
D10*
G36*
X103153354Y-94862761D02*
X102764445Y-94473852D01*
X103895816Y-93342481D01*
X104284725Y-93731390D01*
X103153354Y-94862761D01*
X103153354Y-94862761D01*
G37*
D20*
X102958900Y-93536936D03*
D10*
G36*
X102587669Y-94297076D02*
X102198760Y-93908167D01*
X103330131Y-92776796D01*
X103719040Y-93165705D01*
X102587669Y-94297076D01*
X102587669Y-94297076D01*
G37*
D20*
X102393214Y-92971251D03*
D10*
G36*
X102021983Y-93731391D02*
X101633074Y-93342482D01*
X102764445Y-92211111D01*
X103153354Y-92600020D01*
X102021983Y-93731391D01*
X102021983Y-93731391D01*
G37*
D20*
X101827529Y-92405565D03*
D10*
G36*
X101456298Y-93165705D02*
X101067389Y-92776796D01*
X102198760Y-91645425D01*
X102587669Y-92034334D01*
X101456298Y-93165705D01*
X101456298Y-93165705D01*
G37*
D20*
X99776919Y-92405565D03*
D10*
G36*
X100537059Y-92776796D02*
X100148150Y-93165705D01*
X99016779Y-92034334D01*
X99405688Y-91645425D01*
X100537059Y-92776796D01*
X100537059Y-92776796D01*
G37*
D20*
X99211234Y-92971251D03*
D10*
G36*
X99971374Y-93342482D02*
X99582465Y-93731391D01*
X98451094Y-92600020D01*
X98840003Y-92211111D01*
X99971374Y-93342482D01*
X99971374Y-93342482D01*
G37*
D20*
X98645548Y-93536936D03*
D10*
G36*
X99405688Y-93908167D02*
X99016779Y-94297076D01*
X97885408Y-93165705D01*
X98274317Y-92776796D01*
X99405688Y-93908167D01*
X99405688Y-93908167D01*
G37*
D20*
X98079863Y-94102621D03*
D10*
G36*
X98840003Y-94473852D02*
X98451094Y-94862761D01*
X97319723Y-93731390D01*
X97708632Y-93342481D01*
X98840003Y-94473852D01*
X98840003Y-94473852D01*
G37*
D20*
X97514177Y-94668307D03*
D10*
G36*
X98274317Y-95039538D02*
X97885408Y-95428447D01*
X96754037Y-94297076D01*
X97142946Y-93908167D01*
X98274317Y-95039538D01*
X98274317Y-95039538D01*
G37*
D20*
X96948492Y-95233992D03*
D10*
G36*
X97708632Y-95605223D02*
X97319723Y-95994132D01*
X96188352Y-94862761D01*
X96577261Y-94473852D01*
X97708632Y-95605223D01*
X97708632Y-95605223D01*
G37*
D20*
X96382807Y-95799678D03*
D10*
G36*
X97142947Y-96170909D02*
X96754038Y-96559818D01*
X95622667Y-95428447D01*
X96011576Y-95039538D01*
X97142947Y-96170909D01*
X97142947Y-96170909D01*
G37*
D20*
X95817121Y-96365363D03*
D10*
G36*
X96577261Y-96736594D02*
X96188352Y-97125503D01*
X95056981Y-95994132D01*
X95445890Y-95605223D01*
X96577261Y-96736594D01*
X96577261Y-96736594D01*
G37*
D19*
X108623800Y-90474800D03*
X107123800Y-90474800D03*
D21*
X107002400Y-91937800D03*
X107002400Y-92887800D03*
X107002400Y-93837800D03*
X109202400Y-93837800D03*
X109202400Y-91937800D03*
D22*
X108128500Y-83553300D03*
X106628500Y-83553300D03*
X109068300Y-95402400D03*
X107568300Y-95402400D03*
D11*
X92862400Y-82715100D03*
X101517200Y-98418400D03*
X100517200Y-98418400D03*
X99517200Y-98418400D03*
X101517200Y-97418400D03*
X99517200Y-97418400D03*
X101517200Y-96418400D03*
X100517200Y-96418400D03*
X99517200Y-96418400D03*
D23*
X92563740Y-97999340D03*
D10*
G36*
X91397014Y-98105406D02*
X92669806Y-96832614D01*
X93730466Y-97893274D01*
X92457674Y-99166066D01*
X91397014Y-98105406D01*
X91397014Y-98105406D01*
G37*
D23*
X94685060Y-100120660D03*
D10*
G36*
X93518334Y-100226726D02*
X94791126Y-98953934D01*
X95851786Y-100014594D01*
X94578994Y-101287386D01*
X93518334Y-100226726D01*
X93518334Y-100226726D01*
G37*
D14*
X96974130Y-92001870D03*
D10*
G36*
X96991808Y-91453862D02*
X97522138Y-91984192D01*
X96956452Y-92549878D01*
X96426122Y-92019548D01*
X96991808Y-91453862D01*
X96991808Y-91453862D01*
G37*
D14*
X95913470Y-93062530D03*
D10*
G36*
X95931148Y-92514522D02*
X96461478Y-93044852D01*
X95895792Y-93610538D01*
X95365462Y-93080208D01*
X95931148Y-92514522D01*
X95931148Y-92514522D01*
G37*
D14*
X103400330Y-102936570D03*
D10*
G36*
X103418008Y-102388562D02*
X103948338Y-102918892D01*
X103382652Y-103484578D01*
X102852322Y-102954248D01*
X103418008Y-102388562D01*
X103418008Y-102388562D01*
G37*
D14*
X102339670Y-103997230D03*
D10*
G36*
X102357348Y-103449222D02*
X102887678Y-103979552D01*
X102321992Y-104545238D01*
X101791662Y-104014908D01*
X102357348Y-103449222D01*
X102357348Y-103449222D01*
G37*
D24*
X97358200Y-105218800D03*
X97358200Y-106718800D03*
D13*
X90769400Y-102803960D03*
X92669400Y-102803960D03*
X91719400Y-100804980D03*
D25*
X109163000Y-87043300D03*
X109163000Y-86093300D03*
X109163000Y-85143300D03*
X106483000Y-85143300D03*
X106483000Y-86093300D03*
X106483000Y-87043300D03*
D26*
X107398000Y-85443300D03*
X107398000Y-86743300D03*
X108248000Y-85443300D03*
X108248000Y-86743300D03*
D27*
X108762800Y-109448600D03*
X108762800Y-111988600D03*
X106222800Y-109448600D03*
X106222800Y-111988600D03*
X103682800Y-109448600D03*
X103682800Y-111988600D03*
X101142800Y-109448600D03*
X101142800Y-111988600D03*
D28*
X90982800Y-111988600D03*
D27*
X90982800Y-109448600D03*
X93522800Y-111988600D03*
X93522800Y-109448600D03*
X96062800Y-111988600D03*
X96062800Y-109448600D03*
X98602800Y-111988600D03*
X98602800Y-109448600D03*
D14*
X103365300Y-105003600D03*
D10*
G36*
X103347622Y-105551608D02*
X102817292Y-105021278D01*
X103382978Y-104455592D01*
X103913308Y-104985922D01*
X103347622Y-105551608D01*
X103347622Y-105551608D01*
G37*
D14*
X104425960Y-103942940D03*
D10*
G36*
X104408282Y-104490948D02*
X103877952Y-103960618D01*
X104443638Y-103394932D01*
X104973968Y-103925262D01*
X104408282Y-104490948D01*
X104408282Y-104490948D01*
G37*
D29*
X90151000Y-107162600D03*
X93351000Y-107162600D03*
D30*
X92951000Y-107162600D03*
D31*
X91751000Y-107162600D03*
D30*
X90551000Y-107162600D03*
D14*
X93291130Y-95075270D03*
D10*
G36*
X93308808Y-94527262D02*
X93839138Y-95057592D01*
X93273452Y-95623278D01*
X92743122Y-95092948D01*
X93308808Y-94527262D01*
X93308808Y-94527262D01*
G37*
D14*
X92230470Y-96135930D03*
D10*
G36*
X92248148Y-95587922D02*
X92778478Y-96118252D01*
X92212792Y-96683938D01*
X91682462Y-96153608D01*
X92248148Y-95587922D01*
X92248148Y-95587922D01*
G37*
D32*
X90119200Y-104457500D03*
X90119200Y-105346500D03*
D33*
X90119200Y-104140000D03*
X90119200Y-105664000D03*
D24*
X91643200Y-105779000D03*
X91643200Y-104279000D03*
D15*
X95084900Y-88468200D03*
X93586300Y-88468200D03*
D14*
X94287870Y-92579930D03*
D10*
G36*
X94270192Y-93127938D02*
X93739862Y-92597608D01*
X94305548Y-92031922D01*
X94835878Y-92562252D01*
X94270192Y-93127938D01*
X94270192Y-93127938D01*
G37*
D14*
X95348530Y-91519270D03*
D10*
G36*
X95330852Y-92067278D02*
X94800522Y-91536948D01*
X95366208Y-90971262D01*
X95896538Y-91501592D01*
X95330852Y-92067278D01*
X95330852Y-92067278D01*
G37*
D22*
X90284300Y-91186000D03*
X91784300Y-91186000D03*
D19*
X108585000Y-88760300D03*
X107085000Y-88760300D03*
D24*
X93446600Y-104126600D03*
X93446600Y-105626600D03*
D19*
X103899400Y-106781600D03*
X102399400Y-106781600D03*
D24*
X105652000Y-91555000D03*
X105652000Y-90055000D03*
X94996700Y-104126600D03*
X94996700Y-105626600D03*
D11*
X107382918Y-96076021D03*
X107797600Y-92798900D03*
X108208306Y-107243590D03*
X104503751Y-107575002D03*
X107289600Y-84201000D03*
X109392530Y-96326389D03*
X109202400Y-90888300D03*
X91179407Y-94175186D03*
X106018638Y-92413147D03*
X92465752Y-92084752D03*
X94132400Y-105602800D03*
X103458698Y-83743800D03*
X102184200Y-90703400D03*
X103529279Y-88018910D03*
X101900000Y-86393310D03*
X99961700Y-91541600D03*
X101061810Y-88722174D03*
X100393500Y-84912200D03*
X101783056Y-95204482D03*
X102531610Y-95023877D03*
X105959861Y-87669979D03*
X102908100Y-95783400D03*
X106132400Y-105602800D03*
X99597812Y-107884794D03*
X98348800Y-107746800D03*
X91059000Y-90398600D03*
X91084400Y-95478600D03*
X92290900Y-93751400D03*
X108165900Y-91554300D03*
X108297669Y-98417046D03*
X109431032Y-107174342D03*
X110038581Y-107809889D03*
X107736704Y-96894025D03*
X107874658Y-93841804D03*
X97104200Y-108356400D03*
X99898200Y-111506000D03*
X103305573Y-90460246D03*
X96578710Y-105927598D03*
X104435029Y-108349773D03*
X104198087Y-110659525D03*
D34*
X107382918Y-95651757D02*
X107382918Y-96076021D01*
X107382918Y-95587782D02*
X107382918Y-95651757D01*
X107568300Y-95402400D02*
X107382918Y-95587782D01*
X93522800Y-109448600D02*
X94780100Y-108191300D01*
X108192000Y-83616800D02*
X108128500Y-83553300D01*
X107002400Y-92887800D02*
X107708700Y-92887800D01*
X107708700Y-92887800D02*
X107797600Y-92798900D01*
X90769400Y-102803960D02*
X90769400Y-102753200D01*
X93291130Y-95075270D02*
X93291130Y-95170730D01*
X94643470Y-102333530D02*
X94688130Y-102333530D01*
X91643200Y-104279000D02*
X91643200Y-103759000D01*
X93268800Y-104279000D02*
X93294200Y-104253600D01*
X96974130Y-92001870D02*
X96974130Y-92979444D01*
X96974130Y-92979444D02*
X97760039Y-93765353D01*
X96491530Y-91519270D02*
X96974130Y-92001870D01*
X103298730Y-102847670D02*
X103298730Y-102698157D01*
X103298730Y-102698157D02*
X102073390Y-101472817D01*
X103298730Y-102847670D02*
X103298730Y-102853810D01*
X103298730Y-102853810D02*
X104337060Y-103892140D01*
X94132400Y-105602800D02*
X94132400Y-106083100D01*
X94132400Y-106083100D02*
X94354301Y-106305001D01*
X94354301Y-106305001D02*
X94354301Y-107826823D01*
X94354301Y-107826823D02*
X93964425Y-108216699D01*
X93964425Y-108216699D02*
X91884501Y-108216699D01*
X91884501Y-108216699D02*
X91821000Y-108280200D01*
X94132400Y-105602800D02*
X94972900Y-105602800D01*
X94972900Y-105602800D02*
X94996700Y-105626600D01*
X106550462Y-101513640D02*
X108208306Y-103171484D01*
X108208306Y-106819326D02*
X108208306Y-107243590D01*
X108208306Y-107281216D02*
X108208306Y-107243590D01*
X108208306Y-103171484D02*
X108208306Y-106819326D01*
X108292890Y-107365800D02*
X108208306Y-107281216D01*
X106136400Y-101513640D02*
X106550462Y-101513640D01*
X103899400Y-106970651D02*
X104203752Y-107275003D01*
X103899400Y-106781600D02*
X103899400Y-106970651D01*
X104203752Y-107275003D02*
X104503751Y-107575002D01*
X106628500Y-83553300D02*
X106641900Y-83553300D01*
X106641900Y-83553300D02*
X107289600Y-84201000D01*
X108585000Y-88760300D02*
X108450099Y-88895201D01*
X108450099Y-88895201D02*
X108450099Y-90301099D01*
X108450099Y-90301099D02*
X108623800Y-90474800D01*
X109202400Y-91937800D02*
X109202400Y-93837800D01*
X109068300Y-95402400D02*
X108967514Y-95402400D01*
X106018638Y-94283838D02*
X106018638Y-92413147D01*
X108967514Y-95402400D02*
X108211514Y-94646400D01*
X108211514Y-94646400D02*
X106381200Y-94646400D01*
X106381200Y-94646400D02*
X106018638Y-94283838D01*
X109068300Y-95402400D02*
X109068300Y-96158400D01*
X109068300Y-96158400D02*
X109236289Y-96326389D01*
X109236289Y-96326389D02*
X109392530Y-96326389D01*
X101698324Y-85605900D02*
X103555500Y-85605900D01*
X100499724Y-86804500D02*
X101698324Y-85605900D01*
X104236500Y-84924900D02*
X104711500Y-84924900D01*
X103555500Y-85605900D02*
X104236500Y-84924900D01*
X99311500Y-86804500D02*
X100499724Y-86804500D01*
X108623800Y-90474800D02*
X108788900Y-90474800D01*
X108788900Y-90474800D02*
X109202400Y-90888300D01*
X90755143Y-94175186D02*
X91179407Y-94175186D01*
X90424000Y-94120400D02*
X90478786Y-94175186D01*
X90478786Y-94175186D02*
X90755143Y-94175186D01*
X109202400Y-91937800D02*
X109202400Y-90888300D01*
X99311500Y-87464900D02*
X99311500Y-86804500D01*
X99311500Y-86804500D02*
X99311500Y-86194900D01*
X104711500Y-84924900D02*
X105256900Y-84924900D01*
X105256900Y-84924900D02*
X106628500Y-83553300D01*
X106483000Y-86093300D02*
X106354900Y-86093300D01*
X106354900Y-86093300D02*
X105186500Y-84924900D01*
X105186500Y-84924900D02*
X104711500Y-84924900D01*
X92465752Y-92084752D02*
X93792692Y-92084752D01*
X93792692Y-92084752D02*
X94287870Y-92579930D01*
X91821000Y-108610400D02*
X91821000Y-108280200D01*
X91821000Y-108280200D02*
X91821000Y-107162600D01*
X90982800Y-109448600D02*
X91821000Y-108610400D01*
X94287870Y-92579930D02*
X94311874Y-92579930D01*
X94311874Y-92579930D02*
X96628668Y-94896724D01*
X90982800Y-109448600D02*
X93522800Y-111988600D01*
X93294200Y-105753600D02*
X93981600Y-105753600D01*
X93981600Y-105753600D02*
X94132400Y-105602800D01*
X90982800Y-111988600D02*
X89586001Y-110591801D01*
X89586001Y-110591801D02*
X89586001Y-107797599D01*
X89586001Y-107797599D02*
X90221000Y-107162600D01*
X90119200Y-105664000D02*
X90119200Y-107060800D01*
X90119200Y-107060800D02*
X90221000Y-107162600D01*
X90119200Y-105664000D02*
X91629800Y-105664000D01*
X91629800Y-105664000D02*
X91744800Y-105779000D01*
D35*
X102775093Y-83469199D02*
X103184097Y-83469199D01*
X103184097Y-83469199D02*
X103458698Y-83743800D01*
X102184200Y-90703400D02*
X102184200Y-89876779D01*
X102184200Y-89876779D02*
X103529279Y-88531700D01*
X103529279Y-88531700D02*
X103529279Y-88018910D01*
X103930766Y-92449966D02*
X102184200Y-90703400D01*
X103930766Y-92500744D02*
X103930766Y-92449966D01*
X103930766Y-93024763D02*
X104160980Y-93254977D01*
X103930766Y-92500744D02*
X103930766Y-93024763D01*
X104160980Y-93466226D02*
X103524585Y-94102621D01*
X104160980Y-93254977D02*
X104160980Y-93466226D01*
X100475401Y-83469199D02*
X102775093Y-83469199D01*
X99311500Y-83654900D02*
X100289700Y-83654900D01*
X100289700Y-83654900D02*
X100475401Y-83469199D01*
X99661701Y-91241601D02*
X99961700Y-91541600D01*
X99644178Y-91224078D02*
X99661701Y-91241601D01*
X99644178Y-88625714D02*
X99644178Y-91224078D01*
X101600001Y-86693309D02*
X101576583Y-86693309D01*
X101900000Y-86393310D02*
X101600001Y-86693309D01*
X101576583Y-86693309D02*
X99644178Y-88625714D01*
X101900000Y-86217926D02*
X101900000Y-86393310D01*
X101888674Y-86206600D02*
X101900000Y-86217926D01*
X101828600Y-86206600D02*
X101888674Y-86206600D01*
X102903000Y-86207600D02*
X102915700Y-86194900D01*
X102915700Y-86194900D02*
X104711500Y-86194900D01*
X99961700Y-91541600D02*
X100813379Y-92393279D01*
X100813379Y-92393279D02*
X100813379Y-92882013D01*
X100813379Y-92882013D02*
X101539012Y-93607646D01*
X101539012Y-93607646D02*
X101756819Y-93607646D01*
X101756819Y-93607646D02*
X102393214Y-92971251D01*
X101828600Y-86206600D02*
X101829600Y-86207600D01*
X101829600Y-86207600D02*
X102903000Y-86207600D01*
X100761811Y-89022173D02*
X101061810Y-88722174D01*
X100355400Y-89428584D02*
X100761811Y-89022173D01*
X100355400Y-90474800D02*
X100355400Y-89428584D01*
X102958900Y-93536936D02*
X103575155Y-92920681D01*
X102260400Y-91347838D02*
X101228438Y-91347838D01*
X103575155Y-92662593D02*
X102260400Y-91347838D01*
X103575155Y-92920681D02*
X103575155Y-92662593D01*
X101228438Y-91347838D02*
X100355400Y-90474800D01*
X99969236Y-84912200D02*
X100393500Y-84912200D01*
X99354449Y-84912200D02*
X99969236Y-84912200D01*
X99329049Y-84937600D02*
X99354449Y-84912200D01*
X101783056Y-94712780D02*
X101783056Y-94780218D01*
X102958900Y-93536936D02*
X101783056Y-94712780D01*
X101783056Y-94780218D02*
X101783056Y-95204482D01*
X104090271Y-94668307D02*
X104726666Y-94031912D01*
X104726666Y-94031912D02*
X104726666Y-93317755D01*
X104726666Y-93317755D02*
X104286377Y-92877466D01*
X104286377Y-92877466D02*
X104286377Y-92302668D01*
X104286377Y-92302668D02*
X102743011Y-90759302D01*
X102743011Y-90759302D02*
X102743011Y-89941389D01*
X105659862Y-87969978D02*
X105959861Y-87669979D01*
X102743011Y-89941389D02*
X104665499Y-88018901D01*
X104665499Y-88018901D02*
X105659862Y-88018901D01*
X105659862Y-88018901D02*
X105659862Y-87969978D01*
X102737132Y-95229399D02*
X102531610Y-95023877D01*
X103529179Y-95229399D02*
X102737132Y-95229399D01*
X104090271Y-94668307D02*
X103529179Y-95229399D01*
X105633811Y-105104211D02*
X106132400Y-105602800D01*
X104160980Y-102214220D02*
X105633811Y-103687051D01*
X105633811Y-103687051D02*
X105633811Y-105104211D01*
X104160980Y-101315110D02*
X104160980Y-102214220D01*
X103524585Y-100678715D02*
X104160980Y-101315110D01*
X102908100Y-95783400D02*
X103098600Y-95783400D01*
X102933500Y-100070186D02*
X103841156Y-100977842D01*
X103098600Y-95783400D02*
X104635300Y-97320100D01*
X104635300Y-97320100D02*
X104635300Y-98031300D01*
X104635300Y-98031300D02*
X102933500Y-99733100D01*
X102933500Y-99733100D02*
X102933500Y-100070186D01*
X102958900Y-101244400D02*
X103595295Y-101880795D01*
X104119692Y-109448600D02*
X103682800Y-109448600D01*
X105278202Y-108290090D02*
X104119692Y-109448600D01*
X105278202Y-103834350D02*
X105278202Y-108290090D01*
X103595295Y-102151443D02*
X105278202Y-103834350D01*
X103595295Y-101880795D02*
X103595295Y-102151443D01*
X103682800Y-111988600D02*
X105105199Y-110566201D01*
X105105199Y-110566201D02*
X105105199Y-108966001D01*
X106718100Y-107353100D02*
X106718100Y-105092500D01*
X105105199Y-108966001D02*
X106718100Y-107353100D01*
X105989422Y-103539752D02*
X104587031Y-102137361D01*
X106718100Y-105092500D02*
X105989422Y-104363822D01*
X105989422Y-104363822D02*
X105989422Y-103539752D01*
X104587031Y-102137361D02*
X104587031Y-100609789D01*
X104587031Y-100609789D02*
X104090271Y-100113029D01*
X99868013Y-105507750D02*
X96861758Y-102501495D01*
X99868013Y-107614593D02*
X99868013Y-105507750D01*
X96861758Y-102501495D02*
X96861758Y-100765448D01*
X99597812Y-107884794D02*
X99868013Y-107614593D01*
X96861758Y-100765448D02*
X97514177Y-100113029D01*
X96266000Y-100229836D02*
X96948492Y-99547344D01*
X96506148Y-101128948D02*
X96266000Y-100888800D01*
X96506148Y-102648793D02*
X96506148Y-101128948D01*
X99512402Y-107161314D02*
X99512402Y-105655048D01*
X99512402Y-105655048D02*
X96506148Y-102648793D01*
X98926916Y-107746800D02*
X99512402Y-107161314D01*
X96266000Y-100888800D02*
X96266000Y-100229836D01*
X98348800Y-107746800D02*
X98926916Y-107746800D01*
X99085401Y-110870999D02*
X97180401Y-110870999D01*
X100021953Y-109934447D02*
X99085401Y-110870999D01*
X100579235Y-105156326D02*
X100579235Y-108226204D01*
X100563967Y-105156325D02*
X100579235Y-105156326D01*
X97180401Y-110870999D02*
X96062800Y-111988600D01*
X98009153Y-101880795D02*
X98009153Y-102601511D01*
X98009153Y-102601511D02*
X100563967Y-105156325D01*
X100021953Y-108783486D02*
X100021953Y-109934447D01*
X100579235Y-108226204D02*
X100021953Y-108783486D01*
X98645548Y-101244400D02*
X98009153Y-101880795D01*
X96844624Y-109448600D02*
X96062800Y-109448600D01*
X99331890Y-108438796D02*
X99220865Y-108327771D01*
X99863734Y-108438796D02*
X99331890Y-108438796D01*
X97965453Y-108327771D02*
X96844624Y-109448600D01*
X100223624Y-108078906D02*
X99863734Y-108438796D01*
X97443468Y-102580296D02*
X100223624Y-105360452D01*
X97443468Y-101315110D02*
X97443468Y-102580296D01*
X98079863Y-100678715D02*
X97443468Y-101315110D01*
X100223624Y-105360452D02*
X100223624Y-108078906D01*
X99220865Y-108327771D02*
X97965453Y-108327771D01*
X92230470Y-96135930D02*
X92230470Y-97666070D01*
X92230470Y-97666070D02*
X92563740Y-97999340D01*
X95497297Y-98078705D02*
X95497297Y-98096149D01*
X95497297Y-98096149D02*
X95817121Y-98415973D01*
X92563740Y-97999340D02*
X95417932Y-97999340D01*
X95417932Y-97999340D02*
X95497297Y-98078705D01*
X96382807Y-98981658D02*
X95746412Y-99618053D01*
X95746412Y-99618053D02*
X95187667Y-99618053D01*
X95187667Y-99618053D02*
X94685060Y-100120660D01*
X95500930Y-101349070D02*
X95500930Y-100936530D01*
X95500930Y-100936530D02*
X94685060Y-100120660D01*
X97459800Y-105230800D02*
X96579908Y-105230800D01*
X96579908Y-105230800D02*
X95669100Y-104319992D01*
X95669100Y-104319992D02*
X95669100Y-103521078D01*
X95669100Y-103521078D02*
X95546623Y-103398601D01*
X90835761Y-96337401D02*
X90474800Y-95976440D01*
X95546623Y-103398601D02*
X94747709Y-103398601D01*
X94747709Y-103398601D02*
X92398851Y-101049743D01*
X91736898Y-94017322D02*
X91736898Y-93733298D01*
X92398851Y-101049743D02*
X92398851Y-100181409D01*
X92398851Y-100181409D02*
X92342971Y-100125529D01*
X90429080Y-97876360D02*
X90815160Y-97490280D01*
X92342971Y-100125529D02*
X92002328Y-100125529D01*
X90815160Y-97490280D02*
X90835761Y-97490280D01*
X90474800Y-95976440D02*
X90474800Y-95262700D01*
X92002328Y-100125529D02*
X90429080Y-98552281D01*
X91762112Y-94450610D02*
X91762112Y-94042536D01*
X90429080Y-98552281D02*
X90429080Y-97876360D01*
X90835761Y-97490280D02*
X90835761Y-96337401D01*
X90474800Y-95262700D02*
X90980841Y-94756659D01*
X90980841Y-94756659D02*
X91456063Y-94756659D01*
X91456063Y-94756659D02*
X91762112Y-94450610D01*
X91762112Y-94042536D02*
X91736898Y-94017322D01*
X91736898Y-93733298D02*
X90624000Y-92620400D01*
X90624000Y-92620400D02*
X90424000Y-92620400D01*
X98255015Y-91369125D02*
X98255015Y-91997588D01*
X95491290Y-90296990D02*
X97182880Y-90296990D01*
X95110300Y-89916000D02*
X95491290Y-90296990D01*
X93497400Y-89978698D02*
X94131598Y-89344500D01*
X97182880Y-90296990D02*
X98255015Y-91369125D01*
X95110300Y-89571598D02*
X95110300Y-89916000D01*
X94131598Y-89344500D02*
X94883202Y-89344500D01*
X98255015Y-91997588D02*
X98891410Y-92633983D01*
X93497400Y-90728902D02*
X93497400Y-89978698D01*
X92541998Y-90817700D02*
X93408602Y-90817700D01*
X92463701Y-90587479D02*
X92463701Y-90739403D01*
X92463701Y-90739403D02*
X92541998Y-90817700D01*
X92407821Y-90531599D02*
X92463701Y-90587479D01*
X93408602Y-90817700D02*
X93497400Y-90728902D01*
X90963701Y-90531599D02*
X92407821Y-90531599D01*
X94883202Y-89344500D02*
X95110300Y-89571598D01*
X90963701Y-90531599D02*
X90963701Y-90493899D01*
X90963701Y-90493899D02*
X91059000Y-90398600D01*
X90284300Y-91186000D02*
X90309300Y-91186000D01*
X90309300Y-91186000D02*
X90963701Y-90531599D01*
X90424000Y-92620400D02*
X90424000Y-91325700D01*
X90424000Y-91325700D02*
X90284300Y-91186000D01*
X92793313Y-94157811D02*
X91838284Y-95112840D01*
X91084400Y-95427800D02*
X91399360Y-95112840D01*
X91399360Y-95112840D02*
X91838284Y-95112840D01*
X91084400Y-95478600D02*
X91084400Y-95427800D01*
X94759791Y-95580200D02*
X93337402Y-94157811D01*
X94759791Y-95580200D02*
X95031958Y-95580200D01*
X95031958Y-95580200D02*
X95817121Y-96365363D01*
X93337402Y-94157811D02*
X92793313Y-94157811D01*
X92290900Y-93751400D02*
X93522800Y-93751400D01*
X93522800Y-93751400D02*
X94934683Y-95163283D01*
X94934683Y-95163283D02*
X95746412Y-95163283D01*
X95746412Y-95163283D02*
X96382807Y-95799678D01*
X109163000Y-87043300D02*
X109163000Y-87471500D01*
X107797600Y-88344778D02*
X107797600Y-90254200D01*
X109163000Y-87471500D02*
X108603601Y-88030899D01*
X107797600Y-90254200D02*
X107577000Y-90474800D01*
X108603601Y-88030899D02*
X108111479Y-88030899D01*
X108111479Y-88030899D02*
X107797600Y-88344778D01*
X107577000Y-90474800D02*
X107123800Y-90474800D01*
X108297669Y-98417046D02*
X109423191Y-99542568D01*
X109423191Y-106742237D02*
X109431032Y-106750078D01*
X109431032Y-106750078D02*
X109431032Y-107174342D01*
X109423191Y-99542568D02*
X109423191Y-106742237D01*
X107002400Y-91937800D02*
X107238100Y-91702100D01*
X107238100Y-91702100D02*
X107238100Y-90224000D01*
X107002400Y-91937800D02*
X107782400Y-91937800D01*
X107782400Y-91937800D02*
X108165900Y-91554300D01*
X106667300Y-96786677D02*
X108297669Y-98417046D01*
X106667300Y-96786677D02*
X106208641Y-96786677D01*
X106208641Y-96786677D02*
X105787327Y-96365363D01*
X107002400Y-91937800D02*
X107528400Y-91937800D01*
X105858036Y-95163283D02*
X105858036Y-94945474D01*
X105194677Y-90734401D02*
X106178070Y-90734401D01*
X105858036Y-94945474D02*
X105460031Y-94547469D01*
X106615471Y-90297000D02*
X106615471Y-89429829D01*
X105460031Y-94547469D02*
X105460032Y-94339157D01*
X106178070Y-90734401D02*
X106615471Y-90297000D01*
X105460032Y-94339157D02*
X105460032Y-92712055D01*
X105460032Y-92712055D02*
X104997599Y-92249622D01*
X104997599Y-92249622D02*
X104997599Y-90931479D01*
X106615471Y-89429829D02*
X107085000Y-88960300D01*
X104997599Y-90931479D02*
X105194677Y-90734401D01*
X107085000Y-88960300D02*
X107085000Y-88760300D01*
X110038581Y-107385625D02*
X110038581Y-107809889D01*
X110038581Y-99195902D02*
X110038581Y-107385625D01*
X107736704Y-96894025D02*
X110038581Y-99195902D01*
X106803516Y-96385101D02*
X107312440Y-96894025D01*
X106803516Y-95873510D02*
X106803516Y-96385101D01*
X106093289Y-95163283D02*
X106803516Y-95873510D01*
X105858036Y-95163283D02*
X106093289Y-95163283D01*
X107312440Y-96894025D02*
X107736704Y-96894025D01*
X106483000Y-87043300D02*
X106483000Y-87390100D01*
X106483000Y-87390100D02*
X107085000Y-87992100D01*
X107085000Y-87992100D02*
X107085000Y-88760300D01*
X107870654Y-93837800D02*
X107874658Y-93841804D01*
X107002400Y-93837800D02*
X107870654Y-93837800D01*
X105221641Y-95799678D02*
X105858036Y-95163283D01*
X95084900Y-88658700D02*
X95972500Y-88658700D01*
X95972500Y-88658700D02*
X96594800Y-89281000D01*
X105221641Y-98981658D02*
X107753623Y-101513640D01*
X107753623Y-101513640D02*
X108136400Y-101513640D01*
X107753623Y-101513640D02*
X108036400Y-101513640D01*
X101663500Y-87464900D02*
X101854000Y-87274400D01*
X101333300Y-87464900D02*
X101663500Y-87464900D01*
X103733300Y-87464900D02*
X104711500Y-87464900D01*
X99999789Y-90622098D02*
X99999789Y-88798411D01*
X103542800Y-87274400D02*
X103733300Y-87464900D01*
X101562365Y-92140401D02*
X101518092Y-92140401D01*
X101854000Y-87274400D02*
X103542800Y-87274400D01*
X101827529Y-92405565D02*
X101562365Y-92140401D01*
X101518092Y-92140401D02*
X99999789Y-90622098D01*
X99999789Y-88798411D02*
X101333300Y-87464900D01*
X95913470Y-93062530D02*
X95925844Y-93062530D01*
D34*
X95925844Y-93062530D02*
X97194353Y-94331039D01*
D35*
X98094800Y-89281000D02*
X98094800Y-90706002D01*
X98820700Y-91431902D02*
X98933000Y-91544202D01*
X98933000Y-91544202D02*
X99457095Y-92068297D01*
X98094800Y-90706002D02*
X98933000Y-91544202D01*
X98820700Y-91419884D02*
X98820700Y-91431902D01*
D34*
X91109800Y-101104700D02*
X91419680Y-101104700D01*
X91419680Y-101104700D02*
X91719400Y-100804980D01*
X90119200Y-104140000D02*
X90001049Y-104021849D01*
X90001049Y-102069900D02*
X90144600Y-102069900D01*
X90144600Y-102069900D02*
X91109800Y-101104700D01*
X90001049Y-104021849D02*
X90001049Y-102069900D01*
X92951000Y-107162600D02*
X92951000Y-106464658D01*
X92951000Y-106464658D02*
X92669400Y-106183058D01*
X92669400Y-106183058D02*
X92669400Y-103585010D01*
X92669400Y-103585010D02*
X92669400Y-102803960D01*
D35*
X97459800Y-108000800D02*
X97104200Y-108356400D01*
X97459800Y-106730800D02*
X97459800Y-108000800D01*
X107365800Y-107873800D02*
X107162600Y-107670600D01*
X107340401Y-112476211D02*
X107340401Y-111937800D01*
X107365800Y-107873800D02*
X107365800Y-111912401D01*
X107365800Y-111912401D02*
X107340401Y-111937800D01*
X102260401Y-111452151D02*
X102260401Y-112220251D01*
X99898200Y-111506000D02*
X100533201Y-110870999D01*
X100533201Y-110870999D02*
X101679249Y-110870999D01*
X105292351Y-100183739D02*
X104655956Y-99547344D01*
X101679249Y-110870999D02*
X102260401Y-111452151D01*
X103146351Y-113106201D02*
X106710411Y-113106201D01*
X102260401Y-112220251D02*
X103146351Y-113106201D01*
X104942640Y-101965760D02*
X104942640Y-100751258D01*
X106710411Y-113106201D02*
X107340401Y-112476211D01*
X106406949Y-104278441D02*
X106406949Y-103454371D01*
X106406949Y-103454371D02*
X105292351Y-102339773D01*
X105292351Y-100401547D02*
X105292351Y-100183739D01*
X104942640Y-100751258D02*
X105292351Y-100401547D01*
X107162600Y-107670600D02*
X107162600Y-105034092D01*
X107162600Y-105034092D02*
X106406949Y-104278441D01*
X105292351Y-102315471D02*
X104942640Y-101965760D01*
X105292351Y-102339773D02*
X105292351Y-102315471D01*
X105104421Y-94785527D02*
X104655956Y-95233992D01*
X104641988Y-92730167D02*
X105104421Y-93192600D01*
X104641988Y-91796661D02*
X104641988Y-92730167D01*
X103305573Y-90460246D02*
X104641988Y-91796661D01*
X105104421Y-93192600D02*
X105104421Y-94785527D01*
X96578710Y-106351862D02*
X96578710Y-105927598D01*
X96578710Y-107278640D02*
X96578710Y-106351862D01*
X95681808Y-113461808D02*
X94945199Y-112725199D01*
X109931200Y-112474250D02*
X109299249Y-113106201D01*
X106857709Y-113461811D02*
X95681808Y-113461808D01*
X107213319Y-113106201D02*
X106857709Y-113461811D01*
X109299249Y-113106201D02*
X107213319Y-113106201D01*
X108787707Y-107353537D02*
X109931200Y-108497030D01*
X108696760Y-99382082D02*
X108969851Y-99655173D01*
X109931200Y-108497030D02*
X109931200Y-112474250D01*
X108787707Y-106965477D02*
X108787707Y-107353537D01*
X108969851Y-99655173D02*
X108969851Y-106783333D01*
X94945199Y-112725199D02*
X94945199Y-108912151D01*
X94945199Y-108912151D02*
X96578710Y-107278640D01*
X108969851Y-106783333D02*
X108787707Y-106965477D01*
X108696760Y-99382082D02*
X108808520Y-99493842D01*
X104019561Y-96088196D02*
X105310878Y-97379513D01*
X104019561Y-95870387D02*
X104019561Y-96088196D01*
X104655956Y-95233992D02*
X104019561Y-95870387D01*
X105310878Y-97379513D02*
X106447520Y-97379513D01*
X108059708Y-98991701D02*
X108306379Y-98991701D01*
X106447520Y-97379513D02*
X108059708Y-98991701D01*
X108306379Y-98991701D02*
X108696760Y-99382082D01*
D34*
X102399400Y-106781600D02*
X102399400Y-105829800D01*
X102399400Y-105829800D02*
X103276400Y-104952800D01*
X102238070Y-103908330D02*
X102238070Y-102768868D01*
X102238070Y-102768868D02*
X101507705Y-102038503D01*
X103276400Y-104952800D02*
X103276400Y-104946660D01*
X103276400Y-104946660D02*
X102238070Y-103908330D01*
D35*
X104010765Y-108349773D02*
X104435029Y-108349773D01*
X102842564Y-108294936D02*
X103955928Y-108294936D01*
X102793800Y-108343700D02*
X102842564Y-108294936D01*
X103955928Y-108294936D02*
X104010765Y-108349773D01*
X99776919Y-102375771D02*
X99776919Y-103363461D01*
X101290454Y-104861731D02*
X101290454Y-105867197D01*
X99776919Y-103363461D02*
X100858564Y-104445106D01*
X100858564Y-104445106D02*
X100873832Y-104445107D01*
X100873832Y-104445107D02*
X101290454Y-104861731D01*
X101290454Y-105867197D02*
X101290457Y-105867200D01*
X101290457Y-105867200D02*
X101290457Y-106840357D01*
X101290457Y-106840357D02*
X102793800Y-108343700D01*
X102793800Y-108343700D02*
X102806500Y-108331000D01*
X100726533Y-104800716D02*
X100934845Y-105009028D01*
X100711266Y-104800716D02*
X100726533Y-104800716D01*
X98574839Y-102664289D02*
X100711266Y-104800716D01*
X98574839Y-102446480D02*
X98574839Y-102664289D01*
X99211234Y-101810085D02*
X98574839Y-102446480D01*
X100934846Y-105009028D02*
X100934845Y-105009028D01*
X100934845Y-105009028D02*
X100934846Y-107035938D01*
X102565199Y-110477299D02*
X102747425Y-110659525D01*
X103773823Y-110659525D02*
X104198087Y-110659525D01*
X102747425Y-110659525D02*
X103773823Y-110659525D01*
X100934846Y-107035938D02*
X102565199Y-108666291D01*
X102565199Y-108666291D02*
X102565199Y-110477299D01*
X91732100Y-88938100D02*
X92334080Y-88938100D01*
X92334080Y-88938100D02*
X92925480Y-89529500D01*
X92925480Y-89529500D02*
X92950600Y-89529500D01*
X92950600Y-90182700D02*
X92950600Y-89529500D01*
X94450600Y-90182700D02*
X94920501Y-90652601D01*
X97801548Y-92675492D02*
X98325724Y-93199668D01*
X96879097Y-90652601D02*
X97801548Y-91575052D01*
X94920501Y-90652601D02*
X96879097Y-90652601D01*
X97801548Y-91575052D02*
X97801548Y-92675492D01*
G36*
X92658406Y-108740160D02*
X92453096Y-109124876D01*
X92479124Y-109296200D01*
X93370400Y-109296200D01*
X93370400Y-109276200D01*
X93675200Y-109276200D01*
X93675200Y-109296200D01*
X93695200Y-109296200D01*
X93695200Y-109601000D01*
X93675200Y-109601000D01*
X93675200Y-110491625D01*
X93846522Y-110518288D01*
X94050288Y-110433902D01*
X94387194Y-110157040D01*
X94538799Y-109872958D01*
X94538799Y-111423605D01*
X94348984Y-111139526D01*
X93969927Y-110886249D01*
X93522800Y-110797310D01*
X93113404Y-110878744D01*
X92077362Y-109842702D01*
X92091360Y-109772324D01*
X92453096Y-109772324D01*
X92658406Y-110157040D01*
X92995312Y-110433902D01*
X93199078Y-110518288D01*
X93370400Y-110491625D01*
X93370400Y-109601000D01*
X92479124Y-109601000D01*
X92453096Y-109772324D01*
X92091360Y-109772324D01*
X92151200Y-109471490D01*
X92151200Y-109425710D01*
X92077362Y-109054498D01*
X92171230Y-108960630D01*
X92278598Y-108799943D01*
X92296091Y-108711999D01*
X92692674Y-108711999D01*
X92658406Y-108740160D01*
X92658406Y-108740160D01*
G37*
X92658406Y-108740160D02*
X92453096Y-109124876D01*
X92479124Y-109296200D01*
X93370400Y-109296200D01*
X93370400Y-109276200D01*
X93675200Y-109276200D01*
X93675200Y-109296200D01*
X93695200Y-109296200D01*
X93695200Y-109601000D01*
X93675200Y-109601000D01*
X93675200Y-110491625D01*
X93846522Y-110518288D01*
X94050288Y-110433902D01*
X94387194Y-110157040D01*
X94538799Y-109872958D01*
X94538799Y-111423605D01*
X94348984Y-111139526D01*
X93969927Y-110886249D01*
X93522800Y-110797310D01*
X93113404Y-110878744D01*
X92077362Y-109842702D01*
X92091360Y-109772324D01*
X92453096Y-109772324D01*
X92658406Y-110157040D01*
X92995312Y-110433902D01*
X93199078Y-110518288D01*
X93370400Y-110491625D01*
X93370400Y-109601000D01*
X92479124Y-109601000D01*
X92453096Y-109772324D01*
X92091360Y-109772324D01*
X92151200Y-109471490D01*
X92151200Y-109425710D01*
X92077362Y-109054498D01*
X92171230Y-108960630D01*
X92278598Y-108799943D01*
X92296091Y-108711999D01*
X92692674Y-108711999D01*
X92658406Y-108740160D01*
G36*
X94391936Y-103617564D02*
X94367700Y-103676076D01*
X94367700Y-103910700D01*
X94431200Y-103974200D01*
X94844300Y-103974200D01*
X94844300Y-103954200D01*
X95149100Y-103954200D01*
X95149100Y-103974200D01*
X95169100Y-103974200D01*
X95169100Y-104279000D01*
X95149100Y-104279000D01*
X95149100Y-104717100D01*
X95212600Y-104780600D01*
X95422224Y-104780600D01*
X95515579Y-104741931D01*
X95515941Y-104741569D01*
X96212735Y-105438363D01*
X96066284Y-105584559D01*
X95974015Y-105806768D01*
X95973805Y-106047372D01*
X96065686Y-106269742D01*
X96172310Y-106376552D01*
X96172310Y-107110304D01*
X94657831Y-108624783D01*
X94569734Y-108756628D01*
X94538799Y-108912151D01*
X94538799Y-109024242D01*
X94387194Y-108740160D01*
X94238398Y-108617883D01*
X94314655Y-108566929D01*
X94704531Y-108177053D01*
X94811899Y-108016366D01*
X94849601Y-107826823D01*
X94849601Y-106337371D01*
X95371700Y-106337371D01*
X95490627Y-106313715D01*
X95591448Y-106246348D01*
X95658815Y-106145527D01*
X95682471Y-106026600D01*
X95682471Y-105226600D01*
X95658815Y-105107673D01*
X95591448Y-105006852D01*
X95490627Y-104939485D01*
X95371700Y-104915829D01*
X94621700Y-104915829D01*
X94502773Y-104939485D01*
X94401952Y-105006852D01*
X94374226Y-105048347D01*
X94253230Y-104998105D01*
X94027963Y-104997908D01*
X93940527Y-104939485D01*
X93821600Y-104915829D01*
X93164700Y-104915829D01*
X93164700Y-104780600D01*
X93230700Y-104780600D01*
X93294200Y-104717100D01*
X93294200Y-104279000D01*
X93599000Y-104279000D01*
X93599000Y-104717100D01*
X93662500Y-104780600D01*
X93872124Y-104780600D01*
X93965479Y-104741931D01*
X94036931Y-104670480D01*
X94075600Y-104577124D01*
X94075600Y-104342500D01*
X94367700Y-104342500D01*
X94367700Y-104577124D01*
X94406369Y-104670480D01*
X94477821Y-104741931D01*
X94571176Y-104780600D01*
X94780800Y-104780600D01*
X94844300Y-104717100D01*
X94844300Y-104279000D01*
X94431200Y-104279000D01*
X94367700Y-104342500D01*
X94075600Y-104342500D01*
X94012100Y-104279000D01*
X93599000Y-104279000D01*
X93294200Y-104279000D01*
X93274200Y-104279000D01*
X93274200Y-103974200D01*
X93294200Y-103974200D01*
X93294200Y-103536100D01*
X93599000Y-103536100D01*
X93599000Y-103974200D01*
X94012100Y-103974200D01*
X94075600Y-103910700D01*
X94075600Y-103676076D01*
X94036931Y-103582720D01*
X93965479Y-103511269D01*
X93872124Y-103472600D01*
X93662500Y-103472600D01*
X93599000Y-103536100D01*
X93294200Y-103536100D01*
X93230700Y-103472600D01*
X93216101Y-103472600D01*
X93289198Y-103423758D01*
X93356565Y-103322937D01*
X93380221Y-103204010D01*
X93380221Y-102605849D01*
X94391936Y-103617564D01*
X94391936Y-103617564D01*
G37*
X94391936Y-103617564D02*
X94367700Y-103676076D01*
X94367700Y-103910700D01*
X94431200Y-103974200D01*
X94844300Y-103974200D01*
X94844300Y-103954200D01*
X95149100Y-103954200D01*
X95149100Y-103974200D01*
X95169100Y-103974200D01*
X95169100Y-104279000D01*
X95149100Y-104279000D01*
X95149100Y-104717100D01*
X95212600Y-104780600D01*
X95422224Y-104780600D01*
X95515579Y-104741931D01*
X95515941Y-104741569D01*
X96212735Y-105438363D01*
X96066284Y-105584559D01*
X95974015Y-105806768D01*
X95973805Y-106047372D01*
X96065686Y-106269742D01*
X96172310Y-106376552D01*
X96172310Y-107110304D01*
X94657831Y-108624783D01*
X94569734Y-108756628D01*
X94538799Y-108912151D01*
X94538799Y-109024242D01*
X94387194Y-108740160D01*
X94238398Y-108617883D01*
X94314655Y-108566929D01*
X94704531Y-108177053D01*
X94811899Y-108016366D01*
X94849601Y-107826823D01*
X94849601Y-106337371D01*
X95371700Y-106337371D01*
X95490627Y-106313715D01*
X95591448Y-106246348D01*
X95658815Y-106145527D01*
X95682471Y-106026600D01*
X95682471Y-105226600D01*
X95658815Y-105107673D01*
X95591448Y-105006852D01*
X95490627Y-104939485D01*
X95371700Y-104915829D01*
X94621700Y-104915829D01*
X94502773Y-104939485D01*
X94401952Y-105006852D01*
X94374226Y-105048347D01*
X94253230Y-104998105D01*
X94027963Y-104997908D01*
X93940527Y-104939485D01*
X93821600Y-104915829D01*
X93164700Y-104915829D01*
X93164700Y-104780600D01*
X93230700Y-104780600D01*
X93294200Y-104717100D01*
X93294200Y-104279000D01*
X93599000Y-104279000D01*
X93599000Y-104717100D01*
X93662500Y-104780600D01*
X93872124Y-104780600D01*
X93965479Y-104741931D01*
X94036931Y-104670480D01*
X94075600Y-104577124D01*
X94075600Y-104342500D01*
X94367700Y-104342500D01*
X94367700Y-104577124D01*
X94406369Y-104670480D01*
X94477821Y-104741931D01*
X94571176Y-104780600D01*
X94780800Y-104780600D01*
X94844300Y-104717100D01*
X94844300Y-104279000D01*
X94431200Y-104279000D01*
X94367700Y-104342500D01*
X94075600Y-104342500D01*
X94012100Y-104279000D01*
X93599000Y-104279000D01*
X93294200Y-104279000D01*
X93274200Y-104279000D01*
X93274200Y-103974200D01*
X93294200Y-103974200D01*
X93294200Y-103536100D01*
X93599000Y-103536100D01*
X93599000Y-103974200D01*
X94012100Y-103974200D01*
X94075600Y-103910700D01*
X94075600Y-103676076D01*
X94036931Y-103582720D01*
X93965479Y-103511269D01*
X93872124Y-103472600D01*
X93662500Y-103472600D01*
X93599000Y-103536100D01*
X93294200Y-103536100D01*
X93230700Y-103472600D01*
X93216101Y-103472600D01*
X93289198Y-103423758D01*
X93356565Y-103322937D01*
X93380221Y-103204010D01*
X93380221Y-102605849D01*
X94391936Y-103617564D01*
G36*
X105836350Y-102224461D02*
X106560823Y-102224461D01*
X107338800Y-103002438D01*
X107338800Y-103360220D01*
X107358800Y-103360220D01*
X107358800Y-103665020D01*
X107338800Y-103665020D01*
X107338800Y-104103170D01*
X107402300Y-104166670D01*
X107636974Y-104166670D01*
X107713006Y-104135177D01*
X107713006Y-106883455D01*
X107695880Y-106900551D01*
X107603611Y-107122760D01*
X107603401Y-107363364D01*
X107695282Y-107585734D01*
X107865267Y-107756016D01*
X108087476Y-107848285D01*
X108229085Y-107848409D01*
X108292890Y-107861100D01*
X108482434Y-107823398D01*
X108602563Y-107743129D01*
X109204629Y-108345195D01*
X108762800Y-108257310D01*
X108315673Y-108346249D01*
X107936616Y-108599526D01*
X107772200Y-108845593D01*
X107772200Y-107873800D01*
X107741265Y-107718277D01*
X107653168Y-107586432D01*
X107569000Y-107502264D01*
X107569000Y-105034092D01*
X107538065Y-104878569D01*
X107449968Y-104746724D01*
X106869914Y-104166670D01*
X106970500Y-104166670D01*
X107034000Y-104103170D01*
X107034000Y-103665020D01*
X107014000Y-103665020D01*
X107014000Y-103360220D01*
X107034000Y-103360220D01*
X107034000Y-102922070D01*
X106970500Y-102858570D01*
X106735826Y-102858570D01*
X106642470Y-102897239D01*
X106571019Y-102968691D01*
X106549048Y-103021734D01*
X105730775Y-102203461D01*
X105836350Y-102224461D01*
X105836350Y-102224461D01*
G37*
X105836350Y-102224461D02*
X106560823Y-102224461D01*
X107338800Y-103002438D01*
X107338800Y-103360220D01*
X107358800Y-103360220D01*
X107358800Y-103665020D01*
X107338800Y-103665020D01*
X107338800Y-104103170D01*
X107402300Y-104166670D01*
X107636974Y-104166670D01*
X107713006Y-104135177D01*
X107713006Y-106883455D01*
X107695880Y-106900551D01*
X107603611Y-107122760D01*
X107603401Y-107363364D01*
X107695282Y-107585734D01*
X107865267Y-107756016D01*
X108087476Y-107848285D01*
X108229085Y-107848409D01*
X108292890Y-107861100D01*
X108482434Y-107823398D01*
X108602563Y-107743129D01*
X109204629Y-108345195D01*
X108762800Y-108257310D01*
X108315673Y-108346249D01*
X107936616Y-108599526D01*
X107772200Y-108845593D01*
X107772200Y-107873800D01*
X107741265Y-107718277D01*
X107653168Y-107586432D01*
X107569000Y-107502264D01*
X107569000Y-105034092D01*
X107538065Y-104878569D01*
X107449968Y-104746724D01*
X106869914Y-104166670D01*
X106970500Y-104166670D01*
X107034000Y-104103170D01*
X107034000Y-103665020D01*
X107014000Y-103665020D01*
X107014000Y-103360220D01*
X107034000Y-103360220D01*
X107034000Y-102922070D01*
X106970500Y-102858570D01*
X106735826Y-102858570D01*
X106642470Y-102897239D01*
X106571019Y-102968691D01*
X106549048Y-103021734D01*
X105730775Y-102203461D01*
X105836350Y-102224461D01*
G36*
X93914529Y-90543800D02*
X93938185Y-90662727D01*
X94005552Y-90763548D01*
X94106373Y-90830915D01*
X94225300Y-90854571D01*
X94547735Y-90854571D01*
X94633133Y-90939969D01*
X94764978Y-91028066D01*
X94920501Y-91059001D01*
X95103787Y-91059001D01*
X95348530Y-91303744D01*
X95362672Y-91289601D01*
X95578199Y-91505128D01*
X95564056Y-91519270D01*
X95856162Y-91811376D01*
X95945965Y-91811376D01*
X96111869Y-91645472D01*
X96150538Y-91552116D01*
X96150538Y-91451068D01*
X96111869Y-91357713D01*
X96040417Y-91286261D01*
X95963642Y-91209487D01*
X95873842Y-91209487D01*
X95918742Y-91164587D01*
X95813156Y-91059001D01*
X96710761Y-91059001D01*
X96877883Y-91226123D01*
X96847928Y-91238531D01*
X96682024Y-91404435D01*
X96682024Y-91494238D01*
X96974130Y-91786344D01*
X96988273Y-91772202D01*
X97203799Y-91987728D01*
X97189656Y-92001870D01*
X97203799Y-92016013D01*
X96988273Y-92231539D01*
X96974130Y-92217396D01*
X96664347Y-92527180D01*
X96664347Y-92616982D01*
X96741121Y-92693757D01*
X96812573Y-92765209D01*
X96905928Y-92803878D01*
X97006976Y-92803878D01*
X97100332Y-92765209D01*
X97266236Y-92599305D01*
X97266236Y-92509505D01*
X97311136Y-92554405D01*
X97395148Y-92470393D01*
X97395148Y-92675492D01*
X97426083Y-92831015D01*
X97502886Y-92945957D01*
X97514180Y-92962860D01*
X97598261Y-93046941D01*
X97583882Y-93119226D01*
X97564753Y-93127150D01*
X97476701Y-93215202D01*
X97476701Y-93305005D01*
X98069327Y-93897631D01*
X98094006Y-93872953D01*
X98309532Y-94088479D01*
X98284853Y-94113157D01*
X98877479Y-94705783D01*
X98967282Y-94705783D01*
X99055334Y-94617731D01*
X99063258Y-94598602D01*
X99135706Y-94584191D01*
X99236527Y-94516824D01*
X99625436Y-94127915D01*
X99692803Y-94027094D01*
X99694228Y-94019931D01*
X99701392Y-94018506D01*
X99802213Y-93951139D01*
X100191122Y-93562230D01*
X100258489Y-93461409D01*
X100259914Y-93454245D01*
X100267077Y-93452820D01*
X100367898Y-93385453D01*
X100554991Y-93198361D01*
X101251644Y-93895014D01*
X101383489Y-93983111D01*
X101539012Y-94014046D01*
X101756819Y-94014046D01*
X101864366Y-93992654D01*
X101902779Y-94018321D01*
X101495688Y-94425412D01*
X101407591Y-94557257D01*
X101376656Y-94712780D01*
X101376656Y-94755602D01*
X101270630Y-94861443D01*
X101178361Y-95083652D01*
X101178151Y-95324256D01*
X101270032Y-95546626D01*
X101440017Y-95716908D01*
X101662226Y-95809177D01*
X101902830Y-95809387D01*
X102125200Y-95717506D01*
X102272012Y-95570950D01*
X102331237Y-95595543D01*
X102303405Y-95662570D01*
X102303195Y-95903174D01*
X102395076Y-96125544D01*
X102565061Y-96295826D01*
X102787270Y-96388095D01*
X103027874Y-96388305D01*
X103099269Y-96358805D01*
X104228900Y-97488436D01*
X104228900Y-97862964D01*
X102646132Y-99445732D01*
X102558035Y-99577577D01*
X102527100Y-99733100D01*
X102527100Y-100070186D01*
X102533827Y-100104004D01*
X102477330Y-100188557D01*
X102475905Y-100195720D01*
X102468742Y-100197145D01*
X102367921Y-100264512D01*
X101979012Y-100653421D01*
X101911645Y-100754242D01*
X101897234Y-100826690D01*
X101878104Y-100834614D01*
X101790052Y-100922666D01*
X101790052Y-101012469D01*
X102382678Y-101605095D01*
X102407357Y-101580417D01*
X102622883Y-101795943D01*
X102598204Y-101820621D01*
X103112471Y-102334888D01*
X103108224Y-102339135D01*
X103108224Y-102428938D01*
X103400330Y-102721044D01*
X103414473Y-102706902D01*
X103629999Y-102922428D01*
X103615856Y-102936570D01*
X103907962Y-103228676D01*
X103997765Y-103228676D01*
X104047779Y-103178663D01*
X104174238Y-103305122D01*
X104133854Y-103345505D01*
X104133854Y-103435308D01*
X104425960Y-103727414D01*
X104440103Y-103713272D01*
X104655629Y-103928798D01*
X104641486Y-103942940D01*
X104871802Y-104173256D01*
X104871802Y-107087632D01*
X104846790Y-107062576D01*
X104624581Y-106970307D01*
X104599494Y-106970285D01*
X104460171Y-106830962D01*
X104460171Y-106331600D01*
X104436515Y-106212673D01*
X104369148Y-106111852D01*
X104268327Y-106044485D01*
X104149400Y-106020829D01*
X103649400Y-106020829D01*
X103530473Y-106044485D01*
X103429652Y-106111852D01*
X103362285Y-106212673D01*
X103338629Y-106331600D01*
X103338629Y-107231600D01*
X103362285Y-107350527D01*
X103429652Y-107451348D01*
X103530473Y-107518715D01*
X103649400Y-107542371D01*
X103770660Y-107542371D01*
X103898867Y-107670578D01*
X103898846Y-107694776D01*
X103980963Y-107893516D01*
X103955928Y-107888536D01*
X102913372Y-107888536D01*
X102567207Y-107542371D01*
X102649400Y-107542371D01*
X102768327Y-107518715D01*
X102869148Y-107451348D01*
X102936515Y-107350527D01*
X102960171Y-107231600D01*
X102960171Y-106331600D01*
X102936515Y-106212673D01*
X102894700Y-106150093D01*
X102894700Y-106034960D01*
X103146115Y-105783545D01*
X103228695Y-105838723D01*
X103347622Y-105862379D01*
X103466549Y-105838723D01*
X103567370Y-105771356D01*
X104133056Y-105205670D01*
X104200423Y-105104849D01*
X104224079Y-104985922D01*
X104200423Y-104866995D01*
X104133056Y-104766174D01*
X103835132Y-104468250D01*
X104116177Y-104468250D01*
X104116177Y-104558052D01*
X104192951Y-104634827D01*
X104264403Y-104706279D01*
X104357758Y-104744948D01*
X104458806Y-104744948D01*
X104552162Y-104706279D01*
X104718066Y-104540375D01*
X104718066Y-104450572D01*
X104425960Y-104158466D01*
X104116177Y-104468250D01*
X103835132Y-104468250D01*
X103602726Y-104235844D01*
X103501905Y-104168477D01*
X103382978Y-104144821D01*
X103264051Y-104168477D01*
X103224862Y-104194662D01*
X103156322Y-104126122D01*
X103174793Y-104098479D01*
X103198449Y-103979552D01*
X103184633Y-103910094D01*
X103623952Y-103910094D01*
X103623952Y-104011142D01*
X103662621Y-104104497D01*
X103734073Y-104175949D01*
X103810848Y-104252723D01*
X103900650Y-104252723D01*
X104210434Y-103942940D01*
X103918328Y-103650834D01*
X103828525Y-103650834D01*
X103662621Y-103816738D01*
X103623952Y-103910094D01*
X103184633Y-103910094D01*
X103174793Y-103860625D01*
X103107426Y-103759804D01*
X102809502Y-103461880D01*
X103090547Y-103461880D01*
X103090547Y-103551682D01*
X103167321Y-103628457D01*
X103238773Y-103699909D01*
X103332128Y-103738578D01*
X103433176Y-103738578D01*
X103526532Y-103699909D01*
X103692436Y-103534005D01*
X103692436Y-103444202D01*
X103400330Y-103152096D01*
X103090547Y-103461880D01*
X102809502Y-103461880D01*
X102733370Y-103385748D01*
X102733370Y-103194506D01*
X102785218Y-103246353D01*
X102875020Y-103246353D01*
X103184804Y-102936570D01*
X102971057Y-102722823D01*
X102996376Y-102697504D01*
X102996376Y-102607701D01*
X102403750Y-102015075D01*
X102379072Y-102039754D01*
X102163546Y-101824228D01*
X102188224Y-101799549D01*
X101595598Y-101206923D01*
X101505795Y-101206923D01*
X101417743Y-101294975D01*
X101409819Y-101314105D01*
X101337371Y-101328516D01*
X101236550Y-101395883D01*
X100847641Y-101784792D01*
X100802224Y-101852763D01*
X100756807Y-101784792D01*
X100367898Y-101395883D01*
X100267077Y-101328516D01*
X100259914Y-101327091D01*
X100258489Y-101319927D01*
X100191122Y-101219106D01*
X99802213Y-100830197D01*
X99701392Y-100762830D01*
X99694228Y-100761405D01*
X99692803Y-100754242D01*
X99625436Y-100653421D01*
X99236527Y-100264512D01*
X99135706Y-100197145D01*
X99128543Y-100195720D01*
X99127118Y-100188557D01*
X99059751Y-100087736D01*
X98670842Y-99698827D01*
X98570021Y-99631460D01*
X98562857Y-99630035D01*
X98561432Y-99622871D01*
X98494065Y-99522050D01*
X98105156Y-99133141D01*
X98004335Y-99065774D01*
X97997172Y-99064349D01*
X97995747Y-99057186D01*
X97928380Y-98956365D01*
X97539471Y-98567456D01*
X97438650Y-98500089D01*
X97431487Y-98498664D01*
X97430062Y-98491500D01*
X97362695Y-98390679D01*
X96973786Y-98001770D01*
X96872965Y-97934403D01*
X96865801Y-97932978D01*
X96864376Y-97925815D01*
X96797009Y-97824994D01*
X96408100Y-97436085D01*
X96340129Y-97390668D01*
X96408100Y-97345251D01*
X96797009Y-96956342D01*
X96864376Y-96855521D01*
X96865801Y-96848358D01*
X96872965Y-96846933D01*
X96973786Y-96779566D01*
X97362695Y-96390657D01*
X97430062Y-96289836D01*
X97431487Y-96282672D01*
X97438650Y-96281247D01*
X97539471Y-96213880D01*
X97928380Y-95824971D01*
X97995747Y-95724150D01*
X97997172Y-95716987D01*
X98004335Y-95715562D01*
X98105156Y-95648195D01*
X98494065Y-95259286D01*
X98561432Y-95158465D01*
X98575843Y-95086016D01*
X98594973Y-95078092D01*
X98683025Y-94990040D01*
X98683025Y-94900237D01*
X98090399Y-94307611D01*
X98065721Y-94332290D01*
X97850195Y-94116764D01*
X97874873Y-94092085D01*
X97282247Y-93499459D01*
X97192444Y-93499459D01*
X97127839Y-93564065D01*
X96740166Y-93176392D01*
X96748593Y-93163779D01*
X96772249Y-93044852D01*
X96748593Y-92925925D01*
X96681226Y-92825104D01*
X96150896Y-92294774D01*
X96050075Y-92227407D01*
X95931148Y-92203751D01*
X95812221Y-92227407D01*
X95711400Y-92294774D01*
X95219289Y-92786885D01*
X95119224Y-92686820D01*
X95122993Y-92681179D01*
X95146649Y-92562252D01*
X95122993Y-92443325D01*
X95055626Y-92342504D01*
X94757702Y-92044580D01*
X95038747Y-92044580D01*
X95038747Y-92134382D01*
X95115521Y-92211157D01*
X95186973Y-92282609D01*
X95280328Y-92321278D01*
X95381376Y-92321278D01*
X95474732Y-92282609D01*
X95640636Y-92116705D01*
X95640636Y-92026902D01*
X95582758Y-91969024D01*
X96172122Y-91969024D01*
X96172122Y-92070072D01*
X96210791Y-92163427D01*
X96282243Y-92234879D01*
X96359018Y-92311653D01*
X96448820Y-92311653D01*
X96758604Y-92001870D01*
X96466498Y-91709764D01*
X96376695Y-91709764D01*
X96210791Y-91875668D01*
X96172122Y-91969024D01*
X95582758Y-91969024D01*
X95348530Y-91734796D01*
X95038747Y-92044580D01*
X94757702Y-92044580D01*
X94525296Y-91812174D01*
X94424475Y-91744807D01*
X94305548Y-91721151D01*
X94186621Y-91744807D01*
X94166591Y-91758191D01*
X94142922Y-91734522D01*
X93982236Y-91627154D01*
X93792692Y-91589452D01*
X92825887Y-91589452D01*
X92808791Y-91572326D01*
X92601916Y-91486424D01*
X94546522Y-91486424D01*
X94546522Y-91587472D01*
X94585191Y-91680827D01*
X94656643Y-91752279D01*
X94733418Y-91829053D01*
X94823220Y-91829053D01*
X95133004Y-91519270D01*
X94840898Y-91227164D01*
X94751095Y-91227164D01*
X94585191Y-91393068D01*
X94546522Y-91486424D01*
X92601916Y-91486424D01*
X92586582Y-91480057D01*
X92438300Y-91479928D01*
X92438300Y-91401900D01*
X92374802Y-91338402D01*
X92438300Y-91338402D01*
X92438300Y-91203473D01*
X92541998Y-91224100D01*
X93408602Y-91224100D01*
X93564125Y-91193165D01*
X93695970Y-91105068D01*
X93784768Y-91016270D01*
X93872865Y-90884425D01*
X93877420Y-90861524D01*
X93903800Y-90728902D01*
X93903800Y-90147034D01*
X93914529Y-90136305D01*
X93914529Y-90543800D01*
X93914529Y-90543800D01*
G37*
X93914529Y-90543800D02*
X93938185Y-90662727D01*
X94005552Y-90763548D01*
X94106373Y-90830915D01*
X94225300Y-90854571D01*
X94547735Y-90854571D01*
X94633133Y-90939969D01*
X94764978Y-91028066D01*
X94920501Y-91059001D01*
X95103787Y-91059001D01*
X95348530Y-91303744D01*
X95362672Y-91289601D01*
X95578199Y-91505128D01*
X95564056Y-91519270D01*
X95856162Y-91811376D01*
X95945965Y-91811376D01*
X96111869Y-91645472D01*
X96150538Y-91552116D01*
X96150538Y-91451068D01*
X96111869Y-91357713D01*
X96040417Y-91286261D01*
X95963642Y-91209487D01*
X95873842Y-91209487D01*
X95918742Y-91164587D01*
X95813156Y-91059001D01*
X96710761Y-91059001D01*
X96877883Y-91226123D01*
X96847928Y-91238531D01*
X96682024Y-91404435D01*
X96682024Y-91494238D01*
X96974130Y-91786344D01*
X96988273Y-91772202D01*
X97203799Y-91987728D01*
X97189656Y-92001870D01*
X97203799Y-92016013D01*
X96988273Y-92231539D01*
X96974130Y-92217396D01*
X96664347Y-92527180D01*
X96664347Y-92616982D01*
X96741121Y-92693757D01*
X96812573Y-92765209D01*
X96905928Y-92803878D01*
X97006976Y-92803878D01*
X97100332Y-92765209D01*
X97266236Y-92599305D01*
X97266236Y-92509505D01*
X97311136Y-92554405D01*
X97395148Y-92470393D01*
X97395148Y-92675492D01*
X97426083Y-92831015D01*
X97502886Y-92945957D01*
X97514180Y-92962860D01*
X97598261Y-93046941D01*
X97583882Y-93119226D01*
X97564753Y-93127150D01*
X97476701Y-93215202D01*
X97476701Y-93305005D01*
X98069327Y-93897631D01*
X98094006Y-93872953D01*
X98309532Y-94088479D01*
X98284853Y-94113157D01*
X98877479Y-94705783D01*
X98967282Y-94705783D01*
X99055334Y-94617731D01*
X99063258Y-94598602D01*
X99135706Y-94584191D01*
X99236527Y-94516824D01*
X99625436Y-94127915D01*
X99692803Y-94027094D01*
X99694228Y-94019931D01*
X99701392Y-94018506D01*
X99802213Y-93951139D01*
X100191122Y-93562230D01*
X100258489Y-93461409D01*
X100259914Y-93454245D01*
X100267077Y-93452820D01*
X100367898Y-93385453D01*
X100554991Y-93198361D01*
X101251644Y-93895014D01*
X101383489Y-93983111D01*
X101539012Y-94014046D01*
X101756819Y-94014046D01*
X101864366Y-93992654D01*
X101902779Y-94018321D01*
X101495688Y-94425412D01*
X101407591Y-94557257D01*
X101376656Y-94712780D01*
X101376656Y-94755602D01*
X101270630Y-94861443D01*
X101178361Y-95083652D01*
X101178151Y-95324256D01*
X101270032Y-95546626D01*
X101440017Y-95716908D01*
X101662226Y-95809177D01*
X101902830Y-95809387D01*
X102125200Y-95717506D01*
X102272012Y-95570950D01*
X102331237Y-95595543D01*
X102303405Y-95662570D01*
X102303195Y-95903174D01*
X102395076Y-96125544D01*
X102565061Y-96295826D01*
X102787270Y-96388095D01*
X103027874Y-96388305D01*
X103099269Y-96358805D01*
X104228900Y-97488436D01*
X104228900Y-97862964D01*
X102646132Y-99445732D01*
X102558035Y-99577577D01*
X102527100Y-99733100D01*
X102527100Y-100070186D01*
X102533827Y-100104004D01*
X102477330Y-100188557D01*
X102475905Y-100195720D01*
X102468742Y-100197145D01*
X102367921Y-100264512D01*
X101979012Y-100653421D01*
X101911645Y-100754242D01*
X101897234Y-100826690D01*
X101878104Y-100834614D01*
X101790052Y-100922666D01*
X101790052Y-101012469D01*
X102382678Y-101605095D01*
X102407357Y-101580417D01*
X102622883Y-101795943D01*
X102598204Y-101820621D01*
X103112471Y-102334888D01*
X103108224Y-102339135D01*
X103108224Y-102428938D01*
X103400330Y-102721044D01*
X103414473Y-102706902D01*
X103629999Y-102922428D01*
X103615856Y-102936570D01*
X103907962Y-103228676D01*
X103997765Y-103228676D01*
X104047779Y-103178663D01*
X104174238Y-103305122D01*
X104133854Y-103345505D01*
X104133854Y-103435308D01*
X104425960Y-103727414D01*
X104440103Y-103713272D01*
X104655629Y-103928798D01*
X104641486Y-103942940D01*
X104871802Y-104173256D01*
X104871802Y-107087632D01*
X104846790Y-107062576D01*
X104624581Y-106970307D01*
X104599494Y-106970285D01*
X104460171Y-106830962D01*
X104460171Y-106331600D01*
X104436515Y-106212673D01*
X104369148Y-106111852D01*
X104268327Y-106044485D01*
X104149400Y-106020829D01*
X103649400Y-106020829D01*
X103530473Y-106044485D01*
X103429652Y-106111852D01*
X103362285Y-106212673D01*
X103338629Y-106331600D01*
X103338629Y-107231600D01*
X103362285Y-107350527D01*
X103429652Y-107451348D01*
X103530473Y-107518715D01*
X103649400Y-107542371D01*
X103770660Y-107542371D01*
X103898867Y-107670578D01*
X103898846Y-107694776D01*
X103980963Y-107893516D01*
X103955928Y-107888536D01*
X102913372Y-107888536D01*
X102567207Y-107542371D01*
X102649400Y-107542371D01*
X102768327Y-107518715D01*
X102869148Y-107451348D01*
X102936515Y-107350527D01*
X102960171Y-107231600D01*
X102960171Y-106331600D01*
X102936515Y-106212673D01*
X102894700Y-106150093D01*
X102894700Y-106034960D01*
X103146115Y-105783545D01*
X103228695Y-105838723D01*
X103347622Y-105862379D01*
X103466549Y-105838723D01*
X103567370Y-105771356D01*
X104133056Y-105205670D01*
X104200423Y-105104849D01*
X104224079Y-104985922D01*
X104200423Y-104866995D01*
X104133056Y-104766174D01*
X103835132Y-104468250D01*
X104116177Y-104468250D01*
X104116177Y-104558052D01*
X104192951Y-104634827D01*
X104264403Y-104706279D01*
X104357758Y-104744948D01*
X104458806Y-104744948D01*
X104552162Y-104706279D01*
X104718066Y-104540375D01*
X104718066Y-104450572D01*
X104425960Y-104158466D01*
X104116177Y-104468250D01*
X103835132Y-104468250D01*
X103602726Y-104235844D01*
X103501905Y-104168477D01*
X103382978Y-104144821D01*
X103264051Y-104168477D01*
X103224862Y-104194662D01*
X103156322Y-104126122D01*
X103174793Y-104098479D01*
X103198449Y-103979552D01*
X103184633Y-103910094D01*
X103623952Y-103910094D01*
X103623952Y-104011142D01*
X103662621Y-104104497D01*
X103734073Y-104175949D01*
X103810848Y-104252723D01*
X103900650Y-104252723D01*
X104210434Y-103942940D01*
X103918328Y-103650834D01*
X103828525Y-103650834D01*
X103662621Y-103816738D01*
X103623952Y-103910094D01*
X103184633Y-103910094D01*
X103174793Y-103860625D01*
X103107426Y-103759804D01*
X102809502Y-103461880D01*
X103090547Y-103461880D01*
X103090547Y-103551682D01*
X103167321Y-103628457D01*
X103238773Y-103699909D01*
X103332128Y-103738578D01*
X103433176Y-103738578D01*
X103526532Y-103699909D01*
X103692436Y-103534005D01*
X103692436Y-103444202D01*
X103400330Y-103152096D01*
X103090547Y-103461880D01*
X102809502Y-103461880D01*
X102733370Y-103385748D01*
X102733370Y-103194506D01*
X102785218Y-103246353D01*
X102875020Y-103246353D01*
X103184804Y-102936570D01*
X102971057Y-102722823D01*
X102996376Y-102697504D01*
X102996376Y-102607701D01*
X102403750Y-102015075D01*
X102379072Y-102039754D01*
X102163546Y-101824228D01*
X102188224Y-101799549D01*
X101595598Y-101206923D01*
X101505795Y-101206923D01*
X101417743Y-101294975D01*
X101409819Y-101314105D01*
X101337371Y-101328516D01*
X101236550Y-101395883D01*
X100847641Y-101784792D01*
X100802224Y-101852763D01*
X100756807Y-101784792D01*
X100367898Y-101395883D01*
X100267077Y-101328516D01*
X100259914Y-101327091D01*
X100258489Y-101319927D01*
X100191122Y-101219106D01*
X99802213Y-100830197D01*
X99701392Y-100762830D01*
X99694228Y-100761405D01*
X99692803Y-100754242D01*
X99625436Y-100653421D01*
X99236527Y-100264512D01*
X99135706Y-100197145D01*
X99128543Y-100195720D01*
X99127118Y-100188557D01*
X99059751Y-100087736D01*
X98670842Y-99698827D01*
X98570021Y-99631460D01*
X98562857Y-99630035D01*
X98561432Y-99622871D01*
X98494065Y-99522050D01*
X98105156Y-99133141D01*
X98004335Y-99065774D01*
X97997172Y-99064349D01*
X97995747Y-99057186D01*
X97928380Y-98956365D01*
X97539471Y-98567456D01*
X97438650Y-98500089D01*
X97431487Y-98498664D01*
X97430062Y-98491500D01*
X97362695Y-98390679D01*
X96973786Y-98001770D01*
X96872965Y-97934403D01*
X96865801Y-97932978D01*
X96864376Y-97925815D01*
X96797009Y-97824994D01*
X96408100Y-97436085D01*
X96340129Y-97390668D01*
X96408100Y-97345251D01*
X96797009Y-96956342D01*
X96864376Y-96855521D01*
X96865801Y-96848358D01*
X96872965Y-96846933D01*
X96973786Y-96779566D01*
X97362695Y-96390657D01*
X97430062Y-96289836D01*
X97431487Y-96282672D01*
X97438650Y-96281247D01*
X97539471Y-96213880D01*
X97928380Y-95824971D01*
X97995747Y-95724150D01*
X97997172Y-95716987D01*
X98004335Y-95715562D01*
X98105156Y-95648195D01*
X98494065Y-95259286D01*
X98561432Y-95158465D01*
X98575843Y-95086016D01*
X98594973Y-95078092D01*
X98683025Y-94990040D01*
X98683025Y-94900237D01*
X98090399Y-94307611D01*
X98065721Y-94332290D01*
X97850195Y-94116764D01*
X97874873Y-94092085D01*
X97282247Y-93499459D01*
X97192444Y-93499459D01*
X97127839Y-93564065D01*
X96740166Y-93176392D01*
X96748593Y-93163779D01*
X96772249Y-93044852D01*
X96748593Y-92925925D01*
X96681226Y-92825104D01*
X96150896Y-92294774D01*
X96050075Y-92227407D01*
X95931148Y-92203751D01*
X95812221Y-92227407D01*
X95711400Y-92294774D01*
X95219289Y-92786885D01*
X95119224Y-92686820D01*
X95122993Y-92681179D01*
X95146649Y-92562252D01*
X95122993Y-92443325D01*
X95055626Y-92342504D01*
X94757702Y-92044580D01*
X95038747Y-92044580D01*
X95038747Y-92134382D01*
X95115521Y-92211157D01*
X95186973Y-92282609D01*
X95280328Y-92321278D01*
X95381376Y-92321278D01*
X95474732Y-92282609D01*
X95640636Y-92116705D01*
X95640636Y-92026902D01*
X95582758Y-91969024D01*
X96172122Y-91969024D01*
X96172122Y-92070072D01*
X96210791Y-92163427D01*
X96282243Y-92234879D01*
X96359018Y-92311653D01*
X96448820Y-92311653D01*
X96758604Y-92001870D01*
X96466498Y-91709764D01*
X96376695Y-91709764D01*
X96210791Y-91875668D01*
X96172122Y-91969024D01*
X95582758Y-91969024D01*
X95348530Y-91734796D01*
X95038747Y-92044580D01*
X94757702Y-92044580D01*
X94525296Y-91812174D01*
X94424475Y-91744807D01*
X94305548Y-91721151D01*
X94186621Y-91744807D01*
X94166591Y-91758191D01*
X94142922Y-91734522D01*
X93982236Y-91627154D01*
X93792692Y-91589452D01*
X92825887Y-91589452D01*
X92808791Y-91572326D01*
X92601916Y-91486424D01*
X94546522Y-91486424D01*
X94546522Y-91587472D01*
X94585191Y-91680827D01*
X94656643Y-91752279D01*
X94733418Y-91829053D01*
X94823220Y-91829053D01*
X95133004Y-91519270D01*
X94840898Y-91227164D01*
X94751095Y-91227164D01*
X94585191Y-91393068D01*
X94546522Y-91486424D01*
X92601916Y-91486424D01*
X92586582Y-91480057D01*
X92438300Y-91479928D01*
X92438300Y-91401900D01*
X92374802Y-91338402D01*
X92438300Y-91338402D01*
X92438300Y-91203473D01*
X92541998Y-91224100D01*
X93408602Y-91224100D01*
X93564125Y-91193165D01*
X93695970Y-91105068D01*
X93784768Y-91016270D01*
X93872865Y-90884425D01*
X93877420Y-90861524D01*
X93903800Y-90728902D01*
X93903800Y-90147034D01*
X93914529Y-90136305D01*
X93914529Y-90543800D01*
G36*
X99106002Y-105823384D02*
X99106002Y-106992978D01*
X98778147Y-107320833D01*
X98691839Y-107234374D01*
X98469630Y-107142105D01*
X98229026Y-107141895D01*
X98022394Y-107227273D01*
X98043971Y-107118800D01*
X98043971Y-106318800D01*
X98020315Y-106199873D01*
X97952948Y-106099052D01*
X97852127Y-106031685D01*
X97733200Y-106008029D01*
X97183440Y-106008029D01*
X97183509Y-105929571D01*
X97733200Y-105929571D01*
X97852127Y-105905915D01*
X97952948Y-105838548D01*
X98020315Y-105737727D01*
X98043971Y-105618800D01*
X98043971Y-104818800D01*
X98029707Y-104747088D01*
X99106002Y-105823384D01*
X99106002Y-105823384D01*
G37*
X99106002Y-105823384D02*
X99106002Y-106992978D01*
X98778147Y-107320833D01*
X98691839Y-107234374D01*
X98469630Y-107142105D01*
X98229026Y-107141895D01*
X98022394Y-107227273D01*
X98043971Y-107118800D01*
X98043971Y-106318800D01*
X98020315Y-106199873D01*
X97952948Y-106099052D01*
X97852127Y-106031685D01*
X97733200Y-106008029D01*
X97183440Y-106008029D01*
X97183509Y-105929571D01*
X97733200Y-105929571D01*
X97852127Y-105905915D01*
X97952948Y-105838548D01*
X98020315Y-105737727D01*
X98043971Y-105618800D01*
X98043971Y-104818800D01*
X98029707Y-104747088D01*
X99106002Y-105823384D01*
G36*
X100847641Y-102224288D02*
X101742770Y-103119417D01*
X101742770Y-103624304D01*
X101571914Y-103795160D01*
X101504547Y-103895981D01*
X101480891Y-104014908D01*
X101504547Y-104133835D01*
X101571914Y-104234656D01*
X102102244Y-104764986D01*
X102203065Y-104832353D01*
X102321992Y-104856009D01*
X102440919Y-104832353D01*
X102453336Y-104824056D01*
X102530759Y-104901479D01*
X102530177Y-104902351D01*
X102506521Y-105021278D01*
X102506677Y-105022063D01*
X102049170Y-105479570D01*
X101941802Y-105640256D01*
X101904100Y-105829800D01*
X101904100Y-106150093D01*
X101862285Y-106212673D01*
X101838629Y-106331600D01*
X101838629Y-106813793D01*
X101696857Y-106672021D01*
X101696857Y-105867200D01*
X101696854Y-105867185D01*
X101696854Y-104861731D01*
X101685596Y-104805132D01*
X101665920Y-104706209D01*
X101577823Y-104574364D01*
X101161201Y-104157739D01*
X101115188Y-104126994D01*
X100183319Y-103195125D01*
X100183319Y-102797776D01*
X100756807Y-102224288D01*
X100802224Y-102156317D01*
X100847641Y-102224288D01*
X100847641Y-102224288D01*
G37*
X100847641Y-102224288D02*
X101742770Y-103119417D01*
X101742770Y-103624304D01*
X101571914Y-103795160D01*
X101504547Y-103895981D01*
X101480891Y-104014908D01*
X101504547Y-104133835D01*
X101571914Y-104234656D01*
X102102244Y-104764986D01*
X102203065Y-104832353D01*
X102321992Y-104856009D01*
X102440919Y-104832353D01*
X102453336Y-104824056D01*
X102530759Y-104901479D01*
X102530177Y-104902351D01*
X102506521Y-105021278D01*
X102506677Y-105022063D01*
X102049170Y-105479570D01*
X101941802Y-105640256D01*
X101904100Y-105829800D01*
X101904100Y-106150093D01*
X101862285Y-106212673D01*
X101838629Y-106331600D01*
X101838629Y-106813793D01*
X101696857Y-106672021D01*
X101696857Y-105867200D01*
X101696854Y-105867185D01*
X101696854Y-104861731D01*
X101685596Y-104805132D01*
X101665920Y-104706209D01*
X101577823Y-104574364D01*
X101161201Y-104157739D01*
X101115188Y-104126994D01*
X100183319Y-103195125D01*
X100183319Y-102797776D01*
X100756807Y-102224288D01*
X100802224Y-102156317D01*
X100847641Y-102224288D01*
G36*
X92867511Y-102093139D02*
X92269350Y-102093139D01*
X92150423Y-102116795D01*
X92049602Y-102184162D01*
X91982235Y-102284983D01*
X91958579Y-102403910D01*
X91958579Y-103204010D01*
X91982235Y-103322937D01*
X92049602Y-103423758D01*
X92150423Y-103491125D01*
X92174100Y-103495835D01*
X92174100Y-103675690D01*
X92162079Y-103663669D01*
X92068724Y-103625000D01*
X91859100Y-103625000D01*
X91795600Y-103688500D01*
X91795600Y-104126600D01*
X91815600Y-104126600D01*
X91815600Y-104431400D01*
X91795600Y-104431400D01*
X91795600Y-104869500D01*
X91859100Y-104933000D01*
X92068724Y-104933000D01*
X92162079Y-104894331D01*
X92174100Y-104882310D01*
X92174100Y-105116590D01*
X92137127Y-105091885D01*
X92018200Y-105068229D01*
X91268200Y-105068229D01*
X91149273Y-105091885D01*
X91064971Y-105148214D01*
X91064971Y-105046500D01*
X91041315Y-104927573D01*
X91024228Y-104902000D01*
X91041315Y-104876427D01*
X91052259Y-104821407D01*
X91052869Y-104822880D01*
X91124321Y-104894331D01*
X91217676Y-104933000D01*
X91427300Y-104933000D01*
X91490800Y-104869500D01*
X91490800Y-104431400D01*
X91470800Y-104431400D01*
X91470800Y-104126600D01*
X91490800Y-104126600D01*
X91490800Y-103688500D01*
X91427300Y-103625000D01*
X91217676Y-103625000D01*
X91124321Y-103663669D01*
X91052869Y-103735120D01*
X91014200Y-103828476D01*
X91014200Y-103896363D01*
X90987462Y-103761942D01*
X90784381Y-103458010D01*
X90921802Y-103458010D01*
X90921802Y-103394512D01*
X90985300Y-103458010D01*
X91219974Y-103458010D01*
X91313330Y-103419341D01*
X91384781Y-103347889D01*
X91423450Y-103254534D01*
X91423450Y-103019860D01*
X91359950Y-102956360D01*
X90921800Y-102956360D01*
X90921800Y-102976360D01*
X90617000Y-102976360D01*
X90617000Y-102956360D01*
X90597000Y-102956360D01*
X90597000Y-102651560D01*
X90617000Y-102651560D01*
X90617000Y-102297960D01*
X90701550Y-102213410D01*
X90921800Y-102213410D01*
X90921800Y-102651560D01*
X91359950Y-102651560D01*
X91423450Y-102588060D01*
X91423450Y-102353386D01*
X91384781Y-102260031D01*
X91313330Y-102188579D01*
X91219974Y-102149910D01*
X90985300Y-102149910D01*
X90921800Y-102213410D01*
X90701550Y-102213410D01*
X91314960Y-101600000D01*
X91419680Y-101600000D01*
X91609224Y-101562298D01*
X91678811Y-101515801D01*
X92119450Y-101515801D01*
X92238377Y-101492145D01*
X92255246Y-101480874D01*
X92867511Y-102093139D01*
X92867511Y-102093139D01*
G37*
X92867511Y-102093139D02*
X92269350Y-102093139D01*
X92150423Y-102116795D01*
X92049602Y-102184162D01*
X91982235Y-102284983D01*
X91958579Y-102403910D01*
X91958579Y-103204010D01*
X91982235Y-103322937D01*
X92049602Y-103423758D01*
X92150423Y-103491125D01*
X92174100Y-103495835D01*
X92174100Y-103675690D01*
X92162079Y-103663669D01*
X92068724Y-103625000D01*
X91859100Y-103625000D01*
X91795600Y-103688500D01*
X91795600Y-104126600D01*
X91815600Y-104126600D01*
X91815600Y-104431400D01*
X91795600Y-104431400D01*
X91795600Y-104869500D01*
X91859100Y-104933000D01*
X92068724Y-104933000D01*
X92162079Y-104894331D01*
X92174100Y-104882310D01*
X92174100Y-105116590D01*
X92137127Y-105091885D01*
X92018200Y-105068229D01*
X91268200Y-105068229D01*
X91149273Y-105091885D01*
X91064971Y-105148214D01*
X91064971Y-105046500D01*
X91041315Y-104927573D01*
X91024228Y-104902000D01*
X91041315Y-104876427D01*
X91052259Y-104821407D01*
X91052869Y-104822880D01*
X91124321Y-104894331D01*
X91217676Y-104933000D01*
X91427300Y-104933000D01*
X91490800Y-104869500D01*
X91490800Y-104431400D01*
X91470800Y-104431400D01*
X91470800Y-104126600D01*
X91490800Y-104126600D01*
X91490800Y-103688500D01*
X91427300Y-103625000D01*
X91217676Y-103625000D01*
X91124321Y-103663669D01*
X91052869Y-103735120D01*
X91014200Y-103828476D01*
X91014200Y-103896363D01*
X90987462Y-103761942D01*
X90784381Y-103458010D01*
X90921802Y-103458010D01*
X90921802Y-103394512D01*
X90985300Y-103458010D01*
X91219974Y-103458010D01*
X91313330Y-103419341D01*
X91384781Y-103347889D01*
X91423450Y-103254534D01*
X91423450Y-103019860D01*
X91359950Y-102956360D01*
X90921800Y-102956360D01*
X90921800Y-102976360D01*
X90617000Y-102976360D01*
X90617000Y-102956360D01*
X90597000Y-102956360D01*
X90597000Y-102651560D01*
X90617000Y-102651560D01*
X90617000Y-102297960D01*
X90701550Y-102213410D01*
X90921800Y-102213410D01*
X90921800Y-102651560D01*
X91359950Y-102651560D01*
X91423450Y-102588060D01*
X91423450Y-102353386D01*
X91384781Y-102260031D01*
X91313330Y-102188579D01*
X91219974Y-102149910D01*
X90985300Y-102149910D01*
X90921800Y-102213410D01*
X90701550Y-102213410D01*
X91314960Y-101600000D01*
X91419680Y-101600000D01*
X91609224Y-101562298D01*
X91678811Y-101515801D01*
X92119450Y-101515801D01*
X92238377Y-101492145D01*
X92255246Y-101480874D01*
X92867511Y-102093139D01*
G36*
X91395347Y-96034681D02*
X91371691Y-96153608D01*
X91395347Y-96272535D01*
X91462714Y-96373356D01*
X91824070Y-96734712D01*
X91824070Y-97238854D01*
X91177266Y-97885658D01*
X91109899Y-97986479D01*
X91086243Y-98105406D01*
X91109899Y-98224333D01*
X91177266Y-98325154D01*
X92237926Y-99385814D01*
X92338747Y-99453181D01*
X92457674Y-99476837D01*
X92576601Y-99453181D01*
X92677422Y-99385814D01*
X93657496Y-98405740D01*
X94998949Y-98405740D01*
X94837233Y-98567456D01*
X94785960Y-98644191D01*
X94672199Y-98666819D01*
X94571378Y-98734186D01*
X93298586Y-100006978D01*
X93231219Y-100107799D01*
X93207563Y-100226726D01*
X93231219Y-100345653D01*
X93298586Y-100446474D01*
X94359246Y-101507134D01*
X94460067Y-101574501D01*
X94504183Y-101583276D01*
X94351364Y-101736095D01*
X94351364Y-101825898D01*
X94643470Y-102118004D01*
X94953253Y-101808220D01*
X94953253Y-101718418D01*
X94876479Y-101641643D01*
X94805027Y-101570191D01*
X94742890Y-101544453D01*
X94798742Y-101507134D01*
X94879980Y-101425896D01*
X94936374Y-101510296D01*
X95466704Y-102040626D01*
X95567525Y-102107993D01*
X95686452Y-102131649D01*
X95805379Y-102107993D01*
X95906200Y-102040626D01*
X96099748Y-101847078D01*
X96099748Y-102648793D01*
X96130683Y-102804316D01*
X96173482Y-102868368D01*
X96218780Y-102936161D01*
X97804912Y-104522293D01*
X97733200Y-104508029D01*
X96983200Y-104508029D01*
X96864273Y-104531685D01*
X96763452Y-104599052D01*
X96696085Y-104699873D01*
X96684078Y-104760234D01*
X96075500Y-104151656D01*
X96075500Y-103521078D01*
X96044565Y-103365555D01*
X95956468Y-103233710D01*
X95833991Y-103111233D01*
X95801780Y-103089710D01*
X95702146Y-103023136D01*
X95546623Y-102992201D01*
X94916045Y-102992201D01*
X94895193Y-102971349D01*
X94935576Y-102930965D01*
X94935576Y-102841162D01*
X94643470Y-102549056D01*
X94629328Y-102563199D01*
X94413802Y-102347673D01*
X94427944Y-102333530D01*
X94858996Y-102333530D01*
X95151102Y-102625636D01*
X95240905Y-102625636D01*
X95406809Y-102459732D01*
X95445478Y-102366376D01*
X95445478Y-102265328D01*
X95406809Y-102171973D01*
X95335357Y-102100521D01*
X95258582Y-102023747D01*
X95168780Y-102023747D01*
X94858996Y-102333530D01*
X94427944Y-102333530D01*
X94135838Y-102041424D01*
X94046035Y-102041424D01*
X94005652Y-102081808D01*
X92805251Y-100881407D01*
X92805251Y-100181409D01*
X92774316Y-100025886D01*
X92686219Y-99894041D01*
X92630339Y-99838161D01*
X92623052Y-99833292D01*
X92498494Y-99750064D01*
X92342971Y-99719129D01*
X92170664Y-99719129D01*
X90835480Y-98383945D01*
X90835480Y-98044696D01*
X91061043Y-97819133D01*
X91123129Y-97777648D01*
X91211226Y-97645803D01*
X91242161Y-97490280D01*
X91242161Y-96337401D01*
X91211226Y-96181878D01*
X91145460Y-96083454D01*
X91204174Y-96083505D01*
X91423191Y-95993009D01*
X91395347Y-96034681D01*
X91395347Y-96034681D01*
G37*
X91395347Y-96034681D02*
X91371691Y-96153608D01*
X91395347Y-96272535D01*
X91462714Y-96373356D01*
X91824070Y-96734712D01*
X91824070Y-97238854D01*
X91177266Y-97885658D01*
X91109899Y-97986479D01*
X91086243Y-98105406D01*
X91109899Y-98224333D01*
X91177266Y-98325154D01*
X92237926Y-99385814D01*
X92338747Y-99453181D01*
X92457674Y-99476837D01*
X92576601Y-99453181D01*
X92677422Y-99385814D01*
X93657496Y-98405740D01*
X94998949Y-98405740D01*
X94837233Y-98567456D01*
X94785960Y-98644191D01*
X94672199Y-98666819D01*
X94571378Y-98734186D01*
X93298586Y-100006978D01*
X93231219Y-100107799D01*
X93207563Y-100226726D01*
X93231219Y-100345653D01*
X93298586Y-100446474D01*
X94359246Y-101507134D01*
X94460067Y-101574501D01*
X94504183Y-101583276D01*
X94351364Y-101736095D01*
X94351364Y-101825898D01*
X94643470Y-102118004D01*
X94953253Y-101808220D01*
X94953253Y-101718418D01*
X94876479Y-101641643D01*
X94805027Y-101570191D01*
X94742890Y-101544453D01*
X94798742Y-101507134D01*
X94879980Y-101425896D01*
X94936374Y-101510296D01*
X95466704Y-102040626D01*
X95567525Y-102107993D01*
X95686452Y-102131649D01*
X95805379Y-102107993D01*
X95906200Y-102040626D01*
X96099748Y-101847078D01*
X96099748Y-102648793D01*
X96130683Y-102804316D01*
X96173482Y-102868368D01*
X96218780Y-102936161D01*
X97804912Y-104522293D01*
X97733200Y-104508029D01*
X96983200Y-104508029D01*
X96864273Y-104531685D01*
X96763452Y-104599052D01*
X96696085Y-104699873D01*
X96684078Y-104760234D01*
X96075500Y-104151656D01*
X96075500Y-103521078D01*
X96044565Y-103365555D01*
X95956468Y-103233710D01*
X95833991Y-103111233D01*
X95801780Y-103089710D01*
X95702146Y-103023136D01*
X95546623Y-102992201D01*
X94916045Y-102992201D01*
X94895193Y-102971349D01*
X94935576Y-102930965D01*
X94935576Y-102841162D01*
X94643470Y-102549056D01*
X94629328Y-102563199D01*
X94413802Y-102347673D01*
X94427944Y-102333530D01*
X94858996Y-102333530D01*
X95151102Y-102625636D01*
X95240905Y-102625636D01*
X95406809Y-102459732D01*
X95445478Y-102366376D01*
X95445478Y-102265328D01*
X95406809Y-102171973D01*
X95335357Y-102100521D01*
X95258582Y-102023747D01*
X95168780Y-102023747D01*
X94858996Y-102333530D01*
X94427944Y-102333530D01*
X94135838Y-102041424D01*
X94046035Y-102041424D01*
X94005652Y-102081808D01*
X92805251Y-100881407D01*
X92805251Y-100181409D01*
X92774316Y-100025886D01*
X92686219Y-99894041D01*
X92630339Y-99838161D01*
X92623052Y-99833292D01*
X92498494Y-99750064D01*
X92342971Y-99719129D01*
X92170664Y-99719129D01*
X90835480Y-98383945D01*
X90835480Y-98044696D01*
X91061043Y-97819133D01*
X91123129Y-97777648D01*
X91211226Y-97645803D01*
X91242161Y-97490280D01*
X91242161Y-96337401D01*
X91211226Y-96181878D01*
X91145460Y-96083454D01*
X91204174Y-96083505D01*
X91423191Y-95993009D01*
X91395347Y-96034681D01*
G36*
X110145200Y-98727785D02*
X108341478Y-96924063D01*
X108341609Y-96774251D01*
X108249728Y-96551881D01*
X108079743Y-96381599D01*
X107857534Y-96289330D01*
X107616930Y-96289120D01*
X107394560Y-96381001D01*
X107384347Y-96391196D01*
X107209916Y-96216765D01*
X107209916Y-96031400D01*
X107352400Y-96031400D01*
X107415900Y-95967900D01*
X107415900Y-95554800D01*
X107720700Y-95554800D01*
X107720700Y-95967900D01*
X107784200Y-96031400D01*
X108018824Y-96031400D01*
X108112180Y-95992731D01*
X108183631Y-95921279D01*
X108222300Y-95827924D01*
X108222300Y-95618300D01*
X108158800Y-95554800D01*
X107720700Y-95554800D01*
X107415900Y-95554800D01*
X107059542Y-95554800D01*
X106646442Y-95141700D01*
X106914300Y-95141700D01*
X106914300Y-95186500D01*
X106977800Y-95250000D01*
X107415900Y-95250000D01*
X107415900Y-95230000D01*
X107720700Y-95230000D01*
X107720700Y-95250000D01*
X108114654Y-95250000D01*
X108357529Y-95492875D01*
X108357529Y-95777400D01*
X108381185Y-95896327D01*
X108448552Y-95997148D01*
X108549373Y-96064515D01*
X108573000Y-96069215D01*
X108573000Y-96158400D01*
X108610702Y-96347944D01*
X108718070Y-96508630D01*
X108886059Y-96676619D01*
X108890621Y-96679667D01*
X109049491Y-96838815D01*
X109271700Y-96931084D01*
X109512304Y-96931294D01*
X109734674Y-96839413D01*
X109904956Y-96669428D01*
X109997225Y-96447219D01*
X109997435Y-96206615D01*
X109905554Y-95984245D01*
X109765779Y-95844225D01*
X109779071Y-95777400D01*
X109779071Y-95027400D01*
X109755415Y-94908473D01*
X109688048Y-94807652D01*
X109587227Y-94740285D01*
X109468300Y-94716629D01*
X108982203Y-94716629D01*
X108739145Y-94473571D01*
X109732400Y-94473571D01*
X109851327Y-94449915D01*
X109952148Y-94382548D01*
X110019515Y-94281727D01*
X110043171Y-94162800D01*
X110043171Y-93512800D01*
X110019515Y-93393873D01*
X109952148Y-93293052D01*
X109851327Y-93225685D01*
X109732400Y-93202029D01*
X109697700Y-93202029D01*
X109697700Y-92573571D01*
X109732400Y-92573571D01*
X109851327Y-92549915D01*
X109952148Y-92482548D01*
X110019515Y-92381727D01*
X110043171Y-92262800D01*
X110043171Y-91612800D01*
X110019515Y-91493873D01*
X109952148Y-91393052D01*
X109851327Y-91325685D01*
X109732400Y-91302029D01*
X109697700Y-91302029D01*
X109697700Y-91248435D01*
X109714826Y-91231339D01*
X109807095Y-91009130D01*
X109807305Y-90768526D01*
X109715424Y-90546156D01*
X109545439Y-90375874D01*
X109323230Y-90283605D01*
X109298143Y-90283583D01*
X109184571Y-90170011D01*
X109184571Y-90024800D01*
X109160915Y-89905873D01*
X109093548Y-89805052D01*
X108992727Y-89737685D01*
X108945399Y-89728271D01*
X108945399Y-89499111D01*
X108953927Y-89497415D01*
X109054748Y-89430048D01*
X109122115Y-89329227D01*
X109145771Y-89210300D01*
X109145771Y-88310300D01*
X109122115Y-88191373D01*
X109080357Y-88128879D01*
X109450368Y-87758868D01*
X109486541Y-87704732D01*
X109538465Y-87627023D01*
X109550887Y-87564573D01*
X109596927Y-87555415D01*
X109697748Y-87488048D01*
X109765115Y-87387227D01*
X109788771Y-87268300D01*
X109788771Y-86818300D01*
X109765115Y-86699373D01*
X109697748Y-86598552D01*
X109608736Y-86539075D01*
X109621880Y-86533631D01*
X109693331Y-86462179D01*
X109732000Y-86368824D01*
X109732000Y-86269300D01*
X109668500Y-86205800D01*
X109315400Y-86205800D01*
X109315400Y-86265700D01*
X109010600Y-86265700D01*
X109010600Y-86205800D01*
X108990600Y-86205800D01*
X108990600Y-85980800D01*
X109010600Y-85980800D01*
X109010600Y-85920900D01*
X109315400Y-85920900D01*
X109315400Y-85980800D01*
X109668500Y-85980800D01*
X109732000Y-85917300D01*
X109732000Y-85817776D01*
X109693331Y-85724421D01*
X109621880Y-85652969D01*
X109608736Y-85647525D01*
X109697748Y-85588048D01*
X109765115Y-85487227D01*
X109788771Y-85368300D01*
X109788771Y-84918300D01*
X109765115Y-84799373D01*
X109697748Y-84698552D01*
X109596927Y-84631185D01*
X109478000Y-84607529D01*
X108915451Y-84607529D01*
X108892748Y-84573552D01*
X108791927Y-84506185D01*
X108673000Y-84482529D01*
X107827567Y-84482529D01*
X107894295Y-84321830D01*
X107894417Y-84182300D01*
X107912600Y-84182300D01*
X107976100Y-84118800D01*
X107976100Y-83705700D01*
X108280900Y-83705700D01*
X108280900Y-84118800D01*
X108344400Y-84182300D01*
X108579024Y-84182300D01*
X108672380Y-84143631D01*
X108743831Y-84072179D01*
X108782500Y-83978824D01*
X108782500Y-83769200D01*
X108719000Y-83705700D01*
X108280900Y-83705700D01*
X107976100Y-83705700D01*
X107649735Y-83705700D01*
X107632639Y-83688574D01*
X107410430Y-83596305D01*
X107385343Y-83596283D01*
X107339271Y-83550211D01*
X107339271Y-83178300D01*
X107329222Y-83127776D01*
X107474500Y-83127776D01*
X107474500Y-83337400D01*
X107538000Y-83400900D01*
X107976100Y-83400900D01*
X107976100Y-82987800D01*
X108280900Y-82987800D01*
X108280900Y-83400900D01*
X108719000Y-83400900D01*
X108782500Y-83337400D01*
X108782500Y-83127776D01*
X108743831Y-83034421D01*
X108672380Y-82962969D01*
X108579024Y-82924300D01*
X108344400Y-82924300D01*
X108280900Y-82987800D01*
X107976100Y-82987800D01*
X107912600Y-82924300D01*
X107677976Y-82924300D01*
X107584620Y-82962969D01*
X107513169Y-83034421D01*
X107474500Y-83127776D01*
X107329222Y-83127776D01*
X107315615Y-83059373D01*
X107248248Y-82958552D01*
X107147427Y-82891185D01*
X107028500Y-82867529D01*
X106228500Y-82867529D01*
X106109573Y-82891185D01*
X106008752Y-82958552D01*
X105941385Y-83059373D01*
X105917729Y-83178300D01*
X105917729Y-83563611D01*
X105676440Y-83804900D01*
X104863900Y-83804900D01*
X104863900Y-84145400D01*
X104927400Y-84208900D01*
X105272440Y-84208900D01*
X105167211Y-84314129D01*
X103936500Y-84314129D01*
X103817573Y-84337785D01*
X103716752Y-84405152D01*
X103649385Y-84505973D01*
X103625729Y-84624900D01*
X103625729Y-84835211D01*
X103350340Y-85110600D01*
X101698324Y-85110600D01*
X101508780Y-85148302D01*
X101348094Y-85255670D01*
X100397271Y-86206493D01*
X100397271Y-85894900D01*
X100373615Y-85775973D01*
X100306248Y-85675152D01*
X100205427Y-85607785D01*
X100086500Y-85584129D01*
X98536500Y-85584129D01*
X98417573Y-85607785D01*
X98316752Y-85675152D01*
X98249385Y-85775973D01*
X98225729Y-85894900D01*
X98225729Y-86494900D01*
X98249385Y-86613827D01*
X98316752Y-86714648D01*
X98417573Y-86782015D01*
X98536500Y-86805671D01*
X98816200Y-86805671D01*
X98816200Y-86854129D01*
X98536500Y-86854129D01*
X98417573Y-86877785D01*
X98316752Y-86945152D01*
X98249385Y-87045973D01*
X98225729Y-87164900D01*
X98225729Y-87764900D01*
X98249385Y-87883827D01*
X98316752Y-87984648D01*
X98417573Y-88052015D01*
X98536500Y-88075671D01*
X99619485Y-88075671D01*
X99356810Y-88338346D01*
X99268713Y-88470191D01*
X99237778Y-88625714D01*
X99237778Y-91224078D01*
X99250234Y-91286700D01*
X99132269Y-91168735D01*
X99108068Y-91132516D01*
X99071849Y-91108315D01*
X98501200Y-90537666D01*
X98501200Y-89993076D01*
X98564548Y-89950748D01*
X98631915Y-89849927D01*
X98655571Y-89731000D01*
X98655571Y-88831000D01*
X98631915Y-88712073D01*
X98564548Y-88611252D01*
X98463727Y-88543885D01*
X98344800Y-88520229D01*
X97844800Y-88520229D01*
X97725873Y-88543885D01*
X97625052Y-88611252D01*
X97557685Y-88712073D01*
X97534029Y-88831000D01*
X97534029Y-89731000D01*
X97557685Y-89849927D01*
X97625052Y-89950748D01*
X97688400Y-89993076D01*
X97688400Y-90227774D01*
X97470248Y-90009622D01*
X97444174Y-89992200D01*
X97338403Y-89921525D01*
X97182880Y-89890590D01*
X97104745Y-89890590D01*
X97131915Y-89849927D01*
X97155571Y-89731000D01*
X97155571Y-88831000D01*
X97131915Y-88712073D01*
X97064548Y-88611252D01*
X96963727Y-88543885D01*
X96844800Y-88520229D01*
X96408765Y-88520229D01*
X96259868Y-88371332D01*
X96254232Y-88367566D01*
X96128023Y-88283235D01*
X95972500Y-88252300D01*
X95794451Y-88252300D01*
X95794451Y-88069420D01*
X95770795Y-87950493D01*
X95703428Y-87849672D01*
X95602607Y-87782305D01*
X95483680Y-87758649D01*
X94686120Y-87758649D01*
X94567193Y-87782305D01*
X94466372Y-87849672D01*
X94399005Y-87950493D01*
X94375349Y-88069420D01*
X94375349Y-88866980D01*
X94389496Y-88938100D01*
X94230549Y-88938100D01*
X94239080Y-88917504D01*
X94239080Y-88684100D01*
X94175580Y-88620600D01*
X93738700Y-88620600D01*
X93738700Y-89057480D01*
X93791291Y-89110071D01*
X93457970Y-89443392D01*
X93445048Y-89424052D01*
X93344227Y-89356685D01*
X93309956Y-89349868D01*
X93237968Y-89242132D01*
X93162263Y-89191547D01*
X93059665Y-89088949D01*
X93136996Y-89120980D01*
X93370400Y-89120980D01*
X93433900Y-89057480D01*
X93433900Y-88620600D01*
X92997020Y-88620600D01*
X92933520Y-88684100D01*
X92933520Y-88917504D01*
X92965552Y-88994836D01*
X92621448Y-88650732D01*
X92580850Y-88623605D01*
X92489603Y-88562635D01*
X92441651Y-88553097D01*
X92441651Y-88539320D01*
X92417995Y-88420393D01*
X92350628Y-88319572D01*
X92249807Y-88252205D01*
X92130880Y-88228549D01*
X91333320Y-88228549D01*
X91214393Y-88252205D01*
X91113572Y-88319572D01*
X91046205Y-88420393D01*
X91022549Y-88539320D01*
X91022549Y-89336880D01*
X91046205Y-89455807D01*
X91113572Y-89556628D01*
X91214393Y-89623995D01*
X91333320Y-89647651D01*
X92130880Y-89647651D01*
X92249807Y-89623995D01*
X92350628Y-89556628D01*
X92361540Y-89540296D01*
X92422910Y-89601666D01*
X92414529Y-89643800D01*
X92414529Y-90126533D01*
X92407821Y-90125199D01*
X91600428Y-90125199D01*
X91572024Y-90056456D01*
X91402039Y-89886174D01*
X91179830Y-89793905D01*
X90939226Y-89793695D01*
X90716856Y-89885576D01*
X90546574Y-90055561D01*
X90454305Y-90277770D01*
X90454140Y-90466424D01*
X90420335Y-90500229D01*
X89884300Y-90500229D01*
X89765373Y-90523885D01*
X89664552Y-90591252D01*
X89597185Y-90692073D01*
X89573529Y-90811000D01*
X89573529Y-91561000D01*
X89597185Y-91679927D01*
X89664552Y-91780748D01*
X89765373Y-91848115D01*
X89884300Y-91871771D01*
X90017600Y-91871771D01*
X90017600Y-92059629D01*
X89974000Y-92059629D01*
X89855073Y-92083285D01*
X89754252Y-92150652D01*
X89686885Y-92251473D01*
X89663229Y-92370400D01*
X89663229Y-92870400D01*
X89686885Y-92989327D01*
X89754252Y-93090148D01*
X89855073Y-93157515D01*
X89974000Y-93181171D01*
X90610035Y-93181171D01*
X91016830Y-93587967D01*
X91006390Y-93592281D01*
X90992927Y-93583285D01*
X90874000Y-93559629D01*
X89974000Y-93559629D01*
X89855073Y-93583285D01*
X89754252Y-93650652D01*
X89686885Y-93751473D01*
X89663229Y-93870400D01*
X89663229Y-94370400D01*
X89686885Y-94489327D01*
X89754252Y-94590148D01*
X89855073Y-94657515D01*
X89974000Y-94681171D01*
X90481593Y-94681171D01*
X90187432Y-94975332D01*
X90099335Y-95107177D01*
X90068400Y-95262700D01*
X90068400Y-95976440D01*
X90099335Y-96131963D01*
X90151372Y-96209841D01*
X90187432Y-96263808D01*
X90429361Y-96505737D01*
X90429361Y-97301343D01*
X90141712Y-97588992D01*
X90053615Y-97720837D01*
X90022680Y-97876360D01*
X90022680Y-98552281D01*
X90053615Y-98707804D01*
X90109498Y-98791438D01*
X90141712Y-98839649D01*
X91396222Y-100094159D01*
X91319350Y-100094159D01*
X91200423Y-100117815D01*
X91099602Y-100185182D01*
X91032235Y-100286003D01*
X91008579Y-100404930D01*
X91008579Y-100629534D01*
X90920257Y-100647102D01*
X90759570Y-100754470D01*
X89924143Y-101589897D01*
X89811506Y-101612302D01*
X89650819Y-101719670D01*
X89543451Y-101880357D01*
X89505749Y-102069900D01*
X89505749Y-103422913D01*
X89454661Y-103457049D01*
X89354800Y-103606502D01*
X89354800Y-89154000D01*
X89580720Y-89154000D01*
X89580720Y-89387404D01*
X89619389Y-89480759D01*
X89690840Y-89552211D01*
X89784196Y-89590880D01*
X90017600Y-89590880D01*
X90081100Y-89527380D01*
X90081100Y-89090500D01*
X90385900Y-89090500D01*
X90385900Y-89527380D01*
X90449400Y-89590880D01*
X90682804Y-89590880D01*
X90776160Y-89552211D01*
X90847611Y-89480759D01*
X90886280Y-89387404D01*
X90886280Y-89154000D01*
X90822780Y-89090500D01*
X90385900Y-89090500D01*
X90081100Y-89090500D01*
X89644220Y-89090500D01*
X89580720Y-89154000D01*
X89354800Y-89154000D01*
X89354800Y-88488796D01*
X89580720Y-88488796D01*
X89580720Y-88722200D01*
X89644220Y-88785700D01*
X90081100Y-88785700D01*
X90081100Y-88348820D01*
X90385900Y-88348820D01*
X90385900Y-88785700D01*
X90822780Y-88785700D01*
X90886280Y-88722200D01*
X90886280Y-88488796D01*
X90847611Y-88395441D01*
X90776160Y-88323989D01*
X90682804Y-88285320D01*
X90449400Y-88285320D01*
X90385900Y-88348820D01*
X90081100Y-88348820D01*
X90017600Y-88285320D01*
X89784196Y-88285320D01*
X89690840Y-88323989D01*
X89619389Y-88395441D01*
X89580720Y-88488796D01*
X89354800Y-88488796D01*
X89354800Y-88018896D01*
X92933520Y-88018896D01*
X92933520Y-88252300D01*
X92997020Y-88315800D01*
X93433900Y-88315800D01*
X93433900Y-87878920D01*
X93738700Y-87878920D01*
X93738700Y-88315800D01*
X94175580Y-88315800D01*
X94239080Y-88252300D01*
X94239080Y-88018896D01*
X94200411Y-87925541D01*
X94128960Y-87854089D01*
X94035604Y-87815420D01*
X93802200Y-87815420D01*
X93738700Y-87878920D01*
X93433900Y-87878920D01*
X93370400Y-87815420D01*
X93136996Y-87815420D01*
X93043640Y-87854089D01*
X92972189Y-87925541D01*
X92933520Y-88018896D01*
X89354800Y-88018896D01*
X89354800Y-86682360D01*
X89862940Y-86682360D01*
X89974784Y-86952406D01*
X90295673Y-87330010D01*
X90736638Y-87556072D01*
X90932000Y-87531936D01*
X90932000Y-86487000D01*
X91236800Y-86487000D01*
X91236800Y-87531936D01*
X91432162Y-87556072D01*
X91873127Y-87330010D01*
X92194016Y-86952406D01*
X92305860Y-86682360D01*
X92281236Y-86487000D01*
X91236800Y-86487000D01*
X90932000Y-86487000D01*
X89887564Y-86487000D01*
X89862940Y-86682360D01*
X89354800Y-86682360D01*
X89354800Y-85426698D01*
X90224064Y-85423455D01*
X89974784Y-85716794D01*
X89862940Y-85986840D01*
X89887564Y-86182200D01*
X90932000Y-86182200D01*
X90932000Y-86162200D01*
X91236800Y-86162200D01*
X91236800Y-86182200D01*
X92281236Y-86182200D01*
X92305860Y-85986840D01*
X92194016Y-85716794D01*
X91939297Y-85417055D01*
X92524550Y-85414871D01*
X92563402Y-85406992D01*
X92596281Y-85384845D01*
X92618182Y-85351802D01*
X92625771Y-85313272D01*
X92625771Y-84624900D01*
X98225729Y-84624900D01*
X98225729Y-85224900D01*
X98249385Y-85343827D01*
X98316752Y-85444648D01*
X98417573Y-85512015D01*
X98536500Y-85535671D01*
X100086500Y-85535671D01*
X100205427Y-85512015D01*
X100226695Y-85497804D01*
X100272670Y-85516895D01*
X100513274Y-85517105D01*
X100735644Y-85425224D01*
X100905926Y-85255239D01*
X100998195Y-85033030D01*
X100998405Y-84792426D01*
X100906524Y-84570056D01*
X100736539Y-84399774D01*
X100514330Y-84307505D01*
X100273726Y-84307295D01*
X100201719Y-84337047D01*
X100086500Y-84314129D01*
X98536500Y-84314129D01*
X98417573Y-84337785D01*
X98316752Y-84405152D01*
X98249385Y-84505973D01*
X98225729Y-84624900D01*
X92625771Y-84624900D01*
X92625771Y-83354900D01*
X98225729Y-83354900D01*
X98225729Y-83954900D01*
X98249385Y-84073827D01*
X98316752Y-84174648D01*
X98417573Y-84242015D01*
X98536500Y-84265671D01*
X100086500Y-84265671D01*
X100205427Y-84242015D01*
X100306248Y-84174648D01*
X100373615Y-84073827D01*
X100379666Y-84043405D01*
X100445223Y-84030365D01*
X100577068Y-83942268D01*
X100643737Y-83875599D01*
X102858762Y-83875599D01*
X102945674Y-84085944D01*
X103115659Y-84256226D01*
X103337868Y-84348495D01*
X103578472Y-84348705D01*
X103800842Y-84256824D01*
X103859737Y-84198032D01*
X103885976Y-84208900D01*
X104495600Y-84208900D01*
X104559100Y-84145400D01*
X104559100Y-83804900D01*
X104539100Y-83804900D01*
X104539100Y-83504900D01*
X104559100Y-83504900D01*
X104559100Y-83164400D01*
X104863900Y-83164400D01*
X104863900Y-83504900D01*
X105677000Y-83504900D01*
X105740500Y-83441400D01*
X105740500Y-83304376D01*
X105701831Y-83211021D01*
X105630380Y-83139569D01*
X105537024Y-83100900D01*
X104927400Y-83100900D01*
X104863900Y-83164400D01*
X104559100Y-83164400D01*
X104495600Y-83100900D01*
X103885976Y-83100900D01*
X103792620Y-83139569D01*
X103730427Y-83201763D01*
X103579528Y-83139105D01*
X103407297Y-83138955D01*
X103339620Y-83093734D01*
X103184097Y-83062799D01*
X100475401Y-83062799D01*
X100319878Y-83093734D01*
X100282070Y-83118997D01*
X100205427Y-83067785D01*
X100086500Y-83044129D01*
X98536500Y-83044129D01*
X98417573Y-83067785D01*
X98316752Y-83135152D01*
X98249385Y-83235973D01*
X98225729Y-83354900D01*
X92625771Y-83354900D01*
X92625771Y-82354800D01*
X110145200Y-82354800D01*
X110145200Y-98727785D01*
X110145200Y-98727785D01*
G37*
X110145200Y-98727785D02*
X108341478Y-96924063D01*
X108341609Y-96774251D01*
X108249728Y-96551881D01*
X108079743Y-96381599D01*
X107857534Y-96289330D01*
X107616930Y-96289120D01*
X107394560Y-96381001D01*
X107384347Y-96391196D01*
X107209916Y-96216765D01*
X107209916Y-96031400D01*
X107352400Y-96031400D01*
X107415900Y-95967900D01*
X107415900Y-95554800D01*
X107720700Y-95554800D01*
X107720700Y-95967900D01*
X107784200Y-96031400D01*
X108018824Y-96031400D01*
X108112180Y-95992731D01*
X108183631Y-95921279D01*
X108222300Y-95827924D01*
X108222300Y-95618300D01*
X108158800Y-95554800D01*
X107720700Y-95554800D01*
X107415900Y-95554800D01*
X107059542Y-95554800D01*
X106646442Y-95141700D01*
X106914300Y-95141700D01*
X106914300Y-95186500D01*
X106977800Y-95250000D01*
X107415900Y-95250000D01*
X107415900Y-95230000D01*
X107720700Y-95230000D01*
X107720700Y-95250000D01*
X108114654Y-95250000D01*
X108357529Y-95492875D01*
X108357529Y-95777400D01*
X108381185Y-95896327D01*
X108448552Y-95997148D01*
X108549373Y-96064515D01*
X108573000Y-96069215D01*
X108573000Y-96158400D01*
X108610702Y-96347944D01*
X108718070Y-96508630D01*
X108886059Y-96676619D01*
X108890621Y-96679667D01*
X109049491Y-96838815D01*
X109271700Y-96931084D01*
X109512304Y-96931294D01*
X109734674Y-96839413D01*
X109904956Y-96669428D01*
X109997225Y-96447219D01*
X109997435Y-96206615D01*
X109905554Y-95984245D01*
X109765779Y-95844225D01*
X109779071Y-95777400D01*
X109779071Y-95027400D01*
X109755415Y-94908473D01*
X109688048Y-94807652D01*
X109587227Y-94740285D01*
X109468300Y-94716629D01*
X108982203Y-94716629D01*
X108739145Y-94473571D01*
X109732400Y-94473571D01*
X109851327Y-94449915D01*
X109952148Y-94382548D01*
X110019515Y-94281727D01*
X110043171Y-94162800D01*
X110043171Y-93512800D01*
X110019515Y-93393873D01*
X109952148Y-93293052D01*
X109851327Y-93225685D01*
X109732400Y-93202029D01*
X109697700Y-93202029D01*
X109697700Y-92573571D01*
X109732400Y-92573571D01*
X109851327Y-92549915D01*
X109952148Y-92482548D01*
X110019515Y-92381727D01*
X110043171Y-92262800D01*
X110043171Y-91612800D01*
X110019515Y-91493873D01*
X109952148Y-91393052D01*
X109851327Y-91325685D01*
X109732400Y-91302029D01*
X109697700Y-91302029D01*
X109697700Y-91248435D01*
X109714826Y-91231339D01*
X109807095Y-91009130D01*
X109807305Y-90768526D01*
X109715424Y-90546156D01*
X109545439Y-90375874D01*
X109323230Y-90283605D01*
X109298143Y-90283583D01*
X109184571Y-90170011D01*
X109184571Y-90024800D01*
X109160915Y-89905873D01*
X109093548Y-89805052D01*
X108992727Y-89737685D01*
X108945399Y-89728271D01*
X108945399Y-89499111D01*
X108953927Y-89497415D01*
X109054748Y-89430048D01*
X109122115Y-89329227D01*
X109145771Y-89210300D01*
X109145771Y-88310300D01*
X109122115Y-88191373D01*
X109080357Y-88128879D01*
X109450368Y-87758868D01*
X109486541Y-87704732D01*
X109538465Y-87627023D01*
X109550887Y-87564573D01*
X109596927Y-87555415D01*
X109697748Y-87488048D01*
X109765115Y-87387227D01*
X109788771Y-87268300D01*
X109788771Y-86818300D01*
X109765115Y-86699373D01*
X109697748Y-86598552D01*
X109608736Y-86539075D01*
X109621880Y-86533631D01*
X109693331Y-86462179D01*
X109732000Y-86368824D01*
X109732000Y-86269300D01*
X109668500Y-86205800D01*
X109315400Y-86205800D01*
X109315400Y-86265700D01*
X109010600Y-86265700D01*
X109010600Y-86205800D01*
X108990600Y-86205800D01*
X108990600Y-85980800D01*
X109010600Y-85980800D01*
X109010600Y-85920900D01*
X109315400Y-85920900D01*
X109315400Y-85980800D01*
X109668500Y-85980800D01*
X109732000Y-85917300D01*
X109732000Y-85817776D01*
X109693331Y-85724421D01*
X109621880Y-85652969D01*
X109608736Y-85647525D01*
X109697748Y-85588048D01*
X109765115Y-85487227D01*
X109788771Y-85368300D01*
X109788771Y-84918300D01*
X109765115Y-84799373D01*
X109697748Y-84698552D01*
X109596927Y-84631185D01*
X109478000Y-84607529D01*
X108915451Y-84607529D01*
X108892748Y-84573552D01*
X108791927Y-84506185D01*
X108673000Y-84482529D01*
X107827567Y-84482529D01*
X107894295Y-84321830D01*
X107894417Y-84182300D01*
X107912600Y-84182300D01*
X107976100Y-84118800D01*
X107976100Y-83705700D01*
X108280900Y-83705700D01*
X108280900Y-84118800D01*
X108344400Y-84182300D01*
X108579024Y-84182300D01*
X108672380Y-84143631D01*
X108743831Y-84072179D01*
X108782500Y-83978824D01*
X108782500Y-83769200D01*
X108719000Y-83705700D01*
X108280900Y-83705700D01*
X107976100Y-83705700D01*
X107649735Y-83705700D01*
X107632639Y-83688574D01*
X107410430Y-83596305D01*
X107385343Y-83596283D01*
X107339271Y-83550211D01*
X107339271Y-83178300D01*
X107329222Y-83127776D01*
X107474500Y-83127776D01*
X107474500Y-83337400D01*
X107538000Y-83400900D01*
X107976100Y-83400900D01*
X107976100Y-82987800D01*
X108280900Y-82987800D01*
X108280900Y-83400900D01*
X108719000Y-83400900D01*
X108782500Y-83337400D01*
X108782500Y-83127776D01*
X108743831Y-83034421D01*
X108672380Y-82962969D01*
X108579024Y-82924300D01*
X108344400Y-82924300D01*
X108280900Y-82987800D01*
X107976100Y-82987800D01*
X107912600Y-82924300D01*
X107677976Y-82924300D01*
X107584620Y-82962969D01*
X107513169Y-83034421D01*
X107474500Y-83127776D01*
X107329222Y-83127776D01*
X107315615Y-83059373D01*
X107248248Y-82958552D01*
X107147427Y-82891185D01*
X107028500Y-82867529D01*
X106228500Y-82867529D01*
X106109573Y-82891185D01*
X106008752Y-82958552D01*
X105941385Y-83059373D01*
X105917729Y-83178300D01*
X105917729Y-83563611D01*
X105676440Y-83804900D01*
X104863900Y-83804900D01*
X104863900Y-84145400D01*
X104927400Y-84208900D01*
X105272440Y-84208900D01*
X105167211Y-84314129D01*
X103936500Y-84314129D01*
X103817573Y-84337785D01*
X103716752Y-84405152D01*
X103649385Y-84505973D01*
X103625729Y-84624900D01*
X103625729Y-84835211D01*
X103350340Y-85110600D01*
X101698324Y-85110600D01*
X101508780Y-85148302D01*
X101348094Y-85255670D01*
X100397271Y-86206493D01*
X100397271Y-85894900D01*
X100373615Y-85775973D01*
X100306248Y-85675152D01*
X100205427Y-85607785D01*
X100086500Y-85584129D01*
X98536500Y-85584129D01*
X98417573Y-85607785D01*
X98316752Y-85675152D01*
X98249385Y-85775973D01*
X98225729Y-85894900D01*
X98225729Y-86494900D01*
X98249385Y-86613827D01*
X98316752Y-86714648D01*
X98417573Y-86782015D01*
X98536500Y-86805671D01*
X98816200Y-86805671D01*
X98816200Y-86854129D01*
X98536500Y-86854129D01*
X98417573Y-86877785D01*
X98316752Y-86945152D01*
X98249385Y-87045973D01*
X98225729Y-87164900D01*
X98225729Y-87764900D01*
X98249385Y-87883827D01*
X98316752Y-87984648D01*
X98417573Y-88052015D01*
X98536500Y-88075671D01*
X99619485Y-88075671D01*
X99356810Y-88338346D01*
X99268713Y-88470191D01*
X99237778Y-88625714D01*
X99237778Y-91224078D01*
X99250234Y-91286700D01*
X99132269Y-91168735D01*
X99108068Y-91132516D01*
X99071849Y-91108315D01*
X98501200Y-90537666D01*
X98501200Y-89993076D01*
X98564548Y-89950748D01*
X98631915Y-89849927D01*
X98655571Y-89731000D01*
X98655571Y-88831000D01*
X98631915Y-88712073D01*
X98564548Y-88611252D01*
X98463727Y-88543885D01*
X98344800Y-88520229D01*
X97844800Y-88520229D01*
X97725873Y-88543885D01*
X97625052Y-88611252D01*
X97557685Y-88712073D01*
X97534029Y-88831000D01*
X97534029Y-89731000D01*
X97557685Y-89849927D01*
X97625052Y-89950748D01*
X97688400Y-89993076D01*
X97688400Y-90227774D01*
X97470248Y-90009622D01*
X97444174Y-89992200D01*
X97338403Y-89921525D01*
X97182880Y-89890590D01*
X97104745Y-89890590D01*
X97131915Y-89849927D01*
X97155571Y-89731000D01*
X97155571Y-88831000D01*
X97131915Y-88712073D01*
X97064548Y-88611252D01*
X96963727Y-88543885D01*
X96844800Y-88520229D01*
X96408765Y-88520229D01*
X96259868Y-88371332D01*
X96254232Y-88367566D01*
X96128023Y-88283235D01*
X95972500Y-88252300D01*
X95794451Y-88252300D01*
X95794451Y-88069420D01*
X95770795Y-87950493D01*
X95703428Y-87849672D01*
X95602607Y-87782305D01*
X95483680Y-87758649D01*
X94686120Y-87758649D01*
X94567193Y-87782305D01*
X94466372Y-87849672D01*
X94399005Y-87950493D01*
X94375349Y-88069420D01*
X94375349Y-88866980D01*
X94389496Y-88938100D01*
X94230549Y-88938100D01*
X94239080Y-88917504D01*
X94239080Y-88684100D01*
X94175580Y-88620600D01*
X93738700Y-88620600D01*
X93738700Y-89057480D01*
X93791291Y-89110071D01*
X93457970Y-89443392D01*
X93445048Y-89424052D01*
X93344227Y-89356685D01*
X93309956Y-89349868D01*
X93237968Y-89242132D01*
X93162263Y-89191547D01*
X93059665Y-89088949D01*
X93136996Y-89120980D01*
X93370400Y-89120980D01*
X93433900Y-89057480D01*
X93433900Y-88620600D01*
X92997020Y-88620600D01*
X92933520Y-88684100D01*
X92933520Y-88917504D01*
X92965552Y-88994836D01*
X92621448Y-88650732D01*
X92580850Y-88623605D01*
X92489603Y-88562635D01*
X92441651Y-88553097D01*
X92441651Y-88539320D01*
X92417995Y-88420393D01*
X92350628Y-88319572D01*
X92249807Y-88252205D01*
X92130880Y-88228549D01*
X91333320Y-88228549D01*
X91214393Y-88252205D01*
X91113572Y-88319572D01*
X91046205Y-88420393D01*
X91022549Y-88539320D01*
X91022549Y-89336880D01*
X91046205Y-89455807D01*
X91113572Y-89556628D01*
X91214393Y-89623995D01*
X91333320Y-89647651D01*
X92130880Y-89647651D01*
X92249807Y-89623995D01*
X92350628Y-89556628D01*
X92361540Y-89540296D01*
X92422910Y-89601666D01*
X92414529Y-89643800D01*
X92414529Y-90126533D01*
X92407821Y-90125199D01*
X91600428Y-90125199D01*
X91572024Y-90056456D01*
X91402039Y-89886174D01*
X91179830Y-89793905D01*
X90939226Y-89793695D01*
X90716856Y-89885576D01*
X90546574Y-90055561D01*
X90454305Y-90277770D01*
X90454140Y-90466424D01*
X90420335Y-90500229D01*
X89884300Y-90500229D01*
X89765373Y-90523885D01*
X89664552Y-90591252D01*
X89597185Y-90692073D01*
X89573529Y-90811000D01*
X89573529Y-91561000D01*
X89597185Y-91679927D01*
X89664552Y-91780748D01*
X89765373Y-91848115D01*
X89884300Y-91871771D01*
X90017600Y-91871771D01*
X90017600Y-92059629D01*
X89974000Y-92059629D01*
X89855073Y-92083285D01*
X89754252Y-92150652D01*
X89686885Y-92251473D01*
X89663229Y-92370400D01*
X89663229Y-92870400D01*
X89686885Y-92989327D01*
X89754252Y-93090148D01*
X89855073Y-93157515D01*
X89974000Y-93181171D01*
X90610035Y-93181171D01*
X91016830Y-93587967D01*
X91006390Y-93592281D01*
X90992927Y-93583285D01*
X90874000Y-93559629D01*
X89974000Y-93559629D01*
X89855073Y-93583285D01*
X89754252Y-93650652D01*
X89686885Y-93751473D01*
X89663229Y-93870400D01*
X89663229Y-94370400D01*
X89686885Y-94489327D01*
X89754252Y-94590148D01*
X89855073Y-94657515D01*
X89974000Y-94681171D01*
X90481593Y-94681171D01*
X90187432Y-94975332D01*
X90099335Y-95107177D01*
X90068400Y-95262700D01*
X90068400Y-95976440D01*
X90099335Y-96131963D01*
X90151372Y-96209841D01*
X90187432Y-96263808D01*
X90429361Y-96505737D01*
X90429361Y-97301343D01*
X90141712Y-97588992D01*
X90053615Y-97720837D01*
X90022680Y-97876360D01*
X90022680Y-98552281D01*
X90053615Y-98707804D01*
X90109498Y-98791438D01*
X90141712Y-98839649D01*
X91396222Y-100094159D01*
X91319350Y-100094159D01*
X91200423Y-100117815D01*
X91099602Y-100185182D01*
X91032235Y-100286003D01*
X91008579Y-100404930D01*
X91008579Y-100629534D01*
X90920257Y-100647102D01*
X90759570Y-100754470D01*
X89924143Y-101589897D01*
X89811506Y-101612302D01*
X89650819Y-101719670D01*
X89543451Y-101880357D01*
X89505749Y-102069900D01*
X89505749Y-103422913D01*
X89454661Y-103457049D01*
X89354800Y-103606502D01*
X89354800Y-89154000D01*
X89580720Y-89154000D01*
X89580720Y-89387404D01*
X89619389Y-89480759D01*
X89690840Y-89552211D01*
X89784196Y-89590880D01*
X90017600Y-89590880D01*
X90081100Y-89527380D01*
X90081100Y-89090500D01*
X90385900Y-89090500D01*
X90385900Y-89527380D01*
X90449400Y-89590880D01*
X90682804Y-89590880D01*
X90776160Y-89552211D01*
X90847611Y-89480759D01*
X90886280Y-89387404D01*
X90886280Y-89154000D01*
X90822780Y-89090500D01*
X90385900Y-89090500D01*
X90081100Y-89090500D01*
X89644220Y-89090500D01*
X89580720Y-89154000D01*
X89354800Y-89154000D01*
X89354800Y-88488796D01*
X89580720Y-88488796D01*
X89580720Y-88722200D01*
X89644220Y-88785700D01*
X90081100Y-88785700D01*
X90081100Y-88348820D01*
X90385900Y-88348820D01*
X90385900Y-88785700D01*
X90822780Y-88785700D01*
X90886280Y-88722200D01*
X90886280Y-88488796D01*
X90847611Y-88395441D01*
X90776160Y-88323989D01*
X90682804Y-88285320D01*
X90449400Y-88285320D01*
X90385900Y-88348820D01*
X90081100Y-88348820D01*
X90017600Y-88285320D01*
X89784196Y-88285320D01*
X89690840Y-88323989D01*
X89619389Y-88395441D01*
X89580720Y-88488796D01*
X89354800Y-88488796D01*
X89354800Y-88018896D01*
X92933520Y-88018896D01*
X92933520Y-88252300D01*
X92997020Y-88315800D01*
X93433900Y-88315800D01*
X93433900Y-87878920D01*
X93738700Y-87878920D01*
X93738700Y-88315800D01*
X94175580Y-88315800D01*
X94239080Y-88252300D01*
X94239080Y-88018896D01*
X94200411Y-87925541D01*
X94128960Y-87854089D01*
X94035604Y-87815420D01*
X93802200Y-87815420D01*
X93738700Y-87878920D01*
X93433900Y-87878920D01*
X93370400Y-87815420D01*
X93136996Y-87815420D01*
X93043640Y-87854089D01*
X92972189Y-87925541D01*
X92933520Y-88018896D01*
X89354800Y-88018896D01*
X89354800Y-86682360D01*
X89862940Y-86682360D01*
X89974784Y-86952406D01*
X90295673Y-87330010D01*
X90736638Y-87556072D01*
X90932000Y-87531936D01*
X90932000Y-86487000D01*
X91236800Y-86487000D01*
X91236800Y-87531936D01*
X91432162Y-87556072D01*
X91873127Y-87330010D01*
X92194016Y-86952406D01*
X92305860Y-86682360D01*
X92281236Y-86487000D01*
X91236800Y-86487000D01*
X90932000Y-86487000D01*
X89887564Y-86487000D01*
X89862940Y-86682360D01*
X89354800Y-86682360D01*
X89354800Y-85426698D01*
X90224064Y-85423455D01*
X89974784Y-85716794D01*
X89862940Y-85986840D01*
X89887564Y-86182200D01*
X90932000Y-86182200D01*
X90932000Y-86162200D01*
X91236800Y-86162200D01*
X91236800Y-86182200D01*
X92281236Y-86182200D01*
X92305860Y-85986840D01*
X92194016Y-85716794D01*
X91939297Y-85417055D01*
X92524550Y-85414871D01*
X92563402Y-85406992D01*
X92596281Y-85384845D01*
X92618182Y-85351802D01*
X92625771Y-85313272D01*
X92625771Y-84624900D01*
X98225729Y-84624900D01*
X98225729Y-85224900D01*
X98249385Y-85343827D01*
X98316752Y-85444648D01*
X98417573Y-85512015D01*
X98536500Y-85535671D01*
X100086500Y-85535671D01*
X100205427Y-85512015D01*
X100226695Y-85497804D01*
X100272670Y-85516895D01*
X100513274Y-85517105D01*
X100735644Y-85425224D01*
X100905926Y-85255239D01*
X100998195Y-85033030D01*
X100998405Y-84792426D01*
X100906524Y-84570056D01*
X100736539Y-84399774D01*
X100514330Y-84307505D01*
X100273726Y-84307295D01*
X100201719Y-84337047D01*
X100086500Y-84314129D01*
X98536500Y-84314129D01*
X98417573Y-84337785D01*
X98316752Y-84405152D01*
X98249385Y-84505973D01*
X98225729Y-84624900D01*
X92625771Y-84624900D01*
X92625771Y-83354900D01*
X98225729Y-83354900D01*
X98225729Y-83954900D01*
X98249385Y-84073827D01*
X98316752Y-84174648D01*
X98417573Y-84242015D01*
X98536500Y-84265671D01*
X100086500Y-84265671D01*
X100205427Y-84242015D01*
X100306248Y-84174648D01*
X100373615Y-84073827D01*
X100379666Y-84043405D01*
X100445223Y-84030365D01*
X100577068Y-83942268D01*
X100643737Y-83875599D01*
X102858762Y-83875599D01*
X102945674Y-84085944D01*
X103115659Y-84256226D01*
X103337868Y-84348495D01*
X103578472Y-84348705D01*
X103800842Y-84256824D01*
X103859737Y-84198032D01*
X103885976Y-84208900D01*
X104495600Y-84208900D01*
X104559100Y-84145400D01*
X104559100Y-83804900D01*
X104539100Y-83804900D01*
X104539100Y-83504900D01*
X104559100Y-83504900D01*
X104559100Y-83164400D01*
X104863900Y-83164400D01*
X104863900Y-83504900D01*
X105677000Y-83504900D01*
X105740500Y-83441400D01*
X105740500Y-83304376D01*
X105701831Y-83211021D01*
X105630380Y-83139569D01*
X105537024Y-83100900D01*
X104927400Y-83100900D01*
X104863900Y-83164400D01*
X104559100Y-83164400D01*
X104495600Y-83100900D01*
X103885976Y-83100900D01*
X103792620Y-83139569D01*
X103730427Y-83201763D01*
X103579528Y-83139105D01*
X103407297Y-83138955D01*
X103339620Y-83093734D01*
X103184097Y-83062799D01*
X100475401Y-83062799D01*
X100319878Y-83093734D01*
X100282070Y-83118997D01*
X100205427Y-83067785D01*
X100086500Y-83044129D01*
X98536500Y-83044129D01*
X98417573Y-83067785D01*
X98316752Y-83135152D01*
X98249385Y-83235973D01*
X98225729Y-83354900D01*
X92625771Y-83354900D01*
X92625771Y-82354800D01*
X110145200Y-82354800D01*
X110145200Y-98727785D01*
G36*
X106468066Y-100802819D02*
X105836350Y-100802819D01*
X105717423Y-100826475D01*
X105616602Y-100893842D01*
X105549235Y-100994663D01*
X105525579Y-101113590D01*
X105525579Y-101913690D01*
X105540545Y-101988929D01*
X105349040Y-101797424D01*
X105349040Y-100919594D01*
X105579719Y-100688915D01*
X105667816Y-100557070D01*
X105698751Y-100401547D01*
X105698751Y-100183739D01*
X105677359Y-100076192D01*
X105703026Y-100037779D01*
X106468066Y-100802819D01*
X106468066Y-100802819D01*
G37*
X106468066Y-100802819D02*
X105836350Y-100802819D01*
X105717423Y-100826475D01*
X105616602Y-100893842D01*
X105549235Y-100994663D01*
X105525579Y-101113590D01*
X105525579Y-101913690D01*
X105540545Y-101988929D01*
X105349040Y-101797424D01*
X105349040Y-100919594D01*
X105579719Y-100688915D01*
X105667816Y-100557070D01*
X105698751Y-100401547D01*
X105698751Y-100183739D01*
X105677359Y-100076192D01*
X105703026Y-100037779D01*
X106468066Y-100802819D01*
G36*
X107772340Y-99279069D02*
X107904185Y-99367166D01*
X108059708Y-99398101D01*
X108138043Y-99398101D01*
X108409392Y-99669450D01*
X108521152Y-99781211D01*
X108521155Y-99781213D01*
X108563451Y-99823509D01*
X108563451Y-100808190D01*
X108536450Y-100802819D01*
X107736350Y-100802819D01*
X107637250Y-100822531D01*
X106277762Y-99463043D01*
X106378306Y-99395861D01*
X106767215Y-99006952D01*
X106834582Y-98906131D01*
X106858238Y-98787204D01*
X106834582Y-98668277D01*
X106767215Y-98567456D01*
X105985672Y-97785913D01*
X106279184Y-97785913D01*
X107772340Y-99279069D01*
X107772340Y-99279069D01*
G37*
X107772340Y-99279069D02*
X107904185Y-99367166D01*
X108059708Y-99398101D01*
X108138043Y-99398101D01*
X108409392Y-99669450D01*
X108521152Y-99781211D01*
X108521155Y-99781213D01*
X108563451Y-99823509D01*
X108563451Y-100808190D01*
X108536450Y-100802819D01*
X107736350Y-100802819D01*
X107637250Y-100822531D01*
X106277762Y-99463043D01*
X106378306Y-99395861D01*
X106767215Y-99006952D01*
X106834582Y-98906131D01*
X106858238Y-98787204D01*
X106834582Y-98668277D01*
X106767215Y-98567456D01*
X105985672Y-97785913D01*
X106279184Y-97785913D01*
X107772340Y-99279069D01*
G36*
X93520799Y-95061128D02*
X93506656Y-95075270D01*
X93798762Y-95367376D01*
X93888565Y-95367376D01*
X93930398Y-95325543D01*
X94472423Y-95867568D01*
X94604268Y-95955665D01*
X94748168Y-95984288D01*
X94746210Y-95994132D01*
X94769866Y-96113059D01*
X94837233Y-96213880D01*
X95968604Y-97345251D01*
X96036575Y-97390668D01*
X95968604Y-97436085D01*
X95697757Y-97706932D01*
X95647762Y-97673526D01*
X95573455Y-97623875D01*
X95417932Y-97592940D01*
X93869628Y-97592940D01*
X92889554Y-96612866D01*
X92789928Y-96546298D01*
X92998226Y-96338000D01*
X93065593Y-96237179D01*
X93089249Y-96118252D01*
X93065593Y-95999325D01*
X92998226Y-95898504D01*
X92700302Y-95600580D01*
X92981347Y-95600580D01*
X92981347Y-95690382D01*
X93058121Y-95767157D01*
X93129573Y-95838609D01*
X93222928Y-95877278D01*
X93323976Y-95877278D01*
X93417332Y-95838609D01*
X93583236Y-95672705D01*
X93583236Y-95582902D01*
X93291130Y-95290796D01*
X92981347Y-95600580D01*
X92700302Y-95600580D01*
X92467896Y-95368174D01*
X92367075Y-95300807D01*
X92248616Y-95277244D01*
X92493143Y-95032717D01*
X92489122Y-95042424D01*
X92489122Y-95143472D01*
X92527791Y-95236827D01*
X92599243Y-95308279D01*
X92676018Y-95385053D01*
X92765820Y-95385053D01*
X93075604Y-95075270D01*
X93061462Y-95061128D01*
X93276988Y-94845602D01*
X93291130Y-94859744D01*
X93305272Y-94845601D01*
X93520799Y-95061128D01*
X93520799Y-95061128D01*
G37*
X93520799Y-95061128D02*
X93506656Y-95075270D01*
X93798762Y-95367376D01*
X93888565Y-95367376D01*
X93930398Y-95325543D01*
X94472423Y-95867568D01*
X94604268Y-95955665D01*
X94748168Y-95984288D01*
X94746210Y-95994132D01*
X94769866Y-96113059D01*
X94837233Y-96213880D01*
X95968604Y-97345251D01*
X96036575Y-97390668D01*
X95968604Y-97436085D01*
X95697757Y-97706932D01*
X95647762Y-97673526D01*
X95573455Y-97623875D01*
X95417932Y-97592940D01*
X93869628Y-97592940D01*
X92889554Y-96612866D01*
X92789928Y-96546298D01*
X92998226Y-96338000D01*
X93065593Y-96237179D01*
X93089249Y-96118252D01*
X93065593Y-95999325D01*
X92998226Y-95898504D01*
X92700302Y-95600580D01*
X92981347Y-95600580D01*
X92981347Y-95690382D01*
X93058121Y-95767157D01*
X93129573Y-95838609D01*
X93222928Y-95877278D01*
X93323976Y-95877278D01*
X93417332Y-95838609D01*
X93583236Y-95672705D01*
X93583236Y-95582902D01*
X93291130Y-95290796D01*
X92981347Y-95600580D01*
X92700302Y-95600580D01*
X92467896Y-95368174D01*
X92367075Y-95300807D01*
X92248616Y-95277244D01*
X92493143Y-95032717D01*
X92489122Y-95042424D01*
X92489122Y-95143472D01*
X92527791Y-95236827D01*
X92599243Y-95308279D01*
X92676018Y-95385053D01*
X92765820Y-95385053D01*
X93075604Y-95075270D01*
X93061462Y-95061128D01*
X93276988Y-94845602D01*
X93291130Y-94859744D01*
X93305272Y-94845601D01*
X93520799Y-95061128D01*
G36*
X91163692Y-91003492D02*
X91193800Y-91033600D01*
X91631900Y-91033600D01*
X91631900Y-91013600D01*
X91936700Y-91013600D01*
X91936700Y-91033600D01*
X91956700Y-91033600D01*
X91956700Y-91338400D01*
X91936700Y-91338400D01*
X91936700Y-91751500D01*
X91945576Y-91760376D01*
X91861057Y-91963922D01*
X91860847Y-92204526D01*
X91952728Y-92426896D01*
X92122713Y-92597178D01*
X92344922Y-92689447D01*
X92585526Y-92689657D01*
X92807896Y-92597776D01*
X92825651Y-92580052D01*
X93432583Y-92580052D01*
X93429091Y-92597608D01*
X93452747Y-92716535D01*
X93520114Y-92817356D01*
X94050444Y-93347686D01*
X94151265Y-93415053D01*
X94270192Y-93438709D01*
X94389119Y-93415053D01*
X94423538Y-93392054D01*
X95798784Y-94767300D01*
X95746412Y-94756883D01*
X95103019Y-94756883D01*
X93810168Y-93464032D01*
X93793388Y-93452820D01*
X93678323Y-93375935D01*
X93522800Y-93345000D01*
X92739780Y-93345000D01*
X92633939Y-93238974D01*
X92411730Y-93146705D01*
X92171126Y-93146495D01*
X91948756Y-93238376D01*
X91882677Y-93304340D01*
X91184771Y-92606435D01*
X91184771Y-92370400D01*
X91161115Y-92251473D01*
X91093748Y-92150652D01*
X90992927Y-92083285D01*
X90874000Y-92059629D01*
X90830400Y-92059629D01*
X90830400Y-91829958D01*
X90904048Y-91780748D01*
X90971415Y-91679927D01*
X90995071Y-91561000D01*
X90995071Y-91401900D01*
X91130300Y-91401900D01*
X91130300Y-91611524D01*
X91168969Y-91704879D01*
X91240420Y-91776331D01*
X91333776Y-91815000D01*
X91568400Y-91815000D01*
X91631900Y-91751500D01*
X91631900Y-91338400D01*
X91193800Y-91338400D01*
X91130300Y-91401900D01*
X90995071Y-91401900D01*
X90995071Y-91074965D01*
X91066629Y-91003407D01*
X91163692Y-91003492D01*
X91163692Y-91003492D01*
G37*
X91163692Y-91003492D02*
X91193800Y-91033600D01*
X91631900Y-91033600D01*
X91631900Y-91013600D01*
X91936700Y-91013600D01*
X91936700Y-91033600D01*
X91956700Y-91033600D01*
X91956700Y-91338400D01*
X91936700Y-91338400D01*
X91936700Y-91751500D01*
X91945576Y-91760376D01*
X91861057Y-91963922D01*
X91860847Y-92204526D01*
X91952728Y-92426896D01*
X92122713Y-92597178D01*
X92344922Y-92689447D01*
X92585526Y-92689657D01*
X92807896Y-92597776D01*
X92825651Y-92580052D01*
X93432583Y-92580052D01*
X93429091Y-92597608D01*
X93452747Y-92716535D01*
X93520114Y-92817356D01*
X94050444Y-93347686D01*
X94151265Y-93415053D01*
X94270192Y-93438709D01*
X94389119Y-93415053D01*
X94423538Y-93392054D01*
X95798784Y-94767300D01*
X95746412Y-94756883D01*
X95103019Y-94756883D01*
X93810168Y-93464032D01*
X93793388Y-93452820D01*
X93678323Y-93375935D01*
X93522800Y-93345000D01*
X92739780Y-93345000D01*
X92633939Y-93238974D01*
X92411730Y-93146705D01*
X92171126Y-93146495D01*
X91948756Y-93238376D01*
X91882677Y-93304340D01*
X91184771Y-92606435D01*
X91184771Y-92370400D01*
X91161115Y-92251473D01*
X91093748Y-92150652D01*
X90992927Y-92083285D01*
X90874000Y-92059629D01*
X90830400Y-92059629D01*
X90830400Y-91829958D01*
X90904048Y-91780748D01*
X90971415Y-91679927D01*
X90995071Y-91561000D01*
X90995071Y-91401900D01*
X91130300Y-91401900D01*
X91130300Y-91611524D01*
X91168969Y-91704879D01*
X91240420Y-91776331D01*
X91333776Y-91815000D01*
X91568400Y-91815000D01*
X91631900Y-91751500D01*
X91631900Y-91338400D01*
X91193800Y-91338400D01*
X91130300Y-91401900D01*
X90995071Y-91401900D01*
X90995071Y-91074965D01*
X91066629Y-91003407D01*
X91163692Y-91003492D01*
G36*
X108361629Y-92262800D02*
X108385285Y-92381727D01*
X108452652Y-92482548D01*
X108553473Y-92549915D01*
X108672400Y-92573571D01*
X108707100Y-92573571D01*
X108707100Y-93202029D01*
X108672400Y-93202029D01*
X108553473Y-93225685D01*
X108452652Y-93293052D01*
X108385285Y-93393873D01*
X108368137Y-93480081D01*
X108217697Y-93329378D01*
X107995488Y-93237109D01*
X107786400Y-93236927D01*
X107786400Y-93103700D01*
X107722900Y-93040200D01*
X107154800Y-93040200D01*
X107154800Y-93060200D01*
X106850000Y-93060200D01*
X106850000Y-93040200D01*
X106830000Y-93040200D01*
X106830000Y-92735400D01*
X106850000Y-92735400D01*
X106850000Y-92715400D01*
X107154800Y-92715400D01*
X107154800Y-92735400D01*
X107722900Y-92735400D01*
X107786400Y-92671900D01*
X107786400Y-92512276D01*
X107765691Y-92462280D01*
X107819515Y-92381727D01*
X107828816Y-92334967D01*
X107937923Y-92313265D01*
X108069768Y-92225168D01*
X108135862Y-92159074D01*
X108285674Y-92159205D01*
X108361629Y-92127821D01*
X108361629Y-92262800D01*
X108361629Y-92262800D01*
G37*
X108361629Y-92262800D02*
X108385285Y-92381727D01*
X108452652Y-92482548D01*
X108553473Y-92549915D01*
X108672400Y-92573571D01*
X108707100Y-92573571D01*
X108707100Y-93202029D01*
X108672400Y-93202029D01*
X108553473Y-93225685D01*
X108452652Y-93293052D01*
X108385285Y-93393873D01*
X108368137Y-93480081D01*
X108217697Y-93329378D01*
X107995488Y-93237109D01*
X107786400Y-93236927D01*
X107786400Y-93103700D01*
X107722900Y-93040200D01*
X107154800Y-93040200D01*
X107154800Y-93060200D01*
X106850000Y-93060200D01*
X106850000Y-93040200D01*
X106830000Y-93040200D01*
X106830000Y-92735400D01*
X106850000Y-92735400D01*
X106850000Y-92715400D01*
X107154800Y-92715400D01*
X107154800Y-92735400D01*
X107722900Y-92735400D01*
X107786400Y-92671900D01*
X107786400Y-92512276D01*
X107765691Y-92462280D01*
X107819515Y-92381727D01*
X107828816Y-92334967D01*
X107937923Y-92313265D01*
X108069768Y-92225168D01*
X108135862Y-92159074D01*
X108285674Y-92159205D01*
X108361629Y-92127821D01*
X108361629Y-92262800D01*
G36*
X106612634Y-88094470D02*
X106547885Y-88191373D01*
X106524229Y-88310300D01*
X106524229Y-88946335D01*
X106328103Y-89142461D01*
X106240006Y-89274306D01*
X106209071Y-89429829D01*
X106209071Y-89477860D01*
X106170879Y-89439669D01*
X106077524Y-89401000D01*
X105867900Y-89401000D01*
X105804400Y-89464500D01*
X105804400Y-89902600D01*
X105824400Y-89902600D01*
X105824400Y-90207400D01*
X105804400Y-90207400D01*
X105804400Y-90227400D01*
X105499600Y-90227400D01*
X105499600Y-90207400D01*
X105086500Y-90207400D01*
X105023000Y-90270900D01*
X105023000Y-90369730D01*
X104907309Y-90447033D01*
X104710231Y-90644111D01*
X104622134Y-90775956D01*
X104591199Y-90931479D01*
X104591199Y-91171136D01*
X103910347Y-90490284D01*
X103910478Y-90340472D01*
X103818597Y-90118102D01*
X103648612Y-89947820D01*
X103426403Y-89855551D01*
X103403605Y-89855531D01*
X103654660Y-89604476D01*
X105023000Y-89604476D01*
X105023000Y-89839100D01*
X105086500Y-89902600D01*
X105499600Y-89902600D01*
X105499600Y-89464500D01*
X105436100Y-89401000D01*
X105226476Y-89401000D01*
X105133121Y-89439669D01*
X105061669Y-89511120D01*
X105023000Y-89604476D01*
X103654660Y-89604476D01*
X104833835Y-88425301D01*
X105659862Y-88425301D01*
X105815385Y-88394366D01*
X105947230Y-88306269D01*
X105968266Y-88274787D01*
X106079635Y-88274884D01*
X106302005Y-88183003D01*
X106472287Y-88013018D01*
X106489567Y-87971403D01*
X106612634Y-88094470D01*
X106612634Y-88094470D01*
G37*
X106612634Y-88094470D02*
X106547885Y-88191373D01*
X106524229Y-88310300D01*
X106524229Y-88946335D01*
X106328103Y-89142461D01*
X106240006Y-89274306D01*
X106209071Y-89429829D01*
X106209071Y-89477860D01*
X106170879Y-89439669D01*
X106077524Y-89401000D01*
X105867900Y-89401000D01*
X105804400Y-89464500D01*
X105804400Y-89902600D01*
X105824400Y-89902600D01*
X105824400Y-90207400D01*
X105804400Y-90207400D01*
X105804400Y-90227400D01*
X105499600Y-90227400D01*
X105499600Y-90207400D01*
X105086500Y-90207400D01*
X105023000Y-90270900D01*
X105023000Y-90369730D01*
X104907309Y-90447033D01*
X104710231Y-90644111D01*
X104622134Y-90775956D01*
X104591199Y-90931479D01*
X104591199Y-91171136D01*
X103910347Y-90490284D01*
X103910478Y-90340472D01*
X103818597Y-90118102D01*
X103648612Y-89947820D01*
X103426403Y-89855551D01*
X103403605Y-89855531D01*
X103654660Y-89604476D01*
X105023000Y-89604476D01*
X105023000Y-89839100D01*
X105086500Y-89902600D01*
X105499600Y-89902600D01*
X105499600Y-89464500D01*
X105436100Y-89401000D01*
X105226476Y-89401000D01*
X105133121Y-89439669D01*
X105061669Y-89511120D01*
X105023000Y-89604476D01*
X103654660Y-89604476D01*
X104833835Y-88425301D01*
X105659862Y-88425301D01*
X105815385Y-88394366D01*
X105947230Y-88306269D01*
X105968266Y-88274787D01*
X106079635Y-88274884D01*
X106302005Y-88183003D01*
X106472287Y-88013018D01*
X106489567Y-87971403D01*
X106612634Y-88094470D01*
G36*
X102924584Y-87898080D02*
X102924374Y-88138684D01*
X103016255Y-88361054D01*
X103070674Y-88415569D01*
X101896832Y-89589411D01*
X101808735Y-89721256D01*
X101777800Y-89876779D01*
X101777800Y-90254520D01*
X101671774Y-90360361D01*
X101579505Y-90582570D01*
X101579295Y-90823174D01*
X101628160Y-90941438D01*
X101396774Y-90941438D01*
X100761800Y-90306464D01*
X100761800Y-89596920D01*
X101031772Y-89326948D01*
X101181584Y-89327079D01*
X101403954Y-89235198D01*
X101574236Y-89065213D01*
X101666505Y-88843004D01*
X101666715Y-88602400D01*
X101574834Y-88380030D01*
X101404849Y-88209748D01*
X101234092Y-88138844D01*
X101501636Y-87871300D01*
X101663500Y-87871300D01*
X101819023Y-87840365D01*
X101950868Y-87752268D01*
X102022336Y-87680800D01*
X103014806Y-87680800D01*
X102924584Y-87898080D01*
X102924584Y-87898080D01*
G37*
X102924584Y-87898080D02*
X102924374Y-88138684D01*
X103016255Y-88361054D01*
X103070674Y-88415569D01*
X101896832Y-89589411D01*
X101808735Y-89721256D01*
X101777800Y-89876779D01*
X101777800Y-90254520D01*
X101671774Y-90360361D01*
X101579505Y-90582570D01*
X101579295Y-90823174D01*
X101628160Y-90941438D01*
X101396774Y-90941438D01*
X100761800Y-90306464D01*
X100761800Y-89596920D01*
X101031772Y-89326948D01*
X101181584Y-89327079D01*
X101403954Y-89235198D01*
X101574236Y-89065213D01*
X101666505Y-88843004D01*
X101666715Y-88602400D01*
X101574834Y-88380030D01*
X101404849Y-88209748D01*
X101234092Y-88138844D01*
X101501636Y-87871300D01*
X101663500Y-87871300D01*
X101819023Y-87840365D01*
X101950868Y-87752268D01*
X102022336Y-87680800D01*
X103014806Y-87680800D01*
X102924584Y-87898080D01*
M02*
