M48
;DRILL file {KiCad no-vcs-found-7664~57~ubuntu16.10.1} date Wed Feb 22 20:42:06 2017
;FORMAT={3:3/ absolute / metric / keep zeros}
FMAT,2
METRIC,TZ
T1C0.300
T2C0.400
T3C1.016
%
G90
G05
M71
T1
X089764Y-090246
X090256Y-096662
X090272Y-099238
X090272Y-100990
X091465Y-096749
X091694Y-103264
X091732Y-101829
X092215Y-089878
X092862Y-082715
X092888Y-084709
X093462Y-099223
X093579Y-103124
X093764Y-091351
X093891Y-095885
X094031Y-101666
X094056Y-084785
X094767Y-094056
X094862Y-082715
X095047Y-085852
X095428Y-102819
X096418Y-091326
X096850Y-088278
X096862Y-082715
X097244Y-104242
X097704Y-085872
X098730Y-106083
X098850Y-088278
X098862Y-082715
X099035Y-090780
X099517Y-096418
X099517Y-097418
X099517Y-098418
X100393Y-084912
X100517Y-096418
X100517Y-098418
X100862Y-082715
X101130Y-084049
X101194Y-090424
X101517Y-096418
X101517Y-097418
X101517Y-098418
X101900Y-086393
X101943Y-105258
X102413Y-087960
X102862Y-082715
X103162Y-107150
X104356Y-090399
X104470Y-105562
X104862Y-082715
X105928Y-100538
X106274Y-088595
X107188Y-099339
X107533Y-104567
X108839Y-084226
X108862Y-082715
X108915Y-097180
X109499Y-087960
T2
X091059Y-090399
X091084Y-095479
X091179Y-094175
X092291Y-093751
X092466Y-092085
X094132Y-105603
X096579Y-105928
X097104Y-108356
X098349Y-107747
X099598Y-107885
X099898Y-111506
X099962Y-091542
X101062Y-088722
X101783Y-095204
X102184Y-090703
X102532Y-095024
X102908Y-095783
X103306Y-090460
X103459Y-083744
X103529Y-088019
X104198Y-110660
X104435Y-108350
X104504Y-107575
X105960Y-087670
X106019Y-092413
X106132Y-105603
X107290Y-084201
X107383Y-096076
X107737Y-096894
X107798Y-092799
X107875Y-093842
X108166Y-091554
X108208Y-107244
X108298Y-098417
X109202Y-090888
X109393Y-096326
X109431Y-107174
X110039Y-107810
T3
X090983Y-109449
X090983Y-111989
X091084Y-083795
X091084Y-086335
X093523Y-109449
X093523Y-111989
X096063Y-109449
X096063Y-111989
X098603Y-109449
X098603Y-111989
X101143Y-109449
X101143Y-111989
X103683Y-109449
X103683Y-111989
X106223Y-109449
X106223Y-111989
X108763Y-109449
X108763Y-111989
T0
M30
