G04 #@! TF.FileFunction,Soldermask,Top*
%FSLAX46Y46*%
G04 Gerber Fmt 4.6, Leading zero omitted, Abs format (unit mm)*
G04 Created by KiCad (PCBNEW no-vcs-found-undefined) date Sun Nov 20 22:17:31 2016*
%MOMM*%
%LPD*%
G01*
G04 APERTURE LIST*
%ADD10C,0.100000*%
%ADD11C,0.550000*%
%ADD12R,0.500000X0.900000*%
%ADD13R,1.550000X0.600000*%
%ADD14C,1.500000*%
%ADD15C,0.750000*%
%ADD16R,0.800100X0.800100*%
%ADD17R,1.060000X0.650000*%
%ADD18R,0.750000X0.800000*%
%ADD19R,0.630000X0.450000*%
%ADD20R,0.850000X1.300000*%
%ADD21O,1.727200X1.727200*%
%ADD22R,1.727200X1.727200*%
%ADD23C,1.270000*%
%ADD24R,0.600000X1.270000*%
%ADD25R,1.200000X1.270000*%
%ADD26R,1.270000X0.600000*%
%ADD27O,1.270000X1.270000*%
%ADD28R,0.797560X0.797560*%
%ADD29R,0.900000X0.500000*%
%ADD30R,2.235200X2.235200*%
G04 APERTURE END LIST*
D10*
D11*
X95497297Y-98078705D03*
D10*
G36*
X95126066Y-98838845D02*
X94737157Y-98449936D01*
X95868528Y-97318565D01*
X96257437Y-97707474D01*
X95126066Y-98838845D01*
X95126066Y-98838845D01*
G37*
D11*
X96062983Y-98644390D03*
D10*
G36*
X95691752Y-99404530D02*
X95302843Y-99015621D01*
X96434214Y-97884250D01*
X96823123Y-98273159D01*
X95691752Y-99404530D01*
X95691752Y-99404530D01*
G37*
D11*
X96628668Y-99210076D03*
D10*
G36*
X96257437Y-99970216D02*
X95868528Y-99581307D01*
X96999899Y-98449936D01*
X97388808Y-98838845D01*
X96257437Y-99970216D01*
X96257437Y-99970216D01*
G37*
D11*
X97194353Y-99775761D03*
D10*
G36*
X96823122Y-100535901D02*
X96434213Y-100146992D01*
X97565584Y-99015621D01*
X97954493Y-99404530D01*
X96823122Y-100535901D01*
X96823122Y-100535901D01*
G37*
D11*
X97760039Y-100341447D03*
D10*
G36*
X97388808Y-101101587D02*
X96999899Y-100712678D01*
X98131270Y-99581307D01*
X98520179Y-99970216D01*
X97388808Y-101101587D01*
X97388808Y-101101587D01*
G37*
D11*
X98325724Y-100907132D03*
D10*
G36*
X97954493Y-101667272D02*
X97565584Y-101278363D01*
X98696955Y-100146992D01*
X99085864Y-100535901D01*
X97954493Y-101667272D01*
X97954493Y-101667272D01*
G37*
D11*
X98891410Y-101472817D03*
D10*
G36*
X98520179Y-102232957D02*
X98131270Y-101844048D01*
X99262641Y-100712677D01*
X99651550Y-101101586D01*
X98520179Y-102232957D01*
X98520179Y-102232957D01*
G37*
D11*
X99457095Y-102038503D03*
D10*
G36*
X99085864Y-102798643D02*
X98696955Y-102409734D01*
X99828326Y-101278363D01*
X100217235Y-101667272D01*
X99085864Y-102798643D01*
X99085864Y-102798643D01*
G37*
D11*
X101507705Y-102038503D03*
D10*
G36*
X102267845Y-102409734D02*
X101878936Y-102798643D01*
X100747565Y-101667272D01*
X101136474Y-101278363D01*
X102267845Y-102409734D01*
X102267845Y-102409734D01*
G37*
D11*
X102073390Y-101472817D03*
D10*
G36*
X102833530Y-101844048D02*
X102444621Y-102232957D01*
X101313250Y-101101586D01*
X101702159Y-100712677D01*
X102833530Y-101844048D01*
X102833530Y-101844048D01*
G37*
D11*
X102639076Y-100907132D03*
D10*
G36*
X103399216Y-101278363D02*
X103010307Y-101667272D01*
X101878936Y-100535901D01*
X102267845Y-100146992D01*
X103399216Y-101278363D01*
X103399216Y-101278363D01*
G37*
D11*
X103204761Y-100341447D03*
D10*
G36*
X103964901Y-100712678D02*
X103575992Y-101101587D01*
X102444621Y-99970216D01*
X102833530Y-99581307D01*
X103964901Y-100712678D01*
X103964901Y-100712678D01*
G37*
D11*
X103770447Y-99775761D03*
D10*
G36*
X104530587Y-100146992D02*
X104141678Y-100535901D01*
X103010307Y-99404530D01*
X103399216Y-99015621D01*
X104530587Y-100146992D01*
X104530587Y-100146992D01*
G37*
D11*
X104336132Y-99210076D03*
D10*
G36*
X105096272Y-99581307D02*
X104707363Y-99970216D01*
X103575992Y-98838845D01*
X103964901Y-98449936D01*
X105096272Y-99581307D01*
X105096272Y-99581307D01*
G37*
D11*
X104901817Y-98644390D03*
D10*
G36*
X105661957Y-99015621D02*
X105273048Y-99404530D01*
X104141677Y-98273159D01*
X104530586Y-97884250D01*
X105661957Y-99015621D01*
X105661957Y-99015621D01*
G37*
D11*
X105467503Y-98078705D03*
D10*
G36*
X106227643Y-98449936D02*
X105838734Y-98838845D01*
X104707363Y-97707474D01*
X105096272Y-97318565D01*
X106227643Y-98449936D01*
X106227643Y-98449936D01*
G37*
D11*
X105467503Y-96028095D03*
D10*
G36*
X105096272Y-96788235D02*
X104707363Y-96399326D01*
X105838734Y-95267955D01*
X106227643Y-95656864D01*
X105096272Y-96788235D01*
X105096272Y-96788235D01*
G37*
D11*
X104901817Y-95462410D03*
D10*
G36*
X104530586Y-96222550D02*
X104141677Y-95833641D01*
X105273048Y-94702270D01*
X105661957Y-95091179D01*
X104530586Y-96222550D01*
X104530586Y-96222550D01*
G37*
D11*
X104336132Y-94896724D03*
D10*
G36*
X103964901Y-95656864D02*
X103575992Y-95267955D01*
X104707363Y-94136584D01*
X105096272Y-94525493D01*
X103964901Y-95656864D01*
X103964901Y-95656864D01*
G37*
D11*
X103770447Y-94331039D03*
D10*
G36*
X103399216Y-95091179D02*
X103010307Y-94702270D01*
X104141678Y-93570899D01*
X104530587Y-93959808D01*
X103399216Y-95091179D01*
X103399216Y-95091179D01*
G37*
D11*
X103204761Y-93765353D03*
D10*
G36*
X102833530Y-94525493D02*
X102444621Y-94136584D01*
X103575992Y-93005213D01*
X103964901Y-93394122D01*
X102833530Y-94525493D01*
X102833530Y-94525493D01*
G37*
D11*
X102639076Y-93199668D03*
D10*
G36*
X102267845Y-93959808D02*
X101878936Y-93570899D01*
X103010307Y-92439528D01*
X103399216Y-92828437D01*
X102267845Y-93959808D01*
X102267845Y-93959808D01*
G37*
D11*
X102073390Y-92633983D03*
D10*
G36*
X101702159Y-93394123D02*
X101313250Y-93005214D01*
X102444621Y-91873843D01*
X102833530Y-92262752D01*
X101702159Y-93394123D01*
X101702159Y-93394123D01*
G37*
D11*
X101507705Y-92068297D03*
D10*
G36*
X101136474Y-92828437D02*
X100747565Y-92439528D01*
X101878936Y-91308157D01*
X102267845Y-91697066D01*
X101136474Y-92828437D01*
X101136474Y-92828437D01*
G37*
D11*
X99457095Y-92068297D03*
D10*
G36*
X100217235Y-92439528D02*
X99828326Y-92828437D01*
X98696955Y-91697066D01*
X99085864Y-91308157D01*
X100217235Y-92439528D01*
X100217235Y-92439528D01*
G37*
D11*
X98891410Y-92633983D03*
D10*
G36*
X99651550Y-93005214D02*
X99262641Y-93394123D01*
X98131270Y-92262752D01*
X98520179Y-91873843D01*
X99651550Y-93005214D01*
X99651550Y-93005214D01*
G37*
D11*
X98325724Y-93199668D03*
D10*
G36*
X99085864Y-93570899D02*
X98696955Y-93959808D01*
X97565584Y-92828437D01*
X97954493Y-92439528D01*
X99085864Y-93570899D01*
X99085864Y-93570899D01*
G37*
D11*
X97760039Y-93765353D03*
D10*
G36*
X98520179Y-94136584D02*
X98131270Y-94525493D01*
X96999899Y-93394122D01*
X97388808Y-93005213D01*
X98520179Y-94136584D01*
X98520179Y-94136584D01*
G37*
D11*
X97194353Y-94331039D03*
D10*
G36*
X97954493Y-94702270D02*
X97565584Y-95091179D01*
X96434213Y-93959808D01*
X96823122Y-93570899D01*
X97954493Y-94702270D01*
X97954493Y-94702270D01*
G37*
D11*
X96628668Y-94896724D03*
D10*
G36*
X97388808Y-95267955D02*
X96999899Y-95656864D01*
X95868528Y-94525493D01*
X96257437Y-94136584D01*
X97388808Y-95267955D01*
X97388808Y-95267955D01*
G37*
D11*
X96062983Y-95462410D03*
D10*
G36*
X96823123Y-95833641D02*
X96434214Y-96222550D01*
X95302843Y-95091179D01*
X95691752Y-94702270D01*
X96823123Y-95833641D01*
X96823123Y-95833641D01*
G37*
D11*
X95497297Y-96028095D03*
D10*
G36*
X96257437Y-96399326D02*
X95868528Y-96788235D01*
X94737157Y-95656864D01*
X95126066Y-95267955D01*
X96257437Y-96399326D01*
X96257437Y-96399326D01*
G37*
D12*
X97929000Y-89128600D03*
X99429000Y-89128600D03*
D13*
X102903000Y-87477600D03*
X102903000Y-86207600D03*
X102903000Y-84937600D03*
X102903000Y-83667600D03*
X97503000Y-83667600D03*
X97503000Y-84937600D03*
X97503000Y-86207600D03*
X97503000Y-87477600D03*
D14*
X92563740Y-97999340D03*
D10*
G36*
X91397014Y-98105406D02*
X92669806Y-96832614D01*
X93730466Y-97893274D01*
X92457674Y-99166066D01*
X91397014Y-98105406D01*
X91397014Y-98105406D01*
G37*
D14*
X94685060Y-100120660D03*
D10*
G36*
X93518334Y-100226726D02*
X94791126Y-98953934D01*
X95851786Y-100014594D01*
X94578994Y-101287386D01*
X93518334Y-100226726D01*
X93518334Y-100226726D01*
G37*
D15*
X96974130Y-92001870D03*
D10*
G36*
X96991808Y-91453862D02*
X97522138Y-91984192D01*
X96956452Y-92549878D01*
X96426122Y-92019548D01*
X96991808Y-91453862D01*
X96991808Y-91453862D01*
G37*
D15*
X95913470Y-93062530D03*
D10*
G36*
X95931148Y-92514522D02*
X96461478Y-93044852D01*
X95895792Y-93610538D01*
X95365462Y-93080208D01*
X95931148Y-92514522D01*
X95931148Y-92514522D01*
G37*
D16*
X94830900Y-104025700D03*
X94830900Y-105925700D03*
X96829880Y-104975700D03*
D17*
X106900800Y-90213100D03*
X106900800Y-91163100D03*
X106900800Y-92113100D03*
X109100800Y-92113100D03*
X109100800Y-90213100D03*
D15*
X103298730Y-102847670D03*
D10*
G36*
X103316408Y-102299662D02*
X103846738Y-102829992D01*
X103281052Y-103395678D01*
X102750722Y-102865348D01*
X103316408Y-102299662D01*
X103316408Y-102299662D01*
G37*
D15*
X102238070Y-103908330D03*
D10*
G36*
X102255748Y-103360322D02*
X102786078Y-103890652D01*
X102220392Y-104456338D01*
X101690062Y-103926008D01*
X102255748Y-103360322D01*
X102255748Y-103360322D01*
G37*
D18*
X90474800Y-92175200D03*
X90474800Y-93675200D03*
D16*
X90769400Y-102803960D03*
X92669400Y-102803960D03*
X91719400Y-100804980D03*
X108036400Y-101513640D03*
X106136400Y-101513640D03*
X107086400Y-103512620D03*
D19*
X109036000Y-85633600D03*
X109036000Y-84683600D03*
X109036000Y-83733600D03*
X106356000Y-83733600D03*
X106356000Y-84683600D03*
X106356000Y-85633600D03*
D20*
X107271000Y-84033600D03*
X107271000Y-85333600D03*
X108121000Y-84033600D03*
X108121000Y-85333600D03*
D12*
X90219400Y-90398600D03*
X91719400Y-90398600D03*
D21*
X108762800Y-109448600D03*
X108762800Y-111988600D03*
X106222800Y-109448600D03*
X106222800Y-111988600D03*
X103682800Y-109448600D03*
X103682800Y-111988600D03*
X101142800Y-109448600D03*
X101142800Y-111988600D03*
D22*
X90982800Y-111988600D03*
D21*
X90982800Y-109448600D03*
X93522800Y-111988600D03*
X93522800Y-109448600D03*
X96062800Y-111988600D03*
X96062800Y-109448600D03*
X98602800Y-111988600D03*
X98602800Y-109448600D03*
D15*
X103276400Y-104952800D03*
D10*
G36*
X103258722Y-105500808D02*
X102728392Y-104970478D01*
X103294078Y-104404792D01*
X103824408Y-104935122D01*
X103258722Y-105500808D01*
X103258722Y-105500808D01*
G37*
D15*
X104337060Y-103892140D03*
D10*
G36*
X104319382Y-104440148D02*
X103789052Y-103909818D01*
X104354738Y-103344132D01*
X104885068Y-103874462D01*
X104319382Y-104440148D01*
X104319382Y-104440148D01*
G37*
D23*
X90151000Y-107162600D03*
X93351000Y-107162600D03*
D24*
X92951000Y-107162600D03*
D25*
X91751000Y-107162600D03*
D24*
X90551000Y-107162600D03*
D15*
X94643470Y-102333530D03*
D10*
G36*
X94625792Y-102881538D02*
X94095462Y-102351208D01*
X94661148Y-101785522D01*
X95191478Y-102315852D01*
X94625792Y-102881538D01*
X94625792Y-102881538D01*
G37*
D15*
X95704130Y-101272870D03*
D10*
G36*
X95686452Y-101820878D02*
X95156122Y-101290548D01*
X95721808Y-100724862D01*
X96252138Y-101255192D01*
X95686452Y-101820878D01*
X95686452Y-101820878D01*
G37*
D15*
X93291130Y-95075270D03*
D10*
G36*
X93308808Y-94527262D02*
X93839138Y-95057592D01*
X93273452Y-95623278D01*
X92743122Y-95092948D01*
X93308808Y-94527262D01*
X93308808Y-94527262D01*
G37*
D15*
X92230470Y-96135930D03*
D10*
G36*
X92248148Y-95587922D02*
X92778478Y-96118252D01*
X92212792Y-96683938D01*
X91682462Y-96153608D01*
X92248148Y-95587922D01*
X92248148Y-95587922D01*
G37*
D26*
X90119200Y-104457500D03*
X90119200Y-105346500D03*
D27*
X90119200Y-104140000D03*
X90119200Y-105664000D03*
D18*
X107899200Y-93546800D03*
X107899200Y-95046800D03*
X91643200Y-105779000D03*
X91643200Y-104279000D03*
D28*
X93980000Y-86677500D03*
X93980000Y-85178900D03*
D15*
X94287870Y-92579930D03*
D10*
G36*
X94270192Y-93127938D02*
X93739862Y-92597608D01*
X94305548Y-92031922D01*
X94835878Y-92562252D01*
X94270192Y-93127938D01*
X94270192Y-93127938D01*
G37*
D15*
X95348530Y-91519270D03*
D10*
G36*
X95330852Y-92067278D02*
X94800522Y-91536948D01*
X95366208Y-90971262D01*
X95896538Y-91501592D01*
X95330852Y-92067278D01*
X95330852Y-92067278D01*
G37*
D18*
X91592400Y-88823800D03*
X91592400Y-87323800D03*
D28*
X95504000Y-86690200D03*
X95504000Y-85191600D03*
D29*
X104927400Y-87108600D03*
X104927400Y-88608600D03*
D12*
X109195300Y-87807800D03*
X107695300Y-87807800D03*
X94411800Y-88163400D03*
X92911800Y-88163400D03*
D30*
X91084400Y-83794600D03*
D18*
X105117900Y-84060600D03*
X105117900Y-85560600D03*
X93446600Y-104126600D03*
X93446600Y-105626600D03*
D12*
X103899400Y-106781600D03*
X102399400Y-106781600D03*
X92950600Y-89814400D03*
X94450600Y-89814400D03*
D29*
X90500200Y-99556000D03*
X90500200Y-98056000D03*
M02*
