G04 #@! TF.FileFunction,Soldermask,Bot*
%FSLAX46Y46*%
G04 Gerber Fmt 4.6, Leading zero omitted, Abs format (unit mm)*
G04 Created by KiCad (PCBNEW no-vcs-found-undefined) date Sun Nov 20 22:17:31 2016*
%MOMM*%
%LPD*%
G01*
G04 APERTURE LIST*
%ADD10C,0.100000*%
%ADD11R,1.200000X3.000000*%
%ADD12R,1.000000X2.000000*%
%ADD13O,1.727200X1.727200*%
%ADD14R,1.727200X1.727200*%
%ADD15R,2.235200X2.235200*%
%ADD16C,1.524000*%
G04 APERTURE END LIST*
D10*
D11*
X106132400Y-85902800D03*
X104132400Y-85902800D03*
X102132400Y-85902800D03*
X100132400Y-85902800D03*
X98132400Y-85902800D03*
X96132400Y-85902800D03*
X94132400Y-85902800D03*
X94132400Y-105602800D03*
X96132400Y-105602800D03*
X106132400Y-105602800D03*
D12*
X104851200Y-93395800D03*
X103581200Y-93395800D03*
X102311200Y-93395800D03*
X101041200Y-93395800D03*
X99771200Y-93395800D03*
X98501200Y-93395800D03*
X97231200Y-93395800D03*
X95961200Y-93395800D03*
D13*
X108762800Y-109448600D03*
X108762800Y-111988600D03*
X106222800Y-109448600D03*
X106222800Y-111988600D03*
X103682800Y-109448600D03*
X103682800Y-111988600D03*
X101142800Y-109448600D03*
X101142800Y-111988600D03*
D14*
X90982800Y-111988600D03*
D13*
X90982800Y-109448600D03*
X93522800Y-111988600D03*
X93522800Y-109448600D03*
X96062800Y-111988600D03*
X96062800Y-109448600D03*
X98602800Y-111988600D03*
X98602800Y-109448600D03*
D15*
X91084400Y-83794600D03*
D16*
X91059000Y-90398600D03*
X91084400Y-92938600D03*
X91084400Y-87858600D03*
X91084400Y-95478600D03*
X91084400Y-98018600D03*
M02*
