G04 #@! TF.FileFunction,Copper,L1,Top,Signal*
%FSLAX46Y46*%
G04 Gerber Fmt 4.6, Leading zero omitted, Abs format (unit mm)*
G04 Created by KiCad (PCBNEW no-vcs-found-undefined) date Thu Nov 24 20:11:32 2016*
%MOMM*%
%LPD*%
G01*
G04 APERTURE LIST*
%ADD10C,0.100000*%
%ADD11C,0.550000*%
%ADD12C,0.600000*%
%ADD13R,0.500000X0.900000*%
%ADD14R,0.797560X0.797560*%
%ADD15R,1.550000X0.600000*%
%ADD16R,1.060000X0.650000*%
%ADD17R,0.800000X0.750000*%
%ADD18C,1.500000*%
%ADD19C,0.750000*%
%ADD20R,0.800100X0.800100*%
%ADD21R,0.750000X0.800000*%
%ADD22R,0.630000X0.450000*%
%ADD23R,0.850000X1.300000*%
%ADD24O,1.727200X1.727200*%
%ADD25R,1.727200X1.727200*%
%ADD26C,1.270000*%
%ADD27R,0.600000X1.270000*%
%ADD28R,1.200000X1.270000*%
%ADD29R,1.270000X0.600000*%
%ADD30O,1.270000X1.270000*%
%ADD31R,2.235200X2.235200*%
%ADD32R,0.900000X0.500000*%
%ADD33C,0.381000*%
%ADD34C,0.203200*%
%ADD35C,0.152400*%
G04 APERTURE END LIST*
D10*
D11*
X95817121Y-98415973D03*
D10*
G36*
X95445890Y-99176113D02*
X95056981Y-98787204D01*
X96188352Y-97655833D01*
X96577261Y-98044742D01*
X95445890Y-99176113D01*
X95445890Y-99176113D01*
G37*
D11*
X96382807Y-98981658D03*
D10*
G36*
X96011576Y-99741798D02*
X95622667Y-99352889D01*
X96754038Y-98221518D01*
X97142947Y-98610427D01*
X96011576Y-99741798D01*
X96011576Y-99741798D01*
G37*
D11*
X96948492Y-99547344D03*
D10*
G36*
X96577261Y-100307484D02*
X96188352Y-99918575D01*
X97319723Y-98787204D01*
X97708632Y-99176113D01*
X96577261Y-100307484D01*
X96577261Y-100307484D01*
G37*
D11*
X97514177Y-100113029D03*
D10*
G36*
X97142946Y-100873169D02*
X96754037Y-100484260D01*
X97885408Y-99352889D01*
X98274317Y-99741798D01*
X97142946Y-100873169D01*
X97142946Y-100873169D01*
G37*
D11*
X98079863Y-100678715D03*
D10*
G36*
X97708632Y-101438855D02*
X97319723Y-101049946D01*
X98451094Y-99918575D01*
X98840003Y-100307484D01*
X97708632Y-101438855D01*
X97708632Y-101438855D01*
G37*
D11*
X98645548Y-101244400D03*
D10*
G36*
X98274317Y-102004540D02*
X97885408Y-101615631D01*
X99016779Y-100484260D01*
X99405688Y-100873169D01*
X98274317Y-102004540D01*
X98274317Y-102004540D01*
G37*
D11*
X99211234Y-101810085D03*
D10*
G36*
X98840003Y-102570225D02*
X98451094Y-102181316D01*
X99582465Y-101049945D01*
X99971374Y-101438854D01*
X98840003Y-102570225D01*
X98840003Y-102570225D01*
G37*
D11*
X99776919Y-102375771D03*
D10*
G36*
X99405688Y-103135911D02*
X99016779Y-102747002D01*
X100148150Y-101615631D01*
X100537059Y-102004540D01*
X99405688Y-103135911D01*
X99405688Y-103135911D01*
G37*
D11*
X101827529Y-102375771D03*
D10*
G36*
X102587669Y-102747002D02*
X102198760Y-103135911D01*
X101067389Y-102004540D01*
X101456298Y-101615631D01*
X102587669Y-102747002D01*
X102587669Y-102747002D01*
G37*
D11*
X102393214Y-101810085D03*
D10*
G36*
X103153354Y-102181316D02*
X102764445Y-102570225D01*
X101633074Y-101438854D01*
X102021983Y-101049945D01*
X103153354Y-102181316D01*
X103153354Y-102181316D01*
G37*
D11*
X102958900Y-101244400D03*
D10*
G36*
X103719040Y-101615631D02*
X103330131Y-102004540D01*
X102198760Y-100873169D01*
X102587669Y-100484260D01*
X103719040Y-101615631D01*
X103719040Y-101615631D01*
G37*
D11*
X103524585Y-100678715D03*
D10*
G36*
X104284725Y-101049946D02*
X103895816Y-101438855D01*
X102764445Y-100307484D01*
X103153354Y-99918575D01*
X104284725Y-101049946D01*
X104284725Y-101049946D01*
G37*
D11*
X104090271Y-100113029D03*
D10*
G36*
X104850411Y-100484260D02*
X104461502Y-100873169D01*
X103330131Y-99741798D01*
X103719040Y-99352889D01*
X104850411Y-100484260D01*
X104850411Y-100484260D01*
G37*
D11*
X104655956Y-99547344D03*
D10*
G36*
X105416096Y-99918575D02*
X105027187Y-100307484D01*
X103895816Y-99176113D01*
X104284725Y-98787204D01*
X105416096Y-99918575D01*
X105416096Y-99918575D01*
G37*
D11*
X105221641Y-98981658D03*
D10*
G36*
X105981781Y-99352889D02*
X105592872Y-99741798D01*
X104461501Y-98610427D01*
X104850410Y-98221518D01*
X105981781Y-99352889D01*
X105981781Y-99352889D01*
G37*
D11*
X105787327Y-98415973D03*
D10*
G36*
X106547467Y-98787204D02*
X106158558Y-99176113D01*
X105027187Y-98044742D01*
X105416096Y-97655833D01*
X106547467Y-98787204D01*
X106547467Y-98787204D01*
G37*
D11*
X105787327Y-96365363D03*
D10*
G36*
X105416096Y-97125503D02*
X105027187Y-96736594D01*
X106158558Y-95605223D01*
X106547467Y-95994132D01*
X105416096Y-97125503D01*
X105416096Y-97125503D01*
G37*
D11*
X105221641Y-95799678D03*
D10*
G36*
X104850410Y-96559818D02*
X104461501Y-96170909D01*
X105592872Y-95039538D01*
X105981781Y-95428447D01*
X104850410Y-96559818D01*
X104850410Y-96559818D01*
G37*
D11*
X104655956Y-95233992D03*
D10*
G36*
X104284725Y-95994132D02*
X103895816Y-95605223D01*
X105027187Y-94473852D01*
X105416096Y-94862761D01*
X104284725Y-95994132D01*
X104284725Y-95994132D01*
G37*
D11*
X104090271Y-94668307D03*
D10*
G36*
X103719040Y-95428447D02*
X103330131Y-95039538D01*
X104461502Y-93908167D01*
X104850411Y-94297076D01*
X103719040Y-95428447D01*
X103719040Y-95428447D01*
G37*
D11*
X103524585Y-94102621D03*
D10*
G36*
X103153354Y-94862761D02*
X102764445Y-94473852D01*
X103895816Y-93342481D01*
X104284725Y-93731390D01*
X103153354Y-94862761D01*
X103153354Y-94862761D01*
G37*
D11*
X102958900Y-93536936D03*
D10*
G36*
X102587669Y-94297076D02*
X102198760Y-93908167D01*
X103330131Y-92776796D01*
X103719040Y-93165705D01*
X102587669Y-94297076D01*
X102587669Y-94297076D01*
G37*
D11*
X102393214Y-92971251D03*
D10*
G36*
X102021983Y-93731391D02*
X101633074Y-93342482D01*
X102764445Y-92211111D01*
X103153354Y-92600020D01*
X102021983Y-93731391D01*
X102021983Y-93731391D01*
G37*
D11*
X101827529Y-92405565D03*
D10*
G36*
X101456298Y-93165705D02*
X101067389Y-92776796D01*
X102198760Y-91645425D01*
X102587669Y-92034334D01*
X101456298Y-93165705D01*
X101456298Y-93165705D01*
G37*
D11*
X99776919Y-92405565D03*
D10*
G36*
X100537059Y-92776796D02*
X100148150Y-93165705D01*
X99016779Y-92034334D01*
X99405688Y-91645425D01*
X100537059Y-92776796D01*
X100537059Y-92776796D01*
G37*
D11*
X99211234Y-92971251D03*
D10*
G36*
X99971374Y-93342482D02*
X99582465Y-93731391D01*
X98451094Y-92600020D01*
X98840003Y-92211111D01*
X99971374Y-93342482D01*
X99971374Y-93342482D01*
G37*
D11*
X98645548Y-93536936D03*
D10*
G36*
X99405688Y-93908167D02*
X99016779Y-94297076D01*
X97885408Y-93165705D01*
X98274317Y-92776796D01*
X99405688Y-93908167D01*
X99405688Y-93908167D01*
G37*
D11*
X98079863Y-94102621D03*
D10*
G36*
X98840003Y-94473852D02*
X98451094Y-94862761D01*
X97319723Y-93731390D01*
X97708632Y-93342481D01*
X98840003Y-94473852D01*
X98840003Y-94473852D01*
G37*
D11*
X97514177Y-94668307D03*
D10*
G36*
X98274317Y-95039538D02*
X97885408Y-95428447D01*
X96754037Y-94297076D01*
X97142946Y-93908167D01*
X98274317Y-95039538D01*
X98274317Y-95039538D01*
G37*
D11*
X96948492Y-95233992D03*
D10*
G36*
X97708632Y-95605223D02*
X97319723Y-95994132D01*
X96188352Y-94862761D01*
X96577261Y-94473852D01*
X97708632Y-95605223D01*
X97708632Y-95605223D01*
G37*
D11*
X96382807Y-95799678D03*
D10*
G36*
X97142947Y-96170909D02*
X96754038Y-96559818D01*
X95622667Y-95428447D01*
X96011576Y-95039538D01*
X97142947Y-96170909D01*
X97142947Y-96170909D01*
G37*
D11*
X95817121Y-96365363D03*
D10*
G36*
X96577261Y-96736594D02*
X96188352Y-97125503D01*
X95056981Y-95994132D01*
X95445890Y-95605223D01*
X96577261Y-96736594D01*
X96577261Y-96736594D01*
G37*
D12*
X97345500Y-83451700D03*
D13*
X98894900Y-89649300D03*
X100394900Y-89649300D03*
D12*
X95135700Y-87807800D03*
X94932500Y-86813900D03*
X94932500Y-85813900D03*
D14*
X97688400Y-89192100D03*
X96189800Y-89192100D03*
D12*
X97345500Y-87378800D03*
X97345500Y-86378800D03*
X97345500Y-85378800D03*
X97345500Y-84378800D03*
D13*
X108738100Y-90424000D03*
X107238100Y-90424000D03*
D15*
X104711500Y-87464900D03*
X104711500Y-86194900D03*
X104711500Y-84924900D03*
X104711500Y-83654900D03*
X99311500Y-83654900D03*
X99311500Y-84924900D03*
X99311500Y-86194900D03*
X99311500Y-87464900D03*
D16*
X107002400Y-91937800D03*
X107002400Y-92887800D03*
X107002400Y-93837800D03*
X109202400Y-93837800D03*
X109202400Y-91937800D03*
D17*
X108128500Y-83553300D03*
X106628500Y-83553300D03*
X109068300Y-95402400D03*
X107568300Y-95402400D03*
D12*
X96951800Y-82715100D03*
X96126300Y-87972900D03*
X96316800Y-83680300D03*
X94818200Y-84823300D03*
X93862400Y-84709000D03*
X92862400Y-84709000D03*
X95862400Y-82715100D03*
X94862400Y-82715100D03*
X93862400Y-82715100D03*
X92862400Y-82715100D03*
X101517200Y-98418400D03*
X100517200Y-98418400D03*
X99517200Y-98418400D03*
X101517200Y-97418400D03*
X100517200Y-97418400D03*
X99517200Y-97418400D03*
X101517200Y-96418400D03*
X100517200Y-96418400D03*
X99517200Y-96418400D03*
D18*
X92563740Y-97999340D03*
D10*
G36*
X91397014Y-98105406D02*
X92669806Y-96832614D01*
X93730466Y-97893274D01*
X92457674Y-99166066D01*
X91397014Y-98105406D01*
X91397014Y-98105406D01*
G37*
D18*
X94685060Y-100120660D03*
D10*
G36*
X93518334Y-100226726D02*
X94791126Y-98953934D01*
X95851786Y-100014594D01*
X94578994Y-101287386D01*
X93518334Y-100226726D01*
X93518334Y-100226726D01*
G37*
D19*
X96974130Y-92001870D03*
D10*
G36*
X96991808Y-91453862D02*
X97522138Y-91984192D01*
X96956452Y-92549878D01*
X96426122Y-92019548D01*
X96991808Y-91453862D01*
X96991808Y-91453862D01*
G37*
D19*
X95913470Y-93062530D03*
D10*
G36*
X95931148Y-92514522D02*
X96461478Y-93044852D01*
X95895792Y-93610538D01*
X95365462Y-93080208D01*
X95931148Y-92514522D01*
X95931148Y-92514522D01*
G37*
D20*
X94830900Y-104025700D03*
X94830900Y-105925700D03*
X96829880Y-104975700D03*
D19*
X103400330Y-102936570D03*
D10*
G36*
X103418008Y-102388562D02*
X103948338Y-102918892D01*
X103382652Y-103484578D01*
X102852322Y-102954248D01*
X103418008Y-102388562D01*
X103418008Y-102388562D01*
G37*
D19*
X102339670Y-103997230D03*
D10*
G36*
X102357348Y-103449222D02*
X102887678Y-103979552D01*
X102321992Y-104545238D01*
X101791662Y-104014908D01*
X102357348Y-103449222D01*
X102357348Y-103449222D01*
G37*
D21*
X90474800Y-92175200D03*
X90474800Y-93675200D03*
D20*
X90769400Y-102803960D03*
X92669400Y-102803960D03*
X91719400Y-100804980D03*
X108036400Y-101513640D03*
X106136400Y-101513640D03*
X107086400Y-103512620D03*
D22*
X109163000Y-87043300D03*
X109163000Y-86093300D03*
X109163000Y-85143300D03*
X106483000Y-85143300D03*
X106483000Y-86093300D03*
X106483000Y-87043300D03*
D23*
X107398000Y-85443300D03*
X107398000Y-86743300D03*
X108248000Y-85443300D03*
X108248000Y-86743300D03*
D13*
X90219400Y-90398600D03*
X91719400Y-90398600D03*
D24*
X108762800Y-109448600D03*
X108762800Y-111988600D03*
X106222800Y-109448600D03*
X106222800Y-111988600D03*
X103682800Y-109448600D03*
X103682800Y-111988600D03*
X101142800Y-109448600D03*
X101142800Y-111988600D03*
D25*
X90982800Y-111988600D03*
D24*
X90982800Y-109448600D03*
X93522800Y-111988600D03*
X93522800Y-109448600D03*
X96062800Y-111988600D03*
X96062800Y-109448600D03*
X98602800Y-111988600D03*
X98602800Y-109448600D03*
D19*
X103365300Y-105003600D03*
D10*
G36*
X103347622Y-105551608D02*
X102817292Y-105021278D01*
X103382978Y-104455592D01*
X103913308Y-104985922D01*
X103347622Y-105551608D01*
X103347622Y-105551608D01*
G37*
D19*
X104425960Y-103942940D03*
D10*
G36*
X104408282Y-104490948D02*
X103877952Y-103960618D01*
X104443638Y-103394932D01*
X104973968Y-103925262D01*
X104408282Y-104490948D01*
X104408282Y-104490948D01*
G37*
D26*
X90151000Y-107162600D03*
X93351000Y-107162600D03*
D27*
X92951000Y-107162600D03*
D28*
X91751000Y-107162600D03*
D27*
X90551000Y-107162600D03*
D19*
X94643470Y-102333530D03*
D10*
G36*
X94625792Y-102881538D02*
X94095462Y-102351208D01*
X94661148Y-101785522D01*
X95191478Y-102315852D01*
X94625792Y-102881538D01*
X94625792Y-102881538D01*
G37*
D19*
X95704130Y-101272870D03*
D10*
G36*
X95686452Y-101820878D02*
X95156122Y-101290548D01*
X95721808Y-100724862D01*
X96252138Y-101255192D01*
X95686452Y-101820878D01*
X95686452Y-101820878D01*
G37*
D19*
X93291130Y-95075270D03*
D10*
G36*
X93308808Y-94527262D02*
X93839138Y-95057592D01*
X93273452Y-95623278D01*
X92743122Y-95092948D01*
X93308808Y-94527262D01*
X93308808Y-94527262D01*
G37*
D19*
X92230470Y-96135930D03*
D10*
G36*
X92248148Y-95587922D02*
X92778478Y-96118252D01*
X92212792Y-96683938D01*
X91682462Y-96153608D01*
X92248148Y-95587922D01*
X92248148Y-95587922D01*
G37*
D29*
X90119200Y-104457500D03*
X90119200Y-105346500D03*
D30*
X90119200Y-104140000D03*
X90119200Y-105664000D03*
D21*
X91643200Y-105779000D03*
X91643200Y-104279000D03*
D14*
X93637100Y-86995000D03*
X93637100Y-85496400D03*
D19*
X94287870Y-92579930D03*
D10*
G36*
X94270192Y-93127938D02*
X93739862Y-92597608D01*
X94305548Y-92031922D01*
X94835878Y-92562252D01*
X94270192Y-93127938D01*
X94270192Y-93127938D01*
G37*
D19*
X95348530Y-91519270D03*
D10*
G36*
X95330852Y-92067278D02*
X94800522Y-91536948D01*
X95366208Y-90971262D01*
X95896538Y-91501592D01*
X95330852Y-92067278D01*
X95330852Y-92067278D01*
G37*
D21*
X91592400Y-88823800D03*
X91592400Y-87323800D03*
D13*
X108738100Y-88798400D03*
X107238100Y-88798400D03*
X94450600Y-88468200D03*
X92950600Y-88468200D03*
D31*
X91084400Y-83794600D03*
D21*
X93446600Y-104126600D03*
X93446600Y-105626600D03*
D13*
X103899400Y-106781600D03*
X102399400Y-106781600D03*
X92950600Y-90182700D03*
X94450600Y-90182700D03*
D32*
X90500200Y-99556000D03*
X90500200Y-98056000D03*
D12*
X107484890Y-96164400D03*
X107797600Y-92798900D03*
X104711500Y-82994500D03*
X109054900Y-83375500D03*
X91351100Y-102171500D03*
X91605100Y-86614000D03*
X93726000Y-95605600D03*
X95148400Y-102793800D03*
X107340400Y-104216200D03*
X91821000Y-103581200D03*
X93573600Y-103454200D03*
X109804200Y-90805000D03*
X106565700Y-82778600D03*
X92465752Y-92084752D03*
X89560400Y-99542600D03*
X89560400Y-90322400D03*
X108190870Y-107382343D03*
X104555190Y-107573143D03*
X103637220Y-88104162D03*
X100737200Y-83950398D03*
X101346000Y-87833200D03*
X102061990Y-90339137D03*
X101900000Y-86393310D03*
X99961700Y-91541600D03*
X101783056Y-95204482D03*
X100557180Y-85812704D03*
X100685600Y-88519000D03*
X102531610Y-95023877D03*
X105959861Y-87669979D03*
X102908100Y-95783400D03*
X106132400Y-105602800D03*
X99597812Y-107884794D03*
X98348800Y-107746800D03*
X91592400Y-89560400D03*
X91084400Y-95478600D03*
X92202000Y-92938600D03*
X108297669Y-98417046D03*
X108204000Y-91262200D03*
X109431032Y-107174342D03*
X107874658Y-93841804D03*
X107942060Y-97015850D03*
X110052580Y-107795890D03*
X105664000Y-89712800D03*
X108407200Y-99923600D03*
X109212090Y-94647987D03*
X106008083Y-92450088D03*
X98933000Y-106883200D03*
X94132400Y-105602800D03*
X90424000Y-100406200D03*
X99898200Y-111506000D03*
X96578710Y-105927598D03*
X103213471Y-90165639D03*
X104699712Y-108568724D03*
X104198087Y-110659525D03*
D33*
X93637100Y-85496400D02*
X93637100Y-84934300D01*
X93637100Y-84934300D02*
X93862400Y-84709000D01*
X96189800Y-89192100D02*
X96189800Y-88036400D01*
X96189800Y-88036400D02*
X96126300Y-87972900D01*
X107562300Y-96164400D02*
X107484890Y-96164400D01*
X107568300Y-95402400D02*
X107568300Y-96158400D01*
X107568300Y-96158400D02*
X107562300Y-96164400D01*
X107002400Y-92887800D02*
X107708700Y-92887800D01*
X107708700Y-92887800D02*
X107797600Y-92798900D01*
X104711500Y-83654900D02*
X104711500Y-82994500D01*
X108909500Y-83553300D02*
X108909500Y-83520900D01*
X108909500Y-83520900D02*
X109054900Y-83375500D01*
X108128500Y-83553300D02*
X108909500Y-83553300D01*
X108909500Y-83553300D02*
X109846301Y-84490101D01*
X109846301Y-84490101D02*
X109846301Y-85662941D01*
X109415942Y-86093300D02*
X109163000Y-86093300D01*
X109846301Y-85662941D02*
X109415942Y-86093300D01*
X90769400Y-102803960D02*
X90769400Y-102753200D01*
X90769400Y-102753200D02*
X91351100Y-102171500D01*
X91592400Y-87323800D02*
X91592400Y-86626700D01*
X91592400Y-86626700D02*
X91605100Y-86614000D01*
X93291130Y-95075270D02*
X93291130Y-95170730D01*
X93291130Y-95170730D02*
X93726000Y-95605600D01*
X94643470Y-102333530D02*
X94688130Y-102333530D01*
X94688130Y-102333530D02*
X95148400Y-102793800D01*
X107086400Y-103512620D02*
X107086400Y-103962200D01*
X107086400Y-103962200D02*
X107340400Y-104216200D01*
X91643200Y-104279000D02*
X91643200Y-103759000D01*
X91643200Y-103759000D02*
X91821000Y-103581200D01*
X93446600Y-104126600D02*
X93446600Y-103581200D01*
X93446600Y-103581200D02*
X93573600Y-103454200D01*
X93268800Y-104279000D02*
X93294200Y-104253600D01*
X96974130Y-92001870D02*
X96974130Y-92979444D01*
X96974130Y-92979444D02*
X97760039Y-93765353D01*
X95348530Y-91519270D02*
X96491530Y-91519270D01*
X96491530Y-91519270D02*
X96974130Y-92001870D01*
X103298730Y-102847670D02*
X103298730Y-102698157D01*
X103298730Y-102698157D02*
X102073390Y-101472817D01*
X103298730Y-102847670D02*
X103298730Y-102853810D01*
X103298730Y-102853810D02*
X104337060Y-103892140D01*
X109202400Y-90888300D02*
X109720900Y-90888300D01*
X109720900Y-90888300D02*
X109804200Y-90805000D01*
X108738100Y-90424000D02*
X108738100Y-88798400D01*
X109202400Y-91937800D02*
X109202400Y-90888300D01*
X109202400Y-90888300D02*
X108738100Y-90424000D01*
X109202400Y-93837800D02*
X109202400Y-91937800D01*
X100554470Y-86804500D02*
X99311500Y-86804500D01*
X99311500Y-87464900D02*
X99311500Y-86804500D01*
X99311500Y-86804500D02*
X99311500Y-86194900D01*
X101579215Y-85725009D02*
X101225481Y-86078743D01*
X101225481Y-86078743D02*
X101225481Y-86133489D01*
X101225481Y-86133489D02*
X100554470Y-86804500D01*
X104711500Y-84924900D02*
X103555500Y-84924900D01*
X103555500Y-84924900D02*
X102755410Y-85724990D01*
X102755410Y-85724990D02*
X102721057Y-85724990D01*
X102721057Y-85724990D02*
X102708357Y-85737690D01*
X102708357Y-85737690D02*
X102233466Y-85737690D01*
X102220785Y-85725009D02*
X101579215Y-85725009D01*
X102233466Y-85737690D02*
X102220785Y-85725009D01*
X106565700Y-82778600D02*
X106565700Y-83490500D01*
X106565700Y-83490500D02*
X106628500Y-83553300D01*
X104711500Y-84924900D02*
X105256900Y-84924900D01*
X105256900Y-84924900D02*
X106628500Y-83553300D01*
X106483000Y-86093300D02*
X106354900Y-86093300D01*
X106354900Y-86093300D02*
X105186500Y-84924900D01*
X105186500Y-84924900D02*
X104711500Y-84924900D01*
X91884501Y-108216699D02*
X91821000Y-108280200D01*
X95910400Y-105410000D02*
X95910400Y-106478070D01*
X95910400Y-106478070D02*
X94171771Y-108216699D01*
X96807020Y-104978200D02*
X96342200Y-104978200D01*
X94171771Y-108216699D02*
X91884501Y-108216699D01*
X96342200Y-104978200D02*
X95910400Y-105410000D01*
X92465752Y-92084752D02*
X93792692Y-92084752D01*
X93792692Y-92084752D02*
X94287870Y-92579930D01*
X90500200Y-99556000D02*
X89573800Y-99556000D01*
X89573800Y-99556000D02*
X89560400Y-99542600D01*
X90219400Y-90398600D02*
X89636600Y-90398600D01*
X89636600Y-90398600D02*
X89560400Y-90322400D01*
X108292890Y-103256068D02*
X108190870Y-107382343D01*
X108292890Y-107365800D02*
X108207413Y-107365800D01*
X108207413Y-107365800D02*
X108190870Y-107382343D01*
X106136400Y-101513640D02*
X106550462Y-101513640D01*
X106550462Y-101513640D02*
X108292890Y-103256068D01*
X104530400Y-106781600D02*
X104555190Y-106806390D01*
X104555190Y-106806390D02*
X104555190Y-107148879D01*
X103899400Y-106781600D02*
X104530400Y-106781600D01*
X104555190Y-107148879D02*
X104555190Y-107573143D01*
X91821000Y-108610400D02*
X91821000Y-108280200D01*
X91821000Y-108280200D02*
X91821000Y-107162600D01*
X90982800Y-109448600D02*
X91821000Y-108610400D01*
X94287870Y-92579930D02*
X94311874Y-92579930D01*
X94311874Y-92579930D02*
X96628668Y-94896724D01*
X90982800Y-109448600D02*
X93522800Y-111988600D01*
X90982800Y-111988600D02*
X89586001Y-110591801D01*
X89586001Y-110591801D02*
X89586001Y-107797599D01*
X89586001Y-107797599D02*
X90221000Y-107162600D01*
X90119200Y-105664000D02*
X90119200Y-107060800D01*
X90119200Y-107060800D02*
X90221000Y-107162600D01*
X90119200Y-105664000D02*
X91629800Y-105664000D01*
X91629800Y-105664000D02*
X91744800Y-105779000D01*
D34*
X102061990Y-87896700D02*
X103429758Y-87896700D01*
X103429758Y-87896700D02*
X103637220Y-88104162D01*
X99311500Y-83654900D02*
X100441702Y-83654900D01*
X100441702Y-83654900D02*
X100737200Y-83950398D01*
X102061990Y-90339137D02*
X102061990Y-90474499D01*
X104160980Y-93466226D02*
X103524585Y-94102621D01*
X102061990Y-90474499D02*
X104160980Y-92573489D01*
X104160980Y-92573489D02*
X104160980Y-93466226D01*
X102061990Y-90339137D02*
X102061990Y-87896700D01*
X101346000Y-87833200D02*
X101434900Y-87922100D01*
X101434900Y-87922100D02*
X102036590Y-87922100D01*
X102036590Y-87922100D02*
X102061990Y-87896700D01*
X99724399Y-90880035D02*
X99724399Y-88874600D01*
X99724399Y-88568911D02*
X99724399Y-88874600D01*
X101900000Y-86393310D02*
X99724399Y-88568911D01*
X101900000Y-86217926D02*
X101900000Y-86393310D01*
X101888674Y-86206600D02*
X101900000Y-86217926D01*
X101828600Y-86206600D02*
X101888674Y-86206600D01*
X102903000Y-86207600D02*
X102915700Y-86194900D01*
X102915700Y-86194900D02*
X104711500Y-86194900D01*
X99961700Y-91541600D02*
X99961700Y-91117336D01*
X99961700Y-91117336D02*
X99724399Y-90880035D01*
X99961700Y-91541600D02*
X100813379Y-92393279D01*
X100813379Y-92393279D02*
X100813379Y-92882013D01*
X100813379Y-92882013D02*
X101539012Y-93607646D01*
X101539012Y-93607646D02*
X101756819Y-93607646D01*
X101756819Y-93607646D02*
X102393214Y-92971251D01*
X101828600Y-86206600D02*
X101829600Y-86207600D01*
X101829600Y-86207600D02*
X102903000Y-86207600D01*
X101783056Y-94712780D02*
X101783056Y-94780218D01*
X102958900Y-93536936D02*
X101783056Y-94712780D01*
X101783056Y-94780218D02*
X101783056Y-95204482D01*
X100257181Y-85512705D02*
X100557180Y-85812704D01*
X99682076Y-84937600D02*
X100257181Y-85512705D01*
X99329049Y-84937600D02*
X99682076Y-84937600D01*
X100685600Y-88519000D02*
X101155500Y-88519000D01*
X101409500Y-90493871D02*
X101808768Y-90893139D01*
X101155500Y-88519000D02*
X101409500Y-88773000D01*
X101409500Y-88773000D02*
X101409500Y-90493871D01*
X101808768Y-90893139D02*
X101861424Y-90893139D01*
X101861424Y-90893139D02*
X103407364Y-92439079D01*
X103407364Y-92439079D02*
X103407364Y-93088472D01*
X103407364Y-93088472D02*
X102958900Y-93536936D01*
X102737132Y-95229399D02*
X102531610Y-95023877D01*
X103529179Y-95229399D02*
X102737132Y-95229399D01*
X104090271Y-94668307D02*
X103529179Y-95229399D01*
X105959861Y-88094243D02*
X105959861Y-87669979D01*
X106218002Y-89978722D02*
X106218002Y-88352384D01*
X104533700Y-93129100D02*
X104533700Y-92379800D01*
X104726666Y-93322066D02*
X104533700Y-93129100D01*
X102641400Y-90487500D02*
X102641400Y-89776300D01*
X102641400Y-89776300D02*
X102832678Y-89585022D01*
X106218002Y-88352384D02*
X105959861Y-88094243D01*
X104533700Y-92379800D02*
X102641400Y-90487500D01*
X105385378Y-90266802D02*
X105929922Y-90266802D01*
X104726666Y-94031912D02*
X104726666Y-93322066D01*
X104090271Y-94668307D02*
X104726666Y-94031912D01*
X105929922Y-90266802D02*
X106218002Y-89978722D01*
X104703598Y-89585022D02*
X105385378Y-90266802D01*
X102832678Y-89585022D02*
X104703598Y-89585022D01*
X104160980Y-102214220D02*
X105633811Y-103687051D01*
X105633811Y-103687051D02*
X105633811Y-105104211D01*
X104160980Y-101315110D02*
X104160980Y-102214220D01*
X103524585Y-100678715D02*
X104160980Y-101315110D01*
X105633811Y-105104211D02*
X106132400Y-105602800D01*
X102908100Y-95783400D02*
X103098600Y-95783400D01*
X102933500Y-100070186D02*
X103841156Y-100977842D01*
X103098600Y-95783400D02*
X104635300Y-97320100D01*
X104635300Y-97320100D02*
X104635300Y-98031300D01*
X104635300Y-98031300D02*
X102933500Y-99733100D01*
X102933500Y-99733100D02*
X102933500Y-100070186D01*
X103595295Y-101880795D02*
X103595295Y-102151443D01*
X102958900Y-101244400D02*
X103595295Y-101880795D01*
X105278202Y-108800122D02*
X104629724Y-109448600D01*
X103595295Y-102151443D02*
X105278202Y-103834350D01*
X105278202Y-103834350D02*
X105278202Y-108800122D01*
X104629724Y-109448600D02*
X103682800Y-109448600D01*
X104090271Y-100113029D02*
X104726666Y-100749424D01*
X104726666Y-102276996D02*
X105989422Y-103539752D01*
X107340401Y-108912151D02*
X107340401Y-109985049D01*
X105105199Y-110566201D02*
X104546399Y-111125001D01*
X107340401Y-109985049D02*
X106759249Y-110566201D01*
X104546399Y-111125001D02*
X103682800Y-111988600D01*
X105989422Y-104639898D02*
X106686402Y-105336878D01*
X106686402Y-108258152D02*
X107340401Y-108912151D01*
X105989422Y-103539752D02*
X105989422Y-104639898D01*
X106759249Y-110566201D02*
X105105199Y-110566201D01*
X106686402Y-105336878D02*
X106686402Y-108258152D01*
X104726666Y-100749424D02*
X104726666Y-102276996D01*
X99597812Y-107884794D02*
X99868013Y-107614593D01*
X96861758Y-102501495D02*
X96861758Y-100765448D01*
X99868013Y-107614593D02*
X99868013Y-105507750D01*
X99868013Y-105507750D02*
X96861758Y-102501495D01*
X96861758Y-100765448D02*
X97514177Y-100113029D01*
X98348800Y-107746800D02*
X98926916Y-107746800D01*
X96266000Y-100888800D02*
X96266000Y-100229836D01*
X98926916Y-107746800D02*
X99512402Y-107161314D01*
X99512402Y-107161314D02*
X99512402Y-105655048D01*
X99512402Y-105655048D02*
X96506148Y-102648793D01*
X96506148Y-102648793D02*
X96506148Y-101128948D01*
X96506148Y-101128948D02*
X96266000Y-100888800D01*
X96266000Y-100229836D02*
X96948492Y-99547344D01*
X98645548Y-101244400D02*
X98009153Y-101880795D01*
X100579235Y-108226204D02*
X100021953Y-108783486D01*
X98009153Y-101880795D02*
X98009153Y-102601511D01*
X100021953Y-108783486D02*
X100021953Y-109934447D01*
X98009153Y-102601511D02*
X100563967Y-105156325D01*
X100563967Y-105156325D02*
X100579235Y-105156326D01*
X100579235Y-105156326D02*
X100579235Y-108226204D01*
X100021953Y-109934447D02*
X99085401Y-110870999D01*
X99085401Y-110870999D02*
X97180401Y-110870999D01*
X97180401Y-110870999D02*
X96062800Y-111988600D01*
X98079863Y-100678715D02*
X97443468Y-101315110D01*
X97443468Y-101315110D02*
X97443468Y-102580296D01*
X97183629Y-108327771D02*
X96062800Y-109448600D01*
X97443468Y-102580296D02*
X100223624Y-105360452D01*
X100223624Y-105360452D02*
X100223624Y-108078906D01*
X100223624Y-108078906D02*
X99863734Y-108438796D01*
X99331890Y-108438796D02*
X99220865Y-108327771D01*
X99863734Y-108438796D02*
X99331890Y-108438796D01*
X99220865Y-108327771D02*
X97183629Y-108327771D01*
X95497297Y-98078705D02*
X95497297Y-98096149D01*
X95497297Y-98096149D02*
X95817121Y-98415973D01*
X92230470Y-96135930D02*
X91876917Y-96489483D01*
X91876917Y-96489483D02*
X91876917Y-97312517D01*
X91876917Y-97312517D02*
X91962700Y-97398300D01*
X91962700Y-97398300D02*
X92563740Y-97999340D01*
X92563740Y-97999340D02*
X95417932Y-97999340D01*
X95417932Y-97999340D02*
X95497297Y-98078705D01*
X96382807Y-98981658D02*
X95746412Y-99618053D01*
X95746412Y-99618053D02*
X95187667Y-99618053D01*
X95187667Y-99618053D02*
X94685060Y-100120660D01*
X95500930Y-101349070D02*
X95500930Y-100936530D01*
X95500930Y-100936530D02*
X94685060Y-100120660D01*
X91592400Y-88823800D02*
X92170600Y-88823800D01*
X92170600Y-88823800D02*
X92805590Y-89458790D01*
X92805590Y-89458790D02*
X94869000Y-89458790D01*
X94869000Y-89458790D02*
X94954601Y-89544391D01*
X95275390Y-90296990D02*
X97194898Y-90296990D01*
X94954601Y-89544391D02*
X94954601Y-89976201D01*
X94954601Y-89976201D02*
X95275390Y-90296990D01*
X97194898Y-90296990D02*
X98255015Y-91357107D01*
X98255015Y-91357107D02*
X98255015Y-91997588D01*
X98255015Y-91997588D02*
X98891410Y-92633983D01*
X90975100Y-91071700D02*
X91246300Y-91071700D01*
X91246300Y-91071700D02*
X91719400Y-90598600D01*
X91719400Y-90598600D02*
X91719400Y-90398600D01*
X90474800Y-92175200D02*
X90474800Y-91572000D01*
X90474800Y-91572000D02*
X90975100Y-91071700D01*
X91592400Y-88823800D02*
X91592400Y-89560400D01*
X91592400Y-89560400D02*
X91592400Y-90271600D01*
X91592400Y-90271600D02*
X91719400Y-90398600D01*
X91186000Y-94767400D02*
X91186000Y-95377000D01*
X91186000Y-95377000D02*
X91084400Y-95478600D01*
X91821000Y-94132400D02*
X91186000Y-94767400D01*
X93601602Y-94132400D02*
X91821000Y-94132400D01*
X95497297Y-96028095D02*
X93601602Y-94132400D01*
X93539173Y-92938600D02*
X92202000Y-92938600D01*
X96062983Y-95462410D02*
X93539173Y-92938600D01*
X109431032Y-106750078D02*
X109431032Y-107174342D01*
X109423191Y-106742237D02*
X109431032Y-106750078D01*
X108297669Y-98417046D02*
X109423191Y-99542568D01*
X109423191Y-99542568D02*
X109423191Y-106742237D01*
X106667300Y-96786677D02*
X108297669Y-98417046D01*
X106667300Y-96786677D02*
X106208641Y-96786677D01*
X106208641Y-96786677D02*
X105787327Y-96365363D01*
X107002400Y-91937800D02*
X107528400Y-91937800D01*
X107528400Y-91937800D02*
X108204000Y-91262200D01*
X107238100Y-90424000D02*
X107238100Y-91702100D01*
X107238100Y-91702100D02*
X107002400Y-91937800D01*
X109163000Y-87043300D02*
X109163000Y-87471500D01*
X109163000Y-87471500D02*
X108565501Y-88068999D01*
X108565501Y-88068999D02*
X108264579Y-88068999D01*
X107742101Y-89719999D02*
X107238100Y-90224000D01*
X108264579Y-88068999D02*
X107742101Y-88591477D01*
X107742101Y-88591477D02*
X107742101Y-89719999D01*
X107238100Y-90224000D02*
X107238100Y-90424000D01*
X109804200Y-98877990D02*
X108242059Y-97315849D01*
X110052580Y-106890280D02*
X109804200Y-106641900D01*
X109804200Y-106641900D02*
X109804200Y-98877990D01*
X110052580Y-107795890D02*
X110052580Y-106890280D01*
X107870654Y-93837800D02*
X107874658Y-93841804D01*
X107002400Y-93837800D02*
X107870654Y-93837800D01*
X106905488Y-96466088D02*
X107455250Y-97015850D01*
X108242059Y-97315849D02*
X107942060Y-97015850D01*
X107517796Y-97015850D02*
X107942060Y-97015850D01*
X107455250Y-97015850D02*
X107517796Y-97015850D01*
X106905488Y-95975482D02*
X106905488Y-96466088D01*
X105858036Y-95163283D02*
X106093289Y-95163283D01*
X106093289Y-95163283D02*
X106905488Y-95975482D01*
X106573613Y-89662887D02*
X107238100Y-88998400D01*
X106573613Y-90126020D02*
X106573613Y-89662887D01*
X105460032Y-94547470D02*
X105460032Y-92638123D01*
X105405651Y-91293982D02*
X106573613Y-90126020D01*
X105460032Y-92638123D02*
X105405651Y-92583742D01*
X105858036Y-94945474D02*
X105460032Y-94547470D01*
X107238100Y-88998400D02*
X107238100Y-88798400D01*
X105858036Y-95163283D02*
X105858036Y-94945474D01*
X105405651Y-92583742D02*
X105405651Y-91293982D01*
X106483000Y-87390100D02*
X106483000Y-87043300D01*
X107238100Y-88145200D02*
X106483000Y-87390100D01*
X107238100Y-88798400D02*
X107238100Y-88145200D01*
X105221641Y-95799678D02*
X105858036Y-95163283D01*
X92950600Y-87389400D02*
X93332300Y-87007700D01*
X93332300Y-87007700D02*
X93967300Y-87007700D01*
X92950600Y-88468200D02*
X92950600Y-87389400D01*
X97688400Y-89192100D02*
X98437700Y-89192100D01*
X98437700Y-89192100D02*
X98894900Y-89649300D01*
X105221641Y-98981658D02*
X107753623Y-101513640D01*
X107753623Y-101513640D02*
X108036400Y-101513640D01*
X108407200Y-99923600D02*
X107294954Y-99923600D01*
X107294954Y-99923600D02*
X105787327Y-98415973D01*
X105384934Y-88641534D02*
X105384934Y-89433734D01*
X105384934Y-89433734D02*
X105664000Y-89712800D01*
X104711500Y-87464900D02*
X104711500Y-87968100D01*
X104711500Y-87968100D02*
X105384934Y-88641534D01*
X95913470Y-93062530D02*
X95925844Y-93062530D01*
D33*
X95925844Y-93062530D02*
X97194353Y-94331039D01*
D34*
X94450600Y-88468200D02*
X94797891Y-88468200D01*
X94797891Y-88468200D02*
X95338900Y-89009209D01*
X95338900Y-89009209D02*
X95338900Y-89611200D01*
X95338900Y-89611200D02*
X95669080Y-89941380D01*
X95669080Y-89941380D02*
X97342196Y-89941380D01*
X97342196Y-89941380D02*
X98820700Y-91419884D01*
X98820700Y-91419884D02*
X98820700Y-91431902D01*
X98820700Y-91431902D02*
X99457095Y-92068297D01*
X100394900Y-89649300D02*
X100394900Y-90972936D01*
X100394900Y-90972936D02*
X101827529Y-92405565D01*
D33*
X109212090Y-95258610D02*
X109212090Y-95072251D01*
X109212090Y-95072251D02*
X109212090Y-94647987D01*
X108787826Y-94647987D02*
X109212090Y-94647987D01*
X106008083Y-92450088D02*
X106008083Y-94273283D01*
X109068300Y-95402400D02*
X109212090Y-95258610D01*
X106008083Y-94273283D02*
X106382787Y-94647987D01*
X106382787Y-94647987D02*
X108787826Y-94647987D01*
X94884240Y-105928200D02*
X94884240Y-105645882D01*
X96131378Y-104013000D02*
X97205800Y-104013000D01*
X94884240Y-105645882D02*
X95885000Y-104645122D01*
X95885000Y-104645122D02*
X95885000Y-104259378D01*
X95885000Y-104259378D02*
X96131378Y-104013000D01*
X97205800Y-104013000D02*
X98933000Y-105740200D01*
X98933000Y-106458936D02*
X98933000Y-106883200D01*
X98933000Y-105740200D02*
X98933000Y-106458936D01*
X94132400Y-105602800D02*
X94558840Y-105602800D01*
X94558840Y-105602800D02*
X94884240Y-105928200D01*
X93294200Y-105753600D02*
X93981600Y-105753600D01*
X93981600Y-105753600D02*
X94132400Y-105602800D01*
D34*
X90500200Y-98056000D02*
X90500200Y-94405401D01*
X90500200Y-94405401D02*
X90976801Y-94405401D01*
X90976801Y-94405401D02*
X91490800Y-93891402D01*
X91490800Y-93891402D02*
X91490800Y-91927400D01*
X91490800Y-91927400D02*
X92950600Y-90467600D01*
X92950600Y-90467600D02*
X92950600Y-89814400D01*
X94884240Y-104028200D02*
X94884240Y-103535132D01*
X94884240Y-103535132D02*
X93816052Y-102466944D01*
X93816052Y-102466944D02*
X93816052Y-100953452D01*
X93816052Y-100953452D02*
X91545878Y-98683278D01*
X91545878Y-98683278D02*
X91327478Y-98683278D01*
X91327478Y-98683278D02*
X90700200Y-98056000D01*
X90700200Y-98056000D02*
X90500200Y-98056000D01*
D33*
X91109800Y-101104700D02*
X91419680Y-101104700D01*
X91419680Y-101104700D02*
X91719400Y-100804980D01*
X90119200Y-104140000D02*
X90001049Y-104021849D01*
X90001049Y-102069900D02*
X90144600Y-102069900D01*
X90144600Y-102069900D02*
X91109800Y-101104700D01*
X90001049Y-104021849D02*
X90001049Y-102069900D01*
D34*
X97801548Y-92675492D02*
X98325724Y-93199668D01*
X96879097Y-90652601D02*
X97801548Y-91575052D01*
X94920501Y-90652601D02*
X96879097Y-90652601D01*
X97801548Y-91575052D02*
X97801548Y-92675492D01*
X94450600Y-90182700D02*
X94920501Y-90652601D01*
D33*
X92951000Y-107162600D02*
X92951000Y-106464658D01*
X92951000Y-106464658D02*
X92669400Y-106183058D01*
X92669400Y-106183058D02*
X92669400Y-103585010D01*
X92669400Y-103585010D02*
X92669400Y-102803960D01*
D34*
X90701444Y-100335070D02*
X90495130Y-100335070D01*
X90495130Y-100335070D02*
X90424000Y-100406200D01*
X89796199Y-98509201D02*
X89796199Y-93775601D01*
X90652964Y-100383550D02*
X90701444Y-100335070D01*
X90701444Y-100335070D02*
X90924052Y-100335070D01*
X90924052Y-100335070D02*
X91229601Y-100029521D01*
X89896600Y-93675200D02*
X90474800Y-93675200D01*
X91229601Y-100029521D02*
X91229601Y-99082479D01*
X89796199Y-93775601D02*
X89896600Y-93675200D01*
X91229601Y-99082479D02*
X91173721Y-99026599D01*
X91173721Y-99026599D02*
X90313597Y-99026599D01*
X90313597Y-99026599D02*
X89796199Y-98509201D01*
X100198199Y-111206001D02*
X99898200Y-111506000D01*
X100533201Y-110870999D02*
X100198199Y-111206001D01*
X102260401Y-112220251D02*
X102260401Y-111452151D01*
X106710411Y-113106201D02*
X103146351Y-113106201D01*
X107340401Y-112476211D02*
X106710411Y-113106201D01*
X108226351Y-110566201D02*
X107340401Y-111452151D01*
X107822999Y-108330999D02*
X109174291Y-108330999D01*
X109299249Y-110566201D02*
X108226351Y-110566201D01*
X107162600Y-105310168D02*
X107162600Y-107670600D01*
X109880401Y-108960909D02*
X109880401Y-109985049D01*
X109880401Y-109985049D02*
X109299249Y-110566201D01*
X101679249Y-110870999D02*
X100533201Y-110870999D01*
X106406949Y-104554517D02*
X107162600Y-105310168D01*
X109402901Y-108483409D02*
X109880401Y-108960909D01*
X109174291Y-108330999D02*
X109326701Y-108483409D01*
X107340401Y-111452151D02*
X107340401Y-112476211D01*
X107162600Y-107670600D02*
X107822999Y-108330999D01*
X105292351Y-100183739D02*
X105292351Y-102339773D01*
X102260401Y-111452151D02*
X101679249Y-110870999D01*
X104655956Y-99547344D02*
X105292351Y-100183739D01*
X105292351Y-102339773D02*
X106406949Y-103454371D01*
X103146351Y-113106201D02*
X102260401Y-112220251D01*
X106406949Y-103454371D02*
X106406949Y-104554517D01*
X109326701Y-108483409D02*
X109402901Y-108483409D01*
X109299249Y-113106201D02*
X107213319Y-113106201D01*
X94945199Y-112725199D02*
X94945199Y-108127801D01*
X109931200Y-110437158D02*
X109931200Y-112474250D01*
X106447520Y-97379513D02*
X108059708Y-98991701D01*
X108762800Y-106629200D02*
X108762800Y-107289600D01*
X108969851Y-106422149D02*
X108762800Y-106629200D01*
X110236011Y-108762812D02*
X110236010Y-110132348D01*
X96578710Y-106351862D02*
X96578710Y-105927598D01*
X108969851Y-99655173D02*
X108969851Y-106422149D01*
X104019561Y-96088196D02*
X105310878Y-97379513D01*
X105310878Y-97379513D02*
X106447520Y-97379513D01*
X108762800Y-107289600D02*
X110236011Y-108762812D01*
X94945199Y-108127801D02*
X96578710Y-106494290D01*
X107213319Y-113106201D02*
X106857709Y-113461811D01*
X104655956Y-95233992D02*
X104019561Y-95870387D01*
X95681808Y-113461808D02*
X94945199Y-112725199D01*
X108306379Y-98991701D02*
X108969851Y-99655173D01*
X104019561Y-95870387D02*
X104019561Y-96088196D01*
X109931200Y-112474250D02*
X109299249Y-113106201D01*
X96578710Y-106494290D02*
X96578710Y-106351862D01*
X108059708Y-98991701D02*
X108306379Y-98991701D01*
X106857709Y-113461811D02*
X95681808Y-113461808D01*
X110236010Y-110132348D02*
X109931200Y-110437158D01*
X104241600Y-91193768D02*
X103513470Y-90465638D01*
X105050041Y-92002209D02*
X104241600Y-91193768D01*
X105050041Y-92731040D02*
X105050041Y-92002209D01*
X105104421Y-94475300D02*
X105104421Y-94785527D01*
X105104421Y-94191859D02*
X105104421Y-94475300D01*
X105104421Y-94475300D02*
X105104421Y-92785420D01*
X104574522Y-91526690D02*
X104241600Y-91193768D01*
X105104421Y-92785420D02*
X105050041Y-92731040D01*
X105104421Y-94785527D02*
X104655956Y-95233992D01*
X103513470Y-90465638D02*
X103213471Y-90165639D01*
D33*
X102399400Y-106781600D02*
X102399400Y-105829800D01*
X102399400Y-105829800D02*
X103276400Y-104952800D01*
X102238070Y-103908330D02*
X102238070Y-102768868D01*
X102238070Y-102768868D02*
X101507705Y-102038503D01*
X103276400Y-104952800D02*
X103276400Y-104946660D01*
X103276400Y-104946660D02*
X102238070Y-103908330D01*
D34*
X99776919Y-102375771D02*
X100042083Y-102640935D01*
X100042083Y-102640935D02*
X100059527Y-102640935D01*
X100059527Y-102640935D02*
X101290457Y-103871865D01*
X102793800Y-108343700D02*
X102868775Y-108268725D01*
X102868775Y-108268725D02*
X104399713Y-108268725D01*
X104399713Y-108268725D02*
X104699712Y-108568724D01*
X101290457Y-106840357D02*
X102793800Y-108343700D01*
X101290457Y-103871865D02*
X101290457Y-106840357D01*
X102793800Y-108343700D02*
X102806500Y-108331000D01*
X100934846Y-105009028D02*
X100934845Y-105009028D01*
X99211234Y-101810085D02*
X98574839Y-102446480D01*
X100934845Y-105009028D02*
X100934846Y-107035938D01*
X100711266Y-104800716D02*
X100726533Y-104800716D01*
X98574839Y-102446480D02*
X98574839Y-102664289D01*
X98574839Y-102664289D02*
X100711266Y-104800716D01*
X100726533Y-104800716D02*
X100934845Y-105009028D01*
X102565199Y-110477299D02*
X102747425Y-110659525D01*
X103773823Y-110659525D02*
X104198087Y-110659525D01*
X102747425Y-110659525D02*
X103773823Y-110659525D01*
X100934846Y-107035938D02*
X102565199Y-108666291D01*
X102565199Y-108666291D02*
X102565199Y-110477299D01*
D35*
G36*
X100579892Y-93115500D02*
X101305525Y-93841133D01*
X101412650Y-93912711D01*
X101539012Y-93937846D01*
X101756819Y-93937846D01*
X101882178Y-93912911D01*
X101932788Y-93946727D01*
X101975023Y-93955128D01*
X101983424Y-93997362D01*
X102002681Y-94026182D01*
X101549569Y-94479293D01*
X101477991Y-94586418D01*
X101452856Y-94712780D01*
X101452856Y-94787204D01*
X101335192Y-94904663D01*
X101254548Y-95098876D01*
X101254364Y-95309166D01*
X101334669Y-95503519D01*
X101483237Y-95652346D01*
X101677450Y-95732990D01*
X101887740Y-95733174D01*
X102082093Y-95652869D01*
X102230920Y-95504301D01*
X102242580Y-95476221D01*
X102426004Y-95552385D01*
X102431664Y-95552390D01*
X102379592Y-95677794D01*
X102379408Y-95888084D01*
X102459713Y-96082437D01*
X102608281Y-96231264D01*
X102802494Y-96311908D01*
X103012784Y-96312092D01*
X103117182Y-96268956D01*
X104305100Y-97456874D01*
X104305100Y-97894527D01*
X102700013Y-99499613D01*
X102628435Y-99606738D01*
X102603300Y-99733100D01*
X102603300Y-100070186D01*
X102614718Y-100127589D01*
X102599634Y-100142673D01*
X102549109Y-100218289D01*
X102540708Y-100260523D01*
X102498474Y-100268924D01*
X102422858Y-100319449D01*
X102033949Y-100708358D01*
X101983424Y-100783974D01*
X101975944Y-100821580D01*
X101892492Y-100856147D01*
X101828185Y-100920453D01*
X101787117Y-100961522D01*
X101787117Y-101042344D01*
X102393214Y-101648440D01*
X102407356Y-101634298D01*
X102569001Y-101795943D01*
X102554859Y-101810085D01*
X102569001Y-101824227D01*
X102407356Y-101985872D01*
X102393214Y-101971730D01*
X102379072Y-101985872D01*
X102217427Y-101824227D01*
X102231569Y-101810085D01*
X101625473Y-101203988D01*
X101544651Y-101203988D01*
X101503582Y-101245056D01*
X101439276Y-101309363D01*
X101416400Y-101364591D01*
X101357192Y-101376368D01*
X101273174Y-101432507D01*
X100884265Y-101821416D01*
X100828126Y-101905434D01*
X100811661Y-101988213D01*
X100764032Y-101973849D01*
X100752395Y-101915345D01*
X100701870Y-101839729D01*
X100312961Y-101450820D01*
X100237345Y-101400295D01*
X100195111Y-101391894D01*
X100186710Y-101349659D01*
X100136185Y-101274043D01*
X99747276Y-100885134D01*
X99671660Y-100834609D01*
X99629425Y-100826208D01*
X99621024Y-100783974D01*
X99570499Y-100708358D01*
X99181590Y-100319449D01*
X99105974Y-100268924D01*
X99063740Y-100260523D01*
X99055339Y-100218289D01*
X99004814Y-100142673D01*
X98615905Y-99753764D01*
X98540289Y-99703239D01*
X98498054Y-99694838D01*
X98489653Y-99652603D01*
X98439128Y-99576987D01*
X98050219Y-99188078D01*
X97974603Y-99137553D01*
X97932369Y-99129152D01*
X97923968Y-99086918D01*
X97873443Y-99011302D01*
X97484534Y-98622393D01*
X97408918Y-98571868D01*
X97366684Y-98563467D01*
X97358283Y-98521232D01*
X97307758Y-98445616D01*
X96918849Y-98056707D01*
X96843233Y-98006182D01*
X96800998Y-97997781D01*
X96792597Y-97955547D01*
X96742072Y-97879931D01*
X96353163Y-97491022D01*
X96277547Y-97440497D01*
X96188352Y-97422755D01*
X96099157Y-97440497D01*
X96023541Y-97491022D01*
X96011304Y-97503259D01*
X95948500Y-97440811D01*
X95948500Y-97215273D01*
X96023541Y-97290314D01*
X96099157Y-97340839D01*
X96188352Y-97358581D01*
X96277547Y-97340839D01*
X96353163Y-97290314D01*
X96742072Y-96901405D01*
X96792597Y-96825789D01*
X96800998Y-96783555D01*
X96843233Y-96775154D01*
X96918849Y-96724629D01*
X97307758Y-96335720D01*
X97358283Y-96260104D01*
X97361320Y-96244834D01*
X97418829Y-96233395D01*
X97502847Y-96177256D01*
X97891756Y-95788347D01*
X97947895Y-95704329D01*
X97959334Y-95646820D01*
X97974603Y-95643783D01*
X98050219Y-95593258D01*
X98439128Y-95204349D01*
X98489653Y-95128733D01*
X98497134Y-95091125D01*
X98580585Y-95056559D01*
X98644892Y-94992253D01*
X98685960Y-94951184D01*
X98685960Y-94870362D01*
X98079863Y-94264266D01*
X98065721Y-94278408D01*
X97904076Y-94116763D01*
X97918218Y-94102621D01*
X97904076Y-94088479D01*
X98065721Y-93926834D01*
X98079863Y-93940976D01*
X98094005Y-93926834D01*
X98255650Y-94088479D01*
X98241508Y-94102621D01*
X98847604Y-94708718D01*
X98928426Y-94708718D01*
X98969495Y-94667650D01*
X99033801Y-94603343D01*
X99068367Y-94519892D01*
X99105974Y-94512412D01*
X99181590Y-94461887D01*
X99570499Y-94072978D01*
X99621024Y-93997362D01*
X99629425Y-93955128D01*
X99671660Y-93946727D01*
X99747276Y-93896202D01*
X100136185Y-93507293D01*
X100186710Y-93431677D01*
X100195111Y-93389442D01*
X100237345Y-93381041D01*
X100312961Y-93330516D01*
X100559098Y-93084379D01*
X100579892Y-93115500D01*
X100579892Y-93115500D01*
G37*
X100579892Y-93115500D02*
X101305525Y-93841133D01*
X101412650Y-93912711D01*
X101539012Y-93937846D01*
X101756819Y-93937846D01*
X101882178Y-93912911D01*
X101932788Y-93946727D01*
X101975023Y-93955128D01*
X101983424Y-93997362D01*
X102002681Y-94026182D01*
X101549569Y-94479293D01*
X101477991Y-94586418D01*
X101452856Y-94712780D01*
X101452856Y-94787204D01*
X101335192Y-94904663D01*
X101254548Y-95098876D01*
X101254364Y-95309166D01*
X101334669Y-95503519D01*
X101483237Y-95652346D01*
X101677450Y-95732990D01*
X101887740Y-95733174D01*
X102082093Y-95652869D01*
X102230920Y-95504301D01*
X102242580Y-95476221D01*
X102426004Y-95552385D01*
X102431664Y-95552390D01*
X102379592Y-95677794D01*
X102379408Y-95888084D01*
X102459713Y-96082437D01*
X102608281Y-96231264D01*
X102802494Y-96311908D01*
X103012784Y-96312092D01*
X103117182Y-96268956D01*
X104305100Y-97456874D01*
X104305100Y-97894527D01*
X102700013Y-99499613D01*
X102628435Y-99606738D01*
X102603300Y-99733100D01*
X102603300Y-100070186D01*
X102614718Y-100127589D01*
X102599634Y-100142673D01*
X102549109Y-100218289D01*
X102540708Y-100260523D01*
X102498474Y-100268924D01*
X102422858Y-100319449D01*
X102033949Y-100708358D01*
X101983424Y-100783974D01*
X101975944Y-100821580D01*
X101892492Y-100856147D01*
X101828185Y-100920453D01*
X101787117Y-100961522D01*
X101787117Y-101042344D01*
X102393214Y-101648440D01*
X102407356Y-101634298D01*
X102569001Y-101795943D01*
X102554859Y-101810085D01*
X102569001Y-101824227D01*
X102407356Y-101985872D01*
X102393214Y-101971730D01*
X102379072Y-101985872D01*
X102217427Y-101824227D01*
X102231569Y-101810085D01*
X101625473Y-101203988D01*
X101544651Y-101203988D01*
X101503582Y-101245056D01*
X101439276Y-101309363D01*
X101416400Y-101364591D01*
X101357192Y-101376368D01*
X101273174Y-101432507D01*
X100884265Y-101821416D01*
X100828126Y-101905434D01*
X100811661Y-101988213D01*
X100764032Y-101973849D01*
X100752395Y-101915345D01*
X100701870Y-101839729D01*
X100312961Y-101450820D01*
X100237345Y-101400295D01*
X100195111Y-101391894D01*
X100186710Y-101349659D01*
X100136185Y-101274043D01*
X99747276Y-100885134D01*
X99671660Y-100834609D01*
X99629425Y-100826208D01*
X99621024Y-100783974D01*
X99570499Y-100708358D01*
X99181590Y-100319449D01*
X99105974Y-100268924D01*
X99063740Y-100260523D01*
X99055339Y-100218289D01*
X99004814Y-100142673D01*
X98615905Y-99753764D01*
X98540289Y-99703239D01*
X98498054Y-99694838D01*
X98489653Y-99652603D01*
X98439128Y-99576987D01*
X98050219Y-99188078D01*
X97974603Y-99137553D01*
X97932369Y-99129152D01*
X97923968Y-99086918D01*
X97873443Y-99011302D01*
X97484534Y-98622393D01*
X97408918Y-98571868D01*
X97366684Y-98563467D01*
X97358283Y-98521232D01*
X97307758Y-98445616D01*
X96918849Y-98056707D01*
X96843233Y-98006182D01*
X96800998Y-97997781D01*
X96792597Y-97955547D01*
X96742072Y-97879931D01*
X96353163Y-97491022D01*
X96277547Y-97440497D01*
X96188352Y-97422755D01*
X96099157Y-97440497D01*
X96023541Y-97491022D01*
X96011304Y-97503259D01*
X95948500Y-97440811D01*
X95948500Y-97215273D01*
X96023541Y-97290314D01*
X96099157Y-97340839D01*
X96188352Y-97358581D01*
X96277547Y-97340839D01*
X96353163Y-97290314D01*
X96742072Y-96901405D01*
X96792597Y-96825789D01*
X96800998Y-96783555D01*
X96843233Y-96775154D01*
X96918849Y-96724629D01*
X97307758Y-96335720D01*
X97358283Y-96260104D01*
X97361320Y-96244834D01*
X97418829Y-96233395D01*
X97502847Y-96177256D01*
X97891756Y-95788347D01*
X97947895Y-95704329D01*
X97959334Y-95646820D01*
X97974603Y-95643783D01*
X98050219Y-95593258D01*
X98439128Y-95204349D01*
X98489653Y-95128733D01*
X98497134Y-95091125D01*
X98580585Y-95056559D01*
X98644892Y-94992253D01*
X98685960Y-94951184D01*
X98685960Y-94870362D01*
X98079863Y-94264266D01*
X98065721Y-94278408D01*
X97904076Y-94116763D01*
X97918218Y-94102621D01*
X97904076Y-94088479D01*
X98065721Y-93926834D01*
X98079863Y-93940976D01*
X98094005Y-93926834D01*
X98255650Y-94088479D01*
X98241508Y-94102621D01*
X98847604Y-94708718D01*
X98928426Y-94708718D01*
X98969495Y-94667650D01*
X99033801Y-94603343D01*
X99068367Y-94519892D01*
X99105974Y-94512412D01*
X99181590Y-94461887D01*
X99570499Y-94072978D01*
X99621024Y-93997362D01*
X99629425Y-93955128D01*
X99671660Y-93946727D01*
X99747276Y-93896202D01*
X100136185Y-93507293D01*
X100186710Y-93431677D01*
X100195111Y-93389442D01*
X100237345Y-93381041D01*
X100312961Y-93330516D01*
X100559098Y-93084379D01*
X100579892Y-93115500D01*
G36*
X97751900Y-88087200D02*
X94933678Y-88087200D01*
X94933678Y-88018200D01*
X94915936Y-87929005D01*
X94865411Y-87853389D01*
X94789795Y-87802864D01*
X94700600Y-87785122D01*
X94322900Y-87785122D01*
X94322900Y-85255100D01*
X94317100Y-85225940D01*
X94300582Y-85201218D01*
X94275860Y-85184700D01*
X94264480Y-85182436D01*
X94264480Y-85052149D01*
X94229678Y-84968129D01*
X94165372Y-84903823D01*
X94081352Y-84869020D01*
X93719650Y-84869020D01*
X93662500Y-84926170D01*
X93662500Y-85178900D01*
X93611700Y-85178900D01*
X93611700Y-84926170D01*
X93554550Y-84869020D01*
X93192848Y-84869020D01*
X93108828Y-84903823D01*
X93044522Y-84968129D01*
X93009720Y-85052149D01*
X93009720Y-85178900D01*
X92583456Y-85178900D01*
X92617711Y-82278600D01*
X97751900Y-82278600D01*
X97751900Y-88087200D01*
X97751900Y-88087200D01*
G37*
X97751900Y-88087200D02*
X94933678Y-88087200D01*
X94933678Y-88018200D01*
X94915936Y-87929005D01*
X94865411Y-87853389D01*
X94789795Y-87802864D01*
X94700600Y-87785122D01*
X94322900Y-87785122D01*
X94322900Y-85255100D01*
X94317100Y-85225940D01*
X94300582Y-85201218D01*
X94275860Y-85184700D01*
X94264480Y-85182436D01*
X94264480Y-85052149D01*
X94229678Y-84968129D01*
X94165372Y-84903823D01*
X94081352Y-84869020D01*
X93719650Y-84869020D01*
X93662500Y-84926170D01*
X93662500Y-85178900D01*
X93611700Y-85178900D01*
X93611700Y-84926170D01*
X93554550Y-84869020D01*
X93192848Y-84869020D01*
X93108828Y-84903823D01*
X93044522Y-84968129D01*
X93009720Y-85052149D01*
X93009720Y-85178900D01*
X92583456Y-85178900D01*
X92617711Y-82278600D01*
X97751900Y-82278600D01*
X97751900Y-88087200D01*
M02*
